<?xml version="1.0" encoding="utf-8"?>
<!-- Generator: Adobe Illustrator 19.2.1, SVG Export Plug-In . SVG Version: 6.00 Build 0)  -->
<svg version="1.1" id="svg4870" xmlns:svg="http://www.w3.org/2000/svg"
	 xmlns="http://www.w3.org/2000/svg" xmlns:xlink="http://www.w3.org/1999/xlink" x="0px" y="0px" viewBox="0 0 598.9 598.9"
	 style="enable-background:new 0 0 598.9 598.9;" xml:space="preserve">
<style type="text/css">
	.st0{fill:#FFFFFF;}
</style>
<g>
	<g>
		<circle style='border: 1px solid #fff' class="st0" cx="300" cy="300" r="300"/>
	</g>
	<path id="path4880" d="M14.5,208.3c0.1-0.2,219,0.8,219.1,0.7c0.1-0.1,65.6-209,65.7-209c0.2,0,66.9,208.5,67,208.6
		c0.1,0.1,219.1-2.2,219.1-2.1c0.1,0.2-177.7,128-177.7,128.2c-0.1,0.2,69.8,207.6,69.7,207.8c-0.1,0.1-176.7-129.4-176.8-129.4
		c-0.2,0-175.9,130.6-176.1,130.5c-0.1-0.1,68.5-208,68.4-208.2C192.9,335.2,14.4,208.5,14.5,208.3z"/>
</g>
</svg>
