<?xml version="1.0" encoding="iso-8859-1"?>
<!-- Generator: Adobe Illustrator 16.0.0, SVG Export Plug-In . SVG Version: 6.00 Build 0)  -->
<!DOCTYPE svg PUBLIC "-//W3C//DTD SVG 1.1//EN" "http://www.w3.org/Graphics/SVG/1.1/DTD/svg11.dtd">
<svg version="1.1" id="Capa_1" xmlns="http://www.w3.org/2000/svg" xmlns:xlink="http://www.w3.org/1999/xlink" x="0px" y="0px"
	 width="510.184px" height="510.184px" viewBox="0 0 510.184 510.184" style="enable-background:new 0 0 510.184 510.184;fill:#fff"
	 xml:space="preserve">
<g>
	<g>
		<polygon points="310.709,182.099 256.873,73.069 203.1,182.099 82.808,199.556 169.849,284.419 149.292,404.238 256.873,347.686
			364.518,404.238 343.966,284.419 430.996,199.556 		"/>
		<path style="fill:#000;background-color:#000" d="M255.092,0C114.435,0,0.005,114.43,0.005,255.098c0,140.662,114.43,255.085,255.086,255.085
			c140.651,0,255.086-114.424,255.086-255.085C510.19,114.43,395.766,0,255.092,0z M255.092,486.27
			c-127.467,0-231.171-103.704-231.171-231.171c0-127.479,103.704-231.184,231.171-231.184s231.171,103.705,231.171,231.184
			C486.275,382.565,382.571,486.27,255.092,486.27z"/>
	</g>
</g>
<g>
</g>
<g>
</g>
<g>
</g>
<g>
</g>
<g>
</g>
<g>
</g>
<g>
</g>
<g>
</g>
<g>
</g>
<g>
</g>
<g>
</g>
<g>
</g>
<g>
</g>
<g>
</g>
<g>
</g>
</svg>
