<svg xmlns:dc="http://purl.org/dc/elements/1.1/" xmlns:cc="http://creativecommons.org/ns#" xmlns:rdf="http://www.w3.org/1999/02/22-rdf-syntax-ns#" xmlns:svg="http://www.w3.org/2000/svg" xmlns="http://www.w3.org/2000/svg" xmlns:sodipodi="http://sodipodi.sourceforge.net/DTD/sodipodi-0.dtd" xmlns:inkscape="http://www.inkscape.org/namespaces/inkscape" width="734" height="715" id="svg2" version="1.1" inkscape:version="0.48.2 r9819" sodipodi:docname="Outline_Map_of_Adygea.svg">
  <defs id="defs4"/>
  <sodipodi:namedview id="base" pagecolor="#ffffff" bordercolor="#666666" borderopacity="1.0" inkscape:pageopacity="0.0" inkscape:pageshadow="2" inkscape:zoom="1" inkscape:cx="333.76304" inkscape:cy="357.5" inkscape:document-units="px" inkscape:current-layer="layer7" showgrid="false" fit-margin-top="0" fit-margin-left="0" fit-margin-right="0" fit-margin-bottom="0" inkscape:window-width="1920" inkscape:window-height="1059" inkscape:window-x="-6" inkscape:window-y="-6" inkscape:window-maximized="1" inkscape:snap-page="true" inkscape:snap-grids="false" inkscape:snap-to-guides="false"/>
  <metadata id="metadata7">
    <rdf:RDF>
      <cc:Work rdf:about="">
        <dc:format>image/svg+xml</dc:format>
        <dc:type rdf:resource="http://purl.org/dc/dcmitype/StillImage"/>
        <dc:title/>
      </cc:Work>
    </rdf:RDF>
  </metadata>
  
  
  <g inkscape:groupmode="layer" id="layer4" inkscape:label="Border" sodipodi:insensitive="true" style="display:inline">
    <path id="path3887" style="fill:none;stroke:#646464;stroke-width:2;stroke-miterlimit:4;stroke-opacity:1;stroke-dasharray:none" d="m 67.49973,161.75258 0.250799,-27.74989 0.248399,-9.37496 1.000796,0 0.1242,-8.75156 0.625797,0.1266 0.374999,-0.375 0,-1.7538 1.499994,0 0.250798,-0.74999 1.999193,0.378 0.749997,0.37199 2.249991,2.1288 0.874196,1.62419 0.126599,3.87418 0.2484,1.6266 0.501597,0.99839 0.623398,0.1266 1.251595,-0.2508 1.624194,-1.00079 0.874196,-0.8742 0.749997,-1.37579 0.250799,-1.125 1.000796,-1.62419 1.748393,-1.99919 3.625786,-0.2508 1.124995,0.62579 1.750793,1.5 0.1242,0.4992 -0.1242,1.24919 -0.374999,1.0008 -0.749997,0.74999 -1.499994,1.125 -0.749997,0.8742 -1.124995,2.12579 0.1242,0.87419 0.374998,0.8766 0.625797,0.6234 1.373395,0.2508 1.626593,1.00079 0.499199,0.4992 0.749996,2.24999 0.374999,1.7508 1.375794,2.49839 0.2484,0.12659 0.374998,0.9984 1.626593,2.12579 3.749983,2.74919 2.24999,1.0008 0.9984,-0.1242 0.75,-1.0008 0.375,-1.37579 0.12659,-3.37499 0.2484,-0.6234 0.375,-0.375 1.125,-0.37499 0.5016,0.1242 0.74999,0.49919 0.75,1.0008 0.4992,0.2508 0.62579,0.75 0.75,0.37499 1.6242,-0.12659 1.62419,-0.8742 0.5016,-0.1242 1.62419,0.4992 1.87499,2.50079 0.375,0.1242 0.8742,-0.2508 1.37579,-1.6242 0.375,-0.87419 0,-1.875 -0.375,-0.62579 -1.49999,-1.5 -0.4992,-0.74999 -0.5016,-0.375 -0.6234,-1.125 -0.25079,-1.75079 0.25079,-1.49999 1.125,-1.6242 4.74838,-1.12499 2.00159,-1.5 1.2492,-1.99919 0.4992,-1.125 0.87659,-1.00079 2.74919,-1.87499 0.8742,0 1.87499,0.74999 0.5016,1.7508 0,1.74839 -0.5016,1.75079 -1.99919,2.87579 -0.4992,1.49999 -0.1266,2.3742 0.2508,0.62579 0.375,0.375 1.87499,-0.2508 1.87499,-1.49999 3.49919,-1.6242 1.49999,-1.37579 2.50079,-1.24919 2.87579,-0.2508 1.125,0.1242 1.37339,1.00079 0.5016,1.6242 -0.1266,0.87659 -0.4992,0.75 -1.49999,1.24919 -0.75,1.0008 -0.375,1.24919 0,1.0008 0.4992,2.12339 0.6258,1.125 0.375,1.87499 0.1242,1.62659 0.87659,1.2492 0.75,0.4992 0.4992,0.62579 1.49999,1.0008 1.125,0 0.75,-0.6258 0.25079,-1.49999 -0.25079,-1.99919 0.74999,-2.62499 0.4992,-0.6258 1.125,-0.6258 1.62659,0 1.49999,1.3758 0.4992,0.62579 2.12579,0.9984 2.49839,-0.375 1.0008,0.5016 1.12499,-0.5016 1.0008,0.5016 0.4992,0.4992 0.2508,0.74999 0,0.375 -1.125,1.0008 0.375,2.37419 0.6234,1.2492 0,0.74999 0.2508,0.5016 0.1242,2.49839 -0.375,2.62499 0.5016,1.75079 0.87419,0.375 0.6258,-0.1242 0.9984,-0.75 0.74999,-1.37579 0.75,-2.87579 1.0008,-0.99839 1.37579,-1.0008 1.62419,0.2508 1.125,0.87419 1.75079,2.74919 0.9984,0.6258 0.75,0.2508 0.74999,0 1.5,-0.6258 1.25159,-1.00079 0.375,-0.1242 0.375,-0.8742 -0.1266,-1.37579 0.5016,-1.9992 0.62339,-0.37499 2.1258,0.87419 3.62578,-0.62579 0.6234,-0.2484 0.75,-1.2516 1.49999,-1.49999 2.00159,-1.125 1.125,-0.1242 0.74999,0.1242 0.375,0.2508 0.2484,0.6258 1.2516,0.375 0.74999,-0.1266 1.875,-1.3734 0.74999,-0.2508 0.8742,0.375 2.24999,1.75079 0.8742,0.2484 3.12658,-0.2484 4.62419,1.7484 1.37579,-0.2484 1.125,-1.125 1.37339,-0.74999 1.0008,-1.2516 1.37579,-0.8742 1.125,-0.25079 1.24919,0.87659 2.50079,3.49919 0.6234,0.4992 0.8766,0.1266 0.87419,-0.2508 0.1242,-0.375 -0.2484,-5.50078 0.375,-2.49839 1.125,-2.62499 0.99839,-1.12499 0.8766,-0.1266 1.12499,0.37499 0.4992,0.375 0.1242,0.5016 -0.1242,0.4992 -1.62419,1.24919 -0.2508,0.5016 7.00077,3.37499 0.4992,0 1.87499,-1.0008 0.2508,-1.12499 0,-2.37419 -0.375,-1.0008 0,-0.6258 0.2484,-0.2484 0.1266,-1.25159 1.2492,-3.24839 0.375,-0.5016 0.74999,-0.62339 1.2492,-0.1266 0.1266,0.375 -0.8766,1.37579 -0.375,1.0008 -0.1242,2.12339 0.6258,0.87659 1.49999,0.4992 2.1234,-0.375 0.74999,-0.375 3.50159,-4.99918 0.6234,-0.37499 4.12498,0.49919 1.62659,-0.37499 1.2492,-1.125 0.2508,-0.4992 0,-0.74999 -0.375,-0.8766 -0.1266,-2.49839 0.2508,-0.5016 0.74999,0.1266 1.2492,0.6234 1.62659,0.375 1.9992,-0.1242 1.99919,-0.75 1.75079,-1.49999 5.62498,-3.62579 0.4992,-0.75 -0.1242,-1.75019 0.87419,-4.62598 0.6258,-1.248 0.8742,-0.62399 0.375,-0.126 3.74998,0.498 0.6258,-0.246 0.62579,-1.254 -0.12659,-0.996 -0.8742,-1.25399 -0.1242,-0.876 0.2484,-1.24799 0.375,-0.624 0.62579,-0.624 0.75,-0.252 1.3758,0.498 0.74999,0.63 1.7484,0.996 0.87659,0.126 0.6234,-0.372 0.8766,-1.128 0.74999,-2.249992 -0.1266,-1.499994 0.2508,-1.121996 0.375,-0.629997 1.75079,-1.499994 0.4992,-0.623998 0.8742,-0.125999 0.5016,0.125999 0.62339,0.503998 0.2508,0.371999 0.8742,0.623997 1.125,0.377998 0.62579,0.623998 1.3758,0.623998 0.375,0.377998 0.74999,0.12 0.375,-0.371999 0.9984,-2.123992 0.1266,-0.623997 -0.1266,-0.629997 -0.9984,-1.247995 -0.6258,-0.497999 -0.74999,-0.875996 -0.4992,-0.377998 -0.8766,-0.246 -0.2484,-0.875996 0.2484,-0.497998 0.75,-0.251999 0.75,0.251999 0.2508,0.245999 1.99919,0.623998 1.25159,-0.623998 0.1242,-0.875996 -1.24919,-2.123992 -0.1266,-0.371999 0.5016,-1.001995 0.87419,-0.749997 0.4992,-0.251999 0.8766,-0.12 1.12499,-1.001996 0.4992,-0.377998 2.87579,-0.749997 1.49999,-0.12 0.4992,-0.377998 1.75079,-4.625982 2.74919,-4.247983 0.75,-0.251999 3.25079,-0.125999 1.12499,0.125999 1.2492,0.503998 0.87419,0.12 0.8766,-0.869997 0.375,-1.253995 0.1242,-5.123979 0.4992,-1.997993 0.25079,-2.003991 0.375,-0.623998 0.75,-0.497998 1.87499,-0.749997 0.6258,-0.623998 0.4992,-1.001995 0.6258,-0.497999 3.24838,-1.625993 0.8766,-0.251999 1.99919,0.251999 0.75,-0.251999 0.75,-0.623997 1.87499,-2.74799 1.00079,-0.749997 3.49919,-1.001995 1.125,-0.497999 1.75079,-1.127995 1.24919,-0.125999 2.50079,0.251999 3.24839,1.751992 6.74997,2.873989 1.7508,0.371999 1.62419,0.875996 1.49999,1.625994 2.37659,1.751992 1.5,2.123992 0.2484,1.121996 -0.75,0.503997 -0.75,0 -0.87419,-0.623997 -1.0008,-0.251999 -0.9984,0.371999 0,0.377998 0.2484,0.251999 1.3758,0.371999 1.12499,1.877992 0.2508,2.873988 -0.375,1.745994 -0.25079,0.251999 -1.3758,-0.126 -0.375,0.875997 2.00159,2.123991 0.75,0.503998 -0.375,2.123991 0.2484,0.371999 0.5016,0.377998 0.4992,0 2.74919,-1.253994 0.50159,0.251999 0.1242,0.497998 -0.62579,1.253994 -0.4992,0.371999 -0.2508,1.001996 0.5016,0.749997 0.6234,0.125999 0.62579,-0.377998 0.6258,-1.499994 0.6234,-0.749997 0.5016,-0.125999 0.99839,0.377998 0.2508,0.623998 -0.8742,1.997992 0.1242,0.503997 0.75,0.749997 0.75,-0.251998 0.1242,-2.123992 0.87659,-0.749997 1.875,-0.623998 1.12499,0.623998 0.6234,1.499994 0.8766,1.373995 0.2484,0.875996 1.00079,1.121996 0.4992,1.253994 1.12499,0.749997 1.7508,1.247996 1.12499,-0.371999 0.8742,-0.749997 0.6258,-1.001996 0.62579,-0.251999 1.125,0 1.37339,1.001996 0.6258,0.251999 1.3758,0 1.49999,0.371999 0.1242,0.875996 -0.6258,1.751993 0.1266,1.121996 0.375,0.377998 0.4992,-0.126 0.375,-0.377998 0.2508,-1.373994 0.62339,-0.126 0.8766,0.503998 0.6234,-0.251999 0.74999,-1.001996 0.2508,-0.245999 1.2492,-0.126 1.00079,0.371999 0.6258,2.249991 1.2492,1.001996 0.375,2.999988 0.25079,0.371999 0.75,0.251999 0.6234,-0.371999 0,-0.749997 -0.4992,-1.001996 0.1242,-1.247995 0.5016,-0.377998 0.6234,0 0.50159,0.251998 0.2484,2.123992 0.2508,0.623998 0.375,0.125999 0.8742,-0.497998 0.2508,-0.503998 0.1242,-1.499994 0.37499,-0.245999 0.375,0.12 0.2508,0.749997 -0.2508,1.877992 0.1266,0.497998 0.9984,0.377998 0.5016,-0.125999 0.62339,-0.623998 0.6258,-1.001995 1.0008,-0.251999 0.74999,0.377998 -0.2508,1.121996 -0.74999,0.875996 -0.1242,0.749997 0.2484,0.875997 0.87659,0.623997 0.75,0 0.4992,-0.371999 0.375,-0.749997 0.1242,-0.749997 -0.2484,-1.373994 0.1242,-0.629997 0.62579,-0.869997 0.375,0.12 0.4992,0.503997 0.75,1.625994 1.24919,0.245999 0.8766,-0.245999 1.87499,0.12 0.4992,0.251999 0.375,0.497998 -0.375,1.751993 -0.375,0.497998 -0.1242,0.503997 0.2484,0.246 2.99999,-0.371999 0.8766,0.251999 1.37339,0.869997 2.00159,0.875996 0.9984,0.875997 0.375,0.498002 0.1266,0.63 -0.375,0.74999 -0.6258,0.75 -0.4992,0.372 -0.74999,1.87799 0,0.372 0.37499,0.252 0.9984,-0.252 1.0008,-0.75 -0.1242,-0.74999 -0.375,-0.624 0.1242,-0.378 3.62578,-1.37399 1.3734,-0.126 1.62659,-0.498 0.8742,0.74999 1.37579,-0.25199 0.6234,-0.372 0.75,-0.126 0.375,0.126 0.50159,1.12199 0.6234,0.126 0.75,-0.246 0.87659,-0.62999 1.3734,0.126 1.12499,1.62599 0,0.498 -0.87419,0.37799 -0.1242,0.876 0.99839,1.122 1.2516,0.252 0.6234,-0.252 0.50159,-0.624 0.9984,-0.126 0.375,0.126 1.12499,1.37399 0.5016,0.126 0.375,-0.126 0.375,-0.49799 0.2484,-1.878 0.2508,-0.62399 0.62579,-0.624 1.125,0.252 0.8742,1.24799 0.4992,0.126 1.75079,-0.624 0.375,-0.87599 -0.2508,-1.128 0.2508,-0.62399 0.74999,-0.372 1.7508,0.62399 1.49999,1.626 0.375,0.126 0.75,-0.378 1.37339,-1.5 0.1266,-0.87599 1.99919,0.504 0.6258,0.62399 0.6234,0.246 1.00079,-0.372 0.2508,-1.12799 0.6234,-0.750001 2.62499,-1.619994 0.2508,-0.377998 0.75,-0.251999 0.12419,0.251999 -0.37499,0.497998 0.1266,0.749997 1.87499,1.499998 0.99839,-0.624002 -0.2484,-1.247995 0.2484,-0.251999 0.5016,0.251999 0.8742,1.121996 0.4992,0 0,1.002001 -0.2484,0.378 0.4992,0.86999 0.37499,0.126 0.75,-0.498 0.1242,-0.87599 -0.1242,-0.624 0.1242,-0.252002 0.6258,0.378002 0.74999,0.126 0.8742,-0.750001 0.5016,-1.877992 0.375,-0.623998 0.375,-0.251999 0.37499,-0.497998 0,-1.127995 0.2484,-0.246 0.5016,0 0.4992,0.371999 0.2508,1.625994 0.375,0.749997 0.6234,0.749997 0.62579,0.497998 0.8742,-0.246 0.375,-0.623997 -0.1242,-1.001996 -0.2508,-0.497998 -0.75,-0.749997 0,-0.251999 0.6258,-0.875996 1.49999,0 1.6242,0.377998 0.74999,0 0.5016,-0.251999 1.3734,-1.751993 1.37579,-0.875996 2.50079,-0.246 0.6234,0.371999 0.87659,1.253995 0.8742,0.12 1.0008,-0.246 0.4992,-2.501989 0.62579,-0.497999 1.6242,-0.749997 3.74998,0.246 1.75079,1.253994 0.1242,0.246 0.2508,0.125999 0.2484,1.253995 0.6258,0 0.1242,-0.503998 -0.2484,-0.995996 0.2484,-1.127995 0.2508,-0.371999 0.375,-0.126 0.62579,0.623998 0.1242,0.497998 -0.2508,1.001996 0.2508,0.251999 1.2492,0 0.375,0.371999 -0.1242,1.625993 0.1242,0.497998 1.49999,0.126 0.1266,-0.371999 -0.375,-0.251999 -0.2508,-0.749997 0.1242,-0.749997 0.5016,-0.623998 1.2492,-0.125999 0.74999,0.251999 0.2508,-0.629997 0.75,-0.12 0.375,0.12 0.2484,0.875996 0.50159,0.749997 1.5,-0.623997 0.2484,-0.371999 0.375,0 0.50159,0.497998 0.375,1.121996 1.125,-0.246 0.87419,-0.623997 0.2508,-0.503998 0.75,-0.245999 0.375,0.623997 0.6234,0.371999 0.37499,0 0.5016,-0.623997 0.1242,-0.623998 2.12579,-0.377998 0.75,0.377998 0.75,0.125999 2.24999,1.499994 0.99839,-0.251998 0.1266,0.497998 -0.1266,0.629997 -0.24839,0.245999 -0.8766,0.251999 -0.1242,0.371999 0.2508,0.377998 1.37339,0.497998 0.375,0.875997 1.0008,0.377998 0.2508,0.245999 0,0.503998 -0.2508,0.12 -0.1242,0.251999 0.375,0.875996 -0.1266,0.251999 0.1266,0.245999 0.2484,0 0.62579,-0.623997 0.75,-0.126 1.0008,-0.497998 0.49919,0 0.75,0.497998 0.6258,-0.125999 0.375,-0.371999 0,-0.749997 0.74999,-0.875996 0.4992,-0.371999 1.99919,0.12 1.2516,0.629997 0.1242,0.371999 -0.4992,0.749997 0,0.497998 1.49999,1.001996 0.375,0.876002 0.1242,1.37399 0.4992,0.876 1.49999,0.87599 0.6258,0.996 -0.2508,0.504 -0.375,0.246 -0.99839,-1.122 -1.2516,0 -0.37499,0.252 0.12659,0.75 1.6242,0.498 0.2508,0.49799 -0.375,0.624 -1.2516,0.378 -0.2484,0.498 0.2484,0.378 0.75,0.246 1.125,0 0.37499,0.25199 0.2508,0.75 -0.375,0.378 -1.12499,0 -0.4992,0.246 -0.1266,0.252 0.2508,0.372 1.0008,-0.12 0.62339,0.372 0.375,0.62399 -0.375,0.504 -0.99839,0.246 -0.5016,0.504 0.1266,0.372 0.375,0.252 2.99999,0.24599 0.49919,0.63 1.0008,0.6222 0.75,-0.1242 0.4992,0.75 0.62579,0.2508 0.75,-0.1266 1.37339,-0.6234 0.6258,0 0.8742,0.375 0.2508,0.6234 -0.4992,1.25159 -0.5016,0.6234 0,0.5016 0.5016,0.49919 0.8742,0 1.00079,-0.62579 0.1242,-1.5 0.375,-0.1242 0.75,0.375 0.4992,1.125 1.00079,1.24919 0.6258,0 0.4992,-0.4992 0.1242,-1.12499 0.37499,-0.375 0.6258,-0.1242 0.75,0.1242 0.2508,0.375 -0.6258,1.49999 -0.8742,0.4992 -0.74999,0.8766 -0.8766,0.49919 -0.1242,0.375 0.1242,0.375 0.375,0.375 0.8766,-0.1242 0.99839,-0.6258 0.6258,-0.62579 0.8742,0.12659 0.25079,0.75 2.62499,-2.87579 5.24998,4.37579 3.62579,3.37498 3.12419,3.74999 3.74998,5.12338 3.74999,4.12498 0.49919,-0.375 0.8766,1.3758 0.6234,-0.375 0.75,0.375 0.12659,1.99919 2.37419,3.37499 1.2492,1.00079 0.6258,1.125 -0.1242,0.37499 0.87419,1.0008 8.12697,6.74997 3.37199,2.74919 2.87399,1.5 0.62999,1.12499 4.61999,3.37499 3.62998,4.12498 0.12,1.87499 0.75,5.12578 1.75199,1.7484 0.876,2.75159 -1.752,1.62419 0.126,0.2508 -0.37199,0.2484 0.74999,1.25159 0.624,0.75 0.996,0.375 0.37799,0.75 0.624,0.12419 1.626,3.37499 0.87599,0.6258 4.49998,6.12417 -0.126,0.4992 0.252,0.375 1.248,0.5016 0.87599,-0.1266 0.75,-0.375 0.75,0.1266 0.126,0.4992 0.246,0.2508 1.75199,0.6234 0.372,0.25079 0.126,0.375 -0.246,0.6258 -0.504,0.6234 -1.99799,1.87499 0.498,4.25158 0.378,0.2484 0.37199,0.6258 0.126,0.8742 0.378,0.1266 -0.126,0.87419 0.372,1.2492 0.126,2.99999 1.002,0.12659 0.99599,1.6242 0.378,0.1242 0.372,-0.1242 0.252,0.1242 0,0.375 -0.498,0.37499 0.246,0.8766 0.378,0 0.252,0.2484 -0.126,1.37579 0.624,1.125 -0.126,1.37579 0.62399,1.125 0.504,0 0.996,0.6234 0.252,-0.1242 1.12199,0.375 0.75,0.87419 0,0.75 0.504,1.0008 0.372,0.1242 0.37799,0.37499 0.75,0.1266 0.75,1.2492 -0.126,1.00079 0.75,1.2492 0.37199,1.24919 -0.12,0.5016 1.122,2.62499 0,0.4992 1.248,1.0008 0.12599,0.37499 -0.87599,0.8742 0.252,0.75 -0.372,0.6258 0.12,0.49919 -0.246,0.75 -0.378,0.2508 -0.126,0.9984 -0.372,0.12659 -0.126,0.9984 1.248,1.5 0.252,0.50159 0,0.6234 0.62399,0.75 0.252,0.74999 0.624,0.8766 0.126,0.6234 0.498,0.1266 0.252,0.375 -0.378,1.87499 -0.246,0.375 -0.126,0.74999 0.75,0.75 0.372,1.62419 0.126,2.50079 -0.126,0.75 0.50399,0.8742 0,0.4992 0.996,1.12499 0.75,0.2508 0.74999,2.62499 -0.49799,0.75 0,0.87419 1.00199,1.7508 0.126,1.24919 -0.252,0.5016 -0.378,0.1242 -0.49799,0.6258 0,0.375 1.12799,0.87419 0.12,1.3758 5.12998,-2.0016 -0.252,1.5 0.126,0.87659 -0.378,0.375 0,0.6234 0.378,0.1266 0.246,0.75 0.63,0.4992 0.62399,-0.1242 0.246,0.2484 -0.12,0.50159 0.87,0.6234 -0.624,0.8766 0.378,0.62339 0.624,0 0.372,1.0008 -0.12,1.0008 1.49999,2.24999 0.246,1.62419 1.374,2.24999 0.50399,1.2492 0,0.74999 0.246,0.2508 0.252,1.0008 0.876,2.24999 0.624,-0.1266 0.49799,1.0008 1.626,0.74999 0.252,0.4992 -0.126,1.75079 1.00199,0.8742 0.372,0.8766 -0.246,0.4992 -0.62999,0 0.50399,0.87419 3.49799,2.24999 0.498,0.1266 0.74999,-0.1266 0.252,1.125 0.624,0.75 0,0.37499 0.504,0.8766 0.624,0 0.74999,2.62499 0.876,1.62419 0.12,0.8742 -0.12,0.6258 0.246,1.00079 -0.126,0.75 0.252,1.87499 -1.374,2.62499 0.372,1.2492 -0.99599,0.375 -0.252,0.25079 -0.126,0.9984 -0.624,0.5016 -0.126,0.4992 0.378,0.87419 -0.126,1.0008 0.498,0.75 -0.246,0.49919 -0.504,0.375 -0.126,1.125 0.378,0.75 -0.126,0.50159 -1.49999,0.4992 0.62399,0.75 0.378,1.12499 -0.87599,0.6258 0.12599,1.3734 0.876,0.74999 1.122,1.5 0,0.50159 -0.372,0.6234 0.87,1.875 0.62999,1.62659 -0.62999,0.87419 0.50399,1.2492 -0.126,0.6258 0.126,0.62579 0.624,0.9984 -0.126,0.5016 0.252,0.375 1.37399,0.6234 0.624,0.74999 0.498,-0.1242 0.252,0.375 -0.372,1.0008 -0.75,0.87419 1.248,1.5 0.75,1.49999 -0.126,0.4992 0.37799,0.75 -0.50399,1.25159 0.252,0.6234 0.62399,0.5016 1.002,1.87499 0.372,0.2484 0.252,0.375 0.372,2.75159 0.25199,0.37499 0.876,0.4992 0.498,0.8742 0.624,-0.1242 0.62999,0.8742 1.374,-0.2484 1.12199,0.99839 0.126,0.375 -0.372,1.3758 0.246,0.87419 0.624,0.5016 -0.624,1.2492 0.378,1.99919 -0.378,0.375 0.252,1.00079 -0.126,0.6258 -12.37195,0.2484 -34.62586,-0.2484 -0.504,-4.75078 0.504,-2.99999 11.12396,0.375 1.37399,-0.1242 0.126,-8.87577 -0.252,-6.49917 -0.87599,-4.49998 1.62599,-1.3758 1.49999,-2.50079 0.624,-2.99998 -2.12399,-4.74838 -3.62399,-7.37578 -2.37599,-4.12498 0.252,-22.00071 -7.24797,-0.1242 -0.63,-7.24917 -15.24594,-0.375 0.372,-4.75078 -0.372,-30.62568 -0.62399,-1.62419 -9.62996,-0.2508 -3.37199,0.6258 0,-4.87498 1.62599,-4.12499 -11.00395,0.375 -18.24713,-0.2508 0,11.37656 5.74918,0.1242 -0.1242,9.12416 -9.50157,0 0,-4.37338 -3.74998,-0.375 0,3.12419 -10.74836,0 0,0.37499 -0.74999,-0.25079 0,0.50159 0.37499,0.1242 -0.1266,1.2492 0.2508,0.375 -0.37499,0.62579 0,1.0008 0.25079,0.6234 0.9984,0.1266 0.6258,0.87419 -1.2492,0.4992 -0.5016,1.0008 -0.37499,1.24919 -0.4992,0.1266 0.1242,0.2484 0.5016,0.1266 0.87419,-0.75 0.375,0 -0.1242,1.125 -0.375,0.1242 -0.2508,1.00079 -0.62579,-0.37499 -0.2484,0.49919 0.62339,0.6258 -0.37499,0.8742 0.37499,0.1242 0.75,0.6258 0.2508,-0.2508 0.8742,0 0.1266,0.62579 0.2484,0.1242 0.12659,0.375 0.375,0.2508 0.1242,0.75 -0.2508,0.74999 1.7508,0 0.74999,0.2508 -0.37499,0.6234 0.1242,0.2508 -0.4992,0.6258 0.375,0.2484 1.37579,-0.2484 -0.1266,-0.5016 0.375,-0.2484 0.75,1.49999 -0.2484,0.4992 0,0.4992 0.375,0.1266 0.24839,0.4992 0.75,-0.2508 0.5016,-0.6234 -0.1266,-0.5016 -0.2484,-0.1242 -0.375,0.2508 -0.2508,-0.50159 0.6258,0 0.9984,-0.2484 0.1266,0.49919 0.87419,0.6258 0.2508,-0.375 0.4992,0.375 0.1242,0.8742 -0.1242,0.4992 -1.0008,0.50159 -0.1242,0.2484 0.375,0.375 -0.2508,0.375 -0.49919,0.375 -0.1242,0.6258 -1.125,0 -1.37579,-1.5 -0.2508,-1.37579 -0.375,-0.375 -0.375,0.2508 -0.375,1.24919 -0.4992,-0.2484 -0.37499,0.375 -0.8742,0.2484 -1.5,0 -0.37499,0.6258 -1.3758,0.8742 -1.00079,1.12499 -1.875,1.0008 -0.2484,0.62579 0.375,1.2492 -0.1266,0.2508 -0.37499,-0.2508 -0.375,0.2508 0,0.6234 -0.375,0.1266 -0.8742,0.87419 -0.75,0 -0.25079,0.4992 -0.375,0.2508 -0.4992,-0.1242 -1.2492,1.37339 0,0.75 -0.25079,0.2508 0.25079,1.0008 -0.50159,0.87419 -0.1242,0.75 0.2508,0.375 0,1.62419 -0.5016,0.1266 -0.1242,0.9984 0.87419,2.75159 0.375,0.2484 -0.1242,0.87659 0.375,0.4992 0.4992,-0.375 0.2508,0.6258 0.4992,-0.1266 0.1266,0.5016 -0.2508,0.375 0.1242,0.74999 0.50159,0 0.1242,0.375 0.375,0.375 -0.2508,0.6234 0.2508,0.2508 0,0.74999 -1.12499,2.50079 1.87499,2.49839 -3.49919,7.00078 8.74917,1.99919 7.49997,18.37492 0.6258,-0.1242 0.49919,-0.49919 1.3758,-0.2508 0.75,0.375 1.62419,-0.75 0.6258,0.2508 -0.6258,1.12499 -0.6258,0.1242 0,1.2492 -0.2484,0.6258 0.8742,0.49919 0.8742,1.125 0.50159,-0.1242 0.6234,0.375 -0.1242,0.4992 -0.74999,0.50159 0,0.2484 0.37499,0.2508 0,0.375 -0.37499,0.4992 0.37499,1.25159 0.4992,-0.1266 0.5016,0.5016 0.75,-0.375 0.1242,0.2484 -0.375,0.75 -0.6258,-0.375 -0.2484,0.2508 0,0.6258 -0.6258,-0.375 -0.2508,0.1242 0.1266,0.75 -0.25079,0.37499 -0.375,0.2508 -0.375,-0.74999 -0.6258,0.62339 0.1266,1.125 -0.2508,0.375 -0.375,-0.375 -0.4992,-0.1242 -0.62579,0.4992 0,0.5016 0.4992,-0.1266 0.37499,0.37499 0,0.375 -0.74999,0 -0.2484,1.0008 -0.75,0 -0.375,0.2508 0,0.4992 -0.5016,0.87419 0.375,0.2508 0.1266,0.375 -0.6258,0.2508 -1.00079,0.8742 0.375,1.37579 -0.2484,0.4992 -0.8766,-0.1242 -0.6234,0.1242 0,1.24919 -0.74999,-0.375 -0.1266,0.6258 -1.125,0.1242 -0.2484,0.5016 -0.50159,0.2484 0.74999,0.375 -0.1242,0.2508 -0.4992,0.1242 -0.25079,1.25159 0.25079,0.2484 0.4992,-0.4992 0.4992,0.1242 0.5016,0.5016 0.2484,-0.2508 0.2508,0 0.1242,0.4992 -0.75,0.75 0,1.12499 0.8766,-0.1242 0.37499,0.375 -0.1266,0.6258 0.5016,0.375 -0.1266,0.49919 0.6258,0.2508 -0.1242,0.4992 0.6234,0.375 -0.2484,0.75 0.375,0.49919 0.74999,0.375 -0.12659,0.2508 -0.8742,0.375 0,0.375 0.8742,0 0.25079,0.2508 -0.25079,0.6234 0.37499,0.37499 0.75,-0.2484 0.2508,0.1242 -0.4992,0.8742 0.1242,0.375 0.75,-0.1242 0.6258,0.6258 0,1.24919 0.49919,0.75 -0.37499,0.4992 -0.8742,0.375 -0.5016,0.50159 1.125,0.375 -0.2484,0.2484 -0.1266,0.5016 0.75,-0.1266 -0.1242,0.375 -0.375,0.1266 0.1242,0.2484 0.87659,0 0.1242,0.50159 -0.4992,0.2484 0.2484,0.2508 -0.49919,0.75 0.62579,0.4992 -0.2508,0.375 0.4992,0.25079 0.1266,0.375 0.2484,0 0.2508,0.375 -0.375,0.2508 -0.1242,0.2484 0.75,0.75 0.2484,1.12499 0.2508,0.2508 -0.2508,0.75 -0.6234,-0.2508 -0.2508,0.2508 0.8742,0.2508 5.99997,0.375 6.49978,23.6249 1.87799,7.37337 6.12598,13.87495 -3.25199,1.75079 -0.624,0.75 -1.00199,0 -2.25,0.62579 -1.37399,1.125 -0.2502,2.24999 -0.75,2.12339 -0.87659,1.3758 -0.4992,0.1242 -1.0008,1.62659 -0.375,0.9984 -0.49919,0.25079 -0.6258,0.6258 -0.75,0.2484 -1.99919,0.1266 -1.49999,0.4992 -7.75077,5.50078 -2.62499,2.37419 -2.49839,1.87499 -1.2516,0.6258 -5.24998,4.24918 0.75,1.2492 0.2508,0.25079 7.37577,16.62414 2.49839,5.24998 -0.2484,2.99998 0.9984,2.37659 0,0.75 1.25159,2.37419 0.2484,0.8742 0.75,0.8766 0.1266,0.37499 -0.2508,0.9984 -0.8742,1.0008 -0.6258,0.1242 -0.37499,0.74999 0.62579,1.0008 -0.1266,0.75 0.6258,0.74999 -0.1242,0.6258 0.9984,0.6234 0.1266,0.375 1.12499,0 -1.37579,3.87658 0,3.24839 3.12419,1.62659 0.74999,0.6234 1.6266,2.62499 0.99839,1.37579 0.6258,1.7508 1.0008,0 -1.2516,1.24919 -0.9984,1.87499 0.2484,4.75078 -0.99839,3.62339 -0.8766,5.75158 -1.87499,3.37498 -0.1242,0.8742 4.87498,4.62418 0.6258,6.87657 2.24999,2.62499 0.6234,2.12339 2.24999,3.74999 0.50159,2.00159 0.1242,1.62419 0.2508,0.6258 1.2522,0.75 0.498,0.4992 0.126,1.12499 0.37199,1.125 1.5,1.62419 1.37399,3.50159 0.378,2.87339 0,1.62659 0.372,1.49999 0.504,0.75 2.12399,0.9984 0.252,1.12499 -1.002,0.6258 -0.126,0.75 0.126,1.00079 -1.87799,0.6234 -2.36999,-0.4992 -1.002,0.375 -1.37399,0 -0.7512,0.6258 0.1242,1.62419 -0.75,1.75079 -1.49999,0.75 -1.62419,0.2484 -3.87659,1.2516 -2.37419,0.1242 -1.99919,0.37499 -0.8766,1.2492 -0.49919,1.75079 -0.1242,2.50079 -0.5016,2.87339 0.1266,2.24999 -1.125,3.50159 0.375,0.87419 -0.375,1.7508 0.1242,1.37339 -0.1242,1.75079 1.87499,2.1258 0.1242,0.49919 1.5,0.75 1.75079,1.75079 -0.1266,0.9984 -0.87419,0.8766 0.12419,0.87419 -0.49919,1.5 -2.37419,1.62419 -1.125,1.62659 0,0.8742 -0.2508,0.6258 0.2508,1.99919 -0.8766,0.8742 -1.49999,5.24998 0,1.12499 -0.75,3.37499 0,1.62659 -0.375,0.4992 -2.24999,1.24919 -0.49919,0.8766 -0.8742,0.6234 0,4.25158 0.6234,2.49839 -0.1242,0.8766 -1.125,1.87499 -0.4992,1.87499 -0.87659,0.8742 -0.2484,1.62419 0.1242,2.75159 -0.6258,1.5 -0.75,0.62339 -0.2484,0.5016 -0.62579,0.4992 -2.74919,-0.375 -1.3758,0.4992 -0.2508,0.2508 -0.99839,0.1242 -0.75,-0.375 -0.6258,-0.1242 -0.62579,-0.2508 -0.375,0.1266 -0.6234,-0.375 -0.6258,0.1242 -1.37579,-1.0008 -2.37419,-0.49919 -0.75,-0.6258 -0.375,-1.125 -4.75078,0.1266 -1.37339,0.75 -0.2508,0.375 -0.1242,1.24919 -0.75,1.3758 -0.375,0.99839 -0.375,0 -0.1266,0.375 -0.37499,0.1266 -0.2484,0.375 -0.5016,0.375 -0.375,0.4992 -1.99919,1.62419 -1.3758,0.75 -0.74999,0 -0.8742,-0.4992 -0.4992,0.375 -1.00079,-0.2508 -1.3758,0.6258 -1.74839,-0.6258 -0.75,-0.1242 -0.6258,0.1242 -0.87419,-0.4992 -1.125,-1.75079 -0.5016,0 -0.24839,0.2508 -0.5016,-0.2508 -0.8742,-1.2492 -0.1242,-0.87419 -1.00079,-1.0008 -0.1242,-0.4992 -0.75,-0.375 -0.5016,-0.50159 -0.75,0.25079 -0.87419,-0.12419 -0.375,-0.5016 -1.62419,-0.2484 -0.1266,-0.8766 -0.1242,-0.2484 -0.2508,-0.1266 0.375,-0.62339 0.1266,-0.8766 -0.375,-0.2484 -0.2508,-0.375 0,-0.87659 -0.375,-0.375 0.2508,-0.375 0,-0.6234 -0.2508,-0.375 -0.75,-0.6258 -0.2508,-1.00079 -0.37499,-0.1242 -0.9984,-1.125 -0.1266,-0.62579 0.5016,-1.5 -0.2508,-1.87499 0.2508,-0.375 0.375,-3.62338 -0.6258,-0.2508 -0.4992,-0.375 -0.5016,-0.1242 -0.1242,-0.6258 -0.375,-0.1242 0,-0.2508 -0.25079,-0.2508 -0.2484,-0.74999 0.62339,-0.9984 0,-0.375 -0.37499,-0.375 -0.2484,-2.37659 -0.8766,-0.99839 -0.1242,-0.375 -0.2508,0 -0.375,-0.75 -0.2484,-0.1266 -0.37499,-0.87419 -0.8766,-0.75 -0.1242,-0.8742 0.375,-0.5016 0.2508,-2.24999 0.1242,-0.49919 1.75079,-2.1258 0,-0.74999 -0.75,-2.87339 -0.74999,-0.375 -0.6258,-1.62659 -0.4992,-0.375 -1.0008,-0.2484 -0.25079,0.1242 -0.1242,-0.1242 -1.5,0.75 -0.8742,-0.1266 -1.49999,0.50159 -0.75,-0.25079 -0.25079,0.87419 -1.0008,0.375 -0.1242,0.5016 -0.75,0.2484 -0.1242,0.5016 0.1242,0.49919 -0.2508,0.2508 -0.37499,0.9984 -0.2484,0.375 -0.75,0.50159 -0.5016,0.1242 -0.6234,0.6258 -0.375,0.1242 -1.75079,-0.375 -1.37579,-0.87419 -0.4992,-0.1266 -0.2508,-0.4992 -1.12499,-0.2508 -0.2484,-0.375 -0.6258,0.1266 -3.62579,-1.0008 -1.99919,-1.12499 -1.24919,0.1242 -0.2508,0.375 -0.375,0.1266 -0.375,-0.1266 -0.2508,0.1266 0.2508,0.62339 -0.375,1.7508 -0.6258,0.74999 -0.1242,1.125 -1.00079,1.0008 -0.1242,0.74999 0.4992,0.75 -0.375,0.8742 -0.9984,1.12499 -0.5016,0.375 -1.62419,-0.375 -0.2508,-1.24919 -0.2484,-0.375 -0.375,-0.1266 -0.50159,-0.6234 -0.4992,-0.1266 -0.2508,-0.2484 -0.1242,-0.62579 -0.75,-0.2508 -0.62579,-0.6234 -1.3734,-2.62499 -0.6258,-0.5016 0.2508,-0.99839 -0.1266,-0.375 -0.49919,-0.375 -0.75,0 -0.75,-0.75 -0.4992,-0.1266 -0.87659,-1.12499 -0.375,0 -0.6234,-0.75 -0.1266,-0.375 -2.74919,-1.49999 -0.6258,-0.8742 -1.24919,-0.2508 -0.8742,0.1266 -0.74999,-0.1266 -0.2508,0.2508 -1.9992,0.375 -0.37499,-0.375 -0.75,-0.1242 -0.2508,-0.6258 -2.12579,-1.00079 -0.6234,0.1266 -0.1266,-0.2508 0.375,-0.1242 0,-0.2508 -0.375,-0.2508 -0.2484,-0.375 0,-0.4992 -0.62579,-0.74999 -0.2508,-1.125 -0.8742,0.2508 0.1242,-0.5016 -0.75,-0.99839 0,-0.8766 -1.12499,-0.9984 -0.1242,-0.37499 -0.6258,-0.375 -0.4992,-0.6258 -0.6258,-0.375 -0.24839,-0.375 -0.375,-0.2508 -0.1266,-0.74999 -0.8742,0.1266 -1.49999,-1.125 -0.375,-0.1266 -0.2508,-0.4992 -0.8742,-0.375 -0.375,-1.12499 -0.62579,-0.2508 -0.9984,-1.49999 -1.00079,-0.6234 -0.6258,-1.3758 -1.125,-0.74999 -0.99839,-1.125 -0.375,-0.75 -0.6258,-0.49919 -0.75,-1.0008 -0.2508,-1.24919 -0.37499,-0.1266 -0.2484,-0.4992 -0.2508,-1.3758 -0.6258,-1.12499 -0.4992,-0.6234 -0.2508,-0.1266 -0.375,-0.4992 0,-0.2508 -0.24839,-0.1242 0.24839,-0.74999 -0.12419,-1.7508 -0.4992,-1.24919 -0.375,-0.4992 -2.00159,-0.375 -0.8742,-0.375 -1.2492,-1.12499 0,-0.2508 -0.25079,-0.1242 -0.1242,-0.5016 0.49919,-1.49999 0,-0.4992 -0.25079,-0.1242 0,-0.2508 -0.6234,-0.375 -0.375,-0.62579 -4.25158,-0.6234 -1.7484,8.62496 2.99999,5.99998 -7.49997,2.37419 -0.1266,-0.1242 -0.2484,0.1242 -0.2508,-0.375 -0.62579,-0.1242 -1.2492,1.6242 -1.62419,0.49919 -1.2516,-0.49919 -0.87419,0.37499 -0.8742,0.8742 -1.49999,0.5016 -2.37659,1.12499 -1.5,0.1242 -0.6234,-0.1242 -1.49999,-0.74999 -0.6258,-0.1266 -0.4992,-0.4992 -0.62579,0.1242 -0.8742,-0.6234 -0.5016,0 -1.37339,-0.87659 -1.2516,-0.375 -2.62499,-0.375 -1.12499,-0.375 -0.6234,-0.6234 -0.2508,-1.62659 -1.00079,-0.6234 -0.9984,-1.00079 -0.2508,-1.3758 -0.4992,-0.2484 -0.87659,-1.49999 -0.6234,-1.87499 -0.75,-0.8766 -2.00159,-0.9984 -1.125,-1.25159 2.62499,-2.24999 7.49997,-4.99918 1.5,-1.125 0.74999,-0.8742 -0.37499,-1.00079 -0.4992,-0.2508 -1.75079,-0.375 -3.24839,-3.12419 -0.75,-1.00079 -0.1266,-1.7484 0.75,-3.74998 -0.6234,-2.00159 0,-0.9984 0.8742,-3.62578 0.4992,-1.9992 2.12579,-5.24997 3.12418,-5.50078 2.87579,-3.87419 0.75,-5.75157 -0.6258,-2.49839 -3.99838,-6.50158 -0.8766,-1.62419 -0.6234,-2.12579 -1.62659,-3.37499 -1.74839,-2.99999 -1.6266,-1.37339 -1.24919,-0.375 -3.49919,-0.2508 -0.50159,-0.2508 -0.375,-0.4992 -0.375,-2.62499 -1.74839,-1.87499 -0.2508,-1.00079 -1.7508,-2.25 0.8766,-2.74918 0.1242,-2.50079 -0.1242,-0.8742 0.4992,-0.75 1.12499,-0.87419 1.125,-0.375 0.8742,-1.0008 -0.375,-0.6258 -1.875,-2.12339 -0.1242,-1.37579 11.74916,-0.2508 4.25158,0.1266 3.49919,-0.2508 6.37497,-1.0008 3.12419,-0.375 2.24999,4.37579 0.6258,0.74999 0.87419,2.1258 -0.62339,1.74839 0.37499,1.00079 1.125,0.8742 -0.1266,0.6258 0.1266,1.49999 -0.6258,1.3758 -0.1242,0.99839 1.6242,1.3758 1.24919,1.99919 0.8766,3.37499 0.6234,1.49999 1.25159,2.00159 0.9984,0.1242 2.12579,1.125 0.8742,0 1.75079,0.74999 1.49999,0.8742 2.74919,2.37659 0.8766,1.125 0.74999,1.49999 4.49999,2.37419 1.99919,-0.75 1.87499,-0.37499 0.2508,-0.4992 -0.1266,-0.2508 0.375,-0.2508 0.5016,0.5016 0.74999,1.49999 0.1242,0.75 0.375,0 0,1.12499 -0.375,0 -0.74999,0.6234 -0.4992,1.125 0.6234,1.37579 0.37499,0.1242 0.2508,0.5016 1.0008,0.6234 0.375,-0.2484 0.74999,0 0.375,0.87419 0.375,-0.37499 0.75,1.12499 -0.5016,1.0008 0.75,0.1242 1.12499,1.00079 1.125,0.375 1.12499,-0.2508 2.87579,-1.75079 1.2492,-0.4992 0.5016,-1.00079 0.37499,-0.375 0.2484,0.1266 0.8766,-0.1266 1.2492,-1.125 -0.1242,-1.12499 -0.2508,-0.375 0.1242,-0.6234 0.50159,-0.2508 0.1242,-0.4992 -0.1242,0 -0.25079,-0.6258 -0.375,0 -0.1242,-0.87419 0.2484,-1.75079 -0.2484,-0.2508 -0.1266,-1.5 1.12499,-0.6234 0.375,-0.74999 2.37659,-2.24999 0.6234,-0.2508 0.1266,-0.6258 0.8742,-1.49999 0.49919,-0.4992 0.2508,-0.4992 0.4992,-0.2508 0.2508,-0.6258 0.8742,-0.87419 0.87659,-0.4992 0.75,-1.125 0.4992,-0.2508 0.4992,-0.74999 0.62579,-0.4992 0.4992,-0.8766 0.6258,-0.37499 0.1242,-0.1242 1.00079,2.37419 0.4992,0.25079 -0.2484,0.375 0.6234,0.8742 0.5016,0.375 0.1242,0.2508 0.2508,0 0,-0.1242 0.2484,-0.1266 0.74999,1.25159 1.2516,0.6234 0.2484,0.5016 0.2508,0 0,-0.1266 0.62579,0.1266 0.4992,-1.125 -0.1242,-0.1266 0.1242,-0.2484 0,0.2484 0.375,-0.2484 0.1242,0.2484 0.6258,-0.2484 0.375,-0.37499 0.1242,0.1242 0.37499,-0.1242 0.1266,0.74999 -0.1266,0.375 0.375,0 0.375,-0.5016 0.8766,-0.49919 0.4992,-0.8742 0.12419,-0.6258 -0.12419,-1.12499 -1.0008,-0.8742 -0.1242,-0.375 -0.4992,0.375 -0.2508,-0.2508 -0.1242,-0.75 0.2484,-0.1242 0,-0.12659 0.1266,0 0.1242,-0.4992 -0.1242,-0.2508 -1.12499,-0.1242 -0.2508,0.2508 -0.6258,0.1242 -0.2484,-0.2508 0.2484,-0.2484 -0.1242,-0.5016 -0.4992,-0.2484 -0.1266,0.1242 -0.2484,-0.375 -2.00159,-0.87419 -0.1242,-0.2508 -0.4992,-0.375 0.2484,0 0.375,-0.6258 0.6258,-1.37339 1.12499,-1.6266 -0.1242,-0.87419 -0.87659,-0.75 -0.8742,-1.2492 0,-0.25079 0.75,-0.75 0.1242,-0.375 -0.2484,-1.87499 0,-0.4992 0.75,-1.25159 0.62339,-0.375 0.2508,-0.375 1.2492,-0.75 0.75,-0.1242 0.87659,-0.8742 -1.49999,-4.75078 -1.0008,-1.49999 0.1242,-0.4992 0.2508,-0.2508 -0.375,-0.87419 -0.1242,0 -0.1266,0.99839 -0.74999,-1.49999 0.50159,-2.24999 -0.1266,-2.62499 -0.37499,-1.125 0.50159,-3.62338 -0.50159,-0.75 -0.4992,-0.375 -1.875,-0.375 0.2508,-1.00079 0.9984,-1.0008 0,-1.62419 4.49998,-6.12418 0.75,-1.25159 0,-0.375 -0.8742,-0.4992 -1.99919,-0.1242 -0.75,-0.375 -1.62659,-1.75079 -0.4992,-1.125 -0.6258,-0.37499 -0.87419,-2.1258 -1.0008,-0.74999 -3.49918,-0.375 -0.4992,0.1266 -0.8766,-0.375 -0.87419,0.1242 -1.0008,0.4992 -2.24999,0.375 -3.74999,0 -2.87339,0.25079 -0.87659,0.2508 -1.2492,0.75 -1.00079,-0.1266 -1.7484,0.75 -0.62579,0.87659 -0.6258,-0.12659 -3.24839,-4.62419 -0.2508,-0.74999 -1.12499,-0.2508 -0.1242,-0.2484 0.1242,-0.5016 -0.375,-1.12499 0.2508,-2.74919 0.1242,-1.125 -0.1242,-0.4992 0.2484,-0.6258 -0.8742,-0.37499 -0.1242,-0.2508 -0.8766,-0.375 -0.62339,-5.49838 1.49999,-5.75158 1.125,-8.24996 -2.62499,-2.24999 -2.62499,-1.3734 -1.5,-0.2508 -0.375,0.1242 -0.74999,-0.1242 -1.3758,0.2508 -1.12499,2.99999 -2.37419,0.4992 -0.2508,0.74999 -2.87579,0.2508 -3.49919,-4.12498 -1.00079,-1.62659 -3.62339,-0.2484 -1.12499,0.375 -0.6258,0.62339 -0.6258,-0.1242 -2.74919,1.125 -1.24919,1.99919 -1.125,0.6258 -0.2508,1.00079 -2.12579,-1.37579 0,-0.375 -0.375,-0.375 0,0.1242 -2.87339,-2.49839 -1.75079,-1.75079 -0.4992,-0.1242 0.9984,-1.75079 0.375,0.1242 2.99999,-5.99998 1.00079,-2.62499 5.12578,-7.99917 -4.87498,-4.49998 -0.1266,-2.99999 0.6258,-2.37419 0.375,-0.1266 1.37579,-4.87498 0.375,-0.2484 1.49999,0.375 0.75,-0.6258 1.6242,-51.74979 -3.62579,-0.2508 0.5016,-15.12414 2.62499,0.1242 0.2484,0.5016 2.24999,0.1242 11.37655,-0.2508 1.125,-5.37418 -0.75,-1.49999 -1.87499,-1.87499 -2.62499,1.12499 -0.5016,-1.75079 0.1266,-0.375 -0.2508,-0.8742 -0.2508,-0.25079 0.1266,-0.2484 -0.5016,-1.125 0.1266,-0.2508 -0.1266,-0.1242 0.1266,-0.1266 -0.1266,-0.2484 2.75159,-2.12579 -4.75078,-6.62577 3.37499,-3.99839 -5.87578,-4.49998 4.87498,-6.25077 0.75,0.62579 2.37659,-3.12658 0.9984,-0.75 0.37499,-1.37339 0,-1.0008 -0.62339,-0.8742 -0.8766,0 -1.37339,1.3734 -0.5016,-0.375 -0.2484,-0.75 0.87419,-2.87339 -0.74999,-1.25159 -0.4992,-0.1242 -0.8766,0.75 -0.2484,0.49919 -0.50159,-0.1242 -0.2484,-0.74999 0.375,-1.3758 0.87419,-1.37339 0.1242,-1.3758 -0.74999,-1.24919 9.87656,-9.74996 3.62338,3.49918 1.75079,1.875 2.74919,-2.74919 3.50159,3.62338 1.87499,1.7508 1.5,-1.6242 1.62419,-1.49999 1.49999,-1.62659 1.6242,-1.5 1.49999,-1.62419 1.62659,-1.5 3.12419,-3.25078 -1.75079,-1.2492 -1.2492,-1.12499 -1.62419,-1.9992 -1.62659,-1.00079 -4.24919,-10.75076 -1.12499,0.5016 -2.74919,-6.87657 -7.12497,2.75159 -1.7508,-4.37579 -0.87419,0.375 -1.125,-2.74919 0.9984,-0.2508 -2.87339,-7.00077 3.49919,-1.49999 1.37579,3.50158 9.12416,-3.50158 -2.99998,-7.12497 -5.37418,2.00159 -5.50078,-13.12495 -1.62419,-4.37578 8.87336,-3.62579 -6.49917,-15.74993 -5.37418,1.00079 -6.12658,-31.62407 -3.87418,0.75 -1.75079,-9.74997 -7.12498,1.5 -0.2484,1.49999 -3.25078,1.3734 -0.1242,-0.75 -21.87651,8.75156 -3.74999,1.6242 2.87579,7.00077 -23.24991,9.37496 0.1242,-0.375 0.2508,0 0.1242,-0.25079 -0.2484,-0.2508 -0.5016,0.1266 -0.375,0.62339 -0.62339,0.1266 -1.0008,-0.50159 -0.2508,-0.4992 0.1266,-0.4992 0.375,-0.1266 0.4992,0.1266 0.1242,-0.1266 -0.375,-0.4992 0.375,-1.00079 -0.4992,-0.375 -0.4992,0.1266 -0.1266,0.49919 -0.74999,0.2508 -0.4992,-0.74999 -0.6258,-1.7508 0.2508,-0.1242 0.75,0.2484 0.49919,0.375 0.5016,0 0.2484,-0.375 0,-1.12499 1.0008,-0.1242 0.37499,-0.2508 0.375,0 0.375,-0.6234 -1.12499,-1.00079 -1.6242,-0.6258 -1.12499,0 -0.6258,0.375 -0.4992,0 -0.375,-0.2484 0.1242,-1.0008 1.0008,-0.375 0.1242,-0.2508 0.375,-0.2484 1.62419,-0.25079 0.375,-0.375 0.2508,-1.0008 -0.1242,-0.4992 -0.75,-0.87419 -0.2508,0 -0.87419,0.62339 -1.125,0.1266 -1.125,0.6234 -0.50159,0.6258 -0.375,0.1242 -0.375,-0.1242 -0.4992,-0.6258 0,-0.6234 0.375,-0.37499 1.0008,-0.375 0.37499,-0.6258 0,-1.37579 0.375,-0.75 0,-1.125 -0.2508,-0.4992 -0.74999,0.1242 -0.4992,0.5016 -0.8766,0.4992 -0.49919,0 -0.6258,-0.375 -0.1242,-0.4992 -6.62578,4.24919 2.1258,3.12418 -5.62498,4.00079 -3.87419,2.50079 -6.37497,-9.50156 9.49916,-5.87338 0.75,-0.75 3.37499,-2.62499 -0.75,-0.2508 -0.4992,-0.74999 0.375,-0.375 0.8742,-0.1242 0.37499,-0.6258 -0.1242,-0.75 -0.37499,-0.62579 0.24839,-0.4992 0.6258,-0.2508 0.75,0.6258 1.99919,0 0.375,-0.4992 0,-0.6258 -1.125,-1.00079 -1.24919,0.1266 -1.49999,1.12499 -2.1258,-0.2508 -0.37499,-0.6258 0.25079,-0.62339 0.6258,-0.5016 0.6234,-0.9984 0.6258,-0.1266 1.75079,0.2508 0.6234,-0.4992 0.62579,-0.74999 0.2508,-0.8766 -0.375,-2.74919 -2.00159,-1.12499 -1.37339,-1.5 -1.5,-0.4992 -0.87659,-0.50159 -1.125,-1.3734 -0.6234,-0.1266 -1.62659,-1.37339 -0.375,0 -0.74999,0.74999 -0.6234,-0.12659 -0.2508,0.87659 -1.125,0.75 -1.12499,0.4992 -1.0008,-2.12579 -0.4992,0 -0.87419,1.12499 -1.125,0.6258 -0.87659,-0.4992 -1.3734,-0.1266 -0.87659,-0.6234 -1.125,-0.2508 0.2508,-0.49919 1.12499,-0.1266 0.375,-0.6234 -0.1242,-1.75079 -0.62579,-0.375 -0.75,0 -0.75,0.2508 -0.2508,0.375 0,1.12499 0.375,0.8742 0,0.74999 -0.4992,0.375 -1.75079,-0.4992 -0.9984,-0.62579 -0.62579,0.1242 -0.6258,0.62579 0.1266,1.5 0.375,0.4992 0.74999,0.375 0.4992,1.37579 0,1.0008 -0.87419,0.99839 -2.1258,0.375 -0.37499,-0.375 0.1242,-0.6234 -0.2484,-1.87499 -0.5016,-0.5016 -0.4992,0.375 0.1242,1.125 0.5016,1.37579 -0.1266,0.75 0.1266,0.375 -0.6258,0.4992 -1.37579,-1.2492 -0.8742,-0.375 -0.8742,0.2508 -0.2508,-0.2508 0,-0.375 0.375,-0.62579 0.6258,-0.2484 1.12499,-1.125 0.1242,-0.375 -0.62579,-0.375 -0.1242,-0.62579 1.00079,-0.6258 0.375,-0.4992 -0.2508,-0.6258 -0.74999,-0.2484 -0.75,1.3734 -0.6258,0.5016 -1.12499,0.1242 -0.75,-0.375 -0.2484,-0.6258 -1.75079,1.3758 -0.8742,-0.1242 -0.5016,-0.5016 0,-1.3734 0.6258,-2.24999 0.8742,-0.6258 0.62579,0.2508 0.375,0.375 1.3758,-0.2508 0.49919,-0.62579 0,-0.4992 -6.37497,0.1242 0,1.00079 0.75,0.4992 0.1242,0.75 -0.6234,0.6258 -0.8766,-0.1242 -0.99839,-0.75 -0.6258,-0.2508 -0.6258,0.75 0.375,0.62579 0.8766,0.6234 0.4992,0.1266 0.12419,0.6234 -0.37499,0.5016 -0.6234,0 -1.75079,-1.125 -0.8742,-0.1266 -0.5016,0.2508 -0.1242,0.6258 0.2508,0.6234 0.6234,0.375 1.00079,0.25079 0.375,0.6258 -0.62579,0.8742 -1.5,0.375 -0.8742,-0.375 -0.49919,-0.8742 -0.6258,-0.2508 -1.2492,0 -0.25079,-0.375 0,-0.37499 0.49919,-0.8742 -0.1242,-0.375 -0.49919,-0.2508 -1.0008,0.2508 -1.125,2.87339 0,0.75 0.4992,0.74999 0,0.6258 -0.375,0.2508 -0.87419,-0.1266 -0.8742,-0.6234 -0.5016,-0.87659 -2.62499,0.1266 0.75,12.62335 0.1266,2.50078 0.4992,-0.12419 0.2508,0.49919 -0.2508,1.3758 -0.2508,0.2484 -1.125,-0.1242 -0.2484,0.375 0.2484,0.37499 0.6258,0.375 1.0008,0.1242 0.1242,0.375 -0.2508,0.2508 -0.4992,-0.1242 -0.2508,0.1242 0.375,1.49999 0.375,0 0.50159,0.375 0.75,0.1242 0.8742,-0.375 0.2508,-0.37499 0,-0.75 0.2484,-0.2484 0.2508,0 0.1242,0.6234 1.49999,1.62659 0.1266,1.37339 -0.8766,0 -0.375,0.375 -0.1242,0.375 0.75,0.75 0.4992,0.2508 0.5016,0.74999 0.4992,0.375 0.87419,-0.87419 0.375,0 0.75,-0.5016 0.1266,-0.6234 0.49919,-0.1266 0.6258,0.5016 0.375,-0.1266 -0.75,-0.9984 0.375,-1.00079 0.6234,0 1.0008,-1.6242 0.74999,-0.12659 1.7508,0.37499 0.24839,0.6258 -0.24839,0.6258 -0.5016,0.375 -0.6234,0 -0.5016,-0.2508 -0.4992,0 -0.1242,0.2508 0.1242,0.375 1.6242,0 1.49999,0.49919 0.1266,0.4992 -0.2508,0.5016 -0.6258,0.2484 -0.49919,-0.2484 0,0.8742 -0.2508,0.1242 -0.4992,-0.2484 -0.75,0.49919 -0.375,-0.1242 -0.87419,1.125 0.1242,0.2484 0.74999,0.375 0,0.375 -0.49919,0.1266 -1.0008,0.62339 -0.6258,0 -0.1242,0.6258 0.375,0.1242 0.75,-0.1242 0.375,0.6258 0.375,0 0.74999,-0.375 1.3758,0.1242 0.2484,0.75 0.87659,0.37499 0.6234,1.125 1.49999,0.1242 2.1258,-0.375 0.37499,2.87579 1.0008,0.1242 0.375,0.2508 0.6234,0.75 1.25159,0.37499 0.2484,0.4992 0,0.5016 0.8766,0.9984 0,1.12499 0.49919,0.2508 1.2492,-0.2508 2.50079,0.6258 0,0.4992 -0.8742,0 -0.74999,0.74999 -0.1266,0.5016 1.00079,0.6234 0.375,0.5016 0.375,0.1242 0.2508,0.74999 0.6234,0.375 0.50159,-0.1242 0.75,-1.25159 -0.1266,-1.7484 0.375,-0.50159 0.5016,0.2508 0.2484,1.00079 0.50159,0.375 -0.25079,1.125 0.1242,0.62339 -0.9984,1.0008 0,0.2508 0.375,0.375 0,0.62339 -0.6258,0.8766 0,0.375 0.8742,0.8742 1.12499,0.62579 0.2508,-0.2508 0,-0.25079 -0.4992,-0.75 0.2484,-0.9984 0.375,-0.1266 1.0008,0.6258 0.2508,0.375 -0.1266,0.8742 0.2508,0.12659 1.37579,-0.37499 0.6234,0.49919 0.5016,-0.1242 0.1242,0.1242 -0.2508,0.8742 -0.4992,0.5016 0,0.375 0.75,0.6234 0.49919,0.87659 0.8766,-0.1266 0.6234,0.6258 -0.1242,0.2508 -0.6258,0.1242 -0.2484,0.375 0,0.49919 0.4992,0.2508 1.37579,-0.2508 0.375,0.375 0.1242,0.5016 1.125,0 1.37579,0.75 0.375,-0.75 0.375,-0.2508 0.4992,0.2508 0,0.6234 -0.4992,0.75 0.6234,0.25079 1.00079,0.75 1.0008,0 0.375,0.6258 0,0.375 -0.75,0.4992 0.1242,0.37499 0.75,0.375 0.37499,0 0.2508,-0.74999 0.6234,0.74999 -0.1242,0.2508 -0.6258,0 -0.49919,0.375 0,0.2484 0.49919,0.2508 1.3758,-0.1242 0.375,-0.375 0.2508,0.2484 -0.1266,0.6258 0.62579,-0.1242 0.4992,-0.5016 0.6258,0.1266 0.4992,0.375 0.375,0.62339 0.2508,1.6266 0.49919,0.6234 -0.1242,1.12499 -0.62579,0.1266 -1.125,0.6234 -0.4992,0.87659 0,0.375 0.2508,0.1242 0,0.375 -0.375,0.1242 -0.1266,0.2508 0.5016,0.375 0.75,0.2508 0.375,0.99839 0.62339,0 0.5016,0.5016 1.2492,-0.5016 0.4992,0 0.25079,0.2508 -0.25079,0.8742 0.25079,0.6258 -0.49919,0.87419 -0.5016,-0.375 -0.1242,-0.99839 -0.8742,0.4992 -0.5016,0 -0.24839,-0.2508 -0.6258,0.375 0.1242,0.50159 0.5016,0.375 0.49919,0 -0.1242,0.375 -1.00079,0.1242 -0.1242,0.2508 0.2484,0.375 -3.12419,0.74999 -2.87579,1.125 -0.4992,0.375 -0.49919,0 -0.375,0.375 -0.1266,1.12499 -0.4992,0.1242 -0.2508,0.75 -0.375,0.375 -0.375,0 -0.2484,0.2508 -0.74999,0.1242 -0.5016,0.49919 0.1266,0.375 -0.2508,0.1266 0,0.4992 0.2508,0 0.2484,1.125 -0.2484,0.25079 -1.2516,-0.50159 -0.1242,-0.4992 -0.25079,0 -0.1242,0.2508 -0.6258,0.2484 -0.6234,0.375 -0.1266,0.25079 -0.6234,0.2508 -0.25079,0 0,0.2484 -10.99916,3.37499 0.1242,0.5016 0.2508,0.1242 -0.1266,0.25079 0.1266,0.375 0.2484,0.1242 0.1266,0.2508 0.37499,-0.1266 0,0.375 0.375,0.6258 0.4992,0.2508 0.6258,-0.1266 0.375,0.1266 0.375,0.99839 -0.75,2.50079 0.1242,1.6242 -0.75,1.25159 0.4992,1.125 -0.6234,0.74999 -0.2508,0.6234 -0.4992,0.2508 -0.50159,0.6258 -0.9984,0.1242 -22.12491,-5.62498 -0.1266,0.1242 0.375,0.2508 -0.1242,0.2508 0.1242,0.375 -0.2484,0.1242 -0.1266,-0.2508 -0.4992,0 0,0.50159 -0.375,0.1242 -0.4992,0.4992 0.75,0.1266 0.1242,0.4992 0.6258,-0.2508 0.1242,0.2508 -0.1242,0.6258 -0.5016,0.375 -0.1242,0.37499 1.2492,0 0.62579,0.4992 -0.49919,1.0008 -0.5016,0.1242 0.375,0.74999 -0.1242,0.2508 -0.4992,-0.37499 -0.2508,0.37499 -3.62579,-3.12658 -3.12418,2.24999 -1.0008,-4.62418 -12.87415,0.49919 -6.25077,1.2516 -1.7484,0.1242 -2.50079,-0.6258 -2.62498,-0.2484 -0.375,2.37419 -1.9992,-0.87419 -0.50159,0.1242 0.375,1.00079 -1.2492,0.1242 -1.2492,-0.375 0.1242,-2.74919 -5.50077,-2.24999 -9.12417,-1.75079 -1.24919,-0.1242 -9.62576,0.1242 -4.37579,0.375 -2.12339,1.62419 -2.00159,-1.24919 -0.75,0.37499 -6.49917,-1.49999 -15.49914,-3.12419 -3.62578,-1.00079 -3.62579,0.375 -4.37338,1.87499 -6.50158,3.62578 -4.24918,2.1234 0.1242,-0.8742 -0.4992,-1.75079 -0.62579,-0.4992 -0.375,0.1242 -1.2492,-0.1242 -1.87499,0.2508 -10.12496,-4.87498 -4.49998,-2.75159 -11.24996,-0.9984 0,-5.37658 -4.00078,-2.12339 -3.99839,-0.375 -0.50159,0.1242 -3.87419,-2.37419 -4.75078,-3.25079 -9.74996,-3.37498 -1.37339,-0.75 -5.99998,-1.99919 0,0.1242 -4.49998,-1.3758 -0.1266,0.1266 -1.87499,-0.50159 0.25079,-1.3734 0.75,-0.2508 0.8742,0.2508 0.2508,-0.1266 0.375,-2.37419 -0.1242,-1.24919 -0.6258,-0.75 -0.4992,-0.1266 -1.125,0.1266 -0.37499,-0.1266 -0.75,-0.8742 -0.1266,-0.74999 0.2508,-0.375 0.375,-0.2508 0.375,-0.75 -0.2508,-0.4992 -0.4992,-0.25079 -1.62419,0.25079 -0.6258,-0.49919 0.2508,-0.6258 0.4992,-0.6258 0.12419,-0.4992 -0.24839,-1.00079 -0.375,-0.4992 -1.875,-0.1242 -0.50159,-0.2508 -0.375,-0.4992 -0.1242,-2.00159 -0.375,-0.2484 -0.6258,0 -0.6234,-0.375 -0.25079,-1.49999 -1.125,-0.2508 -0.375,-0.2508 -0.1242,-0.375 -0.87659,-0.6234 -0.75,-0.87659 -0.6234,-0.4992 -0.6258,0 -0.62579,0.2508 -0.8742,1.87499 -0.6258,0.1242 -2.74919,-1.49999 -2.500786,-0.2508 -0.874197,-0.4992 -0.874197,-1.37579 0,-0.8742 -0.250799,-1.125 0,-0.74999 1.375795,-1.125 -0.126599,-1.75079 0.250798,-0.75 -0.124199,-1.24919 -1.251595,-0.4992 -0.499198,-0.375 -0.250799,0.2484 -0.998396,0.375 0,0.375 -0.625797,0.50159 0.250798,0.8742 -0.374998,0.4992 0.374998,0.6258 -0.250798,0.1242 -0.749998,-0.2484 0,-0.6258 -0.250798,-0.1242 -0.374999,0.2484 -1.999192,2.37659 -0.499198,0 -0.250799,0.2484 -0.250799,0 -0.248399,-0.2484 -0.625797,0 0.124199,0.375 -0.374998,0.2484 0.126599,0.50159 -0.374999,0.4992 -0.501597,-0.1242 -0.2484,0.2484 0.1242,0.2508 0.749997,0.1242 0,0.375 0.250799,0.2508 0,0.2508 -0.625797,0 -0.374999,-0.6258 -8.624966,-0.375 -12.37495,-0.4992" inkscape:connector-curvature="0"/>
  </g>
  
  
  
</svg>