<?xml version="1.0" encoding="utf-8"?>
<svg version="1.1" xmlns="http://www.w3.org/2000/svg" xmlns:xlink="http://www.w3.org/1999/xlink" viewBox="0 0 1200 800">
	<path id="AM-AG" class="land" d="M388.771,177.547l3.072-1.257l3.532,0.39l4.121,2.313l7.063,8.521h10.307l1.467-7.353l5.008-0.777
		h4.42l11.474,6.963l2.354-2.314h2.654l3.831,2.704l2.354,3.872l0.29,7.742l-0.549,3.601l0,0l-0.329,2.195l6.474,8.122l2.057,5.407
		l8.829,10.436l7.362,2.313l14.127,2.315l-0.588,6.185l-2.055,7.711l-3.831,6.944l-4.121,5.409h-3.532l0.879,11.184l-4.699,10.017
		v11.552l-1.477,5.009l-7.951-0.379l-2.355,6.156L444.83,318.3l-3.831,2.693l-0.878,2.694l1.466,2.694h3.243l3.531-1.926h3.532
		l1.767,3.073l0.588,3.85l-2.644,7.683l-1.656,2.464l0,0l-5.118,8.68v4.699l0,0l-4.15-0.647l-4.46-2.773l-19.794-7.493l-5.736-7.222
		l-1.496-0.839l-1.487,0.559l-7.233,8.61l-3.192,1.666h-2.973l-3.831-1.666l-1.916-3.89l-2.125-1.388l-2.345,0.828l1.277,19.994
		l-2.983,2.215l-22.338-0.549l-7.442-2.224l-15.743-2.773l-10.427-3.332l-9.786-0.828l-10.855-8.89l-3.192-0.828l-0.639-4.718
		l-2.764-0.838h-6.595l-4.679-0.829l-7.662-3.611l-14.257,1.106l-5.527,3.333l-1.396,1.686l0,0l-8.002-3.582l-0.329-5.098
		l-1.646-5.457l-10.556-10.786l-0.947-1.855l0.828-3.412l7.951-13.28l-0.539-6.106l-1.536-3.512l-1.027-1.646l-2.884-2.105l0,0
		l4.67-0.509l9.837-2.574l8.2-6.874l2.305-4.3l6.236-4.292l9.508-0.868l3.282-0.857l3.282-2.145l2.624-0.429l3.612,2.574
		l5.576,1.725l5.577-0.438l2.295-1.717h2.953l4.27,1.717l3.932,3.013h6.894l7.543-4.3h4.27l4.59,1.287l5.906,6.026l4.589,0.429
		l2.624-1.725l2.953-0.858h5.258l3.602,1.287h4.6l10.166-3.861l3.612-3.442h2.953l1.316-3.441v-3.432l-5.587-6.455l-0.319-3.872
		v-5.596l2.953-7.742l-11.813-1.717v-6.894l-0.988-3.013l-7.542-11.633l-0.329-4.739l0.978-4.739l3.282-3.881l4.929-3.882
		l5.248-1.297l7.542-0.429L388.771,177.547z" title="Aragatsotn"></path>
	<path id="AM-AR" class="land" d="M437.447,424.124l-1.427-2.644l-2.724-2.772l-6.564-1.836l-3.033-1.956l0,0l1.985-15.324
		l-0.209-3.322l-5.957-7.761l-0.639-3.601l0.849-3.322l2.335-1.388l5.746-0.559l10.854,0.28l5.527,0.827l2.135,1.945l2.125,0.549
		l0.39-0.809l0,0l6.585,6.535l3.83,1.537l5,0.379l3.83,1.916l4.709,4.979l1.767,0.769l1.477-0.769l4.998-5.748l5.009-0.379
		l2.643-1.147l4.71-4.609l5.896-3.831l5.148-8.251l0,0l-0.589,13.808l3.233,4.988l6.484,1.916l4.998-0.379l2.066-0.769v-3.842
		l1.466-1.526h3.532l2.653-3.073l2.645-0.769l3.531,0.39l1.188-3.842l2.055-3.063l17.52-0.958l4.12-9.207l4.41-1.926l4.709,0.39
		l5.308-2.306l23.834,0.77l1.139-0.888l0,0l1.367,0.697v1.917l-3.532,19.185v9.966l20.901,31.787l-0.29,14.926l1.468,4.212v6.875
		l-1.468,12.619l1.975,3.532l0,0l0.379,0.669l-7.951,5.346l-3.242,5.338l-1.466,4.591l-0.79,7.123l0,0h-1.903l-6.156,4.301
		l-2.844,3.682l-2.165,5.826l-5.656,3.521l-5.707,2.305l-3.761,0.898l-14.557,0.259l-14.875,1.627l-8.5,1.157l-7.044,2.225
		l-2.455-0.339l-1.257-1.327l0.419-4.959l-2.364-1.378l-3.432,0.149l-1.308-5.059l-3.292-4.499l-1.417-0.897l-2.793,0.938
		l0.159-2.593l1.547-3.991l-2.315-1.808l-1.695,0.05l-1.945,1.587l-2.075,0.238l-13.359-8.918l1.317-2.363l-0.34-1.797l-4.369,1.516
		l-1.587-0.606l-0.748-1.078l-0.409-6.983l-1.676-2.983l-4.11-2.903l-2.354-2.804l-1.656-8.529l-4.23-4.839l-4.359-2.475
		l-8.541-12.491l-5.746-1.666l-2.574-2.884l-8.97-6.755h-5.457L437.447,424.124z" title="Ararat"></path>
	<path id="AM-AV" class="land" d="M259.082,339.561l1.396-1.686l5.527-3.333l14.257-1.106l7.662,3.611l4.679,0.829h6.595l2.764,0.838
		l0.639,4.718l3.192,0.828l10.855,8.89l9.786,0.828l10.427,3.332l15.743,2.773l7.442,2.224l22.338,0.549l2.983-2.215l-1.277-19.994
		l2.345-0.828l2.125,1.388l1.916,3.89l3.831,1.666h2.973l3.192-1.666l7.233-8.61l1.487-0.559l1.496,0.839l5.736,7.222l19.794,7.494
		l4.46,2.773l4.15,0.647l0,0l1.178,0.189l1.485,5.267l2.126,3.054l-1.707,11.645l1.816,1.257l-0.219,4.709l-0.669,1.406l0,0
		l-0.39,0.809l-2.125-0.549l-2.135-1.945l-5.527-0.827l-10.854-0.28l-5.747,0.559l-2.334,1.388l-0.849,3.322l0.639,3.601
		l5.957,7.761l0.209,3.322l-1.985,15.324l0,0l-3.563-1.946l-2.363,0.1l-1.866,1.009l-1.237-1.646l-2.204-0.629l-1.527-1.808
		l-4.868-0.519l-5.198,1.098l-1.058,1.537l-1.926-0.329l-1.726,2.045l-5.248-0.299l-1.686,0.648l-1.018,2.523l-4.739,0.458
		l-4.639-1.366l-6.235,0.79l-2.505-1.816l-11.843,2.702l-13.738,0.77l-3.072-0.148l-2.494-1.077l-5.876,2.573l-4.729-0.578
		l-11.174,0.679l-6.695-2.885l-4.17-3.383l-8.102-3.492l-2.414-2.175l-3.462-1.077l-8.889-6.754l-8.072,1.027l-4.659-1.077
		l-5.717-5.019l-8.26-3.412l-3.513-4.48l-0.488-3.332l0.928-3.92l3.303-4.57l12.48-3.362l0.09-2.006l-1.687-2.314l-9.388-7.583
		l-4.849-5.567l-0.239-1.695l0.947-0.928l7.243-0.528l-0.06-9.279L259.082,339.561z" title="Armavir"></path>
	<path id="AM-ER" class="land" d="M444.83,354.904v-4.699l5.118-8.68l0,0l3.712,4.071l11.482-0.389l12.95-4.609h4.42l2.354,1.157
		l2.056,6.525l4.12,2.304l12.66,10.755l2.943,4.988l-0.878,5.756l-1.327,1.727l0,0l-5.148,8.25l-5.896,3.832l-4.71,4.608
		l-2.643,1.148l-5.009,0.379l-4.998,5.747l-1.477,0.77l-1.767-0.77l-4.709-4.978l-3.83-1.916l-5-0.38l-3.83-1.537l-6.585-6.534l0,0
		l0.669-1.407l0.219-4.708l-1.816-1.257l1.707-11.643l-2.126-3.054l-1.485-5.267L444.83,354.904z" title="Yerevan"></path>
	<path id="AM-GR" class="land" d="M712.759,232l-2.016,0.47l-1.537-1.397l-3.91-14.766l2.364-5.288l4.03-4.511l8.76,1.087
		l4.857,5.438l-1.065,8.082l-1.537,2.016l-1.896,1.087l-3.312,0.619l-2.245,5.906L712.759,232z M543.44,213.813l3.054,0.808
		l8.021-0.619l2.833-3.412l5.438-3.85l3.113-4.11l2.015-1.397l5.259,2.225l9.078,6.485l6.036,0.937l3.921-1.525l7.931-0.77
		l15.594-16.532l9.12-4.359l3.512,0.051l6.416-1.966l7.083-0.928l7.794,1.237l7.083,2.175l7.791,3.721l15.017,14.107l0,0
		l-1.258,2.245l-0.409,3.711l0.551,1.736l4.518,2.823l1.188,1.706l-0.928,7.672l2.215,1.286l1.915,2.544l7.104,0.31l3.552,2.484
		l2.364,3.881l-0.588,1.866l-2.604,1.557l-0.708,2.175l1.308,3.881l-2.017,1.866l-0.588,2.325l0.947,5.278l3.812,5.587l10.116,7.842
		l1.976,0.369l1.026,1.197l-0.357,3.881l2.843,1.706l2.255,3.881l9.358,5.578l3.832,0.269l2.804-0.727l3.671,2.325l4.5,5.737
		l3.912,2.165l0.827,4.18l1.896,3.561l1.896,1.547l10.774,0.159l5.467,4.181l3.553,1.087l2.893-0.229l4.898,1.616l3.432,2.783
		l1.985,3.752l20.413,5.846l1.895,1.087l3.183,4.47l11.493-0.3l6.756,4.948l0.029,5.777l-2.664,1.836l-1.955-0.56l-0.142,2.305
		l5.667,6.116l4.101,5.577l0.459,1.726l-2.913,4.5l-0.809,3.831l-1.757,13.469l0.109,4.998l-0.947,1.696l-1.537,0.769l-2.883,0.029
		l-7.163,3.802l-0.131,2.963l1.308,2.464l-0.239,4.47l-1.895,7.552l-3.623,5.467l-0.519,3.133l-0.849,1.078l-1.436,0.839
		l-3.093-0.479l-4.382,2.484l-1.496,5.346l-1.656,0.62l-1.694-0.201l-4.23-5.806l-3.433-3.54l-2.135-1.229l-3.791,1.538
		l-2.065-1.029l-17.918,0.15l-3.671-1.847l-1.417,0.15l-2.137,1.695l-3.083,1.077l-8.171,0.149l-2.233,2.137l-1.428,6.642
		l-5.856,0.08l0,0l-1.178-1.653l-3.831-1.919l-7.951-0.378l-1.768,5.748l-5.885,4.589l-12.362,3.063l-28.553,1.538l-23.546,8.41
		l-12.949,9.945l-10.306,11.464l-4.421,2.673l-1.547,0.103l0,0l-1.984-3.542l1.476-12.612v-6.884l-1.476-4.21l0.298-14.926
		l-20.899-31.785v-9.967l3.531-19.186v-1.916l-1.366-0.699l0,0l-1.139-2.562l-5.008-3.073l-3.821,0.389l-3.531-1.916l-4.41-6.146
		l-1.767-11.911l-3.791-6.425l-10.216-47.6l2.813-4.26l5.229-4.849l-0.22-1.127l-7.952-1.537l-2.354-1.157l-5.808-5.278l-2.813-8.34
		l-1.626-8.151l-1.775-3.102l-1.188-1.666l-7.104-2.405l-0.189-28.923l0,0L543.44,213.813z" title="Gegharkunik"></path>
	<path id="AM-KT" class="land" d="M542.075,213.474l0.188,28.922l7.113,2.404l1.178,1.656l1.775,3.103l1.626,8.151l2.814,8.34
		l5.807,5.277l2.354,1.148l7.952,1.546l0.22,1.127l-5.229,4.849l-2.813,4.27l10.217,47.6l3.791,6.425l1.766,11.912l4.41,6.146
		l3.531,1.916l3.831-0.379l4.998,3.073l1.139,2.563l0,0l-1.139,0.889l-23.834-0.77l-5.308,2.306l-4.709-0.391l-4.41,1.927
		l-4.12,9.207l-17.52,0.958l-2.055,3.063l-1.188,3.841l-3.531-0.389l-2.645,0.768l-2.653,3.073h-3.532l-1.466,1.527v3.842
		l-2.066,0.769l-4.998,0.379l-6.484-1.916l-3.233-4.988l0.589-13.808l0,0l1.327-1.727l0.878-5.756l-2.942-4.988l-12.661-10.755
		l-4.12-2.304l-2.056-6.525l-2.354-1.157h-4.42l-12.95,4.609l-11.482,0.389l-3.712-4.071l0,0l1.656-2.464l2.644-7.683l-0.588-3.85
		l-1.767-3.073h-3.532l-3.531,1.926h-3.243l-1.466-2.694l0.878-2.694l3.831-2.693l14.127-15.774l2.355-6.156l7.951,0.379
		l1.477-5.009v-11.552l4.699-10.017l-0.878-11.184h3.531l4.121-5.409l3.831-6.944l2.055-7.711l0.588-6.185l-14.126-2.315
		l-7.363-2.313l-8.829-10.436l-2.057-5.407l-6.474-8.122l0.329-2.195l0,0l7.612-6.314l4.709-2.705l18.846-1.156l1.767,1.546
		l2.943,0.768h4.709l2.943-1.934h4.419l8.829,2.714l10.297,5.407l6.974,2.364l2.055,2.894l7.553,1.984l2.574,1.637l0,0l0.259,2.334
		l1.428,1.516l0.668-0.349l0,0L542.075,213.474z" title="Kotayk"></path>
	<path id="AM-LO" class="land" d="M560.072,13.079l0.47,3.392l2.125,2.504l4.01,1.567l2.595,1.875l1.885,3.123l-0.698,3.123
		l-5.906,6.565l-4.718,2.184l-2.595,0.319l-5.197,4.998l4.849,5.668l5.688,3.062l3.372,3.522l3.023,0.469l3.202,2.444l3.721,3.402
		l0.718,2.235l-1.516,6.106l-1.147,2.344l-2.314,2.345l-9.319,5.049l-4.358,0.708l-4.351,1.875l-5.327,0.349l-4.171,1.757
		l-3.292,3.871l-1.327,4.808l-0.09,3.753l1.417,6.095l5.687,3.752l14.477,3.242l2.573,1.167l2.934,4.569v3.281l-1.337,3.043
		l-4.88,3.163l-4.529,12.521l-1.337,9.129l-2.304,2.923l-4.092,2.335l-2.214,2.334l-11.723,6.505l-4.091,7.013l-0.708,5.957
		l1.156,1.407l5.946,2.334l0.539,1.396l-4.619,4.789l0.439,2.804l3.142,5.727l4.331,4.4l-1.059,2.573l0.579,1.975l-2.095,6.814
		l-1.237,1.407l0,0l-2.574-1.637l-7.553-1.984l-2.055-2.893l-6.974-2.365l-10.296-5.407l-8.83-2.714h-4.419l-2.943,1.934h-4.709
		l-2.943-0.768l-1.767-1.546l-18.846,1.157l-4.709,2.705l-7.612,6.314l0,0l0.549-3.601l-0.29-7.742l-2.354-3.873l-3.831-2.704
		h-2.654l-2.354,2.315l-11.474-6.963h-4.42l-5.008,0.777l-1.467,7.353H406.56l-7.063-8.521l-4.121-2.313l-3.531-0.39l-3.073,1.257
		l0,0v-2.095h-3.611l-6.565,1.297l-4.918-0.429l-0.329-2.155l0.658-1.725l-0.658-2.166l-7.543-3.452l-8.201,1.298l-3.282-4.32
		l-1.976-5.178l-0.978-15.554l2.295-4.759l4.918-4.319l3.283-1.726l3.94-1.297h4.919l3.611-2.604l2.295-3.023v-5.186l-1.317-2.604
		h4.6l3.282-3.462l3.931-7.353l0.329-3.033l-1.307-1.735l-2.624-0.429l-9.188,1.297l-4.27-0.868l-0.979-2.165l0.648-12.122
		l-2.623-3.9l-3.603-1.308l-0.987-5.627l-1.966-3.042l-1.646-0.868h-3.283l-3.931-1.726l-2.624-1.736l-2.952-3.471l-0.33-18.657
		l2.534-7.164l0,0l8.829-3.382l17.221,0.719l4.749-0.858l2.733-7.533l1.687-8.47l1.296-1.307l1.428-0.05l3.053,2.753l1.726,0.478
		l5.407-0.628l3.402,2.744l1.486,3.143l2.804,1.566l4.001,1.178l2.813-0.2l2.055-1.646l2.046,0.271l2.384,1.038l3.732,3.671
		l2.803-0.188l1.038-2.166l0.888-6.854l1.486-1.477l6.006,3.422l6.226,7.074l5.278,1.605l6.176,3.641l1.417,1.806l4.09-0.469
		l7.792-4.44l4.949-9.318l1.686-0.349l1.157,0.698l-1.596,8.939l1.955,0.239l3.721-3.182l5.338-1.059l1.686,1.646l0.439,1.766
		l1.337,0.828l1.327-0.947l2.933-13.999l1.067-0.818h1.597l2.753,1.766l3.821,0.229l5.328-0.229l1.775-1.178h1.597l1.686,5.178
		l1.158,1.177l6.694,0.648l0.738,0.768l0.239,2.793l1.276,0.68l4.88-4.331l10.466-0.379l2.074,0.828l3.722-1.197l8.36,3.513
		l5.647,0.998l3.412-0.19l4.07-1.565l-1.228-3.073l-2.085-0.758l-3.222,1.316l-5.168-2.584l-5.866-0.868l-5.547-6.275l-0.569-8.66
		l0.479-3.272l1.756-4.139L541.826,0l3.033,0.818l5.118,6.345l6.105,1.187l3.841,2.136L560.072,13.079z" title="Lori"></path>
	<path id="AM-SH" class="land" d="M269.497,162.073l-0.987-4.3l-5.807-8.101l-1.297-7.493l0.12-4.84l1.297-6.705l-1.656-2.963
		l-0.469-7.494l-5.688-4.379l-7.463-7.343l-9.966-6.015l-5.389-0.738l-4.22-4.439l-3.412-2.354l-3.401-1.167l-7.693-0.34
		l-0.987-2.693l-1.626-1.556l0.299-11.344l-0.738-2.932l-2.225-3.522l-2.364-1.466l-0.908-4.271l4.16-8.48l4.799,0.01l3.572-1.935
		l8.151-1.957l5.327-2.354l5.248,0.39l8.55,5.487l3.851-1.565l11.384-0.929l3.712,0.529l17.14,8.62l8.241-10.595l7.563-5.187
		l4.799-2.235l11.843-1.167l3.701-1.376l6.954-0.59l4.14,0.978l1.786,1.566l2.215,0.199l7.991-5.876l2.813,0.389l4.141-0.589
		l1.327,1.227l0,0l-2.534,7.164l0.329,18.657l2.953,3.471l2.624,1.736l3.931,1.726h3.283l1.646,0.868l1.966,3.042l0.987,5.627
		l3.602,1.308l2.624,3.9l-0.648,12.122l0.978,2.165l4.271,0.868l9.188-1.297l2.624,0.429l1.307,1.735l-0.329,3.033l-3.931,7.353
		l-3.282,3.462h-4.6l1.316,2.604v5.187l-2.294,3.023l-3.611,2.604h-4.919l-3.94,1.297l-3.283,1.726l-4.918,4.319l-2.295,4.76
		l0.978,15.554l1.976,5.178l3.282,4.32l8.201-1.298l7.542,3.452l0.659,2.166l-0.659,1.725l0.329,2.155l4.919,0.429l6.565-1.297
		h3.611v2.095l0,0l-0.988,11.285l-7.542,0.429l-5.248,1.297l-4.929,3.882l-3.282,3.881l-0.978,4.739l0.329,4.739l7.542,11.633
		l0.988,3.013v6.894l11.813,1.717l-2.953,7.742v5.596l0.319,3.873l5.587,6.455v3.431l-1.316,3.442h-2.953l-3.612,3.442
		l-10.166,3.861h-4.6l-3.602-1.287h-5.258l-2.953,0.858l-2.624,1.725l-4.589-0.429l-5.906-6.026l-4.59-1.287h-4.27l-7.543,4.3
		h-6.894l-3.932-3.013l-4.27-1.717h-2.953l-2.295,1.717l-5.577,0.438l-5.576-1.725l-3.612-2.574l-2.624,0.429l-3.282,2.145
		l-3.282,0.857l-9.508,0.868l-6.236,4.292l-2.305,4.299l-8.2,6.875l-9.837,2.574l-4.67,0.509l0,0l-5.317-5.258l-4.609-1.078
		l-2.584-2.704l-0.27-2.903l2.314-0.809l0.33-3.651l4.858-2.415l9.827-8.351l1.048-0.439l0.588,1.208l1.268,0.6l1.237-5.807
		l2.075,1.816l1.936,0.09l-1.487-8.969l6.954-2.095l4.619-5.437l3.193-7.453l1.426-1.087l1.896-6.215l1.885-2.026l1.427-3.88
		l0.47-4.669l2.494-1.706l2.523-5.129l-1.526-3.153l0.888-0.509l0.24-4.829l-1.656-3.492l1.716-6.116l-1.507-5.557L269.497,162.073z
		" title="Shirak"></path>
	<path id="AM-SU" class="land" d="M793.191,572.41l-2.255-8.93l-5.337-5.057l-7.224-2.445l-8.61-1.296l0,0l-1.127-12.014
		l-0.19-14.925l3.972-10.276l-0.948-6.616l-1.886-4.649l0.759-9.556l4.908-8.832l10.217-13.238l7.142-4.369l0,0l3.562,9.875
		l5.927,0.619l6.744,2.765l9.01,6.126l7.572,1.237h4.847l2.725,1.695l5.317,5.986l0.748,4.16l1.457,2.771l5.946,5.558l1.925,5.029
		l6.297,3.921l-1.299,2.894l0.948,3.521l1.536,1.387l4.5-3.222l2.494,0.458l8.76,9.508l3.192,1.526l4.151,3.522l1.686,3.441
		l-0.857,2.993l1.486,3.891l0.288,7.173l2.483-0.811l2.375-3.52l6.746-0.608l8.878,1.066l5.807-4.897l9.229-5.05l12.41-0.936
		l1.147,5.576l1.426,1.836l3.991-0.45l5.357-5.675l1.429,0.607l-0.63,2.982l0.981,3.306v4.438l-1.417,4.431l1.417,2.604l5.527,1.586
		l2.155-1.915l3.621,1.227l2.934-2.474l12.57-1.587l8.72,4.698l2.603,1.984l1.536,3.063l1.068,4.579l-0.589,1.538h-3.553
		l-1.826-2.276l-2.544,0.052l-1.576,0.768l-2.614,3.851l-6.932,4.15l-0.23,2.075l1.177,3.383l7.962,7.703l1.766,3.201l-2.264,0.29
		l-1.996-1.188l-4.489-1.098l-1.576-2.543l-2.275-0.949l-3.362,2.434l-4.478,7.803l-1.487,0.907l-8.53-2.064l-4.63,0.169
		l-1.746,2.474l-0.768,3.872l-2.864,3.213l0.519,9.238l3.673,5.797l1.667,4.42l2.124,1.378l1.297-0.029l10.746,8.629l2.595,1.297
		l2.693-1.426l3.372-3.393l0.958,0.08l7.123,9.388l0.11,2.834l-2.843,2.443l-0.352,2.126l7.124,11.464l6.915,2.403l1.546,4.51
		l1.916,2.225l7.672,0.668l1.128,0.288l0.588,1.209l-1.217,1.057l-7.793-0.148l-4.739,1.667l0.479,2.283l-0.648,2.146l-3.442,5.587
		l-2.643,2.155l-2.267,3.501l-2.135-1.516l-2.135-10.496l-2.845-1.028l-2.005,2.465l0.948,4.8l-0.601,1.067l-1.894-0.31
		l-2.715-3.102l-4.768-2.226l-5.148-0.159l-1.836,2.095l-0.03,6.016l2.186,6.225l3.342,0.659l3.372,2.116l3.852-1.646l2.135,1.316
		l-1.955,3.502l0.089,2.414l4.071,2.794l0.021,3.521l1.025,2.194l3.963,2.226l2.283,3.431l-0.3,2.216l-2.305,1.548l-0.839,2.843
		l1.598,1.935l4.56,0.867l-3.123,4.291l-0.239,1.826l2.604,11.693l-6.037,2.114l-0.358,3.191l1.187,4.24l-1.796,2.225l-3.412,1.876
		l-0.119,2.274l0.358,3.332l3.312,4.4l4.5,8.182l1.976,7.96l-2.485,1.849l-2.344-0.72l-0.618-4.269l-1.005-0.959l-8.53,1.378
		l-3.272-1.039l-2.913-2.453l-1.177-0.15l-2.943,0.76l-4.16-0.351l-1.537,1.966l-1.597,0.158l-11.903-8.799l-2.603-1.057h-3.432
		l-2.484,0.908l-5.099,4.697l-2.015-0.758l-5.448,0.149l-0.798,3.242l0.688,3.423l-1.774,2.424l-2.137-0.149l0.471-5.757
		l-1.417-2.114h-1.067l-1.656,1.356l-1.308,3.792v3.022l-1.178,0.606l-2.963-0.606l-0.948,2.273l2.314,3.971v2.114l-1.188,1.218
		l-2.015-1.218l-0.729-1.855l0,0l-0.199-0.527l0,0l-2.385-1.396h-2.255l-2.953,1.815l-2.137,4.24l-2.362-1.209l0.108-3.789
		l-1.656-1.209L876.106,800l-3.651-0.32l1.188-15.602l-1.309-4.998l-3.311-4.851l-2.017-6.513l-2.483-11.686l-0.809-7.77
		l0.239-5.169l-6.065-5.039l-0.828-2.584l0.239-11.992l-1.536-2.734l-6.287-2.893l-4.229-3.432l-0.529-3.003l0.678-6.864
		l-4.798-6.466l1.177-7.122l-3.462-3.513v-5.605l-0.828-3.572l-0.259-10.875l1.087-2.941l1.816-0.699l0.469-4.878l-0.351-4.111
		l-1.627-2.643l-8.259-1.985l-5.687-4.121l-2.484-2.893l-4.151-1.068l-7.222-5.795l-4.381-2.436l-1.566-2.034l-11.671-1.478
		l-1.577-0.547l-3.502-3.762l-0.929-2.494l0.319-4.679l3.142-6.185l8.332-11.644v-3.513l-1.349-4.308l-2.603-2.754l-0.798-2.404
		l0.776-10.337L793.191,572.41z" title="Syunik"></path>
	<path id="AM-TV" class="land" d="M679.516,206.09l-15.005-14.107l-7.794-3.721l-7.083-2.175l-7.782-1.237l-7.085,0.928l-6.414,1.966
		l-3.512-0.051l-9.12,4.359l-15.595,16.522l-7.932,0.769l-3.92,1.527l-6.036-0.928l-9.079-6.485l-5.248-2.225l-2.015,1.397
		l-3.104,4.11l-5.447,3.85l-2.823,3.402l-8.031,0.628l-3.054-0.808l0,0l-4.688-1.157l0,0l-0.668,0.349l-1.428-1.516l-0.259-2.334
		l0,0l1.237-1.407l2.095-6.813l-0.579-1.976l1.059-2.573l-4.331-4.4l-3.142-5.727l-0.439-2.804l4.619-4.789l-0.539-1.396
		l-5.946-2.334l-1.156-1.407l0.708-5.957l4.091-7.013l11.723-6.506l2.214-2.334l4.092-2.335l2.304-2.923l1.337-9.129l4.529-12.521
		l4.88-3.163l1.336-3.044v-3.281l-2.934-4.569l-2.573-1.167l-14.477-3.242l-5.687-3.752l-1.417-6.095l0.09-3.753l1.327-4.808
		l3.292-3.871l4.171-1.757l5.327-0.349l4.351-1.875l4.358-0.708l9.319-5.049l2.314-2.345l1.147-2.344l1.516-6.106l-0.718-2.235
		l-3.721-3.402l-3.202-2.444l-3.023-0.469l-3.372-3.522l-5.688-3.062l-4.849-5.668l5.197-4.998l2.595-0.319l4.718-2.184l5.906-6.565
		l0.698-3.123l-1.885-3.123l-2.595-1.875l-4.01-1.567l-2.125-2.504l-0.47-3.392l0,0l-0.149-2.594l1.606-1.816l2.375,1.436
		l1.975,3.223l5.219,1.387l5.038,0.04l1.416-1.007l2.983-5.079l10.346-7.931l1.936,1.317l2.005,7.144l5.567,7.502l0.219,2.415
		l-2.016,7.193l-4.629,3.463l0.309,2.363l1.836,0.778l3.083-0.778l2.784,3.134l2.604,1.417l2.016,2.972l2.785-0.08l1.655-1.486
		l1.196-3.182l3.422-0.818l1.837-2.035l1.235-0.239l3.613,2.674l6.296,8.48l7.172,1.177l2.006,2.115l0.6,4.779l-1.477,1.059
		l-3.054,4.36l-11.029,4.07l-12.232,1.476l-2.993,2.185l-2.305,3.781l-2.095,7.133l-2.444,3.582l1.097,3.861l2.215,1.636l3.163-0.22
		l4.75-3.412l2.415-0.08l2.154,0.958l1.785-0.688l0.866-6.666l-1.076-3.661l1.476-1.846l1.887-0.199l5.407,2.973l1.009,1.716
		l0.179,1.886l-1.357,4.301l0.649,2.344l4.449-0.529l7.163,2.664l3.193,5.788l4.35,4.708l4.351-1.506l3.083-5.318l3.751-0.838
		l1.605,1.307l1.717,5.786l3.013,3.901l7.473-0.459l4.908,1.795l1.427-0.548l1.736-2.694l9.998-5.228l5.885-0.727l1.188,0.489
		l1.197,2.015l-1.117,2.346l-2.195,2.812l-5.916,4.45l0.17,1.956l2.663,5.317l3.521,1.197l4.71-2.155l1.496,0.13l3.85,3.672
		l2.774,4.29l-0.29,1.876l-1.127,1.486l0.828,2.104l5.866,0.778l1.776,1.167l3.252,4.301l4.32,2.265l2.783,0.07l1.478,0.938
		l0.478,3.123l1.416,1.566l3.492-2.583h1.835l1.896,1.018l1.287,1.767l2.624,7.872l0.179,4.22l-1.596,2.494l-1.428,4.44
		l-6.394,5.845l-4.619,6.306l-0.771,2.883l-2.065,2.185l-9.357,1.008l-6.514,5.926l-7.224,0.727l-5.09,1.716l-7.81,4.819
		l-2.017,2.804l-0.12,2.494l1.068,3.731l-1.657,1.716l-1.188-0.469l-0.826-1.866l-2.724,0.31L679.516,206.09z" title="Tavoush"></path>
	<path id="AM-VD" class="land" d="M612.282,493.753l-1.696-1.138l-4.49-0.311l0,0l0.79-7.123l1.466-4.591l3.242-5.338l7.951-5.346
		l-0.379-0.669l0,0l1.557-0.1l4.411-2.674l10.307-11.464l12.948-9.947l23.556-8.411l28.552-1.527l12.363-3.061l5.886-4.591
		l1.766-5.748l7.952,0.381l3.82,1.916l1.188,1.656l0,0l5.975-0.011l1.536,6.235l1.666,0.929l11.005-0.46l2.724,1.227l8.17,0.928
		l5.566,4.001l1.537,1.996l9.238,0.619l2.724,0.458l1.537,1.077l2.015,2.154l1.438,4.212v1.236l-2.375,2.146l-0.588,1.695
		l0.946,2.613l4.501,7.073l1.524,6.407l0,0l-7.142,4.369l-10.217,13.238l-4.908,8.832l-0.76,9.556l1.887,4.649l0.948,6.616
		l-3.972,10.276l0.191,14.927l1.127,12.013l0,0l-3.871-2.075l-2.194-0.22l-3.353,2.723l-2.006,2.684l-6.266,1.396l-6.035,4.75
		l-9.238-1.378l-2.006,1.378l-3.202,5.806l-3.313,1.837l-2.845-0.15l-2.135,1.836l-0.738,2.794l-8.371,5.767l-2.963,2.603
		l-0.51,1.577l-7.551-0.579l-3.652-7.372l-2.223-2.126l-5.459,0.169l-3.721-2.833l-8.879,0.3l-2.365-1.368l-6.993-6.423
		l-4.819-11.394l-4.369-3.223l-7.024-0.946l-2.204,1.195l-3.514,4.281l-2.175,4.21l-2.972,0.329l-7.255-3.333l0.09-14.346
		l1.798-3.872l-2.364-2.145l-0.12-3.98l2.514-2.942l-1.676-5.199l-3.682-2.652l-3.512-5.157l-2.464-6.795l-4.779-7.594l-6.845-5.356
		L612.282,493.753z" title="Vayots Dzor"></path>
</svg>