<?xml version="1.0" encoding="utf-8"?>
<svg version="1.1" xmlns="http://www.w3.org/2000/svg" xmlns:xlink="http://www.w3.org/1999/xlink" viewBox="0 0 1200 800">
	<path id="BY-BR" class="land" d="M209.987,562.346l7.518,0.014l0.301-1.555l7.452,0.352l0.144-1.868l2.98-0.969l3.857,2.078
		l-0.314,3.949l1.426,1.204l2.039-0.473l1.817,1.061l0.157-1.217l1.098,3.19l0.916-0.629v-2.548l2.353-1.543l1.216,0.666
		l-0.837,2.315l1.607-1.817l5.034,2.666l5.242-3.046l1.477,0.366l-0.026,3.15l11.688-0.247l4.092-2.25l1.033,1.229l0.092-3.412
		l-1.386-2.89l2.026-5.318l0.811-0.041l0.784-3.634l-2.261,0.51l1.215-1.071l-1.909-1.974l3.425-5.36l3.844-1.216l-2.196-1.282
		l0.34-1.019l-1.896-0.563l0.406-1.961l5.36-3.7l0.248-1.776l2.981-0.72l0.562-1.844l1.987,0.223l-0.64,5.646l3.02,1.307l3.268-1.45
		l1.752,1.897l2.667-2.956l0.771,0.353l-0.536,1.713l1.386,0.496l0.889-1.005l4.719,0.496l1.987-2.3l1.517-0.027l0.837,1.072
		l0.862-0.523l2.772,5.099l-1.582,1.884l3.882,4.234l1.229-0.51l2.274-5.805l1.635,0.563l0.195,2.641l-1.15,3.046l0.928,1.086
		l-1.294,2.417l1.241,1.427l-1.176,1.765l0.928,1.633l1.334-0.274l1.006-2.745l2.497,1.726l-0.209-1.176l2.915-1.282l-0.222-0.941
		l2.052,0.065l0.784,2.707l1.19-0.51l1.921,1.373l1.046-1.032l-0.68-0.642l1.425-3.163l5.177-2.197l1.255,6.157l3.608,1.374
		l2.863-3.57l-0.654-1.727l-3.308,0.341l-0.666-3.385l3.229-2.876l-1.961-1.923l-1.072-3.464l5.256,0.077l0.183,0.839l5.739-1.19
		l-0.314-5.218l1.399-0.625l1.072-3.152l6.823-3.281l2.209-3.464l4.838-1.06l-0.771-0.731l0.366-1.347l1.975-2.341l-2.968-2.771
		l-0.157-1.619l2.104-0.549l1.503-4.406h-1.229l0.484-4.72l-2.615-1.543l-1.111-2.025l2.209-1.962l0.209-3.346l1.817-0.014
		l-1.712-3.45l1.164-4.694l1.006-0.38l-1.319-2.653l2.065,0.667l1.922-1.319l-0.811-0.798l0.693-2.942l1.674-0.353l-0.419-2.902
		l0.915-1.151l-0.679-4.418l1.398,0.274l0.706-2.615l1.372,0.354l0.667-2.327l2.85-0.301l2.157,0.627l0.745,1.518l3.517,0.562
		l2.681-1.805l3.528,1.229l1.517-2.602l3.673-0.353l-0.431,1.83l1.83-0.641l2.223,1.177l2.693-0.027l0.013,1.688h3.647l1.085,0.652
		l-0.575,1.113l2.183,0.809l1.817-0.3l2.235-3.033l0.066,2.444l0.784,0.523l3.255-2.027l2.549,1.335l13.295,0.052l1.687,3.111
		l1.281-1.49l2.144-0.798l0.758,1.072l0.418-0.745l0,0l2.066,6.98l1.843,0.301l-1.425,9.491l-4.027,0.146l-0.156,2.979l-2.483,0.6
		l-1.216,1.582l0.601,1.909l-3.673,0.955l1.046,3.634l3.713,1.374l1.281,1.79l0.025,2.091l2.145-0.403l1.726,1.476l0.184,2.851
		l2.901,1.974l6-0.105l1.138,5.047l2.72,0.183l1.569,5.636l-0.641,0.652l-4.746-1.464l-1.556,2.301l0.823,0.537l-0.823,0.823
		l0.522,4.928l-3.739-0.392l-0.916,1.607l-1.908,0.366l-0.497,1.713l2.145,5.544l2.405,2.587l0.85,2.549l1.582,0.981l-7.085,7.099
		l-0.47,2.091l0.81,2.721l5.307,3.059l0.145,1.764l6.314-9.164l1.215,4.524l2.968-1.557l2.955-8.013l4.235,4.104l-0.496,0.444
		l3.032,0.51l0.68-0.81l2.275,3.568l2.653,0.705l-0.536-1.489l2.471,0.105l0.158-0.929l1.372,0.521l1.072,8.485l3.543,4.614
		l3.543,0.366l3.072-1.281l1.831,2.706l1.11-0.156l5.922,3.659l5.177-7.111l2.197,5.739l-0.863,4.17l2.588,1.203l1.098,4.706
		l-3.973,1.229l-0.602,2.234l1.36,0.512l0.288,6.117l-2.719,0.04l0.131,3.188l1.137,1.596l1.764-0.119l0.354,4.406l1.569,0.145
		l0.091,6.131l-0.981,0.078l1.138,0.981l-0.013,3.791l6.366,0.274l0.968,5.805l2.653-0.263l0.431,5.386l6.066-0.104l0.157,3.138
		l4.471,1.228l0,0l-1.582,5.309l0.64,5.726l10.354-0.104l0.118,2.59l3.359,2.77l5.752,0.263l2.288,3.177l2.066-0.156l1.908,1.319
		l0.079,2.184l1.006,0.286l0.432,2.041l-0.379,2.052l1.242,1.177l-3.164,3.883l2.052,3.058l-0.928,0.655l-2.092,7.53l0.928,1.792
		l-0.484,5.763l2.379,1.1l2.379-0.405l-0.418,1.399l1.281,2.993h3.32l0.104,3.934l-0.509,1.635l-6.72,4.431l-2.223,3.32l2.132,4.106
		l0.117,3.842l-1.373,3.729l-2.236,2.705l2.746,4.118l3.125,2.719l-2.445,5.896l1.647,1.725l0.117,1.607l-2.64,3.348l-2.209-0.378
		l-1.242,1.658l-0.471,3.1l1.007,2.287l-1.111,2.876l3.32,4.066l-0.417,1.019l0,0l-0.824,1.073l0.339,3.45l1.439-0.078l-2.223,3.124
		l-2.445-1.397l0.968-2.197l-0.575-0.888l-1.804,1.241l-1.111-1.973l-2.405,1.254l-0.118,1.255l-3.308-0.394l-2.967-1.566
		l-1.935,1.829l-9.374,0.405l0.078-2.955l2.785-4.981l-2.314-1.987l-3.961,0.432l-0.68-16.968l-20.119,0.772l-4.419,5.202
		l-3.085-1.935l-3.569-0.183l-3.072-2.668l-5.15,1.398l-0.588-1.49l-3.36-1.633l0.536-2.813l-0.824-1.267l-4-1.465l-1.752-1.922
		l-7.347,0.223l-2.144-0.851l-0.341,1.335l-3.268,1.109l-1.203,2.433l-6.85-0.263l-0.314-2.143l-2.457-0.629l-2.052-3.137
		l-2.367,0.327l-0.288-6.302l-2.693,1.896l-5.831,0.393l-1.517-1.294l-6.471-0.51l-3.098,1.543l-1.176-0.864l-1.961,0.407
		l-0.223-2.093l-1.542,0.274l-4.484-5.242l-4.183-0.719l-0.458-1.607l-3.503-1.1l-8.394,2.785l-9.189-1.543l-0.262-2.901
		l-4.314-1.111l-1.112,0.365l1.269,4.014l-2.001-0.392l-4.928,1.256l-9.949-0.915l-7.308-2.655l-1.594,2.746l-2.51-1.294
		l-1.046,1.66h-6.223l-0.823-1.177l-6.367-1.295l-7.36-5.019l-3.099,1.228l-3.438-1.411l-5.307,2.732l-4.209,0.025l-7.308,5.112
		l-2.171,0.3l-3.164,3.073l-3.216,0.012l-1.242-2.223l-7.216,2.197l-0.667-2.182l-1.19-0.315l-6.458,4.601h-1.464l-2.523-2.025
		l-4.301,0.588l-4.118-1.542l-5.7,1.882l-9.06,1.334l-8.693-0.092l-4.707,3.491l0.445,1.738l-4.576,7.243l2.184,8.17l-4.549,5.032
		l-14.354,7.897l-4.431,7.047l-5.178,3.019l-2.418,3.164l-7.15-2.745l-3.987,1.124l-0.262-2.615l3.216-3.686l-8.184-2.223
		l-3.386,1.045l-0.104-3.149l-0.994-1.139l-6.916,2.642l-3.033-0.588l-1.333,1.921l-5.438,2.642l2.379,4.85l3.019,1.726
		l-0.366,2.197l-2.209,2.456l3.831,7.139l-1.032,1.02l-4.21-0.785l-1.281-3.752l-4.354-1.085l-0.195-1.686l1.372-1.725l-1.255-1.989
		l0.327-1.438l-1.255-0.549l-1.372-3.021l0.602-2.77l-0.732-2.133l0.784-0.888l-0.902-0.614l0.431-2.42l1.189-0.757l-0.784-3.125
		l1.216-2.171l-1.138-0.758l0.706-0.588l-0.954-2.771l-0.916,0.432l-0.706-1.059l0.261-1.923l2.772-3.059l1.203,0.784l1.412-0.405
		l1.033-2.064l3.177-1.166l-0.209-1.788l0.811-0.027l0.353-1.413l-1.726-4.313l-1.792-0.327l-0.183-1.635l1.203-2.444l-0.758-3.124
		l2.367,0.615l-0.85-1.988l1.542-1.137l-1.987-1.686l-0.51-2.105l0.523-0.903l1.267,0.394l0.144-1.609l1.255-0.419l-0.497-2.456
		l-1.333-0.025l2.548-2.368l1.687,0.145l-0.458-2.157l2.196-2.288l-2.72-4.077l0.236-3.4l-0.85-2.457l-1.111-0.483l1.203-0.274
		l-1.085-0.85l0.837-2.379l-3.399-1.884l-0.589-1.438l0.942-0.784l-2.131-1.688l-3.896-0.223l-0.915,1.321l-0.759-2.68l-2.536-1.582
		l-0.183-1.635l-2.405-0.745l0.51-3.398l1.307,0.209l-0.497-1.006l-1.516-0.366l-1.818,1.137l-0.915-1.646l-3.138,1.947l-0.85-1.529
		l-1.503,0.745l-0.549-3.621l-1.909,0.81l-0.928-1.921l-5.203-0.209l-0.967-0.445l0.091-1.582l-3.543,1.113l-5.764-1.806
		l-1.021-2.13l0.85-5.595l-2.327-1.335l6.066-11.714l6.275-8.339l0.85-3.191l10.198-14.195l5.293-5.335l10.263-6.015l5.294-2.091
		l7.099-1.255l2.196,1.216l13.883-11.452l1.321-0.078l4.432-5.243L209.987,562.346z" title="Brest"></path>
	<path id="BY-HO" class="land" d="M647.344,578.349l1.333,0.94l2.745-2.653l0.876,1.425l2.536-0.915l3.975,0.954l1.046-1.397
		l1.974,0.286l2.563-1.543l4.563,1.726l2.432-1.829l3.438,1.764l3.046-3.412l-0.039-1.308l5.072-0.025l-0.131-2.691l-1.831,0.496
		l-0.326-1.674l-1.281-0.053l0.837-4.262l4.549,1.478l2.119-2.575l2.155,0.38l7.674-10.721l-0.536-3.949l12.382-1.658l0.431,0.705
		l2.236-1.164l-1.27-5.66l5.7-9.033l1.961-1.084l2.471,1.502l3.647,0.209l1.529,2.341l7.112,0.718l2.392,0.876l0.118,1.061
		l0.823-1.948l1.714,0.222l-0.171,2.065l1.713-0.014l1.059,1.413l4.603-2.078l4.169-4.551l0.98,0.746l3.465-0.302l0.679,0.798
		l3.204-0.979l2.823,0.351l2.054,1.792l0.209-0.941l0.797,0.457l0.797,1.505l5.359-1.713l-0.862-1.843l1.975-2.223l-5.256-2.287
		l-1.268-1.047l-0.719-2.929l-1.294-0.706l4.014-5.059l-1.125-2.458l-2.876,1.006l-2.144-4.339l2.497-1.688l-1.308-3.188l0.326-1.19
		l1.373,0.274l0.04-1.413l0.928-0.076l1.11,2.536l2.732-0.721l1.398,1.06l5.334-2.771l-1.634-0.353l-0.339-1.753l2.012-1.96
		l-1.084,0.249l-0.341-1.57l1.386-1.057l-2.731-1.36l4.653-1.674l-2.759-7.438l0.968-0.274l-0.353-1.753l-1.87-2.248l-0.091-6.653
		l4.759-4.798l4.482-2.209l1.061,5.124l2.784-1.177l-0.863-1.164l1.255-0.641l1.869,1.387l0.394,1.359l-1.36,0.68l-0.511,1.948
		l4.563,0.681l1.504-2.615l-0.157-1.738l12.053,2.836l1.255,1.543l-0.21,1.308l2.445,1.541l2.785,9.021l1.424,1.202l2.433-1.308
		l0.732,0.747l1.869-1.113l1.935,0.549l2.68-3.476l0.104,1.646l4.642-0.98l1.687-1.699l4.431,0.692l0.274-2.627l2.955-2.34
		l4.471,1.386l1.387-1.753l-0.262-1.333l2.353,0.404l1.215-3.373l3.492,0.354l2.117-3.256l0.405-2.758l1.607,0.89l-1.896,3.503
		l1.792,0.968l-0.823,1.854l9.138,1.779l-1.372,2.825l2.497,2.405l4-0.473l-0.065-2.3l3.308-0.301l0.876-1.177l6.706,0.953
		l1.739-1.529l-0.419-1.803l2-0.679l3.936-0.786l0.562,1.189l8.891-0.73l0.482,0.913l-1.176,2.563l-2.72,2.589l1.518,2.38
		l1.869-1.335l1.425,1.505l1.164-0.693l0.796,1.02l-0.836,3.021l2.522,1.582l0.145,3.791l3.229-0.642l0.799,2.641l1.776,0.498
		l0.196,2.601l-2.105,2.027l1.426,2.614l8.433-0.758l1.647,4.562l0.719-0.941l1.438,0.733l0.536-0.786l0.025,1.139l7.439,0.157
		l1.333,2.954h1.96l0,0l-2.626,0.783l-0.497,7.924l-2.262,0.782l-4.013-0.914l-2.054,2.145l6.445,4.196l1.203,1.765l3.229,1.137
		l0.812,3.413l1.345,1.502l-0.352,4.327l10.575,10.642l5.281,0.302l0.092,2.837l-1.777,1.582l1.124,2.013l2.902,1.831l0.274,1.594
		l2.158,0.627l0.222,5.243l1.058,2.668l-2.497,2.353l-1.254,3.293l-6.263,2.223l6.027,7.308l0.851,2.066l-0.42,6l1.505,0.419
		l5.058,4.862l3.961,0.444l-3.555,3.191l-1.177-1.87l-1.098,0.444l-0.131,1.922l-1.517,0.835l-0.13,2.707l-3.4-0.404l1.465,3.373
		l2.784-1.295l2.014,2.209l-1.805,3.974l-2.34,1.072l2.537,0.759l0.169,1.764l-1.189,0.654l0.614,2.21l-0.94,1.203l2.653-0.235
		l0.929,3.11l-0.511,10.707l-4.053,0.353v0.89l4.079,5.125l0.484-1.033l2.131,2.941l3.123,0.183l2.55,1.845l-1.372,1.463
		l1.189,2.993l-0.052,3.348l-2.041,3.281l1.871,1.269l2.457-0.838l4.667,0.864l0.379,8.196l1.308,2.104l-7.387,3.882l-0.758-1.79
		l-4.039-1.203l-6.459,0.064l-8.274-1.791l-3.661,1.36l-1.856-0.64l-0.928-3.046l-4.732-0.145l-2.602,1.359l0.771,1.856
		l-5.896,2.497l-1.163,2.864l0.68,0.86l-2.144,4.499l-4.131,1.607l-2.693-1.333l-1.398-1.727l0.129-1.567l-5.071-1.189l-1.765-3.544
		l-4.275,1.882l-3.046-0.077l-7.687,2.025l-2.418-0.862l0.092-1.189l-1.202,0.222l0.169,2.287l-1.817,0.263l1.424,3.606
		l-0.953-0.076l-0.549-1.596l-0.824,0.365l1.451,2.132l-1.516,0.849l1.163,1.125l-1.202-0.17l0.692,1.503l-1.556,0.302l0.641,0.992
		l-0.653,1.086l1.674,0.641l0.038,1.568l-1.49,0.38l-1.425-1.948l-0.902,1.36l1.674,1.411l-2.38,0.536l0.379,2.223l-1.621,0.417
		l-0.888-0.758l-2.328,1.517l-0.038,1.111l1.438,0.052l-0.903,1.112l-2.039-1.281l-1.254,1.098l1.438,4.275l-2.079,3.517
		l-5.359-0.563l-0.863,2.902l-3.046,2.602l-1.072,4.758l-4.209,1.855l1.712,4.459l-1.607,1.765l0.314,1.308l-2.419-0.051
		l-1.752,1.084l0.327,1.15l2.367-0.668l0.731,0.746l-1.975,3.752l-0.458,3.399l-5.778,1.229l1.203,4.379l-0.574,2.472l-1.988-0.223
		l-1.961-1.896l-1.268,0.929l1.752,1.974l-2.302,2.837l-0.247,1.766l2.588,0.69l-0.145,1.047l2.17,1.45l-0.915,0.89l-2.627-0.654
		l-0.968,1.164l1.805,2.027l2.496,0.731l-2.405,1.189l-0.039,1.308l1.791,3.359l2.197-1.503l1.124,0.68l-1.281,5.568l1.385,1.32
		l0.681,3.817l3.072,1.753l-0.118,0.993l-3.856,1.438l0.444,3.426l0.838,0.902l2.325-0.615l0.132,1.647l3.32,5.386l-1.674,3.085
		l1.308,3.334l-2.627,1.098l-2.864,2.811l1.791,1.033l-0.862,1.059l1.936-0.719l-1.439,3.583l-1.425-0.079L847.451,800l-3.294-2.89
		l-5.257,1.111l0.943-5.06l-5.7-0.417l-7.505-7.714l2.941-2.692l-1.542-6.445l1.006-0.628l-1.646-0.378l-4.274-5.687l-4.144-3.426
		l-4.276-1.451l-2.784-2.615l-1.11,3.466l-3.387-2.813l-0.641,0.315l0.653,2.247l-0.811,0.444l-9.909-2.535l-0.458,2.249
		l-2.012,1.28l-1.321-0.432l-1.046,2.039l-3.673-2.863l-3.111,0.811l-1.124,1.086l0.641,0.862l-1.189,4.079l-3.426-1.803
		l-2.628,1.123l-1.046-1.531l-1.099,0.354l-0.013,2.392l-4.667-2.456l-1.7-4.838l1.779-0.785l-0.17-3.215l-0.706-2.274l-2.014,0.025
		l-0.68,1.294l-3.464,1.596l-0.313,1.255l-1.243-0.42l-1.385,1.008l-0.955-0.862l-1.059,1.766l-1.334,0.274l-0.065,2.535
		l-2.34,1.883l-4.196-2.707l-2.144,5.139l0.262,3.581l-1.778,3.857l-8.694-2.066l-2.771,1.425l-2.758,3.086l-3.033,0.705
		l0.157-3.855l-1.935-7.948l-3.491-1.125v-2.065l-2.013-3.216l1.254-5.229l-0.691-5.687l-4.039-0.979l-0.536-3.713l-2.812-2.302
		l0.681-1.647l-1.975-0.85l1.229-2.968l-0.94-0.915l-5.647,0.263l-7.595,9.713l-2.877,2.236l-2.263,0.194l-0.679-2.602l-5.792,0.184
		l-5.242,3.766l-2.85,0.575l-5.987,11.294l1.424,1.896l0.523,3.505l-0.771,0.326l-0.326,3.503l-1.713,1.805l-1.49-3.137l0.026-4.733
		l-3.426,3.66l-1.778-0.758l-3.947-16.329l1.125-1.163l-1.844,0.731l-0.314-0.679l2.642-1.268l-9.831-0.274l-0.014-1.582
		l-2.953-0.394l-0.72-1.202l-4.589-0.365l-7.465,6.511l-3.777,1.83l-0.851-5.387l-6.026-7.596l-2.405,0.342l0.98-8.498l-0.941-0.968
		l-8.21,5.568l-0.392,3.386l-1.491,2.524l-2.483,0.404l-2.287,4.026l-1.713,0.746l-1.634-0.666l-3.099,2.064l-9.347,1.189
		l3.412-5.622l-1.921,0.092l-1.203,2.066l-2.079,0.521l0.131-4.234l-1.085-1.896l-5.373-2.118l-2.641,1.32l-0.837,0.889l1.831,1.36
		l-1.242,5.568l2.157,4.55l-1.412,1.163l-3.347,0.497l-4.235,8.89l-1.779-0.459l-7.138-6.064l1.243-0.537l0.235-3.031l3.935-3.792
		l0.875-3.725l-0.523-2.368l-3.007-0.104l-1.059-1.123l-3.373-0.642l-2.379,1.687l-6.851-4.838l-1.215,2.131l-1.987-2.105l0,0
		l0.431-1.018l-3.321-4.067l1.111-2.876l-1.006-2.301l0.458-3.098l1.243-1.66l2.209,0.393l2.641-3.359l-0.105-1.608l-1.646-1.727
		l2.444-5.896l-3.125-2.705l-2.745-4.133l2.235-2.692l1.386-3.727l-0.131-3.843l-2.118-4.105l2.223-3.333l6.72-4.418l0.509-1.646
		l-0.105-3.923h-3.321l-1.281-2.994l0.431-1.412l-2.379,0.404l-2.379-1.098l0.484-5.765l-0.928-1.79l2.091-7.531l0.928-0.652
		l-2.04-3.061l3.164-3.881l-1.242-1.178l0.392-2.039l-0.431-2.04l-1.007-0.286l-0.078-2.184l-1.896-1.321l-2.079,0.158l-2.274-3.179
		l-5.752-0.26l-3.373-2.771l-0.118-2.589l-10.341,0.117l-0.64-5.739l1.582-5.294l0,0l0.039-0.942l2.837-1.398l1.125-2.078
		l4.223-3.465l0.875-1.659l-2.418-5.975l2.105-0.249l0.039-1.279l1.02-0.066l2-4.981l6.001,1.19l0.327-1.479l5.36,0.85l1.974-0.783
		l0.262-1.896l2.483,2.34l2.379-2.482l0.524,1.373l1.699-0.851l-0.13,2.392l1.908,0.08l-1.62,7.292l2.601,0.08l7.583,4.692
		l0.497,3.008l7.778-0.784l8.798,2.405l2.719-1.595h2.68l0.104-4.313l2.223-1.282l-1.124-6.039l2.379-1.296l12.406-1.607
		l1.164,5.844l6.039-1.138l0.575,2.954l13.688-2.184l8.799-8.756l0.144-16.264L647.344,578.349z M943.551,611.07l-0.236-1.674
		l3.491,0.17l1.021,0.928l-0.68,2.365l-1.15-1.933L943.551,611.07z" title="Homyel"></path>
	<path id="BY-HR" class="land" d="M428.776,200.278l2.25,0.432l1.817,1.608l1.711,4.366l-0.457,1.674l2.418,1.424l0,0l-0.339,1.242
		l8.249,7.595l-1.674,1.033l-0.065,2.746l-1.412,1.15l1.281,4.85l-0.627,1.569l1.869-1.164l1.556,0.667l1.686-1.281l3.216-0.379
		l2.013,1.778l5.595,9.387l4.327,1.804l0.641,2.602l-1.177,4.693l2.615,4.929l0.563,4.079l1.712,0.967l0.667,1.7l1.792-1.66
		l1.725,0.378l0.471,1.085l3.582-0.876l-1.373,2.431l0.091,5.543l3.203,1.229l-0.405,1.674l-3.072-0.066l0.092,5.413l-4.797-1.961
		l1.372,1.542l-1.033,1.164l-0.118,2.327l1.569,0.68l-0.536,1.791l1.712-0.261l-0.301,3.255l1.281,1.647l-2.078,4.628l0.522,0.875
		l-1.66,0.797l2.51,1.412l-4.653,6.04l-3.399-0.144l-1.255,2.941l-1.53,0.118l0.654,2.994l-1.53-0.013l-3.517,8.079l0.366,3.072
		l-2.157,0.327l-1.007,1.203l-1.164-0.745l-0.496,1.242l-1.412,0.104l-1.779,4.288l-0.862-0.17l-2.145,3.491l0.549,1.517l-1.844,0.3
		l0.51,0.955l-2.117,2.719l-1.961-0.615l-1.647,0.902l-3.961-1.974l-1.006,0.811l-0.367-1.778l-1.974-1.777l-1.7,1.555l-1.673-1.307
		l-4.497,4.157l-3.503,1.883l-1.543,2.497l-2.928,0.196l-1.386-1.347l0.536-1.66l-0.864-0.445l-1.071,1.072l-0.484,3.072
		l-3.556,4.733l0.509,1.804l8.262,4.589l0.588-1.66l-2.627-2.393l1.333-1.268l1.764,0.706l2.34-1.53l1.935,0.04l0.026,1.581
		l-1.843,0.889l-0.576,4.367l1.608,1.621l-0.758,0.902l1.502,2.968l-0.431,2.288l1.948,2.144l0.339,2.575l3.269,1.216l3.452-2.497
		l0.98,0.432l2.091-2.052l4.902-1.412l0.719,7.687l-2.079,5.609l4.327-0.994l4.523-3.608l3.648,8.432l-2.798,3.569l-2.654,0.98
		l-2.262-0.392l2.563,4.653l-5.425,1.935l-2.928,3.072l-1.347-1.661l-1.255,1.909l-3.622,0.248l2.51,5.831l-2.836,0.354l0.85,2.013
		l-1.033,0.352l1.608,1.595l1.909-1.163l1.595,1.909l-1.974,1.634l1.7,2.51l-1.229,1.229l4.34,7.36l0.326,2.234l5.74,1.661
		l-1.045,4.51l2.392-0.014l1.7,1.518l-0.17,1.948l3.975,3.49l1.084,3.672l3.713,3.361l-0.654,0.797l5.804,2.863l-0.13,4.393
		l-4.549,3.411l1.687,1.295l0.823-1.764l1.007-0.016l0.653,1.923l1.425-0.431l0.379,11.085l2.301,5.386l-5.465,1.086l-0.941,1.282
		l-5.19-0.682l-3.269,1.869l-1.123-0.913l-2.628,3.137l-1.739-0.497l-1.032,0.838l0,0l-0.418,0.744l-0.759-1.059l-2.144,0.797
		l-1.281,1.503l-1.687-3.11l-13.295-0.053l-2.55-1.334l-3.255,2.04l-0.784-0.536l-0.052-2.433l-2.236,3.034l-1.817,0.287
		l-2.184-0.811l0.575-1.111l-1.085-0.641h-3.648l-0.013-1.699l-2.693,0.027l-2.222-1.178l-1.831,0.642l0.432-1.844l-3.674,0.352
		l-1.517,2.603l-3.517-1.229l-2.679,1.805l-3.517-0.563l-0.746-1.516l-2.157-0.628l-2.85,0.302l-0.667,2.325l-1.373-0.352
		l-0.705,2.614l-1.399-0.274l0.68,4.418l-0.903,1.15l0.406,2.902l-1.674,0.354l-0.692,2.953l0.811,0.784l-1.922,1.321l-2.065-0.666
		l1.321,2.653l-1.007,0.367l-1.164,4.704l1.713,3.438l-1.831,0.014l-0.195,3.346l-2.21,1.962l1.112,2.025l2.614,1.544l-0.483,4.719
		h1.229l-1.49,4.418l-2.104,0.549l0.143,1.621l2.968,2.772l-1.973,2.34l-0.379,1.347l0.784,0.731l-4.837,1.061l-2.223,3.463
		l-6.812,3.281l-1.071,3.15l-1.399,0.629l0.314,5.229l-5.739,1.176l-0.17-0.835l-5.255-0.079l1.071,3.464l1.961,1.922l-3.229,2.875
		l0.666,3.388l3.309-0.342l0.653,1.728l-2.863,3.567l-3.608-1.372l-1.255-6.157l-5.177,2.195l-1.424,3.166l0.679,0.639l-1.046,1.033
		l-1.922-1.372l-1.189,0.51l-0.784-2.705l-2.04-0.066l0.222,0.94l-2.915,1.282l0.209,1.176l-2.497-1.725l-1.007,2.746l-1.346,0.274
		l-0.928-1.623l1.177-1.765l-1.229-1.425l1.281-2.419l-0.928-1.084l1.163-3.046l-0.196-2.641l-1.635-0.563l-2.274,5.793
		l-1.229,0.509l-3.883-4.221l1.582-1.884l-2.771-5.099l-0.863,0.523l-0.824-1.074l-1.516,0.016l-1.987,2.3l-4.733-0.496
		l-0.875,1.006l-1.386-0.496l0.536-1.712l-0.784-0.354l-2.667,2.954l-1.751-1.894l-3.268,1.449l-3.007-1.307l0.641-5.647
		l-1.987-0.223l-0.575,1.843l-2.968,0.721l-0.248,1.776l-5.36,3.713l-0.406,1.962l1.896,0.563l-0.341,1.019l2.197,1.282
		l-3.844,1.216l-3.425,5.359l1.909,1.974l-1.216,1.072l2.261-0.51l-0.783,3.634l-0.798,0.025l-2.039,5.322l1.386,2.901l-0.092,3.4
		l-1.032-1.23l-4.092,2.248l-11.688,0.249l0.026-3.15l-1.464-0.366l-5.242,3.032l-5.033-2.653l-1.608,1.818l0.836-2.314
		l-1.214-0.667l-2.34,1.543l-0.014,2.548l-0.915,0.629l-1.085-3.177l-0.158,1.217l-1.83-1.048l-2.04,0.458l-1.411-1.189l0.313-3.946
		l-3.856-2.094l-2.98,0.969l-0.144,1.868l-7.452-0.353l-0.3,1.556l-7.517-0.014l0,0v-4.902l-1.373-2.771l-0.811-17.138l2.875-3.348
		l-1.477-2.784l-0.549-7.713l-2.64-3.948l0.287-1.517l-1.516-0.457l-1.255-3.059l4.378-12.236l-1.411-2.876l-3.7-3.139l-0.837-5.896
		l-3.608-2.092l-15.257-44.604l-7.176-29.688l-0.341-6.393l-3.216-4.301l0.327-13.27l-2.732-1.896l-1.203-8l0.353-7.347h1.242
		l0.759,1.922l4.327,0.169l2.772,2.72l3.725-1.426l5.373,0.119l0.732-0.851l5.451,2.588l1.477,2.04l-0.653,1.752l1.451,0.196
		l2.666-1.765l-1.83-2.928l0.222-1.216l4.341-3.255l3.347,2.144l1.516-0.366l1.87-3.988l4.64,2.719l0.628,3.961l1.909,0.235
		l10.642-2.091l1.281-2.928l2.719,0.51l1.373-1.491l4.379-1.125l1.229,1.988l-0.339,1.32l2.078,0.823l1.961-1.294l0.654,1.909
		l5.243,5.817l1.634,0.432l1.503-1.778l1.033,1.83l6.066-0.928l-0.327,0.771l0.928,0.523l-0.17-1.425l0.837,0.04l0.052,1.02
		l2.131-1.059l1.752-3.438l4.379-4.902l4.915-4.262l2.968-1.085l1.987-2.915l2.653,0.692l2.759-2.222l2.275,0.588l-1.19,8.667
		l4.732-0.562l-0.261-1.255l3.32-3.112l2.406-0.862l2.013,0.588l1.072-0.654l0.091-1.621l1.333,0.262l-0.391-3.386l2.954,0.065
		l0.471-1.203l-0.759-0.627l-2.079,0.758l-1.974-1.869l-0.222-4.249l-4.628-6.72l0.248-0.902l1.831,0.431l3.608-2.81l-1.202-2.301
		l5.058-0.184l8.537-4.091l2.052,1.15l-0.379,0.968l1.752,2.654l2.196,1.124l3.242-0.562l2.301,0.81l4.209-5.686l8.249-8.432
		l-0.131-2.771l1.922-3.648l1.111-0.68l1.778,1.883l1.595-3.517l3.385,1.908l0.458-0.993l1.347,0.993l1.307-0.875l1.726,0.484
		l0.928-1.308l4.471-1.712l1.281-2.601l3.125,0.117l-0.209,1.125l1.438,0.013l1.411-0.798l-0.156-1.084l1.529-0.052l0.301-1.426
		l1.582,0.68l0.248,3.778l4.275,1.7l-0.654,1.177l1.569,1.751l-0.314,1.451l1.974,3.216l-4.445-0.392l0.171,1.66l1.621,0.954
		l-0.04,2.837l-4.523,1.882l-0.418,1.712l2.314,3.138l1.856,1.386l1.242-0.627l3.557,1.673l2.314-0.405l-0.301,0.85l1.66,1.647
		l2.196-1.935h2.014l0.143-2.693l1.687-0.013l0.17-1.909l3.294,2.118l1.504-0.824l0.065-1.778l0.981,1.582l2.679,0.719l0.576-0.876
		l-2.013-0.81l-0.719-2.549l0.876-1.647l-0.602-1.568l-2.013-2.863l-0.706,0.182l4.667-3.242l-0.889,0.627l-1.896-1.229
		l-1.478-4.693l-2.771-0.875l-0.902,0.666l-0.98-1.02l0.732-3.255l-2.197-3.634l-2.327-0.261l-1.936,1.752l-1.267-1.02l-1.007,1.203
		l-2.745-0.889l-0.196-1.137l-3.503,1.294l-0.249-2.824l-1.438-0.249l0.157-1.503l1.843-0.209l0.758-3.542l2.68-1.83l-0.575-2.771
		l0.68-1.634l1.254,0.85l2.394-4.118l-1.007-4.328l0.797-1.347l-2.157-0.457l3.176-1.752l4.236-10.824l6.706-4.771l0.981-2.105
		l-0.719-7.138l-1.399-2.209l0.563-1.203l-1.229-6.824l0.875-0.614l-0.562-2.902l1.282-7.752l-1.282-8.85l1.53-3.7l2.392-0.34
		l0.576-5.255l2.026-1.033l1.216-2.641l3.53-3.112l0.641-5.111l1.83-0.104l0.811-1.19l1.921,0.772l2.197-0.824l1.686-1.961
		l3.464-1.594l1.516,1.582l6.314,1.111l-0.902-1.072l2.602-0.928l-0.274-2.432l2.968-0.379l1.098-2.745l1.582,0.575l2.235-1.438
		l2.262,0.51L428.776,200.278z M359.373,320.144L358,319.804l0.836-1.216l1.896-0.079L359.373,320.144z" title="Hrodna"></path>
	<path id="BY-MA" class="land" d="M736.894,325.413l2.731-0.667l1.596,1.451l1.268-2.026l1.15,0.405l0.34-1.503l1.465,0.745
		l2.026-3.072l-0.275-2.262l1.896-0.483l0.549-3.02l4.21,0.34l-1.111-3.622l1.188-2.249l4.733-1.778l-0.039,1.909l4.117,1.529
		l2.72,2.915l2.025-1.215l5.544,0.627l4.301-1.046l2.484-2.274l2.797,1.87l1.712-2.366l-0.431-0.785l1.177-0.549l1.085,0.889
		l-1.646,2.327l2.588,2.641l-1.072,1.464l4.353,2.183l0.224-0.954l2.026,0.195l2.17-1.83l-1.517,4.745l3.542-0.013l1.164-0.614
		l-2.262-3.686l0.183-1.975l4.445,1.412l-0.014-1.517l2.537-0.85l-2.746-1.281l-1.202-2.366l3.177,0.196l1.843,2.51l2.419-4.026
		l-2.419-2.627l0.692-2.157l3.767-0.706l0.247,1.124l-1.189,1.333l-1.216-0.039l0.144,1.255l3.936-1.347l2.418,3.36l-0.131,2.798
		l2.171-0.145l1.386-3.111l-1.033-1.477l1.125-0.837l3.177,2.458l0.888-0.797l1.648,1.7l1.229-0.588l1.307-6.758l2.563,1.346
		l-1.503,3.294l0.731,2.223l-3.7,3.229l-1.726,5.308l7.061,1.844l3.021-4.824l4.116,0.366l-0.601-2.458l0.902-1.752l0.902,1.438
		l1.241,0.014l0.746,4.784l1.844,1.504l0.744,3.529l2.562-1.869l0.472,2.98l1.816-0.104l-0.863,1.176l2.511,0.576l-1.256-1.647
		l0.171-1.896l3.648-0.051l-3.545-1.242l4.236-3.426l-1.621-0.823l1.936-4.274l1.32-0.876l0.915,0.51l0.862-1.791l-1.398-2.144
		l-1.909-0.17l-0.758-1.164l1.856-1.177l2.039,0.313l3.374-2.104l0.94,0.641l3.673-1.294l-1.412-3.791l0.785-1.412l2.627-0.85
		l2.917,1.111l0.404,0.993l3.45-0.026l0.615,2.981l3.674-1.137l4.078,1.333l2.484-1.242l-0.224-2.837l1.439-0.706l-0.132-2.248
		l2.393-1.896l1.884,3.778l2.47-0.353l1.021,1.346l2.536-0.431l1.687,4.274l3.372-3.607l0.667-2.118l2.994-0.484l0.692-1.32
		l3.699-1.674l-1.517-2.876l2.367-0.366l1.425,1.517l3.229-0.902l0,0l2.851,0.706l0.379,5.033l1.099,0.588l0.404,2.889l1.726,2.091
		l-1.699,3.792l4.667,2.053l2.053,4.497l-3.451,3.255l3.32,1.151l-1.007,5.216l0.536,5.752l1.974-0.313l2.367,1.568l1.712-1.921
		l0.706,4.209l2.549-0.313l-0.313,1.555l-1.908-0.549l-0.759,1.464l5.334,0.536l3.974,4.537l1.856-0.235l0.562,0.98l-0.992,2.379
		l3.464,1.568l2.405-0.026l0.941,2.366l6.092,0.628l2.694-1.438l-0.302,1.125l2.301,2.653l0.079,2.432l4.681-1.634l0.875,1.647
		l1.256-1.164l2.757-0.392l-0.719,4.262l-1.268,1.517l3.229,0.209l3.438-2.811l1.492,1.909l1.621-1.177l0.966,1.635l1.256-1.164
		l1.817,0.654l-1.479,2.21l1.257,2.68l-0.459,2.746l-3.293,4.928l1.046,1.856l2.156,0.627l0.144,4.105l-3.568,2.47l0.274,2.942
		l-0.89,0.314l-1.699,5.125l0.222,2.614l-3.059,1.124l1.177,1.033l0.667-0.444l0.077,1.203l-0.849,1.398l-1.908,0.222l-0.89,2.053
		l1.241,0.484l-0.313,0.941l-3.177,0.327l1.452,1.831l-0.98,4.274l0.771,0.563l0.732-2.105l0.941,0.758l0.327-1.02l1.32-0.105
		l0.444,1.085l1.162-0.274l7.335,4.353l0.719-1.764l2.065-0.536l2.236,0.888l3.646-3.216l5.621,0.876l-0.365-1.175l3.777,0.444
		l1.518-1.804l2.692-0.681l2.093,2.824l2.34,0.235l0.43,1.137l0.851-1.006h2.195l1.792,5.177l2.759,0.209l0.601-1.164l2.248-0.521
		l0.302,0.979l-1.477,1.607l4.862-0.196l2.092,2.04l0.941,4.379l1.294,0.798l2.536-2.038l3.086,0.195l3.149-1.569l0.262,2.706
		l2.746,1.178l0.731,1.345l0.21,3.283l-4.432,2.927l-2.537-0.365l-1.385,1.019l-0.066,1.661l0.472,3.007l1.162,0.642l-0.064-3.244
		l1.83,2.263l-2.025,5.112l3.097,5.045l2.028,1.15l-0.642,2.916l3.634,0.626l3.883,2.824l-1.033,1.767l5.961,0.744l0.223,5.608
		l2.183,0.458l1.844-4.72l0.706,1.542l3.216,1.871l-2.563,0.691l-0.339,1.622l7.804,1.541l1.099-1.006l1.922,0.327l-1.922,2.732
		l1.411,3.855l-2.143,0.25l-0.079,1.946l0.967,1.608l1.621-0.313l0.812,1.817l-1.622-1.033l-1.869,0.274l0.327,1.517l-1.738,1.896
		l2.536,6.118l-4.72,0.876l-1.659-1.582l-1.923,1.269l-1.399,2.942l-3.371-4.12l0.26,3.949l-1.921,0.091l-1.451,3.752l-3.713-1.765
		l-1.909,1.36l-0.247-2.211l-3.479,0.629l0.184,0.941l2.419,0.771l-0.132,1.438l-6.3,12.078l-1.491,0.445l-1.975,3.112l-2.574-0.549
		l-2.694,0.796l-1.791,1.961l0.394,2.146l-1.1,2.274l-2.862,2.693l-5.7,0.104l-1.059,2.105l0.445,2.497l-4.902-1.386l-1.36,3.15
		l-7.399,1.842l-7.373-2.13l-0.169-1.465l-2.184,1.111l-0.406,1.243l-5.426,0.313l-1.961-0.823l0.707-2.693l-1.111-0.653
		l-2.445-0.993l-1.464,1.215l-3.673-0.576l-3.151-4.798l-0.888-5.777l-1.727-0.59l-2.418-2.771l-1.425,0.694l-9.858-5.727
		l-4.692,5.832l-3.569,0.366l-0.628-1.349l-2.627-0.064l-0.653-0.835l-9.622-1.23l1.32,5.792l-1.896,1.032l-0.169,2.405l-3.1,2.222
		l0.184,2.314l1.229,0.039l1.948,2.602l-0.851,2.04l-2.68,0.261l0,0h-1.961l-1.334-2.954l-7.426-0.156l-0.025-1.15l-0.55,0.797
		l-1.438-0.744l-0.719,0.939l-1.661-4.549l-8.418,0.759l-1.425-2.627l2.104-2.015l-0.195-2.613l-1.779-0.499l-0.798-2.627
		l-3.229,0.641l-0.145-3.791l-2.522-1.581l0.838-3.021l-0.785-1.02l-1.164,0.693l-1.424-1.489l-1.871,1.333l-1.516-2.394
		l2.706-2.588l1.177-2.562l-0.471-0.916l-8.902,0.718l-0.55-1.189l-3.936,0.799l-1.999,0.667l0.418,1.804l-1.739,1.529l-6.706-0.941
		l-0.863,1.178l-3.32,0.3l0.066,2.3l-3.988,0.472l-2.51-2.405l1.372-2.812l-9.137-1.776l0.836-1.858l-1.804-0.967l1.896-3.49
		l-1.609-0.89l-0.405,2.759l-2.13,3.256l-3.49-0.354l-1.217,3.361l-2.354-0.392l0.262,1.333l-1.399,1.751l-4.457-1.386l-2.955,2.34
		l-0.274,2.629l-4.431-0.694l-1.687,1.701l-4.641,0.98l-0.119-1.635l-2.665,3.476l-1.936-0.549l-1.856,1.113l-0.732-0.747
		l-2.432,1.308l-1.438-1.215l-2.771-9.008l-2.443-1.542l0.209-1.308l-1.256-1.557l-12.053-2.836l0.156,1.752l-1.503,2.602
		l-4.549-0.667l0.51-1.962l1.359-0.665l-0.393-1.36l-1.869-1.386l-1.254,0.642l0.875,1.164l-2.798,1.175l-1.059-5.124l-4.484,2.209
		l-4.759,4.798l0.079,6.655l1.882,2.26l0.34,1.753l-0.967,0.274l2.758,7.438l-4.641,1.674l2.732,1.372l-1.398,1.059l0.34,1.568
		l1.085-0.235l-2.026,1.962l0.34,1.751l1.635,0.339l-5.322,2.787l-1.411-1.061l-2.72,0.72l-1.11-2.536l-0.929,0.078l-0.039,1.411
		l-1.373-0.261l-0.326,1.177l1.295,3.188l-2.484,1.688l2.144,4.353l2.875-1.018l1.125,2.458l-4.013,5.059l1.294,0.706l0.719,2.927
		l1.268,1.047l5.269,2.287l-1.974,2.223l0.863,1.831l-5.347,1.712l-0.811-1.504l-0.785-0.457l-0.209,0.941l-2.052-1.79l-2.824-0.354
		l-3.203,0.98l-0.667-0.811l-3.464,0.314l-0.981-0.759l-4.169,4.563l-4.603,2.066l-1.058-1.399l-1.7,0.012l0.157-2.064l-1.713-0.223
		l-0.823,1.96l-0.118-1.057l-2.393-0.876l-7.112-0.72l-1.528-2.341l-3.648-0.208l-2.47-1.505l-1.961,1.086l-5.7,9.033l1.255,5.66
		l-2.222,1.164l-0.432-0.691l-12.367,1.658l0.537,3.949l-7.674,10.719l-2.146-0.378l-2.117,2.575l-4.55-1.478l-0.837,4.262
		l1.294,0.053l0.327,1.674l1.831-0.498l0.13,2.682l-5.085,0.037l0.039,1.308l-3.032,3.412l-3.438-1.764l-2.433,1.829l-4.562-1.739
		l-2.575,1.545l-1.975-0.29l-1.032,1.399l-3.975-0.954l-2.536,0.929l-0.863-1.438l-2.745,2.653l-1.333-0.927l0,0l0.51-0.432
		l-2.065-2.732l-3.595-2.497l-4.746-1.308l0.104-2.732l0.444-2.432l4.916-3.345l2.536-6.12l-2.065-4.601l-1.164-0.472l0.157-1.843
		l4.537-1.203l-0.366-1.177l1.764-2.273l-1.137-4.015l-0.862-0.222l-2.642-5.648l1.347-3.347l0.889-0.771l1.347,0.953l2.275-2.547
		l2.797,2.025l2.249,0.196l1.974-3.884l-2.915-3.346l-0.183-4.118l-0.981-0.953l1.373-2.838l-1.529-5.021l1.529-1.646l-1.464-0.707
		l-1.124-3.02l-1.504,0.72l1.647-2.746l-1.922-2.68l-7.791,2.131l-1.713-0.353l-0.078-1.045l1.176-0.171l-2.85-1.334l0.601,2.379
		l-3.202,0.994l-0.641-1.868l0.641-1.086l-3.398,0.94l2.261-1.333l1.229-3.387l-0.38-1.255l-3.425-1.333l-2.432,3.935l-1.922-2.535
		l-1.804,0.183l-0.457,1.868l-1.242-0.233l-0.642-1.817l-3.372,1.438l-0.628-3.176l-1.674,0.392l-5.123-3.007l0.535-2.444
		l-2.209-1.528l-0.929-4.367l2.811,0.979l2.902-1.869l0.771,1.293l4.589,1.596l9.373,0.837l3.242-0.196l-0.013-2.522l8.353-0.263
		l1.766-0.849l-0.092-6.574l-3.02-3.61l-4.313-1.687l-0.327-1.789l0.928-3.7l1.947,0.379l0.093-1.347l2.117-1.203l0.04-8.51
		l-3.113-2.863l-3.542-1.138l1.373,0.013l0.51-1.635l1.687-0.339l2.928,1.738l1.243-2.34l1.595,0.288l3.621-4.642l0.758,1.125
		l1.164-0.916v-2.497l1.02,0.406l1.49,3.321l1.007-1.714l4.013-0.34l0.184-1.766l-1.661,0.432l-1.111-1.634l0.746,2.354
		l-5.503-1.399l3.567-3.295l5.308,0.262l0.354-3.595l3.386,0.144l-0.979-1.557l0.928-4.039l8.681,5.347l6.471,0.262l-0.38-2.823
		l3.975-1.426l1.556,3.883l3.869,0.393l3.453,4.55l0.142,2.433l4.603,0.771l0.065,1.319l0.941,0.288l-1.595-7.334l1.999-0.458
		l-2.169-0.784l-0.119-1.229l4.59-2.21l0.536,1.333l7.124,0.721l1.164-2.08l-1.674-1.385l0.249-3.348l-1.124-0.876l0.771-1.829
		l2.184,1.098l1.137-1.751l-0.719-3.752l0.589-3.229l2.326,0.234l0.184,2.131l2.34-0.863l2.341,3.949l1.947-0.484l0.967-2.013
		l3.727-0.824l0.941-2.235l4.379-1.269l1.347-2.249l-0.249-3.66l0.89-2.327l2.014-0.013l2.458,3.765l2.34-0.626l-0.393-4.643
		l1.294,0.236l1.883-1.464l-3.909-1.255l0.824-2.785l8.104,0.614l1.542-0.875l0.394-2.51l-2.812-0.549l-0.771-1.582l-3.007,0.587
		l-0.915-3.281l-4.628,1.229l-1.189-0.837l2.758-1.189l3.517-4.497l-3.386,1.973l-1.805-1.32l0.079-0.889l2.185-0.287l0.913-1.464
		l-2.653-1.085l2.523-5.268l-2.418-1.464l0.234-4.484l-2.55-2.065l1.817-2.091l-0.536-2.458l-3.163-3.125l1.32-2.262l5.061-2.771
		l3.438,0.052l-1.125-1.621l2.184-18.89l-1.373-1.451l2.354-2.04l0.523-2.34l-0.916-0.431l1.438-0.864l-1.698-0.549l0.339-1.098
		l-1.216,0.144l-0.092-1.66h-3.11L736.894,325.413z" title="Mahilyow"></path>
	<path id="BY-VI" class="land" d="M616.204,0.079l0.718,0.065l0.328,4.771l3.883,0.915l4.432,4.341l0.064,4.523l2.026,0.47
		l1.373-1.386l0.85,3.138l2.576,2.313l2.732-0.706l3.437,0.588l0.916-3.555l-1.373-2.759l0.314-1.895l0.954-0.353l3.66,2.104
		l-0.393,1.661l4.459-3.073l5.922,0.091l0.235-1.045l1.79-0.549l6.563,2.745l2.209-1.006l3.739,0.47l0.064,1.399l-1.687,2.079
		l-1.595-0.484l-0.719,1.975l1.948,2.64l0.104,2.184l3.987,3.386l0.444,4.902l3.242,5.112l0.575-0.693l1.674,0.693l4.117-0.758
		l3.948,3.006l1.333-5.569l5.321-0.98l1.11-1.033l1.805,0.955l-0.013-2.903l5.922-0.274l0.823-2.405l7.073-1.333l2.378,3.111
		l2.157-2.065l2.21,0.274l5.935,6.667l3.687-1.491l2.851,1.229l1.843-0.523l4.955,3.556l3.177-0.536l3.177,1.007l2.771,2.235
		l-2.235,1.085l-0.34,1.386l3.294,0.928l1.922,3.033l-2.994,1.661l-1.752-0.079l-0.195,1.06l-3.178,0.431l2.981,4.812l-1.987,0.013
		l-1.411,2.563l0.234,5.896l-2.68,3.673l0.642,3.87l-1.229,2.366l0.472,1.491l3.619,0.654l5.048,3.621l0.613,2.314l2.366,1.882
		l3.255,0.563l5.936-5.308l0.811-4.223l3.138-3.49l1.556,0.667l3.792-2.706l3.62,0.131l3.543-1.987l1.596,2.131l-0.196,1.542
		l1.319,0.64l2.327-0.614l3.726-4.144l-0.143-2.223l0.993,0.445l2.627-4.314l-0.953-1.673l2.64-2.026l5.138,1.778l2.34-1.007
		l0.026-2.013l2.365-0.17l4.942,2.118l1.727,2.379l1.138-0.562l2.731,2.706l2.615-0.052l0.992-3.124l2.393-0.066l0.118-2.706
		l-0.876-1.373l0.653-0.798l1.281,2.836l2.641-0.823l1.935,0.536l1.412-1.072l3.269,1.269l0.313-0.941l0.889,6.354l4.902-0.588
		l2.733,4.079l3.177-0.955l1.072,1.412l7.268-0.863l0.443,1.634l2.577,1.844l-2.145,1.909l3.243,5.425l5.137,0.17l4.654,3.739
		l1.986,4.771l-1.11,2.117l0.261,2.249l2.889,0.249l-1.411,2.431l1.66,0.118l-0.288,3.582l1.516,0.157l0.969-3.622l3.268-0.549
		l2.681,9.399l-0.563,1.045l1.281,1.478l4.262-0.026l-0.052-1.634l1.855-0.17l0.55-2.563l1.764-0.719l-1.358-1.634l2.72-0.314
		l4.3,3.138l1.883-1.713l0.354,6.105l1.947,7.608l-3.843,1.674l-0.236,1.15l1.7,1.112l-0.171,1.255l1.569-0.131l1.425,2.483
		l-3.843,3.321l-2.249,0.34l1.398,2.849l-0.706,2.863l2.969,7.583l-1.308,3.765l-2.118,0.458l-2.784,4.197l-2.615,1.386l-1.66,2.353
		l-0.771,1.595l0.261,6.393l6.027,1.516l0.025,2.301l2.184,0.915l1.569,8.223l3.62,1.582l1.047,3.726l1.567,0.288l-1.216,4.001
		l2.302,0.457l-0.797,3.609l0.771,1.529l-1.359,3.517l1.45,3.948l0.092,6.327l-1.033,0.876l-0.639-0.994l-4.249-1.138l-2.824,2.941
		l3.517,2.902l1.947,3.805l-2.64,0.824l0.183,2.758l-3.373,0.065l0.013,1.922l-4.588-0.327l-3.451,1.713l-0.066,2.274l0.785,0.17
		l0.653,2.941l-1.987,2.602l0.798,1.896l-2.38,0.575l-4.523,11.713l8.72,3.529l4.092,4.458l2.589,0.536l4.104,3.164l2.223,3.935
		l1.988-1.568l0.051,4.484l-1.084,1.621l0.51,2.483l3.308-0.458l6.379,2.223l2.249-1.922l1.621,1.308l4.863-0.458l1.634,2.588
		l0.771,4.223l-3.607,6.158l-2.732,1.935l-1.098,2.418l0.223,3.229l-3.728,1.908l0.459,2.275l-1.308,1.713l1.817,2.47l2.811,0.405
		l2.68,2.55l1.517,0.379l2.236-1.046l0.247,1.622l0,0l-3.229,0.902l-1.425-1.517l-2.367,0.366l1.517,2.876l-3.699,1.674l-0.692,1.32
		l-2.994,0.484l-0.667,2.118l-3.372,3.607l-1.687-4.274l-2.536,0.431l-1.021-1.346l-2.47,0.353l-1.884-3.778l-2.393,1.896
		l0.132,2.248l-1.439,0.706l0.224,2.837l-2.484,1.242l-4.078-1.333l-3.674,1.137l-0.615-2.981l-3.45,0.026l-0.404-0.993
		l-2.917-1.111l-2.627,0.85l-0.785,1.412l1.412,3.791l-3.673,1.294l-0.94-0.641l-3.374,2.104l-2.039-0.313l-1.856,1.177l0.758,1.164
		l1.909,0.17l1.398,2.144l-0.862,1.791l-0.915-0.51l-1.32,0.876l-1.936,4.274l1.621,0.823l-4.236,3.426l3.545,1.242l-3.648,0.051
		l-0.171,1.896l1.256,1.647l-2.511-0.576l0.863-1.176l-1.816,0.104l-0.472-2.98l-2.562,1.869l-0.744-3.529l-1.844-1.504
		l-0.746-4.784l-1.241-0.014l-0.902-1.438l-0.902,1.752l0.601,2.458l-4.116-0.366l-3.021,4.824l-7.061-1.844l1.726-5.308l3.7-3.229
		l-0.731-2.223l1.503-3.294l-2.563-1.346l-1.307,6.758l-1.229,0.588l-1.648-1.7l-0.888,0.797l-3.177-2.458l-1.125,0.837l1.033,1.477
		l-1.386,3.111l-2.171,0.145l0.131-2.798l-2.418-3.36l-3.936,1.347l-0.144-1.255l1.216,0.039l1.189-1.333l-0.247-1.124l-3.767,0.706
		l-0.692,2.157l2.419,2.627l-2.419,4.026l-1.843-2.51l-3.177-0.196l1.202,2.366l2.746,1.281l-2.537,0.85l0.014,1.517l-4.445-1.412
		l-0.183,1.975l2.262,3.686l-1.164,0.614l-3.542,0.013l1.517-4.745l-2.17,1.83l-2.026-0.195l-0.224,0.954l-4.353-2.183l1.072-1.464
		l-2.588-2.641l1.646-2.327l-1.085-0.889l-1.177,0.549l0.431,0.785l-1.712,2.366l-2.797-1.87l-2.484,2.274l-4.301,1.046
		l-5.544-0.627l-2.025,1.215l-2.72-2.915l-4.117-1.529l0.039-1.909l-4.733,1.778l-1.188,2.249l1.111,3.622l-4.21-0.34l-0.549,3.02
		l-1.896,0.483l0.275,2.262l-2.026,3.072l-1.465-0.745l-0.34,1.503l-1.15-0.405l-1.268,2.026l-1.596-1.451l-2.731,0.667l0,0
		l-3.007,1.568l-2.902-1.817l2.04-2.823l-0.771-1.294l0.482-1.373l1.112,1.883l1.62-1.949l0.039-4.405l1.544-1.765l1.634-0.274
		l-3.478-0.928l-1.936-3.464l0.876-2.065l-2.065-0.353l-0.313-2.223l5.332,0.104l0.995-0.353l0.915-2.379l2.079,0.575l0.47-0.693
		l-2.366-3.124l0.235-3.687l1.477-0.379l-1.986-3.02l0.274-1.529l-0.955,0.34l-0.861-1.085l4.731-6.157l0.131-1.778l-1.125-1.373
		l2.223-4.876l-0.339-3.961l3.031-2.484l-2.587-5.215l-3.7,0.901l0.223,2.053l-1.452,0.458l-0.81,2.836l-3.451-0.731l1.595-2.393
		l-3.517,4.275l-0.785-1.673l-1.58-0.223l-2.682,2.759l-2.72-0.68l-1.385,0.824l-0.536-1.19l-2.313-0.131l-0.431-4.68l-1.073-0.928
		l1.884-1.856l-2.223-1.085l0.836-1.725l-3.975,0.444l-1.175,1.321l-3.767-0.484l-1.83-1.424l-6.719,3.83l-0.668,1.099l0.524,2.993
		l-1.518,1.595l-1.595-0.536l-0.288-1.386l-1.02,0.327l-3.189-2.039l-3.647-0.157l-1.072-1.464l-3.49,1.321l1.504,1.804l0.052,1.921
		l-0.392,1.307l-1.961,0.837l-4.707,0.522l-1.386-0.444l-0.064-1.412l-3.739-0.916l0.574,0.811l-4.797,1.229l-3.321-0.81
		l0.262-1.281l-1.333-1.583l1.255-1.438l-0.013-2.445l-4.563-7.857l-2.34,0.458l-0.784-1.673l-1.439-0.209l-0.901,1.856
		l-11.413-0.118l-1.007,8.733l-1.555,5.072l-2.327,4.04l-1.961,0.026l-4.575-6.588l-2.406-0.876l-0.758-3.32l-1.922,1.059
		l-0.823-2.929l-0.771,0.615l0.902,1.281l-0.419,1.713l-1.308-2.052l0.314-3.373l-3.805-2.55l-1.241-2l-1.857-0.432l-5.673,2.719
		l0.301-1.203l-1.269,1.817l1.033,2.406l-3.021,0.876l-1.215,1.987l-0.681-1.425l-1.464-0.065l-5.177,2.889l-0.602,4.026
		l-2.706,1.059l-2.628-4.471l-4.196,0.549l-3.255-1.896l1.059-2.563l-1.974-1.529l-3.517,3.948l-0.955,0.157l-0.327-1.059
		l-3.478,2.144l-1.908-0.078l-0.758-3.021l-2.196-1.464l0.928-3.295l-4-3.542l-0.066-11.203l-4.275-1.987l-2.078-2.065l-1.726,0.785
		l-7.805-0.393l1.896-6.929l-2.667-1.033l-3.007,1.412l-0.523-5.308l-2.98-1.424l-0.589-1.661l-1.947,0.209l-0.68-1.098
		l-1.987,1.333l-4.955-3.046l-2.184-4.471l-2.602-0.72l1.098-5.921l-2.875-1.072l-0.196-2.014l-0.719-0.405l-0.602,0.862
		l-0.955-1.425l0.393-2.417l0.941-0.589l-1.438-2.654l-4.89,0.968l-0.862-2.249l-1.792,1.451l-1.163-1.595l-2.001,2.902
		l-1.006-2.654l-3.817,1.347l-2.144-0.889l-2.131,0.98l0.693,1.059l1.805-0.288l-0.458,1.883l-5.713,0.039l-1.347,1.555
		l-3.269,0.719l-0.667-3.608l-3.765-2.785l-2.078-3.033l-1.556,1.072l-1.085-0.523l-2.549,3.713l-1.203-1.347l0.131-1.595
		l-2.014-0.196l-1.49,1.059l-0.313,1.883l1.32,2.039l1.373,0.04l0.143,2.301l-0.902,0.784l-1.621-1.491l-1.32,1.596l-2.392-1.15
		l-1.909,0.68l-0.026,1.974l-2.157,0.157l-1.438-0.537l-1.164-2.875l-1.477,0.562l-2.785-2.405l-1.699,1.792l-3.451-0.68
		l-0.445,0.68l2.196,2.183l-4.34,4.079l-5.779-3.713l-1.896,1.765l-3.412-2.51l-1.948,0.771l-0.811-1.948l-2.222-1.307l-5.491-1.464
		l-1.281,2.104l1.033,0.811l0.863-0.51l-0.183,1.843l-1.425,0.876l-1.936-1.517l-2.902,4.981l0,0l-2.405-1.425l0.457-1.673
		l-1.711-4.367l-1.817-1.608l-2.25-0.444l0,0l0.576-2.836l2.68-4.511l0.471-4.431l2-0.354l-0.248-0.928l0.876-0.379l-3.792-5.333
		l3.229-2.157l3.661-0.654l0.928-0.746l-0.903-0.758l2.458-0.34l-0.261-1.569l3.137-0.823l3.412,1.255l0.614,1.529l1.477-1.229
		l4.615,1.896l1.53-1.294l0.196-1.856l3.463-2l2.524,2.784l4.091-1.726l3.609,1.085l3.111-2.353l2.053,0.641l0.405-1.936
		l1.542,0.589l0.863-1.19l-1.568-0.85l-1.059-3.529l1.699-1.177l1.006,0.863l2.419-2.588l0.131-4.837l1.359-1.595l3.137-0.942
		l2.026-2.366l3.269-1.15l-0.301-4.471l-3.791-2.393l-6.811-0.183l-5.243-2.928l-0.523,1.634l-1.346-0.823l-1.294,2.183
		l-0.379-2.196l-1.398,0.51l0.366,0.98l-1.072,1.15l-2.026-0.118l-0.195-1.071l-2.014,1.163l-1.791-1.765l-8.798-2.04l-0.98-1.085
		l2.626-1.32l0.523-2.3l2.51-0.053l2.811-3.111l2.209-0.052l-0.536-3.112l1.02-0.862l-1.7-4.995l1.595,0.197l-1.372-1.961
		l2.248-3.295l-1.02-1.804l-1.281-0.262l-1.516-4.183l1.646-3.164l3.7-1.712l2.876-4.733l0.902,0.379l2.209-1.831l-0.091-4.889
		l-0.864-1.308l1.687-2.85l-0.654-4.602l-1.359-0.196l-0.026-4.196l2.066-3.282l-0.458-0.785l6.851,0.575l2.562,3.255l3.791,0.785
		l1.66-3.386l6.85-2.863l0.536-3.568l2.197-2.72l2.314-6.64l2.314,0.249l2.496-4.25l3.936-2.759l1.764,0.928l1.438-1.11l4.746,0.549
		l0.823-2.954l1.948-1.007l1.686,0.523l1.046-0.955l1.739,2.602l3.15,0.875l3.844,4.523l0.445,1.765l3.164,1.582l6.392-2.379
		l1.712-2.562l6.38,3.45l11.112,1.674l6.68-0.549l2.314-10.328l-1.477-7.556l2.771-3.608v-2.681l8.119-7.465l3.242-0.313
		l2.694-1.412l1.438-2.98l-1.294-1.634l1.084-0.091l1.935-2.393l-2.17-2.222l4.354-1.151l1.778-1.765l2.784,1.137l3.046-4.614
		l1.608-5.425l1.673-0.902l0.707-1.831l1.921-0.967l4.522,1.386l0.262-1.582L608.856,6l2.249,0.562l0.326-2.392L615.275,0
		L616.204,0.079z" title="Vitebsk"></path>
	<path id="BY-MI" class="land" d="M436.502,209.795l2.902-4.981l1.936,1.517l1.425-0.876l0.184-1.843l-0.863,0.523l-1.033-0.824l1.294-2.092
	l5.479,1.464l2.235,1.307l0.811,1.949l1.935-0.771l3.412,2.523l1.896-1.765l5.778,3.713l4.354-4.079l-2.195-2.183l0.444-0.693
	l3.451,0.693l1.687-1.791l2.785,2.405l1.477-0.549l1.164,2.863l1.438,0.536l2.157-0.144l0.025-1.974l1.909-0.667l2.379,1.137
	l1.321-1.594l1.62,1.49l0.901-0.784l-0.143-2.301l-1.373-0.026l-1.307-2.053l0.313-1.882l1.49-1.059l2.014,0.196l-0.131,1.596
	l1.203,1.346l2.549-3.713l1.085,0.523l1.557-1.072l2.092,3.046l3.765,2.784l0.667,3.608l3.269-0.719l1.347-1.556l5.713-0.04
	l0.458-1.883l-1.791,0.288l-0.693-1.059l2.132-0.994l2.131,0.889l3.816-1.347l1.006,2.654l2.014-2.901l1.165,1.594l1.79-1.438
	l0.877,2.249l4.889-0.967l1.425,2.654l-0.94,0.588l-0.394,2.418l0.956,1.425l0.614-0.85l0.718,0.405l0.197,2.013l2.876,1.072
	l-1.098,5.923l2.602,0.719l2.183,4.471l4.955,3.046l2-1.32l0.68,1.084l1.947-0.196l0.589,1.66l2.981,1.425l0.509,5.32l3.007-1.424
	l2.681,1.033l-1.896,6.928l7.805,0.379l1.726-0.785l2.079,2.066l4.288,1.987l0.053,11.203l4,3.543l-0.915,3.294l2.197,1.464
	l0.758,3.006l1.909,0.079l3.489-2.144l0.327,1.059l0.941-0.17l3.517-3.948l1.975,1.53l-1.061,2.563l3.27,1.896l4.197-0.549
	l2.613,4.471l2.721-1.059l0.601-4.026l5.177-2.89l1.465,0.065l0.681,1.438l1.216-2l3.007-0.862l-1.032-2.419l1.28-1.817
	l-0.313,1.203l5.674-2.719l1.869,0.432l1.241,2l3.817,2.549l-0.313,3.373l1.308,2.052l0.418-1.712l-0.901-1.282l0.771-0.614
	l0.823,2.928l1.935-1.045l0.758,3.307l2.406,0.876l4.588,6.602l1.948-0.026l2.327-4.039l1.568-5.072l1.006-8.733l11.427,0.118
	l0.902-1.843l1.438,0.196l0.785,1.687l2.34-0.471l4.562,7.857l0.015,2.444l-1.242,1.451l1.334,1.582l-0.261,1.281l3.319,0.811
	l4.798-1.229l-0.574-0.811l3.736,0.915l0.066,1.412l1.386,0.444l4.706-0.535l1.961-0.837l0.394-1.308l-0.054-1.908l-1.489-1.817
	l3.488-1.308l1.086,1.464l3.635,0.157l3.19,2.04l1.02-0.327l0.273,1.399l1.608,0.536l1.517-1.595l-0.536-2.994l0.681-1.098
	l6.72-3.831l1.83,1.412l3.765,0.484l1.177-1.308l3.975-0.444l-0.836,1.725l2.222,1.085l-1.882,1.869l1.085,0.929l0.432,4.667
	l2.313,0.131l0.536,1.203l1.387-0.824l2.718,0.68l2.682-2.759l1.567,0.222l0.798,1.674l3.518-4.275l-1.608,2.393l3.451,0.732
	l0.811-2.836l1.451-0.445l-0.209-2.066l3.699-0.902l2.59,5.217l-3.034,2.47l0.341,3.975l-2.223,4.863l1.124,1.372l-0.13,1.779
	l-4.747,6.17l0.876,1.073l0.942-0.327l-0.275,1.529l1.987,3.021l-1.479,0.379l-0.233,3.687l2.364,3.125l-0.456,0.692l-2.078-0.575
	l-0.902,2.378l-0.993,0.354l-5.335-0.105l0.314,2.21l2.065,0.366l-0.878,2.065l1.937,3.451l3.465,0.941l-1.634,0.262l-1.544,1.766
	l-0.038,4.404l-1.621,1.948l-1.112-1.882l-0.482,1.373l0.771,1.307l-2.041,2.824l2.902,1.817l3.008-1.569l0,0l0.574,2.274h3.11
	l0.093,1.659l1.216-0.144l-0.341,1.098l1.7,0.55l-1.426,0.875l0.903,0.433l-0.523,2.34l-2.354,2.039l1.372,1.451l-2.184,18.89
	l1.125,1.622l-3.438-0.053l-5.059,2.771l-1.335,2.262l3.164,3.11l0.536,2.458l-1.829,2.092l2.563,2.066l-0.236,4.483l2.42,1.478
	l-2.524,5.269l2.654,1.098l-0.929,1.452l-2.183,0.301l-0.079,0.875l1.806,1.32l3.385-1.975l-3.517,4.511l-2.758,1.19l1.188,0.836
	l4.629-1.229l0.915,3.281l3.006-0.588l0.772,1.582l2.81,0.536l-0.379,2.51l-1.555,0.876l-8.093-0.614l-0.823,2.785l3.909,1.255
	l-1.884,1.464l-1.279-0.223l0.391,4.641l-2.339,0.615l-2.458-3.766l-2.001,0.014l-0.888,2.326l0.247,3.66l-1.347,2.248l-4.367,1.271
	l-0.94,2.221l-3.726,0.838l-0.968,2.013l-1.936,0.484l-2.34-3.949l-2.342,0.863l-0.17-2.13l-2.325-0.25l-0.602,3.243l0.719,3.752
	l-1.138,1.752l-2.183-1.1l-0.771,1.83l1.123,0.875l-0.247,3.349l1.672,1.386l-1.163,2.078l-7.137-0.719l-0.537-1.332l-4.588,2.207
	l0.117,1.229l2.157,0.784l-1.987,0.458l1.595,7.348l-0.94-0.289l-0.054-1.308l-4.601-0.783l-0.145-2.432l-3.45-4.55l-3.869-0.393
	l-1.558-3.883l-3.961,1.425l0.381,2.824l-6.473-0.261l-8.692-5.36l-0.93,4.039l0.98,1.556l-3.372-0.144l-0.354,3.595l-5.307-0.263
	l-3.556,3.296l5.504,1.397l-0.746-2.354l1.111,1.635l1.646-0.432l-0.183,1.766l-4.001,0.34l-1.008,1.713l-1.489-3.319l-1.021-0.406
	l0.014,2.497l-1.162,0.928l-0.76-1.137l-3.607,4.654l-1.608-0.289l-1.229,2.354l-2.93-1.752l-1.674,0.341l-0.521,1.636l-1.359-0.016
	l3.543,1.15l3.111,2.862l-0.039,8.498l-2.118,1.216l-0.091,1.335l-1.949-0.367l-0.928,3.699l0.327,1.792l4.301,1.674l3.021,3.605
	l0.092,6.576l-1.766,0.851l-8.354,0.263l0.014,2.521l-3.243,0.196l-9.373-0.837l-4.588-1.596l-0.771-1.28l-2.902,1.87l-2.811-0.982
	l0.928,4.367l2.21,1.529l-0.536,2.443l5.124,3.008l1.674-0.378l0.628,3.162l3.372-1.425l0.654,1.817l1.241,0.234l0.458-1.884
	l1.804-0.183l1.922,2.538l2.419-3.938l3.426,1.335l0.393,1.254l-1.229,3.389l-2.261,1.331l3.397-0.94l-0.641,1.099l0.641,1.87
	l3.203-0.995l-0.602-2.378l2.862,1.333l-1.176,0.185l0.077,1.045l1.714,0.354l7.805-2.131l1.922,2.681l-1.646,2.745l1.503-0.722
	l1.124,3.022l1.465,0.706l-1.53,1.646l1.53,5.021l-1.373,2.837l0.979,0.968l0.17,4.118l2.915,3.347l-1.974,3.881l-2.249-0.193
	l-2.797-2.026l-2.275,2.536l-1.347-0.94l-0.889,0.771l-1.347,3.348l2.642,5.659l0.876,0.223l1.123,4l-1.751,2.287l0.354,1.164
	l-4.523,1.217l-0.156,1.829l1.164,0.484l2.078,4.603l-2.536,6.117l-4.93,3.347l-0.443,2.432l-0.092,2.731l4.745,1.309l3.596,2.497
	l2.064,2.731l-0.51,0.433l0,0l-2.994,5.504l-0.144,16.264l-8.798,8.771l-13.688,2.183l-0.576-2.955l-6.025,1.139l-1.163-5.832
	l-12.406,1.609l-2.379,1.294l1.124,6.039l-2.224,1.282l-0.104,4.313h-2.667l-2.72,1.594l-8.798-2.404l-7.778,0.785l-0.497-3.008
	l-7.583-4.693l-2.601-0.078l1.62-7.294l-1.896-0.078l0.131-2.392l-1.7,0.849l-0.521-1.374l-2.38,2.484l-2.483-2.34l-0.262,1.896
	l-1.975,0.798l-5.359-0.849l-0.327,1.477l-5.987-1.19l-2,4.981l-1.02,0.066l-0.039,1.279l-2.104,0.249l2.419,5.974l-0.876,1.662
	l-4.222,3.463l-1.124,2.08l-2.837,1.396l-0.039,0.955l0,0l-4.471-1.229l-0.157-3.138l-6.066,0.116l-0.432-5.385l-2.653,0.247
	l-0.979-5.805l-6.367-0.273l0.013-3.791l-1.137-0.98l0.98-0.078l-0.092-6.132l-1.568-0.143l-0.354-4.406l-1.751,0.105l-1.138-1.599
	l-0.13-3.188l2.719-0.027l-0.288-6.117l-1.346-0.51l0.601-2.235l3.975-1.229l-1.111-4.705l-2.575-1.203l0.862-4.171l-2.195-5.737
	l-5.177,7.109l-5.922-3.659l-1.124,0.156l-1.83-2.705l-3.072,1.267l-3.53-0.364l-3.541-4.614l-1.072-8.473l-1.387-0.522l-0.156,0.93
	l-2.472-0.093l0.536,1.492l-2.653-0.708l-2.275-3.569l-0.68,0.813l-3.046-0.51l0.498-0.444l-4.236-4.105l-2.954,8.015l-2.968,1.567
	l-1.203-4.521l-6.314,9.164l-0.144-1.766l-5.321-3.06l-0.797-2.705l0.471-2.092l7.072-7.101l-1.582-0.992l-0.836-2.537l-2.419-2.587
	l-2.144-5.544l0.496-1.711l1.909-0.366l0.915-1.609l3.739,0.379l-0.51-4.929l0.823-0.81l-0.823-0.55l1.567-2.288l4.746,1.466
	l0.654-0.654l-1.569-5.62l-2.72-0.198l-1.137-5.032l-5.987,0.092l-2.902-1.975l-0.184-2.837l-1.712-1.478l-2.146,0.404l-0.024-2.091
	l-1.282-1.804l-3.713-1.36l-1.046-3.635l3.674-0.968l-0.601-1.895l1.215-1.596l2.483-0.59l0.169-2.979l4.026-0.144l1.425-9.491
	l-1.844-0.302l-2.052-6.979l0,0l1.033-0.837l1.738,0.497l2.628-3.138l1.124,0.915l3.27-1.87l5.188,0.681l0.942-1.28l5.464-1.085
	l-2.301-5.388l-0.378-11.086l-1.413,0.432l-0.653-1.921l-1.007,0.014l-0.823,1.765l-2.079-1.504l4.484-3.478l0.13-4.392
	l-5.804-2.863l0.653-0.798l-3.699-3.359l-1.084-3.673l-3.961-3.491l0.17-1.947l-1.7-1.517l-2.394,0.014l1.047-4.497l-5.738-1.661
	l-0.328-2.223l-4.327-7.359l1.229-1.216l-1.7-2.51l1.974-1.634l-1.595-1.909l-1.896,1.163l-1.607-1.594l1.032-0.354l-0.85-2
	l2.836-0.354l-2.51-5.829l3.621-0.249l1.255-1.909l1.346,1.66l2.941-3.072l5.425-1.922l-2.563-4.654l2.274,0.393l2.653-0.98
	l2.798-3.569l-3.647-8.432l-4.522,3.608l-4.327,0.993l2.079-5.608l-0.719-7.688l-4.902,1.412l-2.091,2.052l-0.98-0.431l-3.451,2.496
	l-3.269-1.215l-0.34-2.576l-1.947-2.144l0.431-2.274l-1.502-2.968l0.758-0.902l-1.607-1.622l0.575-4.366l1.844-0.889l-0.026-1.582
	l-1.936-0.026l-2.34,1.529l-1.765-0.705l-1.333,1.269l2.627,2.404l-0.588,1.66l-8.262-4.588l-0.51-1.804l3.555-4.733l0.484-3.072
	l1.072-1.071l0.863,0.443l-0.536,1.661l1.385,1.347l2.929-0.196l1.542-2.497l3.503-1.883l4.498-4.157l1.687,1.307l1.7-1.542
	l1.975,1.777l0.366,1.778l1.007-0.812l3.961,1.975l1.646-0.902l1.961,0.615l2.132-2.72l-0.511-0.954l1.844-0.301l-0.549-1.517
	l2.145-3.49l0.876,0.17l1.778-4.288l1.425-0.104l0.497-1.241l1.164,0.745l1.02-1.202l2.158-0.327l-0.367-3.071l3.53-8.079
	l1.528,0.013l-0.641-2.994l1.53-0.118l1.255-2.94l3.397,0.144l4.654-6.04l-2.51-1.412l1.661-0.797l-0.522-0.876l2.078-4.628
	l-1.281-1.647l0.302-3.255l-1.714,0.262l0.536-1.791l-1.567-0.68l0.116-2.328l1.033-1.163l-1.373-1.542l4.798,1.96l-0.091-5.413
	l3.085,0.066l0.405-1.674l-3.202-1.229l-0.092-5.542l1.373-2.432l-3.582,0.889l-0.471-1.085l-1.728-0.379l-1.79,1.661l-0.667-1.7
	l-1.712-0.967l-0.562-4.079l-2.615-4.928l1.176-4.68l-0.641-2.602l-4.327-1.804l-5.595-9.387l-2.014-1.765l-3.216,0.379
	l-1.673,1.294l-1.557-0.667l-1.855,1.177l0.627-1.569l-1.267-4.85l1.411-1.15l0.065-2.746l1.673-1.033l-8.249-7.596L436.502,209.795z" title="Minsk"></path>
</svg>