<?xml version="1.0" encoding="utf-8"?>
<svg version="1.1" xmlns="http://www.w3.org/2000/svg" xmlns:xlink="http://www.w3.org/1999/xlink" viewBox="0 0 1200 800">
	<path id="KZ-AKM" class="land" d="M575.03,221.879l4.742,0.288l2.5,5.243l4.395-1.955l5.605-0.864l0.212,4.667h9.439l2.985,1.606
		l3.258,0.409l1.878-1.076l6.229,2.212l-0.334-10.136l6.545-0.182l1.728,2.152l4.197,1.697l3.105,2.849l0.804,0.455l1.712-1.697
		l-0.758-1.061l0.894-1.561l1.167,0.894l3.683-4.015l-0.334-1.439l-1.803-0.728l-0.651-3.303l4.288,0.092l1.15-2.562l1.258-0.727
		l3.242,0.439l0.743-2.394l0.818-0.136l0.561-2.818l2.105-1.272l1.228-0.122l0.501-1.803l1.015,0.076l1.303-1.333l0.803,0.272
		l2.516-1.257l-2.5-2.849l1.621,0.333l-1.395-4.833l4.531-4.183l-1.729-2.394l1.047-0.333l0.104-2.062l-0.515-1.682l-2.045-0.166
		l0.379-3.485l-3.288-0.258l-0.925-1.924l-1.62-0.545l-0.138-1.667l-2.12-3.075l0.894-1.379l1.243-0.121l0.848-0.349l0.061-1.242
		l1.501-1.136l0.771,0.894l0.909-1.803l-1.438,0.091l-0.092-2.5l4.334,0.121l0.666-0.788l-0.787-0.895l0.242-0.818l-0.971-1.53
		l2.273,0.167l0.258-1.228l2.894,0.212l0.138,1.485l4.15-0.304l-0.091-2.53l2.895,0.228l0.091,2.105l1.848,0.364l0.35,1.272
		l1.227,0.318l0.531,1.712l0.074,2.304l2.031,0.575l0.953-2.212l-1.636-0.349l-0.5-2.333l1.243-0.122l0.545-2.47l1.637,0.349
		l0.697-1.409l1.438-0.091l1.106-1.182l6.394,0.106l0.288,2.333l1.622,0.561l0.333,5.045l-0.712,1.605l0.999,0.5l0.667-0.984
		l3.651,0.924l2.106-0.863l0.257,2.727l-1.271,0.727l0.332,1.288l-1.241,0.106l0.12,1.455l-0.878,0.772l5.758-0.152l0.454-0.788
		l1.029,0.076l0.152,0.848l3,3.788l0.439,2.333l2.864-0.378l-0.546-3.576l2.666-0.394l0.712-4.106l12.44-0.349l-0.121,1.455
		l0.394,0.03l-0.439,2.878l4.757,0.849l0.318,0.879l2.605,0.03l1.107-1.152l0.818-0.136l0.696-0.97l1.833-0.257l0.986-1.985
		l2.999,0.076l-0.183,1.863l6.107,6.637l-1.183,1.773l-0.954,3.454l0.939,2.591l-1.879,0.849l0.03,1.667l1.424,1.606l0.396,1.91
		l8.59,1.076l6.97-0.531l1.379-3.606l5.682-1.257l1.258,1.181l2.741-1.363l3.184-0.03l0.954-1.364l1-0.091l0.622,1.56l0.014,3.591
		l1.242,1.409l0.818,8.712l3.773-1.606l5.635,2.864l4.002-0.091l0.362,1.939l2.197-0.105l2.106,4.045l11.394,0.848l0,0l0.092,0.849
		l1.545,0.227l0.682,30.243l0.622,1.318l-1.804,0.348l-4.136,3.258l-0.925,1.09l-0.151,8.924l5.394-2.651l1.5,3.47l3.47,0.318
		l2.878,1.652l-0.727,1.105l-1.575,0.167l-1.151,1.439l-3.001-0.849l-6.561,4.288l-0.439,3.364l-3.182,3.758l0,0l-5.045-1.5
		l-1.909,2.94l-0.849-2.515l-0.804,0.288l0.47,0.863l-2.408,0.682l-0.804-1.318l-1.425,0.607l-0.483,2.348l1.287,0.575l1.818,4.045
		l-0.304,0.955l1.062,0.743l1.575-3.379l1.516,0.212l3.834,1.727l-4.38,4.182l-7.818,2.53l1.046,2.53l-1.637,0.773l-2.529,0.257
		l-1.197,2.03l-4.758-2.016l-1.729,3.152l-1.165,0.257l-0.289,0.758l0.85,0.894l-1.985,2.318l-4.258,0.258l-0.182,1.561
		l-1.076-0.531l-1.5,1.394L766,304.94l-2.136,1.894l3.196,2.167l-2.438,1.272l-3.38-2.181l-1.166,1.818l-2.182,0.727l0.65,4.394
		l-1.969,0.545l0.409,1.425l-3.683-2.803l-6.182,0.652l-0.727,1.484l-1.834-0.606l2.697-3.803l-0.531-2.212l0.895-1.273
		l-0.272-1.015l-0.894-0.5l2.016-2.712l-3.334-2.954l-2.122,0.151l-0.394-1.622l-2,0.758l-0.424-1.424l-1.364,0.243l0.061,1.182
		l-4.409,1.879l-0.833,4.424l-2.105-0.03l-0.954,1.863l-2.637-0.288l-2.305,1.91l0.622,1.424l-3.894,2.727l-2.092-0.03l-0.454,0.727
		l-1.939,0.395l-0.379,9.697l-2.12-3.712l-6.35,2.849l1.834,4.651l-0.94,1.848l-3.257,0.439l-4.227,2.698l-2.38,1.121l-1.818-0.939
		l0.122-3.288l2.621-3.818l-0.621-1.409L699,326.136l-0.895-2.606l-9.166,2.652l-1.318-0.121l-1,0.499l-1.304-0.318l-1.741,0.425
		l0.711-3.803l-1.711-0.152l-0.864-1.045l-1.105-2.637l-0.772,0.136l-0.895,1.47l-0.545-2.576l-4.001,2.182l1.046,3.395l-2.424,1.53
		l-1.318-0.106l-0.863-1.045l-0.304,1.333l0.864,1.045l-0.364,2.091l-0.772,0.121l-1.258-1.06l-3.788,2l-3.817-2.439l-1.713-0.136
		l-0.484-1.197l-2.364,0.772l-1.015-1.818l2.105-2.348l1.228-5.727l1.304-2.031l-0.652-3.955l1.425-0.863l0.408-10.318l-9.136,0.258
		l-0.909,1.682L648,302.712l-6.395,4.803l-2.772-2.167l-4.167,0.879l-1.742-0.318l1.971,2.667l0.211,2.561l0,0l-3.5,2.666
		l-12.832,1.667l-6.939,4.409l-4.183-6.47l3.272-1.94L609,306.682l-2.53-0.924l-7.288,2.121l-7.848-2.788L589,303.409l-3.652,0.97
		l-1.531-6.151l-2.257,1.06l-0.97-0.833l-1.424,0.697l0.061-1.758l-1.031,0.925l0.076-1.955l-0.333-1.788l-5.516-3.243l-1.833,5.985
		l-5.864,0.667l-1.121-2.409l1.939-9.151l-6.272-6.076l1.666-1.5l-2.53-3.303l4.197-3.742l-1.394-1.076l2.485-7.227l-2.682-5.561
		l-3.682-0.198l-1.485-5.105l5.122,0.5l7.727-3.969l1.212-5.349l1.303-7.59l3.606-3.016L575.03,221.879z" title="Akmola"/>
	<path id="KZ-AKT" class="land" d="M368.227,510.258l-2.515,1.333l-3.076,0.651l-1.455,0.971L359.879,515l-1.455,3.076l-1.136,3.242
		l-0.167,2.908l-1.288,0.652l-0.97,1.621l-0.076,1.258l-12,3.395l-42.485,13.439l0,0l-4.227-31.168l-2.652-7.348l0,0L291,501.333
		l0.545-1.787l-3.47-4.485l-0.363-5.605l-17.288-5.152l-5.985-2.484l-8.833-8.895l-1.833-7.121l-4.395-5.545l2.319-17.742
		l1.121-6.895l-2-3.408l-0.652-8.197l-4.591-5.137l1.061-4.029L245,407.818l-1.122-1.909l0.97-7.03l0.863-0.682l-0.136-7.106
		l-5.288-0.455l-0.015-1.878l-2.212-1.606l-0.97,1.637l-1.924-0.5l0.091,2.621l-0.728,3.864l-3.212-0.319l-1.772-0.894l-7.015-0.742
		l1.182-3l-1.258-2.864l0.849-2.576L221.257,374l-1.545-0.363l-1.333,3.424l-1.803-0.894l0.439-1.197l-3.576-1.621l-2.333-2.151l0,0
		L210.833,367l1.94-6.622l-1.031-2.364l1.833,0.909l1.197-3.061l2.272-2.045l2.879,0.016l0.53-2.197l3.636-0.077l2.515,0.455
		l2.895-1.712l-0.682-1.258l2.045-2.576l0.621-1.621h3.258l-1.728-2.106l2.833-4.985l-0.106-1.349l1.318-2.666l-0.379-2.303
		l-1.985-0.939l-0.091-1.167l-1.394-0.424l-0.105-3.894l0.545-3.198l-2.212-3.075l3.136-3.333l-0.5-1.318l3.711-4.425l-0.454-0.651
		l0,0l0.909,0.606l0.545-0.197l1.712-2.682l1.061-0.591l0.575-0.97l-0.484-2.075l-1.182-2.712l-0.485-3.364l0.894-1.894l0.606-2
		l0.879,0.318l0.712-0.091l1.015,0.561l0.485-0.016l0.379-0.272l0.257,0.242l0.152,0.879l0.682,0.212l0.484,0.757l0.622-0.243
		l-0.046-0.894l0.682-0.167l0.182-0.408l0.485,0.045l0.243-0.348l0.742-0.061l0.378,0.182l0.712-0.909L250.379,292l1.258-0.622
		l0.954,0.561l0.545,0.651l0.151,1.091l-0.197,0.53l-0.954,1.197l-0.228,0.59l0.228,0.576l0.833,0.757l1.409,0.894l6.167,5.772
		l0.53,0.212l0.909-0.863l2.394,0.137l0.606,1.424l1.894,0.984l3.03,2.348l0.56,0.016l0.637-0.53l0.59-1.379l2.364-1.379
		l1.455-0.424l3.212-1.712l1.545-1.439l1.667-1.212l1.106-0.424l0.379-0.41l0.152-0.5l-0.182-1.484l0.075-1.531l1.152-3.818
		l0.47-0.667l0.606-0.212l2.455,1.258l1.803,0.016l0.833-0.743l0.318-2.045l0.425-0.211l1.363,0.288l0.53-0.364l0.167-0.728
		l-0.439-1.969l-0.015-1.41l0.985-1.121l0.151-0.046l0.742,0.939l0.257,0.955l1.561,0.849l1.394,1.894l1.394,0.076l1.394,0.757
		l0.364-0.303l0.227-1.258l-0.591-1.621l-0.272-1.652l0.181-0.136l1.713-0.046l0.59-0.211l0.727,0.091l1.516,1.212l0.605,0.122
		l1.592-1.015l0.561,0.273l0.636,0.666l0.712,0.151l2.985-1.121l1.742-0.909l0.561,0.636l0.515,1.788l0.955,0.757l1.136,0.47
		l0.758,1.273l0.061,1.621l0.909,1.182l2.667,1.819l2.03,0.59l0.5-0.182l0.091-0.333l-0.409-1l0.121-0.363l2.439-1.167l1.5,0.015
		l0.803,1.485l1.242-0.545l0.455-1.651l0.197-5.894l0.242-2.106l0.713-0.363l1.167-0.091l0.682,1.06l0.908,0.667l0.47-0.075
		l0.364-0.47l0.758-0.182l0.545,1.091l1.288-0.03l0.379,0.561l1.439-1.349l0.425-0.045l0.711-0.606l0.333,0.515l-0.121,1
		l0.273,0.681l2.212,0.515l0.167-0.152l-0.182-0.5l0.137-0.409l0.772-0.182l0.303-0.409l-0.212-1.349l0.712-0.333l0.5-0.515
		l0.242,0.136l0.257-0.273l0.243,0.152l0.333-0.5l1,0.409l0.909,2.864l0.425,0.575l0.758,0.136l1.712-0.394l1.469,0.167l1.182,0.243
		l0.576,0.667l1.136,2.364L356,288.379l-0.606,0.818l-0.439,1.772l0.212,3.046l0.742,2.257l0.682,0.409l0.91,0.091l2.575-0.97
		l1.136,0.091l0.349,0.5l-0.349,1.485l0.227,0.985l2.031,0.97l0.606,1.637l0.94,0.727l1.636,0.227l1.272-0.364l0.697,0.046
		l2.106,0.757l3.379,0.379l0.772,0.318l0.5,0.803l0.561,0.167l0.697-0.591l2.53,0.606l2-0.545l0.576,0.015l1.864,2.561v0.363
		l-0.637,0.288l-0.075,0.273l0.046,2.788l0.045,0.363l0.333,0.076l2.318-1.182l5.167-1.318l1.378-0.727l1.924-3.212l3.106-8.121
		l0.879-1.273l1.03-0.424l2,0.288l1.317,0.682l0.288,0.424l0.076,2.121l3.591,4.485l1.137,0.637l3.56,0.439l3.197,0.242l3.061-0.167
		l1.818,0.363l2.273-0.03l2.924-1.045l2.364-0.121l12.318-5.016l0.697-0.59l0.455-1.228l0.879-5.773l2.667-13.454l2.469-0.833l0,0
		l1.955,0.954l2.167-0.954l1.318-2.304l2.061,3.182l0.257,2.985l1.455,4.894l2.394,0.939l1.561-2.182l0.788-0.577l4.364,2.622v1.818
		l-0.985,0.167l-0.985,3.409l5.303,5.167l-3.333,2.318l0.591,2.606l-0.015,2.788l4.121-1.288l2.698,13.728l3.894,6.198l0.591,2.363
		l6.409,9.576l0.576,2.364l-1.424,5l-4.667-3.833L472.606,342l-0.424,4.848l-4.652,2.834l0.955,5.228l0.954,1.363l-3.47-1.197
		l-2.5,3.258l1.53,1.742l5.379,9.106l-0.97,0.742l-0.576-0.576l-4.409,0.712l-0.758,2.105l3.818-0.349l2.106,7.288l8.212,8.121
		l6.363-3.469l3.061,2.727l0.182,1.697l-1.955,2.605l1.122,3.804l9.605,3.257l1.712,1.924l4.803,1.819l4.773,3.332l6.349,12.121l0,0
		l5.394,9.439l2.682,1.197l-6.53,7.197l-34.727,24.272l0,0l-2.213,0.713l-1.287-1.849l-8.47-1.318l1.273-2.939l-8.122-10.334
		l-3.681,0.562l-2.425-4.622l-5.03-7.575l-17.894,4.121l-10.136,27.106L410.333,462l-0.849,9.334l-9.03,0.742l-11.863,11.015
		l-2.485,3.879l-3.394,3.712l-6.47,9.713L368.227,510.258z" title="Aktyube"/>
	<path id="KZ-ALM" class="land" d="M940.12,456.984l3.516,2.289l1.471,1.727l3.711,0.334l1.44,3.696l13.106-1.47l9.241,12.955
		l14.016-4.895l6.288,2.606l-0.121,3.03l10.075,4.424l8.561,4.787l9.152,0.229l1.651,2.515l0,0l1.394-0.045l1.651-1.075l0,0
		l0.864,2.166l0.954,1.106l1.318-1.864l0,0l0.864,0.016l-1.107,1.727l0.986,0.213l0,0l1.029,0.045l1.03,0.772l0.954-1.757
		l0.698-0.03l-0.546,1.485l0,0l-1.485,1.105l0.409,0.454l1.288-0.257l-1.045,1.379l9.757,11.438l0,0l2.304,8.712l4.771,5.197
		l-0.908,6.363l0.364,2.395l1.075,0.939l3.045-1.091l0,0l0.501,0.681l2.59,1.561l1.091,0.971l5.092,1.092l0.408,0.574l0.789,3
		l-1.122,5.349l-3.12,4.606l-1.562-1.091l-3.727-3.319l-1.576-0.393l-2.379,0.5l-1.697,0.682l-2.817,1.939l-1.88,0.182l-0.863-0.5
		l-0.516-1.531l-0.287-0.15l-1.575,0.408l-0.758-0.227l-0.196-1.682l-0.335-0.651l-0.364-1.909l-1.09-0.834l-0.561-0.984
		l-1.242-0.682l-0.288,0.454l-0.606,0.304l-0.97-0.229l-1.408,1.122l-0.425,0.833l-1.091,0.258l-0.439,0.605l-0.788,0.47
		l-1.455,0.243l-0.454-0.803l-0.182,0.029l-1.409,1.334l-0.925-0.212l-0.317-0.273l-0.895,0.849l-1.469,0.243l-0.575-0.183
		l-0.214,0.304l-1.104,0.349l-0.425,0.803l-0.318,0.076l-1.408-0.426l-0.062,0.5l-0.439,0.471l-0.075,0.53l-0.319,0.349
		l-0.605-0.031l-1.151,0.395L1013,544.5l-1.787,1.531l-1.076,0.104l-1.092-0.696l-1.924-0.545l-0.667-0.668l-0.212,0.092
		l-0.167,0.895l-0.575,0.529l-2.651,1.121l-1.395-0.182l-1.333,0.197l-0.59-0.469l-0.683,0.15l-0.728,0.621l-0.53,1.455
		l-1.364,0.954h-1.15l-0.591-0.787l-0.396-0.121L993.257,549l-1.104,0.924l-0.697,0.229l-1.289,0.074l-0.727-0.665l-1.015,0.09
		l-0.985-0.257l-0.243,0.408l0.364,0.834l-0.092,0.379l-0.438-0.242l-0.439,0.09l-1.697,1.864l-2.986,1.894l-0.469,0.53
		l-0.758,0.228l-0.333,0.53l0.333,0.364l0.789-0.561l0.65-0.016l0.97,0.651l0.772,0.106l0.864,2.56l1.196,0.653l2.38-0.365
		l0.939-0.849l2.212,0.319l1.045-0.789l0.742,0.091l0.454,0.517l-0.167,0.515l0.259,0.136l1.257-0.363l0.698,1.379l2.424,1.211
		l1.044,1.016l0.152,1.092l-2.515,0.848l-1.197,1.213l1.258,1.939l-0.379,0.848l-0.787,3.287l-0.637,1.122l0.605,1.985l0.575,4.637
		l0.593,1.742v3.242l0.423,2.787l0.879,2.197l-0.197,0.848l0.046,0.41l0.424,0.547l-0.076,1.15l1.547,3.41l-0.092,1.242l0.485,2.227
		l0.546,0.395l1.515,3.379l3.728,9.393l0.454,0.607l0.394,1.424l-0.348,1.227l0.045,0.787l-0.741,0.758l-1.455,3.123l0.06,0.287
		l0.349,0.439l2.062-0.137l0.408,0.182l0.061,1.121l0.606,1.213l0.03,1.014l0.515,1.229l-0.666,1.242l-0.925,0.074l-0.682,0.578
		l-0.758-0.455l-0.818-0.152l-2.227,0.637l-2.682,2.213l-2.712,0.771l-0.621,0.713l-0.015,1.258l0.469,0.877l0.969,0.957l1.35,0.879
		l2.516,0.65l0.651,1.137l-0.076,0.182l-0.318-0.061l-0.833,0.455l-0.334-0.35l-0.121,0.35l-0.515,0.195l-0.485-0.211l-0.197,0.424
		l-2.151,0.91l0.017,0.393l-0.653,0.439l-0.454-0.166l-0.787,0.316l-0.016-0.332l-0.818,0.318L994.5,639.5l-0.272-0.016
		l-1.606,0.273l-0.09,1.213l-0.485,1.211l-0.591,2.516l-1.046,1.016l-0.454,1.697l0.303,1.59l0.939,1.955l0.879,0.818l0.803,0.076
		l0.317,0.363l-0.561,0.65l-1.241,0.621l-0.182,0.895l-0.046,1.334l0.621,0.863l-0.046,2.152l1.379,0.982l-0.35,1.197l0.714,0.986
		l-0.258,1.453l-0.971,0.563l-0.544,0.029l-0.531-0.424l-0.348-0.016l-0.85,0.697l-0.454-0.092l-0.787,0.547l-0.229-0.139
		l-0.196-0.68l0.242-1.971l-0.546-0.834l-0.483-1.379l-0.683-0.439l-1.152-0.287l-1.181-1.135l-0.485-1.395l-0.425-0.758
		l-0.348-0.229l-1.758-0.121l-0.272,0.592l-0.395,0.105l-0.227-0.287v-0.545l-0.213-0.076l-1.303-0.107l-0.47-0.303l-0.712,0.107
		l-0.394-0.637l-2.364-0.379l-1.424,1l-1.258-0.211l-1.864,0.029l-0.741-1.244l-2.637-2.119l-0.712-1.561l-0.364-0.348l-1.727-1.336
		l-1.396-0.379l-0.544-0.711l-0.439-0.168l-1.212-2.119l-0.304-1.652l0.137-0.742l0.349-0.486l-0.182-0.164l-0.713,0.014
		l-1.576,0.516l-0.469,1.016l-0.304,0.195l-0.894-1.166l-0.529-0.303l-1.153,0.137l-0.848-0.318l-0.833,0.242l-0.804-0.545
		l-1.545-0.305l-0.757-0.408l-0.774,0.076l-0.879-0.758l-0.894,0.045l-0.425-0.318l-1.09,0.395l-0.833-1.121l-3.016-0.697
		l-0.666-1.059l-1.137-0.426l-2.561,1.061l-0.94-0.35l-0.5,0.986l-0.727,0.227l-4.499-1.029l-0.606,0.939l-1.47-0.258l-0.713,0.227
		l-0.712,0.803l-0.575-0.832l-0.531-0.318l-0.455,0.014l-1.104,0.684l-0.94-1.016l-0.924,0.287l-1.091-0.529l-1.016,0.061
		l-0.53-0.229l-0.878-1l-2.41,0.152l-1.803-0.395l-1.758-0.029l-1.544-0.576l-1.426,0.166l-0.908-0.334l-3.122,0.818l-2.47,0.078
		l-1.075-0.336l-0.864-1.197l-0.529-0.316l-2.622-0.273l-1.287,0.213l-3.349-0.879l-2.44,0.029l-1.287,1.258l-1.379,0.197
		l-0.485,1.258l-0.469,0.379l-3.395-0.303l-1.212,0.121l-1.53-0.365l-0.849,1.197l-1.197,0.121l-2.863,0.818l-0.712-0.029
		l-0.228-0.197l-0.454-1.379l-0.925-0.545l-3.938-0.168l-2.909,0.547l-0.364-0.168l-0.469-0.65l-1.364-0.15l-0.985-0.818
		l-0.924,0.453l-0.985-0.287l-1.423,0.727l0,0l-0.229,0.029l-0.303-1.422l-1.53,0.666l-1.637-1.031l-2.848,0.318l0,0l-0.333-0.65
		l1.695-0.516l0,0l0.789-1.607l-5.546-2.619l-2.849-0.592l-0.697-2.879l-1.136-0.5l0.41-1.742l-1.122-0.666l0.333-3.426l3.909-4.742
		l-1.061-1.787l-4.41,0.545l0.439-1.41l-1.666-0.211l-1,0.682l-4.97-1.742l-0.015-2.605l6.439-6.121l1.121-0.531l0.697-1.895
		l-0.683-2.924l1.304-1.5l0.666-1.758l-0.137-5.061l-3.06-2.09l-1.667-2.258l-1.834-0.258l0,0l-2.818-2.592l-0.499-0.061l0,0
		l-6.577-0.711l-5.621-5.379l-0.954-1.5l1.35-4.971l-2.818-4.863l-9.455-6.621l-0.576-1.803l-1.15-1.379l-0.243-5.061l-8.258-0.211
		l-0.529-7.744l8.894,0.652l-1.606-4.229l-1.272-15.453l2.802-4.729l0,0l2.365-5.166l2.576-4.258l0,0l3.378-3.803l6.257-6.424
		l8.016-7.242l16.834-9.683l7.015,1.409l9.001-1.666l10.045,1.771l-0.031,1.243l0,0l1.697,0.454l2.016-2.379l0,0l0.818,2.471
		l0.909-1.106l2.682,0.97l0.925-2.182l1.908,0.303l2.713,0.803l4.47,1.985l-3.183-3.212l2.046-0.379l3.106,1.59l2.924-0.408
		l2.939,1.561l0.97,2.484l2.212-0.333l-0.046-2.697l8.925-0.999l-1.272-22.243l0,0l0.802-1.485l7.607,1.697l4.317-4.848l3.758,3.953
		l0,0l4.742-6.045L940.12,456.984z" title="Almaty"/>
	<path id="KZ-ATY" class="land" d="M97.833,500.924l-0.211,0.182L97.167,501l-0.909-1.894l-0.303-0.167l0.243-0.288l-0.818-1.817
		l-0.151-1.213l-0.682-0.742l-0.106-0.348l0.167-0.243l0.455-0.167l1.605,0.637l1.455,1.637l0.5,1.878L97.833,500.924z
		 M211.106,371.197l2.318,2.167L217,374.97l-0.439,1.212l1.787,0.895l1.334-3.425l1.545,0.364l2.045,10.379l-0.849,2.576
		l1.243,2.864l-1.167,3l7,0.743l1.772,0.894l3.211,0.318l0.728-3.863l-0.076-2.622l1.924,0.5l0.955-1.636l2.228,1.605v1.879
		l5.287,0.454l0.137,7.106l-0.864,0.667l-0.969,7.03l1.121,1.909l1.636,7.031l-1.061,4.029l4.591,5.137l0.651,8.197l2,3.408
		l-1.122,6.909l-2.318,17.728l4.394,5.561l1.833,7.121l8.833,8.879l5.985,2.484l17.288,5.152l0.364,5.605l3.47,4.47l-0.545,1.788
		l2.409,4.742l0,0l-2.637-1.576l-2.303,0.168l-1.378-1.289l-2.031,1.046l-3.122-0.939l-0.772-2.364l-1.303-0.575l-1.5,1.03
		l-1.515-0.895l-2.196-0.636l-0.485-1.349l0.47-2.334l-1.015-3.045l-1.439-0.196l-0.849,0.454l-0.454,0.758l-0.864,0.273
		l-1.909-1.183l-3.561-5.046l-6.938,6.879l-3.258-0.454L242.667,496l-5.637,2.197l-4.455,0.105l-2.727,1.092l-1.909,0.453
		l-1.803-0.09l-2.091,0.484l-0.591,0.971l-4.545-0.561l0.409,1.878l-1.591,3.046l-6.698,4.984l3.091,1.818l-1.909,1.833
		l-2.985,1.804l-3.56,1.529l-2.106,0.289l-1.97,1.303l-4.546-0.606l-0.938,2.349l-3.97-0.212L185.394,519l0,0l-0.045-0.379
		l1.106,0.182l0.53-0.227l-1.122-0.395l-0.182-0.379l0.106-1.015l0.621-0.272l-0.09-0.697l0.288-0.242l2.272-0.229l-1.197-0.696
		l-0.197-0.636l0.394-0.41l1.197-0.317l-0.652-0.728l-0.409-1.045l-0.712-0.576l-0.167-0.53l0.258-0.272l1.288-0.016l0.424-0.787
		l-1.636-1.439l-0.591-0.228l-0.894-1.062l0.622-0.818l1.03,0.016l-1.045-0.515l-0.122-0.591l-0.409-0.137l0.318-0.516l-0.06-0.591
		l0.833-0.636l1.288,0.167l-0.47-0.788l0.454-0.303l-0.621-0.213l-0.091-0.409l1.03-0.56l0.727-1.213l0.591,0.682l-0.091-0.605
		l0.197-0.576l-0.182-0.197l-0.409,0.137l-0.288-0.484l0.394-0.637l0.091-0.849l0.667-0.954l0.105-1.152l1.819-1.955l0.818-0.271
		l-0.772-0.288l-0.077-0.258l0.94-0.136l0.167-0.228l-0.622-0.349l-0.59-0.955l-1.258-1.121l0.424-2.303l-0.348-1.545l1.106-1.076
		l-1.167-0.439l0.409-1l-0.576-2.105l-0.302-0.092l-0.409,0.213l-0.439-0.213L189,481.197l-0.395-0.182l0.349-0.682l0.53-0.167
		l-0.954-0.97l-0.318,0.121l-0.243-0.167l0.243-1.046l0.56-0.424l-0.363-0.758l-0.606-0.242l-0.182,0.106l-0.712,1.166l-1.454,0.864
		l-0.803,1.272l-0.03,1.091l-0.5-0.045l-0.515-0.363l0.061-0.758l-0.258-0.455l0.122-0.5l0.394-0.395l-0.182-0.651l-0.531-0.349
		l-0.561,0.229l-0.379,0.484l-0.303-0.092l0.061-1.136l0.242-0.379l-0.53-0.182l-0.106-0.425l-1.212-0.484l-0.167-0.272l0.136-0.257
		l0.545,0.15l0.636-0.712l-0.258-0.364l0.152-0.727l-0.333-0.576l-0.682-0.47l-4.363,0.849l-1.136,1.243l-0.682,0.333l-0.363-0.061
		l-0.531-1.182l-0.667-0.121l-0.803,3.651l-0.349,0.409l-0.879,0.363h-1.288l-2.182-1.197l-2.909-0.53l-2.151-1.197l-1.545,0.167
		l-0.667-0.348l-0.03-0.334l-0.364,0.151l-0.166-0.364l-1.894-0.666l-2.121-0.318l-1.076,0.061l-1.122-0.803l0.182,1.637
		l0.682,0.666l0.757,0.379l0.409,0.697l-0.106,1.742l-0.394,0.803l-0.197-0.136l0.167,0.484l-0.197,0.016l-0.516-1.394l0.258-1.258
		l-0.621-0.652l-0.531-0.075l-0.151-0.591l-0.591-0.531l-0.712-2.666l-0.243,0.016l-0.045,0.5L151,472.227l-0.378,0.546
		l-0.743,0.137l-1,1.03l-0.319,0.151l-0.182-0.257l0.788-0.818l0.742-0.426l0.303-1.211l0.272-0.016l0.076-0.242l-0.242-0.409
		l0.5-0.409l0.105-0.818l-1.348,0.713l-1.091,1.333l0.652-1.272l-0.016-0.47l-1.682-1.94l-3.849-1.136l-1.181,0.183l-0.395-0.318
		l-0.788,0.348l-1.454-0.484l-0.667,0.318l-0.591-0.03l-2.076,1.787l-0.469,0.03l-0.425,0.318l-0.227,1.105l-0.485-0.12l-0.47,0.272
		l-1.439-0.045l-0.682-0.334l-0.728-0.015l-1.636-0.804l-1.395,0.334l-0.606,0.393l-0.636,0.895L127,470.667l-0.272-0.288
		l-0.455,0.09l-1.348,2.516l-0.788,0.758l-0.591,0.03l-0.257-0.288l0.288-1.166l-0.121-0.545l-0.379-0.198l-0.424,0.198l-0.97,0.711
		l-0.758,1l-0.212,1.576l-0.803,2.121l-0.364,0.363l-0.515-0.121l-0.318-0.455l0.378-1.332l-0.197-0.288l-0.985,0.803l-0.438-0.015
		l-0.273-1.773l-0.728-1.105l-1.454,2.454l-0.304,0.879l-0.53,0.561l-0.211,0.075l-0.364-0.454l0.243-1.349l-0.349-0.015
		l-0.833,0.499l-0.439,0.592l0.273,0.363l-1,0.818l-0.758,1.576l-0.349,1.333l-0.529,0.818l-0.395-0.455l-0.122-3.106l-1.985,2.107
		l-0.878,0.62l-2.122,3.167L104,485.045l-2.015-0.545l-1.061,0.5l-1.167,1.848l0.152,1.44l-0.409,0.591l-0.772,0.379l-0.485,0.697
		l-1.272-0.425l-0.803-0.651l0.379,1.166l-0.228,0.925l1.425,1.151l-0.303,0.137l-0.894-0.425l-0.212,0.243l1.228,0.999l0.47,0.788
		l-0.137,0.334l-0.803-0.228l-1.894-1.106l-0.636-0.076l-0.773,1.258l-0.515-0.075l-0.409-0.439l-0.333,0.091l-0.272,1.228
		l0.394,0.728l-0.545,0.575l-0.364-0.228l-0.5-1.075l-0.773-0.925l-0.257,0.016l0.151,1.166l0.515,0.818l0.03,0.455l0.879,0.894
		l0.182,0.788l-0.198,0.228l-2-1.167l-0.985-0.787l-0.152-0.35l-0.697-0.016l-1.228-0.908l-0.333,0.016l-0.273,0.515l-0.848-1.758
		l-0.363-0.196l0.09-0.606l-0.197-0.409l0.318-0.53l0.939,0.272l-1.197-1.333l0.075-0.546l-0.167-0.318l-1.53-0.545l-0.667,0.091
		l-0.228,0.183l0.531,0.62h0.561l0.288,0.304l0.136,0.484l-0.167,0.606l0.364,1.378l1.545,1.697l0.167,0.606l-0.212,0.621
		l0.636,0.394l0.182,0.349v0.425l-0.243,0.271l-0.515,0.031l-0.288,0.53H85.03l-0.909-0.696l0.091-0.379l-0.5-1.729l0.136-0.636
		l-0.394-0.151l0.167-0.424l-0.863-2.121l-0.955-0.895l-1.273-0.728l-0.045-0.317l-0.348-0.273l-0.576-0.105l0.227,0.348
		l-0.137,0.182l-0.758-0.561l-0.09,0.152l0.682,1.454l0.757,0.333l0.107-0.561l0.348,0.258L80.878,492l0.455,0.5l-0.137,0.47
		l0.228,0.683l-0.379-0.062l-0.622-0.849l-0.924-0.575l-0.122,0.272l0.424,0.318l0.349,0.895l-0.697,0.272l0.061-0.97l-0.652-0.576
		l-0.484-0.848l0.075-0.334l0.289-0.167l-0.606-0.561l-0.53-0.015l-0.137,0.197l0.364,0.803l-0.439,0.272l0.622,0.591l0.075,0.59
		l0.591,0.773l0.803,0.697l-0.091,0.349l-1.621-0.879l-2.925-0.818l-0.515-0.818l-1.167-0.712l-0.833-0.166l-1.515-0.758
		l-1.227-1.182l-1.031,0.09l-1.045-1.469l-0.394-1.092l-1.015-0.545l-0.5,0.016l-0.576-0.455l-0.939-0.136l-1-1.985l-0.622,0.395
		l-1.728-0.363l-0.454-0.486l0.151-0.787l-0.121-0.303l-1-0.121l-0.849-0.41l0.016-0.893l0.879-2.334l2.045-1.742l2.228,0.121
		l0.924,0.712l0.182,1.242l1.667,1.622l1.455,0.166l3.333-0.395l1.227-1.015l1.455-2.151l-1.015-2.909l-5.575-7.546l-1.409-3.257
		l-2.121-5.272l-0.531-1.834l-1.045-7.046l-3.954-0.075l-2.712-0.758l-3.03-4.849l-1.303-3.106l-1.515-2.65l-3.818-3.697l-1.5-0.182
		l-1.197,0.379l-5.045,0.5l-3,0.061l-3.939-1.243l-4.258-1.817l0.061,1.197l-0.318,2.394l-0.667,2.47l-5.303-3.152l-1.697-1.727
		l-0.681-1.182l1.258-0.652l0.121-0.273L17,426.045l-1.561-2.333l3.575-1.757l0.591-0.909l1.076,0.105l0.333-0.878l-3.257-1.168
		l-0.061-0.803l0.697-1.438l-0.076-1.273l-0.288-0.772l-0.272-0.379L16,413.652l-0.622-1.016l0,0l4.455,1.484l3.455-0.182
		l14.984,2.349l25.97,2.894l8.151,2.288l14.424,5.712l-0.227-4.545l9.167,0.5l1.605-1.303l4.955,0.121l5.97-6.121l16.182-10.863
		l1.849-0.047l2.757-2.621l1.212,0.606l2.711-1.667l1.637-5.136l6.091-0.425l3.5-1.605l12.455,2.151l0.788,1.606l-1.016,0.711
		l-0.227,3.636l9.439,2.151l1.045-1.849l1.288-0.182l6.47,3.667l3.167-0.075l2.075-1.258l-0.667-2.182l2.045-8.682l3.561-0.152
		l-0.455-10.833l2.606,1.151l1.758-4.091l1.817,0.879l10.228,0.015l4.561-1.439l-0.773-1.804l5.698-4.833L211.106,371.197z" title="Atyrau"/>
	<path id="KZ-KAR" class="land" d="M800.242,276.228l10.152,3.682l0.121,3.424l1.287,1.985l-1.303,4l-0.651,3.5l0.167,4.591
		l-1.576,0.363l-0.803,1.667l1.272,1.97l-2.182,2.061l4.333,4.772l4.349-1.136l4.242-0.349l2.379-2l0.394,1.242l4.817,0.939
		l1.622,2.03l-1.697,1.318l1.955,5.015l2.061-5.167l4.121,4.395l1.697,0.076l2.272,3.909l-1.029,0.606l0.803,2.287l3.394,1.349
		l0.485,1.833l-1.001,0.425l0.439,0.848l-1.59,0.516l-0.304-0.439l-4.016,1.697l0.046,0.985l-1.879,1.257l1.016,3.47l1.895-0.091
		l0.56,1.257l2.954-0.878l6.092-4.44l1.424-1.909l8.637,0.288l1.046-0.591l0.408-1.485l1.409-0.545l1.303,1.394l10.349-2.848
		l3.817,2.242l1.396-0.333l1.363-3.667l0.682,0.515l2.318-1.333l3.317-0.364l3.305,1.97l1.105-1.939l-0.183-4.531l1.833-7.303
		l3.03-2.954l5.683-1.47l5.213,5.516l6.15,0.243l4.849,3.105l1.743,6.198l-2.35,3.227l3.395,2.423l0,0l-0.666,2.592l-4.334,3.606
		l-2.318,3.227l-4.167,1.91l-1.302,0.908l-2.683,0.076l-0.818,3.5l0.894,1.333l-0.681,2.757l0.772,2.076l-0.606,2.378l-2.621,4.122
		l-7.667,2.818l-6.954,3.348l-0.439,2.591l2.364,2.712l-0.077,1.515l2.486,0.818l4.424,3.651l0.075,2.849l2.38,1.379l2.848,2.97
		l-2.818,1.197l-0.605-0.864l-2.454,1.273l0.257,1.742l-0.682,2.909l2.075,4.136l12.061-1.985l1.212,3.606l-1.242,4.848l0.03,1.879
		l-5.424,5.575l-2.258-0.772l-1.501,0.121l-1.529,1.409l0.333,2.303l-2.334,0.713l1.092,2.242l2.545,1.182l0.409,1.939l4.607-0.121
		l1.394,0.424l-0.636,1.561l-2.593,0.105l-0.772,2.273l3.788,3.455l2.97-0.229l2.091,1.667l-5.483,2.001l1.756,2.529l-2.016,0.016
		l-0.271,3.637l-1.455-0.062l-1.454,6.198l-1.772,3.924l0.604,1.742l0.668,0.303l1.546,6.666l0.318,2.243l-2.683-1.182l-2.788,0.439
		l0.151,3.318l-1.258,3.061l-2.317,0.879l2.637,1.363l1.53,2.606l2.863,2.121l4.378,1.636l1.425-3.924l1.833-1.137l3.47,1.697
		l2.94-1.318l0,0l1.272,22.243l-8.925,0.999l0.046,2.697l-2.212,0.333l-0.97-2.484l-2.939-1.561l-2.924,0.408l-3.106-1.59
		l-2.046,0.379l3.183,3.212l-4.47-1.985l-2.713-0.803l-1.908-0.303l-0.925,2.182l-2.682-0.97l-0.909,1.106l-0.818-2.471l0,0
		l-2.016,2.379l-1.697-0.454l0,0l0.031-1.243l-10.045-1.771l-9.001,1.666l-7.015-1.409l-16.834,9.683l-8.016,7.242l-6.257,6.424
		l-3.378,3.803l0,0l-2.576,4.258l0,0l-48.667-0.561l-28.198,1.045L732,511.606l-23.605,0.606l-41.713,0.09l0,0l-55.697-0.879l0,0
		l-0.469-4.091l-1.425-0.424l-11.682,0.651l-38.439-10.439l-5.439-3.029l-5.363-6.062l-6.136-0.53l-14.804-7.969l-3.031-0.092
		l-14.772-5.772l-1.287-1.303l-2.849,1.757l-8.728-4.895l-3.909,0.305l-4.439-2.986l-3.516-3.318l-12.167,2.259l8.106-6.334l0,0
		l34.727-24.272l6.53-7.197l-2.682-1.197l-5.394-9.439l0,0l8.318-7.56l-1.636-5.272l10.985-2.425l-2.258-2.894l1.015-1.637
		l-1.106-2.682l6.243,0.243l1.515-11.409l22.712,3.757l2.182-1.227l2.136,0.288l3.348-1.182l1.955-4.803l9.167-0.333l8.848-9.758
		l4.485-0.53l1.909-6.712l3.864,0.394l1.576-3.909l4.5-4.106l6.212-3.636l9.804-11.243l6.545-8.409l-1.379-2.788l0.834-0.909
		l-1.031-2l1.045-1.287l4.91-0.636l5.408-2.319l2.062-1.788l0.939-2.257l1.681-1.818l-0.5-1.212l-3.182-1.788l-0.136-0.97
		l-1.683-1.09l0,0l-0.211-2.561l-1.971-2.667l1.742,0.318l4.167-0.879l2.772,2.167l6.395-4.803l3.591-1.288l0.909-1.682l9.136-0.258
		l-0.408,10.318l-1.425,0.863l0.652,3.955l-1.304,2.031l-1.228,5.727l-2.105,2.348l1.015,1.818l2.364-0.772l0.484,1.197l1.713,0.136
		l3.817,2.439l3.788-2l1.258,1.06l0.772-0.121l0.364-2.091l-0.864-1.045l0.304-1.333l0.863,1.045l1.318,0.106l2.424-1.53
		l-1.046-3.395l4.001-2.182l0.545,2.576l0.895-1.47l0.772-0.136l1.105,2.637l0.864,1.045l1.711,0.152l-0.711,3.803l1.741-0.425
		l1.304,0.318l1-0.499l1.318,0.121l9.166-2.652l0.895,2.606l1.379-0.454l0.621,1.409l-2.621,3.818l-0.122,3.288l1.818,0.939
		l2.38-1.121l4.227-2.698l3.257-0.439l0.94-1.848l-1.834-4.651l6.35-2.849l2.12,3.712l0.379-9.697l1.939-0.395l0.454-0.727
		l2.092,0.03l3.894-2.727l-0.622-1.424l2.305-1.91l2.637,0.288l0.954-1.863l2.105,0.03l0.833-4.424l4.409-1.879l-0.061-1.182
		l1.364-0.243l0.424,1.424l2-0.758l0.394,1.622l2.122-0.151l3.334,2.954l-2.016,2.712l0.894,0.5l0.272,1.015l-0.895,1.273
		l0.531,2.212l-2.697,3.803l1.834,0.606l0.727-1.484l6.182-0.652l3.683,2.803l-0.409-1.425l1.969-0.545l-0.65-4.394l2.182-0.727
		l1.166-1.818l3.38,2.181l2.438-1.272l-3.196-2.167L766,304.94l-0.834-1.091l1.5-1.394l1.076,0.531l0.182-1.561l4.258-0.258
		l1.985-2.318l-0.85-0.894l0.289-0.758l1.165-0.257l1.729-3.152l4.758,2.016l1.197-2.03l2.529-0.257l1.637-0.773l-1.046-2.53
		l7.818-2.53l4.38-4.182l-3.834-1.727l-1.516-0.212l-1.575,3.379l-1.062-0.743l0.304-0.955l-1.818-4.045l-1.287-0.575l0.483-2.348
		l1.425-0.607l0.804,1.318l2.408-0.682l-0.47-0.863l0.804-0.288l0.849,2.515l1.909-2.94L800.242,276.228z" title="Karaganda"/>
	<path id="KZ-KUS" class="land" d="M572.985,112.667l1.076-0.106l2.318-0.818l0,0l1.515,5.742l0.621,0.909l-0.848,1.212l3.348,9.212
		l-5.65,2.015l5.56,3.484l2.061,0.197l1.606,4.259l-0.833,0.803l-2.667,0.257l-7.697,4.061l3.075,9.879l3.773-0.818l0.061,7.969
		l-2.394,2.349l-1.318,1.788l1.288,3.849l4.97,0.53l0.303,13.122l4.439,2.772l-0.743,3.273l-4.318-0.909l-1.923,1.531l-3.106-0.212
		l-1.303,1.576l1.061,4.819l1.455,0.09l0.242,4.545L578.333,200l0.197,5.561l-3.137,0.818l-0.363,15.5l0,0l-0.212,11.333
		l-3.606,3.016l-1.303,7.59l-1.212,5.349l-7.727,3.969l-5.122-0.5l1.485,5.105l3.682,0.198l2.682,5.561l-2.485,7.227l1.394,1.076
		l-4.197,3.742l2.53,3.303l-1.666,1.5l6.272,6.076l-1.939,9.151l1.121,2.409l5.864-0.667l1.833-5.985l5.516,3.243l0.333,1.788
		l-0.076,1.955l1.031-0.925l-0.061,1.758l1.424-0.697l0.97,0.833l2.257-1.06l1.531,6.151l3.652-0.97l2.333,1.682l7.848,2.788
		l7.288-2.121l2.53,0.924l1.924,4.787l-3.272,1.94l4.183,6.47l6.939-4.409l12.832-1.667l3.5-2.666l0,0l1.683,1.09l0.136,0.97
		l3.182,1.788l0.5,1.212l-1.681,1.818l-0.939,2.257l-2.062,1.788l-5.408,2.319l-4.91,0.636l-1.045,1.287l1.031,2l-0.834,0.909
		l1.379,2.788l-6.545,8.409l-9.804,11.243l-6.212,3.636l-4.5,4.106l-1.576,3.909l-3.864-0.394l-1.909,6.712l-4.485,0.53
		l-8.848,9.758l-9.167,0.333l-1.955,4.803l-3.348,1.182l-2.136-0.288l-2.182,1.227l-22.712-3.757l-1.515,11.409l-6.243-0.243
		l1.106,2.682l-1.015,1.637l2.258,2.894l-10.985,2.425l1.636,5.272l-8.318,7.56l0,0l-6.349-12.121l-4.773-3.332l-4.803-1.819
		l-1.712-1.924l-9.605-3.257l-1.122-3.804l1.955-2.605l-0.182-1.697l-3.061-2.727l-6.363,3.469l-8.212-8.121l-2.106-7.288
		l-3.818,0.349l0.758-2.105l4.409-0.712l0.576,0.576l0.97-0.742L465,360.076l-1.53-1.742l2.5-3.258l3.47,1.197l-0.954-1.363
		l-0.955-5.228l4.652-2.834l0.424-4.848l4.697-4.167l4.667,3.833l1.424-5l-0.576-2.364l-6.409-9.576l-0.591-2.363l-3.894-6.198
		l-2.698-13.728l-4.121,1.288l0.015-2.788l-0.591-2.606l3.333-2.318l-5.303-5.167l0.985-3.409l0.985-0.167v-1.818l-4.364-2.622
		l-0.788,0.577l-1.561,2.182l-2.394-0.939l-1.455-4.894l-0.257-2.985l-2.061-3.182l-1.318,2.304l-2.167,0.954l-1.955-0.954l0,0
		l0.167-0.046l-2.712-2.455l-0.924-1.091l-1.242-3.455l-0.803-0.651l-0.939-0.257l-2.031,1.515l-0.909,0.06l-1.833-0.485
		l-3.166-2.197l-1.379-0.075L430.045,267l-0.682-0.622l-2.788,0.061l-0.303-1.333l-0.863-0.137l-0.349-1.272l-0.652-0.955
		l-0.454-1.531l0.349-1.287l-0.182-0.349l-2.378-0.258l-6.561,0.091l-2.242-0.56l-1.394-0.591l-2.621-2.197l-0.348-0.621
		l3.515-3.516l0.364-0.454l-0.091-0.788l-1.273-0.395l-2.121-0.302l-6.561-4.288L402.182,246l0.288,0.682l0.015,0.848l-0.909,0.076
		l-0.333-0.152l-1.151-0.726l-1.227-1.758l-0.182-0.607l-0.03-1.03l0.379-1.772l1.955-0.379l2.848-0.091l1.243-0.545l1.576-1.318
		l1.469-2.015l3.757-3.515l1.122-0.606l3.136,0.53l0.53-0.303l0.97,0.031l0.681-0.289l1.394-1.257l0.757-1.742l1.334-0.106
		l3.636-1.909l0.97-1.334l1.955-1.348l0.242-0.394l-1.5-3.636l-1.228-2.121v-1.894L425.727,217l-2.348-0.212l-1.318-0.455
		l-0.167-0.438l-0.076-4.455l-0.378-0.41l-2.349-0.484l-0.121-0.515l-0.863-0.288l0.061-4.243l0.363-0.485l2.848-0.53l0.834-0.515
		l0.621-0.727l0.607-1.455l3.545-2.53l1.682-2.045l-0.349-0.743l-0.848-0.849l-0.242-1.696l1.257-0.091l1.425,0.561l0.394-0.925
		l3.151-2.076l1.015,0.289l1.515,1.696l1.424,0.212l0.909-0.561l1.682-1.788l1.257,0.379l0.334,0.363l0.651,0.046l0.879,0.56
		l2.228,2.151l0.621,0.092l1.546-1.758l0.757,0.197l0.561-0.273l1.606-0.045l0.394,0.212l1.44-0.757l0.47,0.015l1.985,2.455
		l1.394,0.424l1.53-0.863l2.272-1.772l0.061-2.894l-0.848-2.53l-0.939-0.182l-1.349-0.636l-3.136,0.152l-3.727-1.485l-1.167-1.152
		l-1-2.061l-1.712-1.242l-0.758,0.242l-0.197,1.197l-0.379,0.288l-3.061,0.137l-1.605-0.485l-0.909-1.257l-1.091-0.864l-1.272-0.318
		l-1.455,0.152l-1.758-0.137l-1.758-1.121l-0.424-1.031l-0.318-3.409l0.5-0.742l1.787-1.772l0.303-2.622l0.349-0.621l1.288-0.197
		l0.788,0.711l1.454-0.015l0.349,0.5l0.167,0.818l0.697,0.379l0.758,0.045l1.076-0.167l1.106-0.561l0.757-0.833l1.016-0.531
		l0.272-1.212l-0.954-2.47l-1.561-0.818l-2.591,0.121l-0.56,0.804l-1.182,0.667l-1.727-0.319l-4.106-0.167l-1.015-1.228l-0.56-0.257
		l-0.909-0.045l-1.122-0.591l-3.485-0.227l-0.182-0.303l0.03-1.439l0.243-0.743l2.364-0.136l0.318,0.424l0.257,0.984l0.303,0.182
		l0.333-0.182l0.197-2.833l0.304-0.318l1.56-0.561l1.228-2.228l1.455-1.076l0.485-0.697v-0.954l-0.333-0.818l-1.788-1.455
		l-0.288-0.954l-1.151-0.349l-1.122,0.288l-0.879-0.697l-1.151-0.061L426,147.97l0.47-0.909l1.106-1.136l1.863,0.046l1.682-0.41
		l0.864,1.879l0.818,0.409l1.228-0.091l0.136-0.333l-0.258-0.97l0.728-1.788l-0.939-1.682l0.333-1.045l1.272-1.333l0.198-0.637
		l0.727-0.318l1.151,0.061l0.712-0.53l1.955,0.257l0.409,0.607l0.605,2.621l0.682,0.606l1.061,0.136l0.788,0.455l0.455,1.651
		l0.47,0.409l0.818-2.121l0.515-0.757l1.288-0.334l1.045-0.545l0.364,0.984l1.228,1.272l0.591-0.454l0.303-0.833l-0.061-0.636
		l1-0.485l0.167,0.288l-0.454,0.606l0.182,0.258l0.863-0.425l0.818,0.485l-0.94,1.652l-0.045,0.454l1.682,0.455l0.53,0.561
		l0.955-0.016l1.333-0.122l0.439-0.333v-0.772l-0.879-1.818l-0.272-1.076l0.439-0.56l0.651,0.015l0.97-0.803h0.879l1.015,0.803
		l2,0.334l0.561-0.364l0.394,0.197l2.864,0.076l1.122-0.591l0.849-0.061l0.53-0.424l0.5,0.061l1.515,1.439l-0.53,0.697l-1.696,0.833
		l-0.061,0.424l0.894,2.515l0.364,0.53l1.303,0.545l0.97,0.727l0.56,0.031l0.348-0.682l-0.394-1l0.273-0.682l0.576-0.652l0.47-1.227
		l1.197-0.485l0.394-0.606l0.046-0.455l1.333-1.015l0.454-0.105l0.636-1.152l1.061-0.394l0.363-0.454l0.561-0.137l0.545-0.803
		l-0.197-0.591l0.137-0.348l1.03,0.182l2.303-0.257l1.213,0.47h1.408l1.273,0.379l1.742-0.364l0.772-0.409l0.425-0.545l0.227-1.394
		l-0.47-1.045l0.197-0.607l0.243-0.242l1.03-0.198l0.349-0.348l0.803-0.046l0.167,0.379l0.394,0.182l1.348-0.515l3.061,0.484
		l0.53-0.288l1.592-0.273l0.257-0.395l0.697,0.364l0.303-0.545l0.47,0.227l2.894-1.167l0.334-0.363l1.211-0.243l1.258-0.727
		l1.955-0.455l0.243-0.394l0.969,0.167l1.061-0.545l0.803,0.712l0.439-0.303l0.424,0.045l0.212-0.242l0.485,0.333l0.424-0.167
		l0.121-0.909l0.5-0.728l0.242,0.318l0.424-0.106l-0.258,0.939l0.091,0.243l0.515,0.091l0.863-0.742l0.561-1.076l0.742,0.318
		l0.516-0.212l0.591,0.439l0.788-0.152l0.47,0.122l0.985-0.818l1.212,0.136l0.97-0.484l1.106,0.045l0.667-0.242l2.394,0.288
		l0.682-0.349l0.319-0.576l-0.031-0.53l0.243-0.257l0.531-0.106l0.409,0.333l0.622,0.106l0.56-0.409l0.576-0.061l0.864-0.47
		l0.121-0.545l0.621-0.5l0.758-0.106l0.364,0.257l2.424-0.606l0.212,0.333l-0.151,0.227v1.683l0.302,0.105l1.606-0.439l1.409-0.788
		l1.818-1.394l1.212-0.561l0.5,0.076l1.424,1.045l1.197,1.151l1.317,1.818l3.258-0.091l0.5-0.652l0.015-0.651l-0.803-3.198
		l-0.682-1.03l0.591-1.894l-0.257-1.789l0.379-0.484l2.212-1.545l2.015-0.818h0.894l2.121,0.591l0.636-0.182l0.076-0.804
		l-1.03-1.408l0.105-0.833l0.439-0.546l0.985-0.378l2.485,0.682l1.364-0.031l1.136,0.485l1.728,1.182l0.758,0.09l0.636-0.333
		l0.757-0.97l0.454-1.242l0.092-0.924l0.545-1.091l1.803-0.849l1.303-0.122l0.439,0.106l0.318,0.515l-0.591,2.167l0.031,1.348
		L572.985,112.667z" title="Kostanai"/>
	<path id="KZ-KZY" class="land" d="M354.787,527.757l0.076-1.258l0.97-1.621l1.288-0.652l0.167-2.907l1.136-3.242l0.801-1.693l0.654-1.383
	l1.302-1.787l1.455-0.971l5.577-1.967l8.031-9.878l6.469-9.714l3.379-3.712l2.484-3.879l11.864-11.015l9.03-0.742l0.849-9.334
	l12.333,1.016l10.121-27.105l17.894-4.136l5.015,7.587l2.426,4.622l3.667-0.563l8.121,10.334l-1.272,2.939l8.47,1.334l1.288,1.848
	l2.229-0.712l-8.106,6.349l12.167-2.272l3.5,3.334l4.44,2.983l3.924-0.303l8.727,4.879l2.85-1.758l1.287,1.303l14.773,5.789
	l3.03,0.074L542,487.516l6.137,0.529l5.364,6.062l5.439,3.016l38.455,10.438l11.666-0.65l1.424,0.425l0.471,4.09l-0.41,3.5
	l4.652,3.592l0.894,2.863l-0.849,1.879l-1.788,2.53l-0.924,3.104l-0.272,4.35l-1.879,6.879l5.591,4.637l4.683,2l0.183,28.939
	l-0.576,0.817l-0.349,2.545l3.136,3.076l1.789-0.575l3.379,1.895l0.074,1.363l3.379,4.104l8.077,5.773l-2.077,2.061l-1.136-0.924
	l-1.788,0.727l-1.515,1.607l0.619,0.877l0.865,2.242l-0.35,4.365l-1.257,0.604l-2.909-2.529l0.015,6.394l-2.804,2.862l0.243,1.351
	l-0.606,3.317l-2.984,0.849l0.88,3.895l1.258-0.772l-0.472-2.529l1.621-0.926L627.03,620l1.712-0.076l-0.517,2.152l1.138,2.729
	l2.092-0.561l-0.121,1.332l-2.879,1.848l-9.758,4.879l-7.864,2.908l-7.363,5.547l-8.288,8.363l-4.137-2.545l-11.894,12.348
	l-2.562-0.621l-0.228-23.909l-8,3.76l-4.228-13.607l-0.955-3.862l-6.925-6.15l-3.576-3.592l-3.636-8.029l-0.637-0.729l-1.016-0.576
	l-1.758,0.031l-1.303,0.334l-13.924,6.62l-0.667,0.121l-17.696-1.121l-11.47-1.168l-4.137-0.666l-13,2.287l-26.758,5.258
	l-0.53-0.045l-1.03-0.983l-20.545-25.365l-3.864-3.893l-1.409-4.484l-13.787-9.955" title="Kyzylorda"/>
	<path id="KZ-MAN" class="land" d="M120.561,559.242l0.121,0.168l0.727-0.439l0.439,0.196l-1.469,0.94l-0.5,0.619l0.136,0.561
		l-0.227,0.061l-0.243-0.666l0.333-1.196l-0.273-1.712l0.152-0.182l0.621,0.832L120.561,559.242z M122.576,554.197l0.425,0.121
		l0.424-0.242l0.394-0.364l0.242-0.802l0.257,1.059l0.395-0.318l0.121,0.258l-0.212,1.879l0.167,0.622l1.334,0.683l-1.561-0.334
		l-0.212,0.408l-0.939,0.213l-0.03-0.334l0.682-0.59l-0.803-0.303l0.454-0.788l-0.091-0.47l-1-0.061l-1.243-1.484l-0.045-0.335
		l0.757-0.696l0.122,0.182l-0.455,0.606L122.576,554.197z M104.363,549.151l1.091,0.272l0.591,0.546l-1.545,0.212l-0.728,0.971
		l-0.076,1.15l0.425,1.061l0.151,1.303l0.364,0.561l0.349,0.047l0.182-0.455l0.136,0.15l-0.364,1.137l0.728,1.047l1.757,0.879
		l1.576-0.607l0.243,0.061l0.091,0.229l-0.576,1.241l-0.181,0.031l-0.425-0.501l-2.121-0.303l-0.955-0.561l-1.152-1.834
		l-0.984-3.316l0.652-2.016l0.045-0.985L104.363,549.151z M112.243,548.547l1.181,0.196l0.395,1.06l-0.227,1.121l0.257,0.818
		l-0.773,1.364l-0.03,0.743l-0.288,0.605l-0.667,0.47l-0.439,0.044l-0.606,0.668l-0.197,0.454l0.242,0.636l-0.212,0.168
		l-0.348-0.289l-0.198-0.848l0.152-0.41l-0.212-0.893l0.409-0.879l-0.045-0.697l-0.167-0.408l-0.697-0.592l0.136-0.818l-0.454-0.924
		l0.651-0.789l1.045,0.076L112.243,548.547z M180.378,529.834l0.212,0.03l0.227-0.425l0.318-0.092l0.348,0.26l0.804,2.15l0.03,0.924
		l0.363,0.85l-0.167,0.575l0.167,0.909l-0.061,0.196l-1.015,0.092l0.409,0.604l-0.076,0.168l-1.515-0.607l-0.318-0.923l-0.773-1.167
		l-1.015-0.984l-0.409-0.713l0.318-0.469l1.394-1.092l0.076-0.182l-0.485-0.454l-0.045-0.396l0.743,0.305L180.378,529.834z
		 M185.455,519l6.743,1.667l3.97,0.212l0.939-2.349l4.545,0.606l1.97-1.303l2.105-0.289l3.561-1.529l2.985-1.804l1.909-1.833
		l-3.091-1.818l6.697-4.984l1.591-3.046l-0.409-1.878l4.545,0.561l0.591-0.971l2.091-0.484l1.803,0.09l1.91-0.453l2.727-1.092
		l4.455-0.105l5.637-2.197l11.636-1.212l3.258,0.454l6.939-6.879l3.561,5.046l1.91,1.183l0.863-0.273l0.454-0.758l0.849-0.454
		l1.44,0.196l1.015,3.045l-0.47,2.334l0.485,1.349l2.197,0.636l1.515,0.895l1.5-1.03l1.303,0.575l0.772,2.364l3.122,0.939
		l2.031-1.046l1.378,1.289l2.303-0.168l2.637,1.576l0,0l2.667,7.349l4.212,31.167l0,0l-20.849,6.848l0.076,147.924l-3.909-0.15
		l-1.728,1.727l-0.849-0.65l-0.424-0.09l-2.849,0.529l-1.106,0.561l-0.303,0.832l-0.349,0.289l-0.424-0.334l-0.227-0.697
		l-0.531-0.666l-0.302,0.137l-0.016,0.818l-0.56,0.393l-0.607-0.15l-1.485-0.879l-1.727-1.576l-1.97-2.516l-1.682-1.363
		l-1.333-1.816l-2.712-4.471l-2.197-5.182l-1.378-2.031l-1.637-1.605l-0.455-0.727l-0.121-0.805l0.273-2.711l-1.333-1.926
		l-2.258-2.514l-11.242-7.955l-4.894-3.229l-1.439-0.861l-1.439-0.561l-6.925,0.211l-10.803,1.729l-4.878,1.332l-8.485,3.742
		l-2.909,1l-2.152,1.41l-9.728,8.727l-5.5,4.561l0.046-0.787l1.257-2.971l0.167-1.848L176.363,675l-0.394-1.514l-1.197-1.607
		l0.227-1.713l-0.712-0.756l0.439-3.092l0.546-1.09l2.091-2.545l1.318-2.289l2.651-6.697l0.636-3.152l-0.333-1.803l-0.727-1.41
		l-2.485-2.832l-0.167-0.516l0.561-0.848l-0.122,0.758l0.349,0.771l1.561,1.244l1.106,1.484l0.909,2.471l0.742-0.805l0.379-1.029
		l0.166-2.107l-0.272-2.059l-0.591-0.486l-1.303-0.014l-0.636-0.561l-1.016,0.422l0.439-0.727l-0.636-1.727l-4.061-1.197
		l-1.212-0.197l-2.348,0.35l-1.046,0.756l-0.621,0.971l-0.182-0.016l-1.621-2.652l-0.864-0.604l-0.621-0.152l-1.045,0.045
		l-0.485-0.182l-1.682,0.258l-2.318,0.697L160,639.742l-0.606-0.014l-0.53-0.502l-1.91-3.09l-0.211-0.773l-1.091-1.695l-0.484-1.789
		l-3.395-3.211l0.364-0.395l0.075-0.729l-0.606-1.893l-1.485-0.137l-2.818,0.576l-0.364,0.393l-1.651-0.074l-3.985,0.65
		l-0.817-0.242l-0.122-0.637l0.212-1.756l1.182-4.955l0.105-3.229l-0.227-2.211l-0.484-0.848l-0.197-1.41l-0.591-1.455L139,609.031
		l-0.228-0.713l-0.939-0.605l-0.348-0.121l-0.228,0.271l-0.167-0.137l-1.136-1.924l-1.455-3.393l-1.288-1.576l-1.106-5.971
		l-1.424-2.09l-0.378-0.365l-1.197-0.287l-0.576-0.697l0.227-2.697l-0.424-1.922l-0.939-2.365l-1.515-1.484l-3.167-1.425
		l-2.228-0.561L115,580.545l-1.818-0.758l-2.106-1.454l-0.879-1.409l-0.136-0.575l-0.077-5.894l-0.394-1.742l0.031-0.151
		l0.757,1.241l0.03,0.576l0.363-0.076l1.44-4.182l1.121,0.182l0.576-0.135l0.333,0.332l0.909-0.075l1.318,0.53l1.651-0.137
		l1.364,0.229l0.97-0.501l1.076,0.862l3.061,0.258l1.364-0.241l0.546-0.909l0.394-0.091l0.622,0.425l2.075,0.605l0.833,1.288
		l0.288,0.044l0.303,0.668l0.682,0.318l0.788-0.152l-0.363,0.697l0.348,0.849l2.636,1.818l3.137,0.062l0.924-0.744l0.667-0.939
		l0.682-0.379l0.242-0.682l2.546-0.666l0.348-0.016l0.136,0.288l-0.409,0.651l0.046,0.289l0.318-0.122l0.818,0.909l0.651-0.151
		l0.318-0.304l0.031-0.485l1.576,0.697l0.97-0.348l0.212-0.333l-0.288-0.668l-1.122-0.893l-1.742-0.773l-3.667,0.03l-1.152,0.317
		l0.03-0.514l0.5-0.501l-0.106-0.561l-0.757,0.515l-0.137-0.15l0.061-1.409l-0.848-1.728l-1.605-2.334l-0.97-0.348l-1.576-1.485
		l-1.439-0.741l-0.045-0.26l-0.894-0.757l-0.546-0.212l-0.076,0.516l-0.667,0.349l-1.197-0.121l-1.212,0.196l-1.045-0.606
		l-0.075-0.408l1.106,0.379l-0.303-0.454l0.167-0.743l0.424-0.622l-0.5-0.378l-0.015-0.683l2.393-3.316l0.395-0.258l1.258-0.576
		l0.454-0.045l0.773,0.363l0.303-0.121l2.41-2.486l1.015-0.529l0.531,0.046l1.015,0.575h0.56l0.212-1.167l-0.348-3.257l0.303-1.5
		l0.211-0.5l0.425-0.334l0.349-1.5l0.97-1.637l0.712-0.545l0.394-0.787l0.606-0.151l1.015-1.44l0.47-0.303l0.606,0.848l0.349,0.168
		l2.5-0.137l0.985-0.258l0.333-0.515l1.045-0.288l2.046-1.243l0.273-0.666l1.015-1.288l0.591,0.045l0.197,0.395l0.606,0.349
		l0.379-0.288l0.939,0.636l1.621,0.183l1.091,0.817l0.561,0.106l1.515-0.15l1.591-0.639l1.121-0.029l1.5,0.486l2.197-0.318
		l1.955,0.029l0.878-0.168l1.318-0.619l0.864,0.029l1.743-0.454l1.303,0.5l2.591,0.122l0.395,0.408l0.484,1.15l1.182,0.896
		l1.349,0.151l0.424-0.076l-0.015-0.393l1.879,0.908l1.06,0.061l0.016-0.41l-2.016-0.924l0.409-0.152l0.121-0.423l-0.348-0.546
		l-0.046-0.772l-0.606-0.772l-0.167-0.592l-0.015-1.105l0.273-0.395l1.56,0.667l1.44,1.091l1.53,0.242l1.228,1.455l1.424,1
		l0.198-0.242l-1.349-1.227l-1.44-2.213l-0.439-0.182l-1.106,0.121l-0.59-0.925l-1.849-0.879l0.182-0.485l0.682-0.408l-0.288-0.469
		l0.515-0.334l1.122-0.455l0.879-0.121l1.045,0.242l0.167-0.182l-0.636-1.182v-0.682l-0.515,0.151l-0.622,1.062l-1.394,0.65
		l-0.652,0.531L184,527.954l0.167-0.483l-0.333-0.229l0.136-0.758l-0.909-0.121l0.773-0.211l-0.53-0.272l-0.016-0.259l0.955-0.834
		l0.621-0.121l-0.061-0.619l1.046-0.107l0.333,0.622l1.045,0.636l0.243-0.061l-1.651-2.243l-1.439-1.136l0.727-0.197l0.606-0.59
		l-0.076-0.364l-0.515-0.015l0.015-0.379l0.804-0.197l0.105,0.242l0.349-0.152l0.03,0.213l0.288,0.045l0.5-0.242l0.302-0.439
		l-0.757,0.152L185.455,519z" title="Mangistau"/>
	<path id="KZ-PAV" class="land" d="M890.484,125.122l1.333-0.061l0.638,0.349l0.333,0.545l0.272,2.182l-0.939,1.439l0.213,1.667
		l-0.121,0.652l-1.214,1.378l-1.287,0.713l-0.257,1.636l-0.909,0.349l-1.864,1.363l-0.561-0.273l-0.787-1.455l-1,0.395l-0.683-0.076
		l-1.227-0.728l-1.546-0.182l-0.622,0.015l-0.271,0.197l-0.107,0.834l0.243,1l1.954,2.637l0.258,2.091l1.197,2.228l6.318,6.136
		l23.757,19.227l8.485,8.137l1.545,1.817l5.319,8.803l4.636,7.031l5.5,9.984l0.213-0.211l3.332,6.454l-0.242,0.167l9.531,16.849
		l1.742,4.061l2.605,4.03l0.363,1.015l1.183,1.621l1.999,3.97l0.259-0.152l0.287,0.561l-0.227,0.182l2.332,4.909l0.577,0.576
		l-0.031,0.409l2.94,6.136l0,0l-2.212,0.258l-0.789,4.621l-4.515,1.152l0.787,2.576l-3.802,3.727l-0.818-0.985l-5.894,0.864
		l0.136,2.818l1.516-0.258l-0.454,1.894l0.271,2.243l-1.529-0.53l-6.031,3.833l-3.728,1.167l-0.667-1.53l-1.803,0.803l-0.378,1.697
		l-3.182,1.697l-0.682-0.546l-2.516,2.44l3.53,5.106l0.804,4.696l2.241,0.682l1.364,2.06l2.395,1.879l1.969,1.015l6.091,4.045
		l-1.06,10.318l2.787,0.788l0.849,6l-2.016,2.091l-5.061,9.197l-4.061,1.864l-4.772-1.182l-12.651-5.273l-1.743-3.061l-1.954,1.151
		l0,0l-3.395-2.423l2.35-3.227l-1.743-6.198l-4.849-3.105l-6.15-0.243l-5.213-5.516l-5.683,1.47l-3.03,2.954l-1.833,7.303
		l0.183,4.531l-1.105,1.939l-3.305-1.97l-3.317,0.364l-2.318,1.333l-0.682-0.515l-1.363,3.667l-1.396,0.333l-3.817-2.242
		l-10.349,2.848l-1.303-1.394l-1.409,0.545l-0.408,1.485l-1.046,0.591l-8.637-0.288l-1.424,1.909l-6.092,4.44l-2.954,0.878
		l-0.56-1.257l-1.895,0.091l-1.016-3.47l1.879-1.257l-0.046-0.985l4.016-1.697l0.304,0.439l1.59-0.516l-0.439-0.848l1.001-0.425
		l-0.485-1.833l-3.394-1.349l-0.803-2.287l1.029-0.606L837,314.606l-1.697-0.076l-4.121-4.395l-2.061,5.167l-1.955-5.015
		l1.697-1.318l-1.622-2.03L822.424,306l-0.394-1.242l-2.379,2l-4.242,0.349l-4.349,1.136l-4.333-4.772l2.182-2.061l-1.272-1.97
		l0.803-1.667l1.576-0.363l-0.167-4.591l0.651-3.5l1.303-4l-1.287-1.985l-0.121-3.424l-10.152-3.682l0,0l3.182-3.758l0.439-3.364
		l6.561-4.288l3.001,0.849l1.151-1.439l1.575-0.167l0.727-1.105L814,261.303l-3.47-0.318l-1.5-3.47l-5.394,2.651l0.151-8.924
		l0.925-1.09l4.136-3.258l1.804-0.348l-0.622-1.318l-0.682-30.243l-1.545-0.227l-0.092-0.849l0,0L807.545,212l-5.5-0.409
		l-1.499-3.97l0.605-1.802l1.364,1.878l2.151,0.318l1.258,2.697l1.454-0.621l-0.41-4.667l1.88-0.757l-0.287-2.561l1.499-0.804
		l-1.651-4.469l-2.909,1.015l-1.348-0.424l-1.773,4.787l-3.984,0.061l-0.742-3.894l2.09-2.455l-0.969-2.045l-3.258,2.288
		l-0.712-0.743l1.756-1.44l1.122-2.802l1.682-2.516l-0.196-1.742l1.697-0.818l-0.092-1.076l1.515-0.818l-1.379-2.151l-1.529,1.03
		l-0.469-1.136l-1.684,0.621l-0.105,1.061l-4.211,3.681l-0.729-4.378l0.682-4.652l2.484,1.213l1.122-1.152l-2.424-3.833
		l-1.531-3.425l0,0l3.819-3.742l0.5-2.212l1.515,0.379l0.743-3.212l2.06,0.242l2.605,1.637l2.046-3.076l5.031,1.137l-0.304,3.424
		l2.576,0.242l0.545-2.561l2.122,0.454l-0.304,1.015l1.061,0.425l-0.015,1.955l0.53,0.318l0.09,0.349L816.938,169l3.592,1.349
		l2.379-5.864l-1.272-0.743l0.879-4.378l4.985,0.818l1.318-4.439l1.666,0.273l0.848-0.425l0.485-0.849l0.439-1.939l0.257-0.212
		l1.001,0.364l3.984-0.031l0.41,0.243l0.636,1.196l0.666-0.318l3.501-2.772l1.727-1.637l1.318-0.591l3.575-2.772l2.061-1.106
		l0.848-1.031l-0.015-1.03l-2.499-3.576l3.909-2.015l2.076,0.879l0.333-0.061l18.075-8.424l0.121-0.439l-0.758-0.94v-0.288
		l0.834-2.455l0.257-0.076l3.076,1.378l3.182,0.258l1.425-0.076l1.591-1.045l2.758,0.061l1.666-1.712l0.788-1.864l1.56-0.137
		l2.062-1.242l1.605-0.667l0.531,0.075l0.196,1.304l-0.121,0.227l-4.453,2.424L890.484,125.122z" title="Pavlodar"/>
	<path id="KZ-SEV" class="land" d="M666.378,73.94l0.743,1.772l0.379,0.197l1.908-0.5l1.971-0.909l1.258-0.181l0.984,0.166
		l2.425,1.121l0.849-0.349l2.197-0.136l2.211,0.394l3.031,1.515l1.772,0.576l0.894,0.59l0.65,0.818l1.047,3.061l0.65,0.622
		l1.501,0.575l1.727,0.228l2.41,2.515l0.5,0.227l1.984,0.061l0.5-0.258l1.516-1.712l3.227-1.394l0.439-0.531l1.03-2.909l0.728-0.773
		l1.151,0.016l1.908,1.106l1.562,0.03l0.575-0.243l0.91-1.03l0.681-0.303l2.94-0.576l0.546,0.106l0.287,2.091l0.696,1.409
		l1.062,2.105l1.212,1.107l0.394,1.818l1.046,1.061l1.016,1.97l0.211,1.273l-0.241,3.485l0.196,1.833l-0.637,1.545l-0.105,1.288
		l0.121,0.5l1.395,1.984l0.104,2.47l0.243,0.894l0.985,1.924l1.318,1.408l2.923,0.758l1.789,1.409l0.137,0.409l0.029,2.03
		l-2.303,0.712l-0.531,0.424l-0.226,0.485L726,116.515l0.168,2.122l0.408,2.757l0.711,2.47l-0.257,2.031l-0.605,1.544l-0.257,0.212
		l-0.471-0.03l-2.561-0.5l-1.803-0.955l-0.243,0.046l-0.183,0.363l0.016,1.924l0.213,0.455l0.529,0.424l1.53,0.379l0.304,0.5
		l0.182,1.121l-1.076,1.454l-0.105,0.439l0.334,0.516l0.879,0.529l0.454,0.546l0.423,0.954l0.182,1.682l0.457,0.395l1.075,0.318
		l0.348-0.121l2.212-1.924l0.682-1.44l1.318-0.272l4.333,1.363l0.288,0.667l-0.196,1.167l0.304,0.545l2.059-0.394l2.076,0.697
		l0.683-0.516l1.243-0.348l0.757-0.925l-0.03-0.939l-0.591-1.742l0.53-1.818l0.696-1.015l3.834,0.485l3.697,0.818l1.045,0.863
		l0.075,0.984l1.046,0.591l-0.091,0.955l2.061,1.167l0.228-0.076l0.47-0.757l0.196-1.849l-0.97-1.03l-2.287-1.213l0.424-1.515
		l0.863-1.455l-0.742-1.197l-1.379-1.076l-0.499-1.136l0.136-0.228l0.637-0.151l2.151,0.03l1.151,0.257l2.53,1.94l0.592,1.818
		l-0.214,1.395l1.365,0.863l-0.697,2.167l0.287,0.333l2.622,1.712l2.787,0.773l0.092,1.424l-1.804-0.395l-0.485,0.622l-1.423,0.076
		l-0.182,0.817l0.561,0.834l-0.031,0.561l1.106,0.863l0.03,0.242l-1.244,4.258l1.532,1.651l1.499,0.515l0.379-0.197l1.198-2.894
		l0.591-0.894l4.938,2L770.772,144l-1.364-2.682l-1.424-0.288l-1.257,0.076l-0.546,0.394l-1.016-0.197l0.697-3.137l1.304-0.651
		l0.364-0.576l5.332,0.47l0.985,0.167l0.741,0.742l4.107,0.409l-0.092,2.227l1.909,0.303l0.788,2.576l0.439,0.272l3.424,0.728
		l2.319,0.772l0.272,0.364l3.303-0.121l0.228-0.379l-0.197-1.015l0.212-0.319l0.939,0.349l1.197,1.015l1.318,0.652L795,146.03
		l0.061-0.394l-0.773-1.788l0.016-0.515l2.273-0.758l1.241-1.045l0.304-0.697l-0.408-0.773l0.165-0.151l1.743,0.181l0.061,0.545
		l1.637,0.289l-0.772,5.196l-0.971,4.379l-6.651-1l-0.984,1.833l0.728,1.591l-1.001,0.47l-2.166,0.438l0.348,1.44l-0.908,3.878
		l-2.061,0.334l0.031,1.56l0.636,0.122l0.029,0.182l-1.061,3.5l3.122,1.121l0.318,0.576l1.075,0.333l0.015,0.849l-0.636,1.848
		l0.515,0.622l1.591,0.894l0,0l1.531,3.425l2.424,3.833l-1.122,1.152l-2.484-1.213l-0.682,4.652l0.729,4.378l4.211-3.681
		l0.105-1.061l1.684-0.621l0.469,1.136l1.529-1.03l1.379,2.151l-1.515,0.818l0.092,1.076l-1.697,0.818l0.196,1.742l-1.682,2.516
		l-1.122,2.802l-1.756,1.44l0.712,0.743l3.258-2.288l0.969,2.045l-2.09,2.455l0.742,3.894l3.984-0.061l1.773-4.787l1.348,0.424
		l2.909-1.015l1.651,4.469l-1.499,0.804l0.287,2.561l-1.88,0.757l0.41,4.667l-1.454,0.621l-1.258-2.697l-2.151-0.318l-1.364-1.878
		l-0.605,1.802l1.499,3.97l5.5,0.409l0.167,1.909l0,0l-11.394-0.848l-2.106-4.045l-2.197,0.105l-0.362-1.939l-4.002,0.091
		l-5.635-2.864l-3.773,1.606l-0.818-8.712l-1.242-1.409l-0.014-3.591l-0.622-1.56l-1,0.091l-0.954,1.364l-3.184,0.03l-2.741,1.363
		l-1.258-1.181l-5.682,1.257l-1.379,3.606l-6.97,0.531l-8.59-1.076l-0.396-1.91l-1.424-1.606l-0.03-1.667l1.879-0.849l-0.939-2.591
		l0.954-3.454l1.183-1.773l-6.107-6.637l0.183-1.863l-2.999-0.076l-0.986,1.985l-1.833,0.257l-0.696,0.97l-0.818,0.136l-1.107,1.152
		l-2.605-0.03l-0.318-0.879l-4.757-0.849l0.439-2.878l-0.394-0.03l0.121-1.455l-12.44,0.349l-0.712,4.106l-2.666,0.394l0.546,3.576
		L705,181.484l-0.439-2.333l-3-3.788l-0.152-0.848l-1.029-0.076l-0.454,0.788l-5.758,0.152l0.878-0.772l-0.12-1.455l1.241-0.106
		l-0.332-1.288l1.271-0.727l-0.257-2.727l-2.106,0.863l-3.651-0.924l-0.667,0.984l-0.999-0.5l0.712-1.605l-0.333-5.045l-1.622-0.561
		l-0.288-2.333l-6.394-0.106l-1.106,1.182l-1.438,0.091l-0.697,1.409l-1.637-0.349l-0.545,2.47L674.833,164l0.5,2.333l1.636,0.349
		l-0.953,2.212l-2.031-0.575l-0.074-2.304l-0.531-1.712l-1.227-0.318l-0.35-1.272l-1.848-0.364l-0.091-2.105l-2.895-0.228
		l0.091,2.53l-4.15,0.304l-0.138-1.485l-2.894-0.212l-0.258,1.228l-2.273-0.167l0.971,1.53l-0.242,0.818l0.787,0.895l-0.666,0.788
		l-4.334-0.121l0.092,2.5l1.438-0.091l-0.909,1.803l-0.771-0.894l-1.501,1.136l-0.061,1.242l-0.848,0.349l-1.243,0.121l-0.894,1.379
		l2.12,3.075l0.138,1.667l1.62,0.545l0.925,1.924l3.288,0.258l-0.379,3.485l2.045,0.166l0.515,1.682l-0.104,2.062l-1.047,0.333
		l1.729,2.394l-4.531,4.183l1.395,4.833l-1.621-0.333l2.5,2.849l-2.516,1.257l-0.803-0.272l-1.303,1.333l-1.015-0.076l-0.501,1.803
		l-1.228,0.122l-2.105,1.272l-0.561,2.818l-0.818,0.136l-0.743,2.394l-3.242-0.439l-1.258,0.727l-1.15,2.562l-4.288-0.092
		l0.651,3.303l1.803,0.728l0.334,1.439l-3.683,4.015l-1.167-0.894l-0.894,1.561l0.758,1.061l-1.712,1.697l-0.804-0.455l-3.105-2.849
		l-4.197-1.697l-1.728-2.152l-6.545,0.182l0.334,10.136l-6.229-2.212l-1.878,1.076l-3.258-0.409l-2.985-1.606h-9.439l-0.212-4.667
		l-5.605,0.864l-4.395,1.955l-2.5-5.243l-4.742-0.288l0,0l0.363-15.5l3.137-0.818L578.333,200l0.621,0.045l-0.242-4.545l-1.455-0.09
		l-1.061-4.819l1.303-1.576l3.106,0.212l1.923-1.531l4.318,0.909l0.743-3.273l-4.439-2.772l-0.303-13.122l-4.97-0.53l-1.288-3.849
		l1.318-1.788l2.394-2.349l-0.061-7.969l-3.773,0.818l-3.075-9.879l7.697-4.061l2.667-0.257l0.833-0.803l-1.606-4.259l-2.061-0.197
		l-5.56-3.484l5.65-2.015l-3.348-9.212l0.848-1.212l-0.621-0.909l-1.515-5.742l0,0l7.228-2.773l9.182-2.257l2.303,0.424l1.364-1.803
		l0.469-0.258l4.531-0.667l2.848,0.227l1.197-1.272l2.105-0.243l3.516-0.848l0.334-0.349l0.287-1.606l0.364-0.394l0.651,0.076
		l1.303,0.758l3.106-0.106l1.954,0.727l0.772-0.243l0.622-0.484l1.105-0.016l3.682-1.53l0.455-0.895l0.439-2.136l0.454-0.667
		l0.97-0.804l0.758-0.303l1.213,0.06l3.363,1.667l2.242-0.576l3-0.182l0.439-0.454l-0.318-1.061l0.394-1.787l0.804-1.228
		l1.211-1.152l-0.832-0.742l-0.364-0.712l-1.288-1.5L638,86.151l0.227-1.166l-0.757-1.197l0.03-0.258l2.242-0.045L640.834,83
		l0.423,0.107l1.106,0.909l0.379-0.152l0.439-0.622l0.5-0.182l2.773,0.318l2.833-0.606l0.622,0.622l0.515,0.045l0.483-0.894
		l0.396-2.288l0.287-0.485l0.833-0.394l0.546-0.606l0.243-1.152l0.453-0.682l-0.09-1.287l0.666-0.773l0.546-0.182L656.197,75
		l4.697,3.136l0.62,0.197l0.335-0.303l0.24-0.697l-0.438-1.742l-0.835-0.94l-0.469-0.091l-0.728,0.349l-0.272-0.197l-0.136-2.137
		l0.242-0.985l0.741-0.667l1.077,0.03l2.045,0.622l2.455,1.545L666.378,73.94z" title="North Kazakhstan"/>
	<path id="KZ-VOS" class="land" d="M971.803,268.046l0.592,0.938l2.015,4.773l4.59,9.136l0.274,0.939l3.696,7.439l0.531,1.545
		l0.226-0.591l0.379,1.06l2.001,3.5l1.242,2.712l-0.409-2.924l0.136-1.364h0.456l0.211,0.833l2.955-0.016l-0.061-2.591l0.272-0.849
		l1.137-0.136l0.363-0.833l2.091-0.061l0.075-0.304l0.41-0.105l1.12,0.045l1.562-1.772l1.15-0.015l-0.104-0.895l0.394-1.757
		l-0.015-2.303l-0.106-0.955l-1.137-1.197l0.136-3.697l0.939-0.211l4.41,0.166l0.242-0.727l0.015-2.045l0.454-1.272l0.729-0.697
		l3.332,0.985l1.046,0.424l0.864,0.682l1.591,0.333l-0.183,0.546l0.35,0.439l2.651,0.985l1.516,1.151l0.727-0.484l0.757-1.212
		l0.668,0.242l0.59,0.894l0.015,1.803l-0.636,2.939l-1.379,2.197l-0.166,1.56l-0.425,1.106l0.137,1.697l2.848,0.09l4.834-1.833
		l2.016,0.031l0.121,0.621l0.258,0.03l0.104,0.243l0.046,1.212l0.471,0.197l0.272,1.273l-0.637,0.863l0.379,0.757l0.666,0.122
		l0.864,2.258l0.046,0.576l-0.864,1.787l-0.015,0.91l0.879,0.212l4.105,0.182l4.242-0.818l0.197-0.137l0.136-1.833l0.168-0.136
		l0.425,0.227l-0.047,0.773l2.03-1.182l3.682,0.53l0.592,0.258l2.394,2.09l1.53,0.47l1.637-0.167l0.575-0.318l0.895-1.106
		l0.439-0.122l1.363,0.136l1.395-0.242l1.227,0.348h1.212l1.728,0.651l0.955,0.046l0.544-0.167l2.986-1.91l1.258-1.288l0.287-0.667
		l0.03-2.257l0.455-2.015l1.182-0.333l2.605,1.061l1.697,0.409l1.591,0.106l0.772-0.47l0.5-0.849l2.137-2.091l0.318-0.818
		l-0.197-1.121l0.394-0.228l0.789,0.107l0.333,0.363l0.544,0.151l0.41,0.985l0.182,0.167l0.258-0.076l0.333,0.561l1.333-1.015
		l1.714-0.167l2.605,0.622l0.818-0.636l-0.592,0.818l0.213,0.515l2.151,0.94l1.061-0.136l1.605,0.379l1.697,0.788l2.076,1.803
		l2.197,0.243l0.833,0.302l0.575,0.395l3.878,4.394l0.471,2.849l0.304,0.545l1.908,2.076l0.909,1.728h0.228l1.379,1.272l1.516,2.151
		l1.362,1.303l0.425,0.789l0.167,0.636l-0.803,1.378l-0.047,0.864l1.395,4.348l-0.045,0.667l-0.621,1.363l0.015,0.531l0.804,1.5
		l1.818,2.076l0.348,0.212l2.183-0.091l1.454-1.258l0.516-0.045l2.408,2.196l0.97,0.455l2.197,0.454l0.788,0.515l1.227,1.243
		l0.576,0.272l1.742,0.167l0.439,0.621l0.137,1.106l2.137,0.046l0.741,0.227l1.939,1.59l0.818,1.303l0.243,1.122l-0.35,0.424
		l-0.681-0.455l-0.318,0.363l0.091,0.667l-0.408,1l0.104,1.742l0.439,0.879l0.592,0.425l2.605,0.788l0.394,1.015v1.015l2.305,4.197
		l0.257,0.894l0.091,1.107l-0.409,1.742l0.137,0.576l0.394,0.697l1.242,0.545l0.697,1.137l1.394-0.136l0.818,0.545l0.318,0.621
		l1-0.318l0.651,0.47l0.575-0.47l0.379-0.773l1.137-0.484l1.758-0.075l1.848,0.636l1.093,1.272l0.68,0.197l2.319-0.621l0.954,0.242
		l1.197,0.773l2.727-0.273l0.35,0.076l0.348,0.454l-0.394,1.667l0.152,0.379l1.316,0.5l1.593-1.212l0.833-0.227l1.272,0.061
		l1.621,2.455l0.258,0.045l1.029-0.91l-0.317-1.454l1.227-1.591l-0.091-1.273l0.183-0.272l3.56-1.272l1.97-1.243l1.758-2.439
		l1.636-1.106l0.607-0.97l0.666-0.151l0.682-0.636l0.439-0.788l-0.454-0.772l0.167-0.606l5.575,0.015l0.075,0.409l-1.121,2.318
		l0.031,0.743l0.423,0.711l-0.862,0.743l-1.622,0.909l-0.879-0.273l-1.394,1.772l-0.046,1.258l0.425,1.439l0.667,0.682l1.545-0.258
		l2.712,1.273l0.076,0.211l-0.576,0.576l1.137,0.939l-0.469,1.531l0.165,1.015l2.804,1.591l0.227,1.863l-0.394,0.546l-0.029,0.455
		l0.862,1.03l0.318,1.091l0.713,0.333l1.016-0.076l1.075,1.849l4.47,0.394l2.317,1.41l0.379,0.575l0.925,3.91v0.743l-0.469-0.076
		l-0.804-0.621l-1.394,0.045l-0.895-0.894l-1.667-0.743l-4.878,2.258l-1.349,0.03l-1.092-0.667h-0.408l-0.789,0.817l-0.469,2.061
		l-2.227,1.409l-0.683,0.849l-0.213,0.409l-0.075,1.273l0.395,2.121l2.257,2.863l0.016,0.985l-1.531,1.151l-0.211,0.364
		l-0.151,0.924l0.666,1.272l-0.182,1.333l-1.819,2.061l-0.469,1.318l-0.41,0.318l-1.104,0.302l-0.364,1.333l-0.561,0.667
		l-0.408,1.621l-1.38,0.288l-3.181,1.863l-1.289-0.682l-0.682,0.303l-1.424,0.092l-1.243,1.621l-1.802,1.273l-1.456-0.016
		l-4.408-0.592l-1.439,0.818l-1.47-0.379l-1.213,0.5l-1.029,0.107l-3.198,2.621l-0.848,1.621l-0.136,1.682l-1.576,4l-0.985,1.908
		l-0.121,1.5l0.167,1.729l-0.575,1.469l-0.122,1.016l-1.182,2.332l-0.183,1.485l1.501,8.288l0.833,6.182l-0.515,3.818l1.075,2.849
		l1.712,2.439l0.258,0.97l-0.484,2.197l0.364,1.303l-0.182,2.742l-0.183,0.546l-0.379,0.288l-2.35,0.227l-0.619,0.682l-0.425,2.364
		l-0.864,1.864l-0.091,1.424l-2.47-0.243l-1.849,0.501l-0.849-0.318l-0.924,0.605l-0.909-0.666l-2.015,0.363l-0.97,2.015
		l-2.925,2.015l-0.605,1.152l-0.818,0.394l-1.167,0.016l-0.788,0.394l-0.393,1.834l-1.318,0.742l-1.365-0.03l-1.908,1.212
		l-0.242-0.03l-0.364-0.515l-2.424,0.227l-0.228-0.242l0.106-0.242l1.121-0.605l0.562-1.334l0.877-0.758l-0.423-0.394l-0.062-0.697
		l-0.757-0.333l-0.258-1.091l-0.894-1.258l-0.546-0.364h-0.651l-0.894,0.364l-2.046-0.03l-1.666,0.818l-1.334-0.409l-0.5-0.804
		l-0.455-0.182l-1.666,0.561l-1.076-0.287l-3.561,0.182l-0.984,0.212l-1.547,0.758l-2.074,0.545l-0.592-0.03l-1.803-1.303
		l-1.985-0.03l-1.697-0.788l-2.666-0.652l-1.741-0.014l-3.563-1.213l-0.742-0.439l-1.045-1.182l-1.818-1.545l-1.439,0.408
		l-1.697-2.227l-3.136-0.182l-2.061-1.955l-2.895-0.076l-0.682,0.137l-0.637,0.439l-1.091,6.712l-0.546,1.288l-1.15,0.592
		l-0.591,3.196l-0.758,2.637l-2.439,5.438l-0.516,1.849l-0.742,4.939l-1.227,4.409l-4.242,8.727l-0.804,2.121l-0.908,3.395
		l-0.471,7.091l-0.925,2.122l-1.591,2.818l-1.061,3.287l-2.196,4.895l-0.561,1.636l-0.5,2.591l0.075,0.925l0,0l-3.045,1.091
		l-1.075-0.939l-0.364-2.395l0.908-6.363l-4.771-5.197l-2.304-8.712l0,0l-9.757-11.438l1.045-1.379l-1.288,0.257l-0.409-0.454
		l1.485-1.105l0,0l0.546-1.485l-0.698,0.03l-0.954,1.757l-1.03-0.772l-1.029-0.045l0,0l-0.986-0.213l1.107-1.727l-0.864-0.016l0,0
		l-1.318,1.864l-0.954-1.106l-0.864-2.166l0,0l-1.651,1.075l-1.394,0.045l0,0l-1.651-2.515l-9.152-0.229l-8.561-4.787l-10.075-4.424
		l0.121-3.03l-6.288-2.606l-14.016,4.895l-9.241-12.955l-13.106,1.47l-1.44-3.696L945.106,461l-1.471-1.727l-3.516-2.289l0,0
		l-4.969-4.182l-4.742,6.045l0,0l-3.758-3.953l-4.317,4.848l-7.607-1.697l-0.802,1.485l0,0l-2.94,1.318l-3.47-1.697l-1.833,1.137
		l-1.425,3.924l-4.378-1.636l-2.863-2.121l-1.53-2.606l-2.637-1.363l2.317-0.879l1.258-3.061l-0.151-3.318l2.788-0.439l2.683,1.182
		l-0.318-2.243l-1.546-6.666l-0.668-0.303l-0.604-1.742l1.772-3.924l1.454-6.198l1.455,0.062l0.271-3.637l2.016-0.016l-1.756-2.529
		l5.483-2.001l-2.091-1.667l-2.97,0.229l-3.788-3.455l0.772-2.273l2.593-0.105l0.636-1.561l-1.394-0.424l-4.607,0.121l-0.409-1.939
		l-2.545-1.182l-1.092-2.242l2.334-0.713l-0.333-2.303l1.529-1.409l1.501-0.121l2.258,0.772l5.424-5.575l-0.03-1.879l1.242-4.848
		l-1.212-3.606l-12.061,1.985l-2.075-4.136l0.682-2.909l-0.257-1.742l2.454-1.273l0.605,0.864l2.818-1.197l-2.848-2.97l-2.38-1.379
		l-0.075-2.849l-4.424-3.651l-2.486-0.818l0.077-1.515l-2.364-2.712l0.439-2.591l6.954-3.348l7.667-2.818l2.621-4.122l0.606-2.378
		l-0.772-2.076l0.681-2.757l-0.894-1.333l0.818-3.5l2.683-0.076l1.302-0.908l4.167-1.91l2.318-3.227l4.334-3.606l0.666-2.592l0,0
		l1.954-1.151l1.743,3.061l12.651,5.273l4.772,1.182l4.061-1.864l5.061-9.197l2.016-2.091l-0.849-6l-2.787-0.788l1.06-10.318
		l-6.091-4.045l-1.969-1.015l-2.395-1.879l-1.364-2.06l-2.241-0.682l-0.804-4.696l-3.53-5.106l2.516-2.44l0.682,0.546l3.182-1.697
		l0.378-1.697l1.803-0.803l0.667,1.53l3.728-1.167l6.031-3.833l1.529,0.53l-0.271-2.243l0.454-1.894l-1.516,0.258l-0.136-2.818
		l5.894-0.864l0.818,0.985l3.802-3.727l-0.787-2.576l4.515-1.152l0.789-4.621l2.212-0.258l0,0L971.803,268.046z" title="East Kazakhstan"/>
	<path id="KZ-YUZ" class="land" d="M610.984,511.424l55.697,0.879l0,0l5.334,8.713l2.62,8.636l4.046,10.303l3.637,15.743l1.682,2.395
		l2.257,12.408l2.651,17.971l-1.105,0.742l-0.531,3.5l-2.044,3.197l-0.485,4.682l-3.696,9.227l0.075,0.85l-3.97,5.682l3.091,1.09
		l-0.818,1.273l1.273,3.938l1.59-0.695l0.668,0.045l-0.334,1.469l2.045-0.318l3.123,2.273l0.908-2.242l0.666,0.061l0.576,2.379
		l2.652,0.242l0.727,1.061l1.046-0.408l0.727,0.908l-0.53,1.773l1.5,1.455l1.092-0.727l0.757,0.574l-1.061,1.879l0.925,0.742
		l0.954,0.424l-0.758,0.758l1.001,1.408l-0.396,3.273l0.092,1.971l0.575,0.713l-0.727,1.908l3.09,1.908l2.168-0.121l0.332,1.334
		l1.744,0.652l0.165,1.301l0.954,0.258l0.364,1l0.85,1.197l1.605,0.305l2,3.498l2.349-0.621l0.529,0.955l-0.529,1.5l1.272,0.061
		l0.015,0.924l1.652,1.502l0,0l-0.379,0.758l-0.031,0.982l0.273,0.668l-0.137,0.576l0.379,0.318l1.5-0.123l-1.182,1.486
		l-1.773,1.076l-0.439,0.014l-0.832-0.635l-0.97,0.908l-0.531,0.879l-1.983,2.182l-0.092,0.803l-1.378,3.469l-0.743,0.152
		l-0.772-0.711l-0.485-0.139l-0.031-1.422l-0.348-0.576L705.515,669l-1.712-1.5l-0.666-0.014l-0.242,0.287l-0.333,1.59l-0.818,0.986
		l-1.197,0.924l0.243,2.316l-1.578,1.016l-1.09,0.35l-1.242,1.395l-1.121,2.408l-2.879,1.621l-0.666,1.561h-0.439l-0.318-0.971
		l-0.682,0.092l-1.213,2.729l-1.863,0.758l-0.758-0.654l-0.787-0.211l-1.061,0.668l-2.001,0.211L682,685.516l-2.076,0.561
		l-2.394,2.379l-0.727,1.516l-1.697,0.5l-1.061,0.908l-0.471,0.818l0.257,0.561l0.743,0.486l-0.212,0.65l-0.257,0.121l-1.41-0.229
		l-1.696,0.41l-1.288-0.484l-1.878,0.227l-0.729,0.439l-0.696,1.516L665,696.697l-0.728,1.818l-0.425,0.289l-0.879-0.486
		l-0.332,0.107l-1.258,1.953l-0.122,1.727l-1.015,0.971l-0.197,1.152h-0.682l-0.424,0.287l-1.318,1.424l-2.787,4.047l-0.471,1.061
		l-0.197,1.166l-0.848,0.771l-1.167,0.455l-0.908,0.758l-0.335-1.031l1.137-0.771l-0.833-0.379l-0.515,0.242l-0.425-0.166
		l-0.318-0.971l-1.501,0.939l-0.196-0.379l-3.136-0.197l0.016,0.818l2.302,0.152l0.562,0.879l-0.545,0.576l0.62,1.605l-0.545,4.727
		l2.091,2.895l0.712,2.09l1.53,0.818l0.545,1.334l-2.741,1.092l-1.53-0.107l-0.516,0.713l-3.105-0.908l0.349-0.729l-1.214-1
		l-1.195,0.318l-2.607-2.227l-2.408-0.85l-2.287-2.561l-3.667-2.166l-1.562-0.424l-0.908-1.273l0.469-1.455l2.592-0.092
		l-0.061-3.316l0.939-0.939l-0.879-2.197l0.893-0.939l1.576-0.334l-0.5-0.303l-0.379,0.168l-0.878-0.818l-1.94,1.258l-0.529-0.758
		l-0.939,0.832l-2.106-1.969l-1.303-1.576l-0.561-0.152l-0.894-0.816l-9.804-0.303l-1.591,0.393l-0.561-0.076l-0.545-0.363
		l-20.728-1.545l-2.212-25.242l-15.348-1.865l0.136-11.939l0.591-0.695l0.061-4.197l2.06,0.895l0.045-0.592l2.561,0.621
		l11.894-12.332l4.136,2.545l8.288-8.363l7.363-5.531l7.863-2.908l9.773-4.879l2.879-1.85l0.121-1.334l-2.091,0.561l-1.136-2.727
		l0.515-2.15l-1.712,0.074l0.318-1.818l-1.606,0.91l0.47,2.545L625,622.455l-0.879-3.895l2.985-0.863l0.605-3.318l-0.242-1.348
		l2.803-2.881l-0.015-6.393l2.909,2.529l1.257-0.605l0.334-4.363l-0.863-2.242l-0.622-0.879l1.516-1.605l1.788-0.729l1.137,0.908
		l2.074-2.059l-8.09-5.773l-3.379-4.107l-0.076-1.379l-3.379-1.893l-1.787,0.576l-3.137-3.061l0.349-2.545l0.591-0.834
		l-0.182-28.939l-4.683-2l-5.591-4.637l1.863-6.879l0.288-4.349l0.909-3.105l1.789-2.53l0.848-1.879l-0.895-2.863l-4.65-3.592
		L610.984,511.424z" title="South Kazakhstan"/>
	<path id="KZ-ZAP" class="land" d="M129.272,256.273l3.439,0.106l0.47-0.333l1.152,0.833l1.651-0.395l0.212,0.212l0.681-0.151
		l0.167,0.212l0.606-0.045l0.03-0.318l2.682-0.546l0.712,0.591l0.121,0.667l1.864,0.455l0.212,1.864l-0.046,1.757l-0.363,0.5
		l-2.516,0.137l-0.561,0.09l-0.151,0.258l0.121,0.637l0.651,0.439l0.227,0.455l-0.015,1.091l1.121,0.469l2.228-0.09l1.167,0.454
		l2.652-1.333l0.742-1.045l-0.015-1.091l0.652-0.227l0.59,1.272l0.834-0.167l0.378,0.152l0.545,0.924l-0.818,1.621l0.288,0.47
		l0.621,0.076l1.833-0.955l0.849-0.833l1.469-0.561l0.137-0.212l-1.091-2.606l-0.045-0.591l0.56-1.333l2.41-3.03l2.727,0.182
		l2.272,1.288l1.136-0.348l1.228,0.151l0.985-0.561l0.576-0.848l0.379-1.576l0.984-0.197l1.591,0.288l1.242-0.895l-0.06-1.045
		l0.772-0.363l0.773,0.303l0.242,0.288l0.606,4.576l1.728,2.289l0.818,1.939l1.015,0.955l0.288,1.803l1.182,0.802l0.015,0.47
		l-0.257,0.197l0.136,0.621l0.591,0.227l0.046-0.212l0.894-0.5l-0.045,0.818l0.939,0.075l-0.303-0.682l0.272-0.151l0.364,0.379
		l0.227-0.061l0.091-1.152l0.272-0.045l0.319,1.212l0.53,0.333l-0.211-0.939l1.424-0.439l0.515,0.167l-0.152-1.03l0.697,0.379
		v-0.789l0.243-0.469l0.212,0.349l-0.061,0.454l0.303-0.227l0.228,0.394l0.409-0.212l0.076,0.53l0.743-0.318l0.803,0.394
		l0.788-0.303l-0.03,0.288l-0.833,0.5l0.151,0.53h0.258l0.379-0.409l0.379,0.243l0.211-0.925l0.47,0.016l-0.061,0.591l0.395,0.333
		l0.424,0.864l0.227-0.182l-0.181-0.591l0.803,0.318l-0.122-0.727l0.834,0.395l1.485-0.637l0.53-0.515l0.333-0.03l0.257,0.409
		l0.561,0.212l1.363-0.137l0.016-0.455l-0.591-0.651l0.106-0.5l0.788,0.211l0.575-0.711l0.243,0.167l-0.348,0.727l0.167,0.212
		l0.652,0.227l0.97-0.197l0.394,0.182l0.485,1l0.379,0.015l0.333-0.743l0.743-0.424L202,263.97l0.455,0.167l0.561,0.848l0.772,0.167
		l0.667,0.636l0.016,0.667l1.333,0.651l0.151,0.531l1.045,0.439l1.318,0.075l0.167,0.697l0.621,0.712l0.864,0.454l0.167,0.561
		l-0.243,0.318l-0.848,0.121l0.803,1.015l-0.197,0.939l-0.349,0.197l-0.106,0.728l0.197,0.636l1.151,1.076l0.257,0.743l-0.105,0.606
		l0.53,0.667l0.636-0.197l1.288,0.636l0.211,0.652l0.439-0.303l0.591,0.091l0.712-0.257l0.863,0.954l0.349,0.076l1.045-0.197
		l0.303-0.303l2.03,0.985l0.364,0.47l1.636,0.394l0.561,0.545l-0.105,0.485l0.302,0.257l1.788,0.576l0.591,0.576l0.394,1.016
		l-0.439,1.136l0.091,0.545l0.136,0.045l0.228-0.576l0.242-0.105l0.834,1.227l0.045,0.424l-0.515,0.151l-0.257,0.349l0.484,0.439
		l-0.03,0.667l0.743,0.288l-0.151,0.788l1.076,0.849l1.045,2.318l0.697,0.955l0.53,0.288l3.758,0.303l2.045,1.106l0.091,0.849
		l-1.409,2.379l-0.454,1.955l0.348,1.682l-1.122,2.227l-0.091,1.318l2.5,3.864l0.909-0.061l0.773-0.47l0,0l0.454,0.651l-3.711,4.425
		l0.5,1.318l-3.136,3.333l2.212,3.075l-0.545,3.198l0.105,3.894l1.394,0.424l0.091,1.167l1.985,0.939l0.379,2.303l-1.318,2.666
		l0.106,1.349l-2.833,4.985l1.728,2.106h-3.258l-0.621,1.621l-2.045,2.576l0.682,1.258l-2.895,1.712l-2.515-0.455l-3.636,0.077
		l-0.53,2.197l-2.879-0.016l-2.272,2.045l-1.197,3.061l-1.833-0.909l1.031,2.364l-1.94,6.622l0.273,4.197l0,0l-0.97,1.469
		l-5.697,4.833l0.772,1.803l-4.56,1.44l-10.228-0.015l-1.818-0.879l-1.742,4.091l-2.621-1.137l0.454,10.818l-3.545,0.152
		l-2.06,8.667l0.667,2.182l-2.076,1.258l-3.166,0.076l-6.47-3.667l-1.288,0.167l-1.045,1.848l-9.439-2.151l0.227-3.636l1.015-0.711
		l-0.788-1.606l-12.454-2.152l-3.5,1.606l-6.091,0.425l-1.652,5.137l-2.712,1.666l-1.212-0.605l-2.743,2.621l-1.848,0.045
		l-16.182,10.863l-5.97,6.122l-4.955-0.122l-1.606,1.318l-9.167-0.5l0.227,4.546l-14.41-5.712l-8.166-2.289l-25.97-2.893
		l-14.985-2.35l-3.454,0.182l-4.455-1.484l0,0l-2.637-3.121l0.136-0.5l-0.197-0.152l-1.424,0.031l-2.076-0.469l-3.757-1.805
		l-4.591-1.742L0,404.197l3.212-9.016l2-4.682l1.47-4.363l1.742-3.94l4.682-2.909l1.94-2.546l1.03-2.636l0.409-2.046l-0.228-1
		l-0.682-0.969l-4.621-4.136l-2.409-1.425l-0.077-0.59l0.652-3.895l0.515-5.621l1.167-2.318l0.439-3.227l-0.015-3.016l0.56-4.242
		l0.425-0.985l0.318-0.348l1.621-0.031l3.985-1.53l1.56-1.045l1.833-1.833l1.228-1.879l1.969-3.955l0.182-0.515l-0.379-1.228
		l-1.924-3.061l1.94-1.985l-0.122-0.545l-0.591-0.257l-0.015-2.349l0.515-0.954l2.272-0.167l0.318-0.198l0.03-1.742l0.561-0.349
		l0.47-1.409l1.924-1.848l1.242-0.303l2.121,1.122l1.122,1.439l2.424,1.288l-0.257,0.515l0.97,1.288L37.818,319l1.121,0.152
		l0.106,0.757l0.894,1.272l1.561,1.47l1.242,1.667l0.379,1.242l0.788,0.651l0.136,1.288l1.061,0.909l0.47,0.863l1.258,0.395
		l0.333,0.47l0.97,4.439l0.561,0.561l0.091,0.758l0.333,0.561l0.788,0.576l0.803,1.409l0.227,1.06l-0.197,0.591l0.349,0.257
		l1.257,0.243l0.637-0.409l0.515,0.122l0.394,0.772l0.439,0.182l0.227,0.849l0.864-0.394l0.485,0.485l0.03,0.53l0.879,0.363
		l0.243-0.211l0.015-1.197l8.864-4.03l3.757-3.682l0.439-0.728l-0.667-1.924l-0.091-0.924l-1.849-0.364l-0.803-0.379l-0.197-0.394
		l0.075-0.818l0.333-0.424l0.228-0.97l0.075-0.97l-0.424-1.167l-1.409-2.303l-0.485-1.56l-0.439-3.97l-1.455-7.636l0.424-1.409
		l-0.439-1.182l-1.909-1.061l-0.333-0.636l-0.03-0.621l0.591-0.712l0.636-0.182l0.97,0.228l1.985,1.833l2.273,0.181l1,0.849
		l0.378,0.03l1.273-1.5l2.076-1.197l1.303-1.924l3.243-3.849l1.485-0.834l2.5-0.56l1.318-1.136l1.788-0.151l2.258-0.804l0.303-0.894
		l-0.272-0.863l-1.243-2.879l-0.5-0.818l-0.833-0.651l-0.03-0.379l1.621-2.712l-0.211-1.909l0.378-0.379l0.91-0.227l0.151-0.925
		l1.136,0.258l1.318,0.743l0.622-0.03l2.03-0.728l2.97,0.545l1.197-0.091l3-2.682l0.879-1.151l1.955-1.758l6.515-2.455l1.894-0.348
		l4.333-2.167l0.136-0.182l-0.545-0.394l-0.591-1.47l1.136-1.167l-0.03-0.47l-0.636-0.681l3.257-0.289l0.091-1.666h1.409
		l0.076-0.697l-0.697-1.591l0.288-2.349l0.409-1.333l0.439-0.106l0.288,0.303l0.257-0.212l0.591-1.924l1.636,0.016l0.667,0.348
		l2.076,0.304l0.03,0.894l-1.439,1.409l-0.091,0.379l2.622-0.303l0.242-0.485l0.409-0.182l0.47-3.272l-1.076-0.591l-0.546-0.637
		l-0.197-1.818l0.349-1.848l0.833-0.076l2.682,1.273L129.272,256.273z" title="West Kazakhstan"/>
	<path id="KZ-ZHA" class="land" d="M814.076,511.5l-2.365,5.166l0,0l-2.802,4.729l1.272,15.453l1.606,4.229l-8.894-0.652l0.529,7.744
		l8.258,0.211l0.243,5.061l1.15,1.379l0.576,1.803l9.455,6.621l2.818,4.863l-1.35,4.971l0.954,1.5l5.621,5.379l6.577,0.711l0,0
		l0.499,0.061l2.818,2.592l0,0l1.834,0.258l1.667,2.258l3.06,2.09l0.137,5.061l-0.666,1.758l-1.304,1.5l0.683,2.924l-0.697,1.895
		l-1.121,0.531l-6.439,6.121l0.015,2.605l4.97,1.742l1-0.682l1.666,0.211l-0.439,1.41l4.41-0.545l1.061,1.787l-3.909,4.742
		l-0.333,3.426l1.122,0.666l-0.41,1.742l1.136,0.5l0.697,2.879l2.849,0.592l5.546,2.619l-0.789,1.607l0,0l-1.695,0.516l0.333,0.65
		l0,0l2.848-0.318l1.637,1.031l1.53-0.666l0.303,1.422l0.229-0.029l0,0l-0.729,1.273l-0.529,2.545l-0.364,0.637l-1.243,0.939
		l-3.014-0.955l-3.622-0.168l-1.151,0.229l-0.697-0.105l-3.105-1.363l-1.394,0.197l-1.243,0.545l-0.894-0.152l-0.258-0.271
		l-1.061-0.061l-0.833-1.152l-1.318-0.561l-0.152-0.393l-1.317-0.654l-0.849-0.832l-1.212-0.15l-0.879-0.668l-0.258,0.15
		l-0.121-0.727l-0.272-0.332l-2.183-0.926l-0.575,0.455h-2.272l-1.001-1.348l-0.363-1.273l-0.833-0.742l-1.183-0.59l-0.379-1.152
		l-0.636-0.303l-1.212-1.092l-0.47,0.121l-0.592-0.379l-0.272,0.168l-0.561-1.016l-1.423-0.137l-0.425-0.516l-0.485,0.273
		L820,624.818l-1.288-0.152l-0.241-0.303l-0.758-0.137l-0.41-0.879l-2.939,0.199l-0.727-0.182l-0.41,0.24l0.638,1.318l-0.106,0.318
		l-0.454,0.242l-0.5,0.016l-1.229,0.682l-1.394,0.379l-1.438-0.439l-0.592-0.682l-0.848-0.242l-1.439,2.348L805.439,629l-2.091-0.59
		l-1.212,0.137l-4.121,2.166l-1.971,0.818l-0.379,0.453l-0.121,0.258l0.289,0.531l-0.076,0.484l-0.592,1.273l-0.787,1.016
		l-0.425,1.074l0.106,4.955l-1.227,2.332l-1.121,3.91l-0.061,2.227l0.5,2.395l2.212,2.848l-0.092,0.879l-0.575,0.289l-0.47,0.061
		l-0.696-0.484l-3.106-0.287l-1.061-0.879l0.015-1.881l-0.364-0.379l-1.696-0.09l-3.925-1.076l-2.105,0.213l-0.833-0.213
		l-0.925,0.318l-0.696-0.258l-1.197-0.045l-0.925-0.697l-1.181-0.197l-0.743-0.408l-2.046-2.834l-2.273-0.711l-1.772-0.986
		l-0.561-0.09l-1.12,0.271l-1.485-0.318l-6.379-2.955l-1.47-0.043l-1.211,0.393l-0.729-0.166l-0.621,0.59l-0.727,0.137l-0.925-0.318
		l-0.94-0.984l-2.119-0.607l-0.91-0.574l-0.439-0.623l-2.213-0.74l-1.332,0.061l-1.697,0.939l-2.5,0.711l-1.41,1l-1.666-0.395
		l-0.41-0.574l-1.15-0.803l-0.529-0.016l-0.879,0.408l-2.334,0.092l-0.712,0.803l-2.622-0.137l-0.228,0.305l0.031,0.695
		l-1.258,2.484L725.59,646l0.078,1.516l-0.35,0.984l-3.652,0.426l-0.923,0.816l-0.077,0.363l0.546,0.834l1.94,1.424l0.029,0.758
		l-0.469,1l-0.516,0.166l-0.667-0.197l-1.227-1.045l-0.485,0.41l-0.621,0.984l-0.183,1.318l-0.469,1.303l-0.592,0.91l-0.439,0.242
		l-0.438,1.016l0,0l-1.652-1.502l-0.015-0.924l-1.272-0.061l0.529-1.5l-0.529-0.955l-2.349,0.621l-2-3.498l-1.605-0.305l-0.85-1.197
		l-0.364-1l-0.954-0.258l-0.165-1.301l-1.744-0.652l-0.332-1.334l-2.168,0.121l-3.09-1.908l0.727-1.908l-0.575-0.713l-0.092-1.971
		l0.396-3.273l-1.001-1.408l0.758-0.758l-0.954-0.424l-0.925-0.742l1.061-1.879l-0.757-0.574l-1.092,0.727l-1.5-1.455l0.53-1.773
		l-0.727-0.908l-1.046,0.408l-0.727-1.061l-2.652-0.242l-0.576-2.379l-0.666-0.061l-0.908,2.242l-3.123-2.273l-2.045,0.318
		l0.334-1.469l-0.668-0.045l-1.59,0.695l-1.273-3.938l0.818-1.273l-3.091-1.09l3.97-5.682l-0.075-0.85l3.696-9.227l0.485-4.682
		l2.044-3.197l0.531-3.5l1.105-0.742l-2.651-17.971L684,558.092l-1.682-2.395l-3.637-15.743l-4.046-10.303l-2.62-8.636l-5.334-8.713
		l0,0l41.713-0.09L732,511.606l5.211,0.378l28.198-1.045L814.076,511.5z" title="Zhambyl"/>
</svg>
