<?xml version="1.0" encoding="utf-8"?>
<svg version="1.1" xmlns="http://www.w3.org/2000/svg" xmlns:xlink="http://www.w3.org/1999/xlink" viewBox="0 0 1200 800">
	<path id="KG-B" class="land" d="M215.511,529.752l1.47,0.773l3.729-0.093l1.637,2.334l-0.183,1.351l0.971,0.379l5.273-1.047l0.576,0.895
		l3.228,0.851l3.122,1.983l0.287,1.472l3.486,1.545l4.925-0.683l1.727,5.879l1.38,1.563l3.122,0.604l5.456-0.516l1.817-1.379
		l0.092-4.668l1.211-0.863h2.259l2.167,1.213l1.909,4.41l0.954,3.121l-1.651,3.88l1.576,1.364l1.288,4.029h1.212l2.516-3.287
		l3.545-2.427l0.606,0.441l4.152-3.031l1.379-0.606l1.137,0.455l0.817-0.742l0.046-2.396l-2.167-1.561l1.667-2.652l4.485-0.455
		l4.411,2.683l1.849,0.304l4.122-3.94l4.41-0.348l-0.409-2.834l0,0l5.167-2.471l9.745-2.683h2.121l1.41,1.137l0.562,1.697
		l-1.546,6.351l2.258,2.817v1.138l-4.092,2.971l0.985,1.137l6.501,2.545l1.697,1.545l0.712,1.972v1.971l-4.516,3.955l4.651,1.546
		l1.41,0.985l0.561,1.545l-1.274,4.229l1.971,2.818l0.135,1.834l-2.394,6.063l0.137,1.97l5.924,1.137l3.955,2.545l2.971,7.488
		l2.394,3.104h1.971l1.697-2.121l1.273-0.424l2.394,0.984l0.424,1.41l1.546,1.271l-1.546,1.698l2.258,1.56l3.395,4.094l0.984,3.803
		l-1.408,0.983l-0.425,2.972l-3.667,2.395l-8.184,2.683l-1.137,1.409l-3.667,0.425l-3.531,4.229l-5.228,1.273l-1.409,1.137
		l-4.804,1.41l-3.243-1.834l-4.94-0.426l-2.546,0.289l-5.501,2.545l-2.394-2.545l-5.79-0.14l-5.364-4.227l-4.092-0.562l-4.804,0.713
		l-3.531-2.971l-5.077-0.713l-2.546-1.137l-1.697-1.273l-0.712-2.393l-6.076-0.851l-2.547,4.939l-1.833,1.137l-8.608,0.851
		l-1.273,0.848l-4.092,7.199l-0.56,4.381l-1.485,2.029l0,0l-2.137-1.363l-1.212,0.092l0.091,1.908l-6.229,1.469l-1.045,3.031
		l-1.046,0.606l-4.501-0.438l-3.152,1.213l-0.833,3.455l-2.682,3.195l-2.774-0.349l-1.045-1.983h-1.212l-6.229,3.469l-8.244-1.043
		l-2.424,0.514l-1.122,0.773l-0.605,1.985l-0.773,8.484l-2.425,3.031l-2.258,0.516l-3.379-0.516l-5.88-3.197l-2.774,5.363
		l-2.516-0.515l-1.212-1.563l-1.561-0.256l-3.198,2.938l-2.772,0.168l-4.077-1.379l-3.288-2.85l0.924-7.668l-2.136-2.972l-5.198-2.85
		l-3.985-8.744l-1.471-1.045l-8.062-1.547l-3.456-3.729l-1.469,0.26l-1.213,1.727l-3.38,0.439l-1.773,1.862l-3.592-0.483
		l-2.167,2.682l-5.365-2.498l-1.561,3.183l-2.183,1.848l-2.5,4.047l-5.198-0.09l-1.379-1.213l-0.349-3.031l-2.425-2.076l-1.379-0.092
		l-3.546,2.592l-1.471-0.166l-5.197-4.76l-3.834,2.213l-0.879,1.789l-3.259-0.697l-2.758,4.062l-2.167,0.168l-1.818-4.063
		l-3.198-0.09l-4.243-1.471l-1.212,0.772l-1.304,4.152l-2.743,1.227l-8.259-6.334l-7.699-2.592l-2.334,0.09l-1.818,1.729
		l-2.243,0.258l-2.424-0.697L39.628,636l-2.03,0.5l-3.137,4.168l-1.94,0.166l-1.242,1.137l0.091,1.213l-2.94-0.092l-4.349,1.396
		l-1.318-0.984l-2.303,1.062l-3.289-1.123l-1.303-2.59h-1.576l-0.939,3.803l-2,1.637l-2.941-2.334l0.091-2.848l1.304-1.652
		l0.349-2.426l-3.197-9.517l-0.092-6.063L5.91,617.98l-4.243-5.32v-5.65l-1.562-1.349L0,604.023l7.364-8.351l-3.47-4.895l1.985-5.806
		l3.546-2.895l0.955-2.259l-2.425-3.637l0.772-1.047l1.213,0.517l1.728,2.938l2.683-0.256l2.167,1.562l1.728,2.682l0.439,6.411
		l3.895,0.604l2.773-2.377l2.516-0.471l2.94,0.954l0.605-0.697l-3.895-5.97l-0.864-3.638l1.379-14.549l1.212-0.955l2.258,0.166
		l3.198,2.076l7.623-3.03l2.333,0.092l0.515,1.303l1.561-0.166l2.94-4.758l5.881-3.455l7.091-2.334l4.547,0.166l4.85-1.212
		l9.259-3.729l1.986,0.09l8.138,4.759l5.804,5.715l1.818,0.166l1.304-1.379l1.728,0.696l0.349,2.166l1.984,2.168l6.578-0.516
		l1.651,0.605l3.729,2.26l2.772,0.257l0.167,1.819l0.955,0.862l6.835,3.728l12.639,3.381l3.122,1.984l1.121,1.047l-0.606,2.166
		l-3.636,1.985l-5.107,4.334l-0.606,5.197l0.773,1.818l1.561,0.258l-0.227-4.121l0.742-2.713l1.045-0.773l3.29,0.167l6.577-3.728
		l-0.349-2.865l1.984-2.85l1.122-10.351l3.289-1.379l12.291-2.425l1.651-2.864l-0.349-3.729l2.94-1.045l1.212,1.045l2.379-0.652
		l3.758-2.453l8.396-3.38l1.364-3.546l-2.774-4.668l0.697-1.652l2.334-0.771l7.366-0.258l5.197-3.199l3.804-4.667l5.016-0.516
		L215.511,529.752z" title="Batken"></path>
	<path id="KG-C" class="land" d="M543.012,108.233h3.031l3.123,4.061l2.758-0.258v1.395l0.88,0.606l1.287,0.682l1.471-0.349
		l0.697,1.213l1.378-0.334l3.562,3.895l4.152,1.545l0.773,1.394l3.031-0.864l1.818,1.562l7.456,1.986l0.682,2.166l6.501,8.138
		l3.106,2.773l2.864,1.121l1.818,3.29l4.062,2.681l2.167,0.35l2.515-1.122l1.47,0.424l2.562-1.303l1.469,0.439l7.623,3.47
		l1.638,1.637l10.744,5.622l7.88,2.258l5.107,3.546l4.926,1.395l3.546,2.848l6.759-0.349l6.319,1.819h4.743l8.577,1.909l5.016-0.697
		l23.55,6.228l3.548-5.107l1.544-0.924l2.213-9.153l2.41-3.076l3.531-2.773l8.305-2.334l1.819,0.515l1.983,3.031l4.411,0.516
		l3.196,2.515h2.516l9.094-2.515l6.061,0.181l1.638,1.304l8.319,0.167l1.819,1.045l0.908,5.926l1.849,1l2.955,0.167l14.701-4.229
		l1.394-2.697l1.212-0.804l8.018,1.364l2.016-1.076l4.137,1.076l8.576-0.045l2.426-1.471l1.03-1.773l0.182-2.636l1.137-1.047
		l6.137-0.424l1.653-2.94l1.288-0.182l7.623,1.304l2.605-1.652l4.653-0.652l1.637,0.697l2.53,3.849l1.652-0.166l3.621-3.076
		l6.486,0.515l1.909,0.531l0.683,3.197l2.97,0.395l4.396,3.47l-1.289,1.986l-4.136,1.029l-4.82,4.304l-2.243,7.229l-1.711,0.864
		l-4.139-0.682l-16.019,2.061l-2.228,0.682l-1.044,1.212l-4.472-0.515l-6.88,3.091l-2.591,0.349l-7.396-1.031l-3.971,1.728
		l-3.607-0.515l-2.758,1.198l-5.334-0.864l-3.107,0.697l-1.545-1.379l-2.925-0.182l-0.167,3.456l-4.138,0.515l-2.409,1.197
		l-3.789-0.516l-2.924,3.108l-9.986,6.364l-2.76,3.107l-3.787,1.712l-0.516,3.97l-1.547,1.031l-2.242,0.682l-2.409-1.031h-5
		l-2.927,0.682l-1.712,1.38l-6.896,1.211l-1.196,1.38l-5.865-0.182l-3.956,0.864l-3.789-1.713l-3.438-0.53l-0.864,1.895l0.864,3.455
		l-0.183,3.092l-5.334,0.182l-2.061,1.713h-2.244l-1.379,1.212l-2.227,5.167l-5.517,3.955l-1.894,2.243l-6.032,2.576l-2.228-1.379
		l-1.895-0.167l-0.863-1.562l0.166-1.545l-1.545-0.349l-0.682,1.213l-1.895,0.863l-2.94,0.863l-2.925-0.515l-2.409,0.848
		l-3.956-2.743l-1.727,2.228l-4.82,0.182l-4.121,1.713l-7.577-2.759l-4.819,1.213l-2.076-0.682l-1.38-1.561l-4.637,3.272
		l-4.304,0.182l-1.728-2.591l-1.728-0.515l-3.44,1.894l-7.744-1.213l-1.728,0.864l-11.532,1.031l0.516,2.424l3.439,3.955
		l1.213,3.274l2.062,2.743l0.696,3.971l-1.561,1.197l-2.743-0.682l-5.683,0.682l-2.591,1.213l-3.606,4.652l-4.137,3.259
		l-4.305-0.683l-7.501,2.667l-3.622-0.166l-4.819,1.197l-3.621-0.849l-4.123,1.363l-4.137,0.349l-4.652-0.863l-2.925,13.608
		l1.728,1.546l4.986,2.243l0.515,1.545l-1.379,0.515l-1.378,2.244l-2.228,0.516l-2.076,1.728l-0.849,1.712l1.364,5.167l-1.031,2.576
		l-4.122,2.077l-1.456,8.35l-2.924,0.516l-3.622-1.031l-2.062,0.864l-1.728,1.546l-2.743,8.26l-1.894,1.378l-2.244-2.576
		l2.577-7.411l-0.682-0.863l-5.85,1.03l-2.243-0.516l-1.03-2.409l-4.138-3.789l-1.712-2.743l-2.591,2.576l-1.728-0.349l-2.743,1.213
		h-7.759l-1.197-1.031l-4.471,1.031l-1.015-0.561l0,0l-0.106-3.106l-0.925-1.031l-0.697-3.349l-1.606-0.804l-4.849-0.697l-12.548,3
		l-1.849-1.379l-1.501-0.121l-1.272,1.379l-3.334-0.334l-1.955-2.077l-3.122,0.228l-10.366-3.228l-2.197,0.576l-2.41-2.076
		l-1.272-5.183l-1.849-2.532l-11.866-3.228l-4.926,0.456l-3.379-1.335l0,0l-0.545-2.652l0.743-4.182l-4.925-1.789l-2.076-2.833
		l0.439-7.759l1.197-1.046l6.561,2.091l6.713-5.819l1.637-0.303l2.243,0.91l5.365-1.94l6.274,1.637l4.016-3.576l6.274-0.455
		l6.713,2.243l11.184-3.879l1.789-2.092l0.303-4.774l4.182-5.076l1.046-3.122v-2.833l-3.44-2.394l-1.939,1.636l-1.637-0.288
		l-1.045-2.833l-1.637-1.652l-2.091,0.455l-0.152,3.274l-1.637,5.076l-1.197,0.455l-1.636-0.833l0.197-2.273l-4.061-3.896
		l-3.986-7.759l-1.818-6.652l0.091-8.138l2.531-6.593l0.5-4.562l3.288-6.426l2.485-3.121l1.137-11.548l-0.683-5.288l-1.454-3.379
		l0.697-3.289l3.97-3.986l-0.182-7.001l1.228-3.031l5.364-1.304l4.001-2.183l3.273-3.182l5.546-2.864l6.668-4.925l1,1.288
		l2.076,0.697l1.47-1.561l8.259,0.788l2.334-2.349l0.484-1.592l0.834,0.258l3.592-10.351l5.016,1.819l1.984,3.289l2.698,1.379
		l2.243-0.772l2.334-2.167l11.168-0.591l1.652-0.788l0.681-1.637l-3.106-5.546l0.682-2.425l2.697,1.909L543.012,108.233z" title="Chu"></path>
	<path id="KG-J" class="land" d="M327.41,258.534l10.306,1.637l2.228,1.334l2.834,4.334l2.091,0.591l5.229-1.485l4.471,3.425
		l2.683-0.288l6.411,3.425l7.167-0.591l7.607,3.728l9.486,7.305l7.608-0.895l1.349-4.471l4.167-1.939l3.288-4.485l1.046-0.288
		l2.379,2.379l2.986-1.939l1.197,2.242l2.091-0.454l2.379,0.894l3.531-1.516l0,0l3.379,1.335l4.926-0.456l11.866,3.228l1.849,2.532
		l1.272,5.183l2.41,2.076l2.197-0.576l10.366,3.228l3.122-0.228l1.955,2.077l3.334,0.334l1.272-1.379l1.501,0.121l1.849,1.379
		l12.548-3l4.849,0.697l1.606,0.804l0.697,3.349l0.925,1.031l0.106,3.106l0,0l1.273,0.696l-1.85,3.108l-5.985,6.228l0.228,0.803
		l5.758,3l1.728,0.107l1.849-1.607l0.925,0.122l3.562,3.333l4.046-0.923l1.379,0.697h4.379l1.833,1.379l0.697,2.304l-0.454,4.728
		l2.758,5.881l2.425,1.606h6.107l1.5,1.046l-0.819,5.985l0.925,2.198l0.575,7.592l-1.379,3.456l-1.728,0.122l-2.303-3.107v-2.197
		l1.272-2.652l-0.818-1.606l-3.562-3.001l-5.88-1.257l-3.228-2.198l-2.88,0.925l-0.121,1.273l4.031,9.214l3.183,1.333l0.621,2.046
		l2.046,2.046l4.925,3.288l3.895,0.606l5.531-0.818l3.289,0.622l4.304,2.667l3.076-2.061l10.441-1.016l5.956,1.637l2.652,2.257
		h2.258l4.106-5.122l5.531-1.439l9.018-0.41l3.895-1.227l2.864-3.076l4.319-2.259l2.455-0.605l3.272,0.605l-0.818,3.896
		l-1.849,2.879l0.621,7.365l-3.485,8.82l-0.409,6.759l-1.228,2.879l-5.334,3.273l-1.44,2.062l-4.91,0.196l-3.697,3.273l-8.608,1.242
		l-6.153,4.092l-9.213,2.046l-0.818,3.075l3.272,4.926l1.031,5.531l-5.123-0.818l-6.152,1.637l-6.774,0.41l-3.062-0.605
		l-1.652,2.863l-2.455,0.621l-1.849,1.637l-0.409,1.85l-6.153,1.016l-1.015,2.045l0.197,2.666l1.439,2.471l6.562,4.91v2.258
		l-4.925,3.895l-3.076,4.517l-0.819,2.651l-2.304-3.061l-4.121-0.105l-3.047-1.563l-4.607-1.09l-0.591-8.744l-0.59-1.363
		l-2.319-1.184l-0.106-3.727l-3.031-1.38l-1.576,0.288l-0.105,2.85l-1.865,1.666l-0.394,2.85l-8.35,8.258l-2.258,9.624h-1.471
		l-5.501-2.561l-2.546-3.228l-3.637-2.76v-1.969l3.925-4.805l6.683-3.924l1.183-1.865l-1.183-4.137l-2.167-2.455l-1.076,0.197
		l-5.198,1.864l-0.303,1.091l2.061,2.652v1.666l-0.985,0.986l-8.926-1.289l-5.213,0.105l-3.834-1.271l-2.456,1.955l-0.196,3.045
		l-0.772,0.985l-3.046,1.272v1.273l-2.167,2.166l-4.319-0.681l-7.274,1.47l-1.47,1.773l-1.272,4.713l0.197,5.395l1.469,2.85
		l-0.288,2.561l-1.969,3.426l-4.623,0.787l-4.015,4.258l-14.973-1.318l-1.955,1.971l-0.045,0.955l-2.303,1.727l-0.289,1.395
		l-1.561,1.031l-1.986-0.076l-2.682-1.652l-4.486-6.864l-1.667-0.577l-1.12,0.076l-0.606,1.213l-9.608,2.773l-3.637-0.166
		l-13.078-4.076l-0.955,0.529l-1.122-0.879l2.03-5.107l-0.651-3.334l-5.879-6.229l-2.774-0.09l-0.076-3.455l-1.53-2.622l-5.062-2.88
		l-4.849,1.092l-3.531-4.471l-1.183-0.516l-1.182,0.426l-1.273,2.287l-3.395,2.182l-4.409,2.516l-4.501,0.94l-1.212,1.562
		l-1.909,0.348l-3.289-1.637l-0.303-1.682l3.38-0.592l3.939-4.229l-0.061-3l-3.712-3.803l-0.516-1.773l0.773-2.805l-0.515-4.471
		l-2.197-1.529l-3.955,0.348l-2.32,1.439l-3.106,3.713l-2.713-0.514l-6.365-3.578l-5.971,0.865l-5.289-2.684l-2.333-5.455
		l1.773-3.092l2.637-2.439l1.212-3.985l-0.122-1.44l-3.304-4.743l-0.667-2.273l1.591-1.333l-0.696-2.424l-2.773,1.136l-2.425-0.182
		l-0.772-4.44l-3.986-5.076l-0.349-3.638l-1.121-0.515l-1.562,1.121l0.439,3.638h-0.954l-2.076-3.896l-2.516-0.439l-1.046,1.47
		l1.137,3.123l-1.137,1.56l-1.727-0.788l-0.5-2.47l0.727-1.985l3.668-3.939l-0.243-6.426l0.925-0.591l0.105-4.152l-2.076-0.076
		l-1.909,2.076l-2.455,1.137l-0.849,2.955l-1.455,1.273l-4.243,1.47l0.257,1.728h3.546l1.652,1.562l-0.349,5.304l-1.788,3.38
		l0.939,3.211l-0.425,1.365l-1.516,0.242l-1.105,3.546l-2.258-0.607l-0.167,3.213l-1.652,2.076l-3.318,2.288l-3.728-1.378
		l-3.107,1.303l-3.561-1.046l-3.29,2.167l0.092,1.985l0.773,0.242l-0.5,1.94l0.5,2.318l1.955,2.168l-0.395,2.258l-2.5,2.5
		l3.546,4.502l-3.728,6.5l-1.561,0.605l-2.773-1.303l-0.939-5.363l-2.864-1.91l-4.152,1.818l-1.212,4.076l-1.819-0.182l-1.379-1.379
		l-0.349-5.85l-2.076-1.121l-1.046-0.092l-1.378,1.213l-0.925-1.105l-4.591-0.455l-4.319,2.773l-0.53,2.773l-2.85,1.045
		l-1.728-0.228l-3.031-3.894l-2.772-1.562l-4.335-0.425l-3.106,2.729l-4.168-0.486l-1.213-2.591l-3.455-2.333l-3.197-4.758
		l-1.137-0.274l-3.638,0.091l-1,0.742l-1.016,3.031l-1.788,2.197l-0.909-1.257l0.045-5.578l-2-1.651v-3.001l1.561-4.485
		l-0.425-9.653l-7.183-11.502l-3.818-0.879l-3.288,1.137l-1.44-0.303l-0.031,0.818l-5.017,0.697l-6.062,6.835l-3.47,0.515
		l-3.198-1.56l-1.47-4.167l-6.41-4.835l-1.758,0.092l-2.516-4.153l-2.077,0.697l-4.682-3.637l-2.409,1.394l-1.652,2.244
		l-1.909,0.076l-4.244-1.379l-2.349-2.031l0.092-5.668l3.728-3.47l0.697-4.501l6.577-0.439l3.289-2.424l4.077-0.864l2.5-1.727
		l4.077-6.063l3.636-1.304l2.85-3.106l3.289,0.076l1.803-3.455l-0.5-3.183l0.682-3.667l1.834-1.591l4.591-1.985l2.106-2.592
		l0.576-2.001l4.667-3.303l1.439-3.668l2.197-2.213l4.684-1.56l3.803,0.606l0.819-2.409l1.091-0.183l4.85,2.167l2.5-0.606
		l2.213-3.667l0.166-2.955l-1.864-5.411l2.259-7.183l9.441,3.546l3.197-0.092l3.031-1.12l1.137-2.334l6.138-4.379l3.03-0.955
		l1.122-2.424l6.501-4.577l4.319-0.349l3.925-2.47l1.152-1.334l0.773-4.729l3.349-1.621l7.305,0.439l2.243,0.454l4.333,2.683
		l6.259,0.439l3.576-2.379l5.668-0.152l4.622-2.092l2.243,0.151l7.017,2.834l4.318,4.333l16.564,3.729l10.29,5.365l4.031,1.197
		l5.364,4.016l5.667,0.152l1.349,1.652l4.925-1.804l1.789-2.682l0.591-2.531l-0.591-5.365l0.591-2.834l3.288-5.228l-0.151-2.379
		l1.636-1.349L327.41,258.534z" title="Jalal-Abad"></path>
	<path id="KG-N" class="land" d="M681.462,225.754l0.864,1.562l1.895,0.167l2.227,1.379l6.033-2.576l1.818-2.152l0,0l2.636,2.848
		l6.698,2.229l2.122,2.47l2.698-0.364l0.242,3.304l2.576,0.47l0.349,1.879l9.168-1.182l1.288-4.229l1.183-0.47l7.759,0.94
		l1.046,1.06l-1.41,7.987l1.062,0.591l-0.469,2.576l0.59,4.122l2.592,6.698l-0.364,3.168l6.001,3.88v4.106l6.457,2.47l0.59,0.94v2
		l-2.348,4.819l-0.472,2.698l-1.06,1.409l-2.122,0.121l-3.046,5.289l0.121,1.288l4.576,1.167l4.94-1.985l3.759,0.106l1.984-2.228
		h2.82l3.152,0.773l6.939,3.394l1.758-0.697l6.699,0.94l0.818,1.878l2.121,1.289l4.106,0.591l2.001-1.289l1.061,0.228l1.531,1.409
		l4.575,1.53l1.879,2.229l5.411,1.53l0.939,2.122l1.409,0.47l2.228-1.651l0.698,0.469l0.712,2.819l-0.592,1.652l-2.939,1.879
		l-0.106,3.288l-0.833,1.637l-1.637,0.939l-7.41,0.243l-2.698-0.712l-1.166,0.712l-2.122,4.47l0.939,4.333l-0.711,2.364l0.469,2.35
		l2.121-0.834l8.698,1.303l7.866-0.833l1.304-1.986l2.349-1.424l2.696,0.94l1.637,1.53l1.061,2l0.364,3.532l-0.954,1.636
		l-2.698,1.773l-1.061,2.455l0.364,1.303l3.637,2.107l0.47,1.288l-2.471,7.351l-0.12,2.697l2.121,0.364l2.471-2.348l1.059,0.227
		l3.517,4.698l9.169,0.121l10.685-1.758l1.53,0.469l1.999,2.229l2.819,0.697l5.759-3.864l14.882,1.878l7.152-1.409l3.305-2.47
		l1.984-3.758h0.94l2.122,6.457l-2.94,8.456l-0.819,1.652l-6.107-0.243l1.88,0.591l1.637,2.591l3.288,12.336l4.001,2.106l1.88,0.469
		l2.591-0.697l1.88,0.818l1.515,2.698l-2.105,4.592l-0.122,3.879l-1.061,2.107l-2.577,2.713l-3.182,1.878l0.243,2.349l1.06,0.47
		l11.275-5.41l15.275-3.062l1.999,1.651l3.518,1.182l-1.879,2.227v5.047l4,3.652l7.046-0.834l1.289-0.818l7.411,1.061l3.758-0.469
		l8.229,3.408l3.758,0.697l5.047-3.41l5.41-1.998l1.063-1.289l6.575-0.939l0.697,0.939l1.88,0.121l-1.41,3.879l0.713,3.289
		l1.287,2.001l2.941,2.349l2.803,0.666l0,0l-1.273,5.184l-1.379,0.409l-3.575,3.835l-7.336,0.953l-4.849,4.578h-1.471l-3.818-3.365
		l-4.758-0.605l-4.107,0.514l-2.121-0.514l-2.518-1.91h-1.982l-0.532,1.471l-3.456,1.121l0.152,0.772l-5.258,1.833l-2.092,2.85
		l-4.092-0.713l-2.561,1.229l-1.471,1.742l-6.243-0.348l-7.092,2.076l-2.425-1.046l-6.714,0.788l-2.076-0.607l0.196-2l-5.576-0.605
		l-1.211-1.637l-4.229-0.697l-9.351,4.759l-5.456-3.198l-3.031,0.092l-3.818,1.894l-1.818-0.515l-1.729-1.213l-2.682-0.424
		l-1.122-3.289l-3.894-1.91l-5.805,0.168l-0.864-0.955l-2.075,0.09l-4.334,4.594l-2.79,1.711l-2.62-0.439l0.394,1.061l-3.546-0.424
		l-1.486,2.243l-0.258,4.38l-3.636,0.076l-0.683,2.076l-4.242,1.484l-2.001,6.576l0.529,7.957l-2.771,1.471l0.454,2.545
		l-1.576,1.788l-0.531,2.425l-6.925,4.941l0.181,4.061l2.684,3.895l-3.289,7.273l0.485,2.865l-1.621,2.592l-2.592,0.955
		l-1.729,3.636l-2.424,1.122l-2.258,3.379l-2.335,5.623l0.35,4.848l-1.379,2.334l-2.864,2.168l-0.168,1.561l-5.637,3.289
		l-0.954,2.773l-4.152,1.818h-4.593l-2.408,4.85l-2.002-1.652l-0.258-5.455l-2.938-1.986l-4.592-0.787l-2.167,0.258l-3.062,3.471
		l-4.683,3.287l-9.941-1.91l-4.426,3.472l-1.121-0.515l-1.818-2.865l-2.863-0.697l-1.379,0.879l-1.729,4.153l-1.817,2.167
		l0.165,3.895l-1.272,1.168l-2.364-1.774l-5.713,0.076l-1.031-1.638l-0.605,0.607l-1.213-1.305l-4.334,3.032l-4.318,0.167
		l-3.304,2.469l-1.212-0.303l-1.289-7.789l-1.742-3.031v-1.469l1.47-4.153l-0.425-1.651l3.547-4.062l1.121-3.985l-4.638-4.244
		l-2.712-1.137l-1.334-2.408l-1.303-5.107l-0.516-10.048l-1.121-2.683l-3.471-1.727l-4.41,1.91l-6.319,4.5l-6.926,8.047
		l-3.106,1.666l-3.396,0.576l-2.423,1.744l-3.972,3.803l-0.604,2.592l-2.987,0.652l-2.242,2.863l-3.637,2.334l-6.063-1.561h-3.121
		l-5.365,2l-3.288-0.35l-2.864-2.075l-3.713,0.772l-2.516-0.605l-7.577-6.926l-4.243-1.91l1.728,0.789l-3.728-0.955l-1.667,1.455
		l-3.623-1.547h-1.667l-2.061,1.471l-9.139-0.788l-1.666-2.349l-2.955-0.197l-1.167-0.879l-1.879,0.484l-1.758-1.863l-1.289,0.682
		l-0.772-0.395l-0.697-3.137l2.061-4.909l-0.788-1.576l-1.667-1.576l-1.955-0.198l-2.652-1.953l-4.031-0.986l-2.94,0.486
		l-3.349-4.018l-3.137-0.105l-2.364-2.85l-3.44-1.166l-4.41-8.85l-2.455,0.5l-1.183-0.697l-1.864-5.305l-0.682-0.682h-2.257
		l-2.168-1.576l-0.591-4.713l-3.137-3.729l-2.758-0.984l-3.046-3.531l-2.939-0.395l-1.773-5.409l-4.607-2.259l-0.454-0.955
		l2.045-4.711l3.486-4.093l3.289-2.259v-2.258l-6.563-4.91l-1.439-2.471l-0.197-2.666l1.016-2.045l6.152-1.016l0.408-1.85
		l1.85-1.637l2.455-0.621l1.637-2.863l3.076,0.605l6.775-0.41l6.137-1.637l5.138,0.818l-1.031-5.531l-3.289-4.926l0.833-3.075
		l9.214-2.046l6.153-4.092l8.607-1.242l3.698-3.273l4.909-0.196l1.44-2.062l5.334-3.273l1.228-2.879l0.409-6.759l3.486-8.82
		l-0.622-7.365l1.849-2.879l0.818-3.896l-3.273-0.605l-2.47,0.605l-4.304,2.259l-2.865,3.076l-3.894,1.227l-9.017,0.41l-5.531,1.439
		l-4.107,5.122h-2.259l-2.667-2.257l-5.94-1.637l-10.458,1.016l-3.076,2.061l-4.303-2.667l-3.273-0.622l-5.531,0.818l-3.896-0.606
		l-4.925-3.288l-2.045-2.046l-0.622-2.046l-3.183-1.333l-4.031-9.214l0.122-1.273l2.879-0.925l3.229,2.198l5.863,1.257l3.577,3.001
		l0.803,1.606l-1.257,2.652v2.197l2.303,3.107l1.728-0.122l1.379-3.456l-0.577-7.592l-0.924-2.198l0.804-5.985l-1.485-1.046h-6.108
		l-2.425-1.606l-2.773-5.881l0.469-4.728l-0.697-2.304l-1.833-1.379h-4.379l-1.396-0.697l-4.03,0.923l-3.577-3.333l-0.908-0.122
		l-1.85,1.607l-1.728-0.107l-4.834-2.197l-1.151-1.606l5.985-6.228l1.591-3.243l4.47-1.031l1.197,1.031h7.745l2.757-1.213
		l1.728,0.349l2.576-2.576l1.728,2.743l4.137,3.789l1.031,2.409l2.227,0.516l5.865-1.03l0.683,0.863l-2.577,7.411l2.228,2.576
		l1.894-1.378l2.759-8.26l1.727-1.546l2.061-0.864l3.622,1.031l2.926-0.516l1.439-8.35l4.137-2.077l1.03-2.576l-1.379-5.167
		l0.864-1.712l2.062-1.728l2.242-0.516l1.379-2.244l1.379-0.515l-0.515-1.545l-5.001-2.243l-1.713-1.546l2.926-13.608l4.651,0.863
		l4.123-0.349l4.136-1.363l3.623,0.849l4.819-1.197l3.606,0.166l7.516-2.667l4.304,0.683l4.123-3.259l3.622-4.652l2.576-1.213
		l5.683-0.682l2.759,0.682l1.546-1.197l-0.683-3.971l-2.06-2.743l-1.213-3.274l-3.439-3.955l-0.516-2.424l11.531-1.031l1.729-0.864
		l7.743,1.213l3.44-1.894l1.728,0.515l1.713,2.591l4.304-0.182l4.652-3.272l1.379,1.561l2.062,0.682l4.819-1.213l7.576,2.759
		l4.137-1.713l4.82-0.182l1.727-2.228l3.956,2.743l2.41-0.848l2.924,0.515l2.925-0.863l1.894-0.863l0.698-1.213l1.546,0.349
		L681.462,225.754z" title="Naryn"></path>
	<path id="KG-O" class="land" d="M604.707,504.93l-0.062,0.848l-0.788,0.031v5.637l-2.773,2.76l0.182,1.045l6.865,6.137l2.213,3.805
		l3.455,2.394l-0.289,2.077l-1.469,0.135l-2.773,1.819l-1.94-0.272l-3.288-2.971l-1.167-0.229l-10.684,0.229l-0.94,0.592
		l0.319,4.061l-3.986,5.85l-1.728,0.545l-1.137-1.424l-2.939-0.409l-2.849,0.606l-5.895,9.168l-5.197,2.984l-3.456,5.033
		l-6.501,4.924l-2.106,2.547l-3.243,1.348h-1.546l-3.031-2.241l-2.091,0.97l-2.94-3.486l-12.987,3.121l-1.894,0.955l-0.091,0.865
		l-2.077,1.636l-2.334,0.697l-3.637-2.333l-0.954,0.256l-4.138,7.139l-5.91,1.955l-0.076,1.561l3.788,1.637l0.365,2.425
		l-5.805,7.108l-1.121,2.803l1.212,6.455l-2.606,2.334l-1.378-0.166l-3.032,2.334l-1.984,8.305l0.682,3.984l4.94,1.563l1.969,2.029
		l3.229,8.881l1.378,6.229l-0.348,5.016h-3.106l-0.697,0.863l-0.863,4.031l-2.334,1.818l0.773,1.986l-1.122,2.516l-0.09,4.592
		l-2.333,1.213l-12.821,1.91l-4.758-0.275l-5.622-1.635l-2.607,1.471l-4.046-0.26l-2.167,1.379l-3.379-1.984l-6.925,0.168
		l-3.803,2.348l-4.335,0.59l-3.546,1.91l-0.864,1.305l0.167,3.377l-2.077,2.852l-7.698-0.426l-1.727,2.242l-6.244,2.258
		l-3.198-0.182l-4.834-2.166l-2.424,0.09l-5.972,2.334l-4.5-1.029l-4.94,1.727l-2.94-2.242l-1.817,0.076l-3.805,2.516l-4.076-1.818
		l-4.925,1.908l-3.986-3.213l-5.971-2.166l-8.486-1.213l-1.985,2.002l-0.955,2.514l-1.728,1.121l-2,0.092l-1.728-3.469l-4.425-0.258
		l-2.682,1.469l0.182,2.939l-0.606,0.531h-5.971l-4.077,1.895l-4.319,0.348l-1.485,1.303l-1.5,1.895l-2.167,6.152l-5.683,10.654
		l-1.5,0.258l-1.031-0.863l-1.303-5.971L320,686.57l-1.818-0.168l-1.212-3.379l-6.138-0.439l-2-0.863l-1.379-1.637l-2.076-9.609
		l-1.046-1.043l-2.591,0.18l-3.803,2.244h-1.819l-5.637,4.242l-2.153,3.092l-8.319,0.971l-1.212,1.045l-2.258-0.607l-2.47-2.652
		l-2.546-5.318l0.788-2.408l3.545-3.303l1.562-3.289l-3.016-7.973l-1.834-0.984l-11.35,2.607l-5.365-1.305l-1.213,1.379
		l-3.545-0.955l-2.683-6.318l-0.182-2.242l2.698-4.592l0.136-3.803l-0.939-1.941l-5.319-3.363l0,0l1.47-2.031l0.577-4.381
		l4.091-7.197l1.273-0.848l8.607-0.85l1.834-1.123l2.546-4.939l6.062,0.834l0.712,2.41l1.697,1.271l2.531,1.123l5.092,0.711
		l3.516,2.957l4.804-0.697l4.091,0.559l5.365,4.229l5.789,0.152l2.409,2.545l5.502-2.545l2.545-0.289l4.94,0.426l3.243,1.834
		l4.804-1.41l1.409-1.121l5.213-1.273l3.531-4.242l3.667-0.426l1.137-1.408l8.185-2.684l3.667-2.395l0.424-2.971l1.409-0.984
		l-0.985-3.818l-3.379-4.092l-2.258-1.545l1.546-1.698l-1.546-1.272l-0.424-1.41l-2.41-0.984l-1.258,0.424l-1.697,2.121h-1.986
		l-2.394-3.105l-2.971-7.488l-3.94-2.545l-5.94-1.121l-0.136-1.984l2.394-6.063l-0.137-1.834l-1.97-2.834l1.273-4.227l-0.576-1.563
		l-1.41-0.984l-4.652-1.546l4.516-3.956v-1.969l-0.713-1.985l-1.696-1.546l-6.487-2.547l-0.984-1.137l4.092-2.955v-1.137
		l-2.259-2.818l1.546-6.35l-0.561-1.697l-1.409-1.121h-2.122l-9.744,2.684l-5.168,2.469l0,0l-5.213-3.228l-0.954-1.046l0.257-0.682
		l4.364-5.137l1.955-0.41l2.94-3.895l-0.606-2.076l2.683-2.939l0.53-3.563l4.925,0.183l0.182-1.394l3.91-2.426l0.713-1.15
		l-0.546-1.35l1.561-0.439l2.077,1.303h4.243l0.348,4.063l2.94,2.863l1.652,0.773l1.03-0.863l2,0.09l3.379,2.592l1.546,2.258
		l1.47,0.425l0.531,1.212l3.197-0.863l-0.772-3.713l0.349-1.742l2.591-3.047l0.091-5.773l-0.561-1.697l-3.258-0.561l0.439-2.334
		l1.12-1.121l-2.591-5.805l-3.471-1.986l0.788-1.484l3.107,0.092l0.697-2.426l1.561,0.516l3.849,4.85l0.864,3.471l2.334,1.984
		l1.47-0.516l0.166-2.516l1.395-0.605l1.561,2.863l7.608,2.773l3.213,2.5l2.591,0.35l2.864-0.955l1.121-3.895l0.092-6.486
		l1.469-0.091l1.122,1.47l4.151,0.106l1.819-1.485l-0.167-2l2.167-7.092l-2.349-2.426l0.182-1.121l1.561-0.955l1.637,1.91
		l1.47-0.182l5.198-1.986l1.985-4.591l7.259-1.909l0.803-1.379l3.031-1.818l4.592-1.562l8.578-1.213l2.682-0.864l1.91-1.727
		l2.424-4.592l-1.182-3.426l4.017-4.258l4.622-0.787l1.97-3.426l0.287-2.561l-1.469-2.85l-0.197-5.395l1.273-4.713l1.47-1.773
		l7.274-1.47l4.319,0.681l2.166-2.166v-1.273l3.046-1.272l0.773-0.985l0.197-3.045l2.455-1.955l3.834,1.271l5.213-0.105l8.926,1.289
		l0.985-0.986v-1.666l-2.061-2.652l0.302-1.091l6.274-2.062l2.955,3.638l0.395,2.954l-1.182,1.865l-6.684,3.924l-3.925,4.805v1.969
		l3.637,2.76l2.545,3.228l5.501,2.561h1.47l0.697-0.879l0.682-6.88l1.864-3.439l7.365-6.684l0.395-2.85l1.864-1.666l0.105-2.85
		l3.532,0.197l1.091,0.895l0.091,3.727l2.318,1.184l0.591,1.363l0.592,8.744l4.606,1.09l3.046,1.563l4.122,0.105l2.759,4.016
		l4.607,2.259l1.773,5.409l2.955,0.395l3.03,3.531l2.758,0.984l3.138,3.729l0.591,4.713l2.167,1.576h2.259l0.681,0.682l1.865,5.305
		l1.181,0.697l2.456-0.5l4.425,8.85l3.44,1.166l2.349,2.85l3.152,0.105l3.334,4.018l2.94-0.486l8.653,3.138l2.454,3.152l-2.06,4.909
		l0.682,3.137l0.788,0.395l1.272-0.682l1.773,1.863l1.863-0.484l1.183,0.879l2.94,0.197l1.667,2.349l9.138,0.788l2.062-1.471h1.666
		L604.707,504.93z" title="Osh"></path>
	<path id="KG-T" class="land" d="M292.525,172.503l2.198,0.954l2.516,2.516l7.699,1.728l2.682,3.288l2.682,1.136l5.638,0.425
		l3.712-2.516l7.274-0.424l11.957,3.591l9.956,5.365l3.107,2.864l2.667,1.213l1.303-1.046l9.35-0.515l9.609,4.759l2.848,0.258
		l3.379,1.818l7.017,10.048l5.713,0.954l1.819,0.682l0.772,1.212l2.683,0.788l5.804,0.683l3.925-1.152l3.001,0.894l9.531-1.121
		l7.79,3.031l10.306,1.12l1.287,2.334l0.743,7.532l4.167,2l12.594,2.168l1.395-0.092l2.895-1.878l1.636,0.833l1.197-0.455
		l0.895-2.531l0.894-5.819l2.091-0.455l1.637,1.652l1.046,2.833l1.636,0.288l1.939-1.636l1.637,0.591l1.789,1.803v2.833l-1.03,3.122
		l-4.183,5.076l-0.304,4.774l-1.787,2.092l-11.185,3.879l-6.713-2.243l-6.274,0.455l-4.016,3.576l-6.274-1.637l-5.364,1.94
		l-2.243-0.91l-1.637,0.303l-6.712,5.819l-6.562-2.091l-1.198,1.046l-0.439,7.759l2.077,2.833l4.925,1.789l-0.743,4.182l0.743,2.531
		l-3.727,1.636l-2.38-0.894l-2.092,0.454l-1.197-2.242l-2.985,1.939l-2.379-2.379l-1.045,0.288l-3.289,4.485l-4.167,1.939
		l-1.349,4.471l-5.517,0.895h-2.091l-9.486-7.305l-7.607-3.728l-7.168,0.591l-6.41-3.425l-2.683,0.288l-4.471-3.425l-5.229,1.485
		l-2.092-0.591l-2.833-4.334l-4.773-2.228l-4.168,0.151l-6.273-1.197l-1.637,1.349l0.152,2.379l-3.29,5.228l-0.59,2.834l0.59,5.365
		l-0.59,2.531l-1.789,2.682l-4.925,1.804l-1.348-1.652l-5.668-0.152l-5.365-4.016l-4.031-1.197l-10.29-5.365l-16.564-3.729
		l-4.319-4.333l-7.016-2.834l-2.228-0.151l-4.638,2.092l-5.667,0.152l-3.577,2.379h-3.425l-2.833-0.439l-4.334-2.683l-2.243-0.454
		l-7.304-0.439l-3.334,1.621l-2.743-3.592l-2.682-0.439l-3.031-1.984l-2.683-3.032l-5.198-3.121l-7.44-0.773l-1.561,0.515
		l-2.864,3.729l-2.682,1.212l-2.077-0.349l-2.773-1.819l-2.773,1.379l-1.637-0.076l-0.863-3.289l-1.91-1.394l-0.772-2.85
		l2.849-7.364l2.94-0.605l0.106-1.456l1.986-0.878l2.288-2.455l-0.562-1.531l-2.166-1.288l-0.061-1.576l4.046-2.667l1.561-6.411
		l2.425-0.348l5.713,3.197l2.425-0.257l0.258-2.849l-0.697-1.303l-3.122-4.502l-3.895-3.728l-0.682-1.637l0.605-2.258l1.728-2.076
		l2.077-0.515l8.138,1.47l6.063-1.728l0.166-10.957l3.985-0.909l3.122-2.773l2.5-4.319l0.439-4.425l1.819-0.516l4.409,1.122
		l3.213-0.606l4.501-4.41l4.409-0.091l1.652,0.864l2.682,0.09l6.486-2.167l3.864,2.97l4.106,1.364l1.606-2.334l3.289-1.395
		l1.121-1.984l6.153,0.605l10.912-3.985l8.744,1.47L292.525,172.503z" title="Talas"></path>
	<path id="KG-I" class="land" d="M976.019,414.578l-2.803-0.666l-2.941-2.349l-1.287-2.001l-0.713-3.289l1.41-3.879l-1.88-0.121
		l-0.697-0.939l-6.575,0.939l-1.063,1.289l-5.41,1.998l-5.047,3.41l-3.758-0.697l-8.229-3.408l-3.758,0.469l-7.411-1.061
		l-1.289,0.818l-7.046,0.834l-4-3.652v-5.047l1.879-2.227l-3.518-1.182l-1.999-1.651l-15.275,3.062l-11.275,5.41l-1.06-0.47
		l-0.243-2.349l3.182-1.878l2.577-2.713l1.061-2.107l0.122-3.879l2.105-4.592l-1.515-2.698l-1.88-0.818l-2.591,0.697l-1.88-0.469
		l-4.001-2.106l-3.288-12.336l-1.637-2.591l-1.88-0.591l6.107,0.243l0.819-1.652l2.94-8.456l-2.122-6.457h-0.94l-1.984,3.758
		l-3.305,2.47l-7.152,1.409l-14.882-1.878l-5.759,3.864l-2.819-0.697l-1.999-2.229l-1.53-0.469l-10.685,1.758l-9.169-0.121
		l-3.517-4.698l-1.059-0.227l-2.471,2.348l-2.121-0.364l0.12-2.697l2.471-7.351l-0.47-1.288l-3.637-2.107l-0.364-1.303l1.061-2.455
		l2.698-1.773l0.954-1.636l-0.364-3.532l-1.061-2l-1.637-1.53l-2.696-0.94l-2.349,1.424l-1.304,1.986l-7.866,0.833l-8.698-1.303
		l-2.121,0.834l-0.469-2.35l0.711-2.364l-0.939-4.333l2.122-4.47l1.166-0.712l2.698,0.712l7.41-0.243l1.637-0.939l0.833-1.637
		l0.106-3.288l2.939-1.879l0.592-1.652l-0.712-2.819l-0.698-0.469l-2.228,1.651l-1.409-0.47l-0.939-2.122l-5.411-1.53l-1.879-2.229
		l-4.575-1.53l-1.531-1.409l-1.061-0.228l-2.001,1.289l-4.106-0.591l-2.121-1.289l-0.818-1.878l-6.699-0.94l-1.758,0.697
		l-6.939-3.394l-3.152-0.773h-2.82l-1.984,2.228l-3.759-0.106l-4.94,1.985l-4.576-1.167l-0.121-1.288l3.046-5.289l2.122-0.121
		l1.06-1.409l0.472-2.698l2.348-4.819v-2l-0.59-0.94l-6.457-2.47v-4.106l-6.001-3.88l0.364-3.168l-2.592-6.698l-0.59-4.122
		l0.469-2.576l-1.062-0.591l1.41-7.987l-1.046-1.06l-7.759-0.94l-1.183,0.47l-1.288,4.229l-9.168,1.182l-0.349-1.879l-2.576-0.47
		l-0.242-3.304l-2.698,0.364l-2.122-2.47l-6.698-2.229l-2.636-2.848l0,0l5.576-4.046l2.242-5.167l1.38-1.212h2.243l2.061-1.713
		l5.335-0.182l0.182-3.092l-0.864-3.455l0.864-1.895l3.439,0.53l3.789,1.713l3.956-0.864l5.85,0.182l1.212-1.38l6.88-1.211
		l1.728-1.38l2.924-0.682h5.003l2.409,1.031l2.228-0.682l1.561-1.031l0.515-3.97l3.789-1.712l2.742-3.107l9.986-6.364l2.94-3.108
		l3.789,0.516l2.409-1.197l4.122-0.515l0.182-3.456l2.926,0.182l1.545,1.379l3.092-0.697l5.35,0.864l2.742-1.198l3.623,0.515
		l3.954-1.728l7.412,1.031l2.576-0.349l6.895-3.091l4.471,0.515l1.031-1.212l2.242-0.682l16.019-2.061l4.121,0.682l1.729-0.864
		l2.242-7.229l4.819-4.304l4.137-1.029l1.288-1.986l1.289,1.076h7.53l5.987,0.939l3.363-1.895l8.668-2.075l3.108,0.681l4.5-0.939
		l2.864,0.773l1.471,1.561l8.575,0.349l9.17,1.637l4.41-0.773l6.85,4.062l2.819-0.259l4.151,1.728l1.729-0.076l2.546,3.198
		l1.529,0.349l5.017-2.001l5.486,2.092l2,0.258l3.895-0.955l3.031,0.606l3.605-1.395l0.592-1.819l6.168,0.273l10.29,2.728
		l2.515-1.303l1.896-3.031l1.12-0.257l2.878,1.515l9.443-2.864l5.016,4.425l2.667,0.378l1.652,2.077l2.683-0.167l2.954,1.605
		l2.517,3.547l4.393-0.213l1.305-0.788l2.789,1.167l2.939-0.166l2.242,2.425l4.41-0.91l10.548,4.062l9.761,0.348l3.635,1.819
		l6.063-2.774l8.305-2.5l1.651,0.167l0.047,1.864l-2.244,4.334l1.151,6.092l2.305,4.682l5.258,6.729l4.002,1.924l1.816,2.864
		l4.275,0.333l0.955,0.788l0.182,1.819l7.047,7.017l1.727,3.364l2.85,2.865l3.031,1.561l1.803,3.379l12.486,0.773l4.152-3.289
		l21.02,5.622l7.367-0.257l2.848,0.696l1.166,1.122l1.213,5.971l3.379,3.122l1.424,2.849l6.154,1.303l1.771,3.198l3.896,2.076
		l0.287,2.5l-0.983,2.015l4.242,6.138l0.607,2.333l1.302,0.53l1.864-2.076l1.303-0.182l3.455,0.954l2.639,2.243l1.211,9.093
		l-1.469,6.577l3.454,4.849l-0.469,1.485h-3.259l-2.879-1.137l-1.65,0.53l-1.244,1.515l-5.471,1.546l-13.154-1.546l-4.682,0.606
		l-6.76-0.349l-5.879,1.47l-3.123,1.986l-0.5,5.546l-2.03,1.91l-2.698,7.986l-1.955,1.878l-1.47,3.895l-2.515,2.243l-1.213,3.637
		l-5.184,5.197l-7.455,1.818l-10.048-0.803l-3.577,0.712l-1.954-1.833l2.091-0.667l-0.621-0.909l1.396-0.621l-0.364-0.97
		l1.184-1.349l-1.881-2.667l-5.439-0.591l-4.503,2.257l-3.454,4.319l-2.426,0.349l-1.983-0.955l-1.576,0.788l-6.319,6.396
		l-0.243,1.136l-1.576,0.606l-0.516,1.288l-1.985,1.303l-4.439-0.425l-4.304,0.94l-3.896,3.819l-6.926,2.425l-1.137,2.592
		l-6.318,0.773l-3.289,1.817l-2.757,3.122l0.075,0.728l-1.288,0.318l-1.743,2.151l-2.5,0.879l-2.078,2.592h-1.741l0.091,0.606
		l-2.561,1.304l-4.017-0.092l-0.347,0.772l-4.336,0.439l-2.15,1.213l-1.395,5.197l-2.078,0.94l-2.422,4.243l-5.457,0.53
		l-3.896-1.137l-1.377,0.788l-1.819,3.637l-3.03,2.077l-6.063,2.682l-5.972,0.773l-0.954,2.349l-0.09,4.41l2.075,2.424l0.44,5.971
		l-2.258,1.38l-0.607,3.728l-4.576,0.516l-5.547,5.985l-2.258,1.213L976.019,414.578z" title="Issyk-Kul"></path>
</svg>