<?xml version="1.0" encoding="utf-8"?>
<svg version="1.1" xmlns="http://www.w3.org/2000/svg" xmlns:xlink="http://www.w3.org/1999/xlink" viewBox="0 0 1200 800">
	<path id="MD-AN" class="land" d="M721.527,465.033l0.323-1.011l0,0l0.885-13.671l-1.417-9.228l-3.728-5.33l-4.623,1.062
		l-2.749,2.406l0,0l0,0l0,0l2.135-10.039l-1.604-3.185l-4.789-5.333l-5.497-0.707l-1.782-2.666l0.886-7.811l3.729-4.789l0,0
		l-0.886-3.541l5.144-4.186l11.725-1.592l1.594,1.416l0,0l1.239,2.135l0,0l1.249,5.852l0,0l3.197,3.196l2.478-0.885l2.844-3.374l0,0
		l6.747-8.882l9.402-0.885l1.604-1.24l0.708-6.039l-1.062-7.102l1.593-3.02l4.613-2.655l1.957-6.571l0,0h2.135l0,0l3.009,0.979
		l9.59,10.111l2.489,6.393l-0.354,4.258l-3.197,7.279l2.125,4.082l0,0l-1.24,2.133l0,0l-7.986-2.487l-2.665,0.354l-0.708,6.394l0,0
		l1.062,2.664l0,0l4.978,4.082l0,0l6.914,2.844l0,0l3.915-1.959l0,0l3.728-2.3l0,0l3.728-1.959l6.206,2.489l2.312,2.666l0,0
		l-0.53,3.729l0,0l-2.312,3.551l1.062,3.904l0,0l2.489,5.852l0,0l-1.771,3.551l-1.073-3.021l0,0l-0.354-1.769h-1.594l-0.53-1.239
		l1.239-0.543l-1.416-1.238l0,0l-9.59-0.885l-0.885,1.77l0,0l-1.073,2.489l0,0v4.082l-1.594,2.843l2.488,4.79l0,0l1.417,1.779l0,0
		l2.312,6.029l0,0l-18.284-0.53l0,0l-7.81,6.748l-6.926,1.77l-5.153,5.153l0,0l-0.178,3.551l2.136,4.436l-0.709,4.614l0,0
		l-5.862-0.177l-2.488-2.302l0,0l-1.594-2.844l0,0l-4.612-5.507l-4.978-1.948L721.527,465.033z" title="Anenii Noi"></path>
	<path id="MD-BA" class="land" d="M486.053,192.875l0.042-0.063l0,0l1.302-1.5l0,0l-0.063-0.531l0,0l13.443,3.134l0.302-1.999
		l-3.197-2.603l0.698-1.292l3.696-4.196l5.987-0.302l0,0l0.563-0.896l0,0l1.843,3.988l2.291,0.302l5.79,4.301l3.103-1.104
		l4.884-6.185l1.499,0.291l1.697,4.895l1.697,1.301l0.208,4.79l-3.999,3.696l3.79,3.395l-0.791,3.999l-4.895-0.208l-2.895-2.291
		l-3.197,2.197l-8.892,1l0,0l-1.791,0.791l0,0l-8.789,0.906l-1.999-1l-0.698-1.895l3.197-3v-1.499l-3.895-2.791l-10.183-2.104
		L486.053,192.875z" title="Balti"></path>
	<path id="MD-BD" class="land" d="M795.124,449.184l-1.634,2.667l-12.08-1.927l0,0l-1.957-4.895l0,0l-1.417-1.779l0,0l-2.488-4.79
		l1.594-2.843v-4.082l0,0l1.073-2.489l0,0l0.885-1.77l9.59,0.885l0,0l1.416,1.238l-1.239,0.543l0.53,1.239h1.594l0.354,1.769l0,0
		l1.073,3.021l0,0l0.188,9.278l1.78,3.748l0,0L795.124,449.184z" title="Tighina"></path>
	<path id="MD-BR" class="land" d="M374.346,31.321l1.447-0.625l9.122,4.53l0,0l-3.28,8.976l10.476,7.278l0,0l1.135,3.415l0,0
		l-2.499,8.195l2.957,3.187l-0.687,2.051l-3.645,3.416l-4.321-0.687l-2.051,4.103L378,74.701l-5.925-4.322l-0.447-2.738l2.27-4.551
		l-1.135-1.135l-2.957-0.906l-3.645,1.813l-0.906,2.509l-4.103,2.728l-0.906,17.524l-10.059,11.839l0,0l-3.946,2.645l-3.207-1.52
		l-3.791-4.134l3.645-1.708l2.041,0.76l1.062-1.895l-7.216-2.249l0.354-2.843l-1.656-4.144l-3.082-2.125l-1.312,0.49l0.25,3.645
		l-0.947,1.427l-2.541,0.031l-1.958-3.113V78.47l-6.623-5.207l-3.551-0.833l-0.125-2.124l-3.55-2.843l-5.446-3.082h-2.364
		l-3.02,3.457l-1.875,0.239l-0.906-4.758l-2.249,0.354l-1.447,3.624l-1.625,0.052l-1.187-4.27l-2.114,1.625l0.104,2.999
		l-1.301,1.062l-2.489-3.905l-4.821-1.051l-1.926-5.936l4.498-6.623l4.738-0.708v-8.049l2.832-1.541l1.427,0.469l7.216,11.485
		l7.581-0.114l1.301-1.896l-1.187-1.301l0.479-6.154l-1.666-6.632l-2.958-5.321l10.298-0.948l2.489-7.102l2.124,0.469l5.456,5.707
		l11.475,8.143l2.489,0.115l6.154-4.967l4.852,3.79l2.01-0.948l-2.134-11.6l2.728-1.781l7.331,2.843l4.988,4.186L374.346,31.321z" title="Briceni"></path>
	<path id="MD-BS" class="land" d="M667.88,549.053l-1.956-3.021l0.718-2.653l5.675-1.959l5.509-3.728l12.068-12.245l3.02-0.718
		l7.278,2.489l4.801,6.361l0.613,3.051l4.082,1.238l0,0l-2.051,3.834l-5.759,0.551l-7.549,4.488l2.489,13.317l3.728,4.208
		l3.02,9.995l-1.771,8.11l-4.8,3.073l-1.239,2.311l-0.531,1.948l1.988,2.227l0,0l-11.578-2.935l-6.395-5.509l-5.497,2.135
		l-1.427,3.374l-8.164-1.24l-7.101,2.479l-3.197-0.531l0.178-3.551l-3.374-7.81l3.374-0.885l6.215,0.885l16.87-4.612l1.77-0.71
		l2.489-6.393l-1.073-3.728l-8.341-5.51l-2.3-5.674l-1.928-0.697l0,0L667.88,549.053z" title="Basarabeasca"></path>
	<path id="MD-CA" class="land" d="M622.2,764.232v2.666l0,0l-11.392,2.821l-3.373,2.312l-1.595-0.884l0,0l-1.415-5.677l0,0
		l-0.531-12.599l1.062-2.134l8.174-1.771l0,0l4.343,2.697L622.2,764.232z M612.579,639.854l-0.354,3.904l0,0h0.073l0,0l-0.604,1.062
		l-7.633,1.238l-1.959,1.782l-0.53,9.048l-2.488,5.687l1.062,1.956l0.885,16.868l5.144,4.969l1.239,2.841l0,0l-2.135,2.843l0,0
		l-1.239,1.062l0,0l-1.594-0.177l0,0l-9.412-0.177l-1.416,1.24l2.134,11.36l1.958,2.487l9.236,1.782l5.508,7.455l2.843-3.374
		l2.843,2.134v5.499l1.416,3.021l3.728,3.018l-0.531,3.729l-1.77,0.532l-0.708,2.551l0,0l-3.905,0.374l0,0l-5.675,1.604
		l-5.862-0.354l0,0l-5.498-2.313l-6.924-0.531l-6.925-5.32l-2.489,0.177l-1.416,1.416l0.177,15.973l2.489,5.331l0,0v10.121l0,0
		l-4.79,5.687v3.729l2.666,3.194l0,0l1.593,2.313l0,0l-0.177,2.843l-2.134,0.708l0,0l-2.135,1.593l0,0v2.063l-3.988,0.333
		l-6.748,9.767L565.826,800l-3.978-1.146l-1.927-1.862l-1.78-5.04l0.146-9.632l-3.707-2.52l0.146-5.623l-6.373-0.885l-4.144-5.623
		l-3.853-1.479l2.666-5.333l2.218-0.145l2.072-3.26l6.216-0.447l2.52-2.667l-1.333-6.371l2.52-5.187l-1.479-9.922l-3.114-6.374
		l0.74-6.519l-3.551-1.926l-4.29-11.475l0.885-19.409l-2.812-10.372l0.885-4.144l-1.78-7.404l-4.144-6.372l1.634-3.404l0.448-8.884
		l-1.188-3.113l3.405-4.445l-0.188-2.053l0,0l9.902-2.58l0,0l8.164,0.53l5.508,2.489l1.958-1.417l6.04-0.531l0,0l2.666,3.021l0,0
		l4.259,4.258l1.957,0.354l10.122-2.134l0,0l5.862,1.416l0,0l1.781-8.694l4.967-1.063l2.311-1.77l0,0l1.927-1.249l0,0l2.333,1.249
		L612.579,639.854z" title=""></path>
	<path id="MD-CL" class="land" d="M615.516,288.516l0.438,16.181l8.881,3.197l1.948,2.125l-1.417,1.603l0,0l-2.666,1.417l0,0
		l-1.947,5.862l-6.925,1.417l-4.081,5.686l-8.882,3.728l-0.708,1.947l5.861,1.958l2.303,7.81l-1.771,7.102l-5.509,0.531
		l-3.374,4.966l-12.599,6.04l-9.944,1.063l-2.488-1.583l0,0l0.541-0.718l0,0l-11.725-5.332l-6.206-0.177l-4.79-5.321h-4.446
		l-5.321-2.666l-1.78-1.063l-0.177-4.623l-6.56-4.197l0,0l7.632-8.048l6.561-12.423l13.317-11.006l1.062-13.672l0.864-2.322
		l3.489,0.718l0,0l15.265,1.78l5.685,3.374l4.79,0.531l7.81-2.843l14.025-2.125l0,0L615.516,288.516z" title="Calarasi"></path>
	<path id="MD-CM" class="land" d="M648.439,466.262l6.301,0.063l5.507,2.134l3.021,2.135l1.594,5.675l2.842,2.843l4.259-0.177
		l2.136-1.238v-5.863l1.592-3.905l2.666-2.841l2.489-0.71l6.382,3.197l2.313,2.479l2.135,5.508l-1.427,7.102l0,0l0.614-0.021l0,0
		l0.271,3.395l5.332,9.226v3.02l0,0l1.77,5.333h4.978l0,0l6.57-5.687h3.187l0,0l2.488,0.885l0.886,2.489l0.177,7.278l-1.593,5.32
		l-0.886,13.319l1.416,2.831l-2.645,0.313l-0.083,2.821l-3.041,4.686l0,0l-4.082-1.238l-0.613-3.051l-4.801-6.361l-7.278-2.489
		l-3.02,0.718l-12.068,12.245l-5.509,3.728l-5.675,1.959l-0.718,2.653l1.956,3.021l0,0l-0.177,2.313l0,0l-3.373,1.062l-4.437-1.062
		l-6.394-3.905l-16.326-4.081l-6.57-4.979l-6.217,2.666l-7.55-4.082l0,0l1.333-0.885l0,0l6.217-7.819l-0.531-7.81l3.374-4.612
		l0.885-3.552l-2.313-23.969l0,0h1.074l0,0h3.019l3.01-3.905l0.541-6.03l-1.072-1.958l3.021-7.454l3.551-0.355l1.426,3.551
		l2.479-0.177l0.708-2.134l3.02-2.125l0,0L648.439,466.262z" title="Cimislia"></path>
	<path id="MD-CR" class="land" d="M750.87,376.587l-1.593,3.02l1.062,7.102l-0.708,6.039l-1.593,1.24l-9.403,0.885l-6.747,8.873l0,0
		l-2.843,3.374l-2.488,0.885l-3.197-3.197l0,0l-1.238-5.863l0,0l-1.24-2.134l0,0l-1.592-1.417l-7.986,0.708l-3.729,0.885
		l-5.144,4.187l-2.666,0.166l-1.771-0.53l-0.354-3.021l1.417-6.924l6.569-0.354l3.551-2.667l12.424,1.063l3.373-4.967l0.178-2.665
		l-1.323-1.323l0,0l2.333-4.311l10.953-8.611l4.541-6.883l7.996-3.624l0,0l5.321,1.416l5.509,7.633l0,0l-0.886,1.781l0,0h-2.155l0,0
		l-1.947,6.57L750.87,376.587z M704.722,320.92v1.978l4.258,4.082l0.178,1.604l2.843,2.312h3.551l0.354,2.666l-1.948,2.666
		l12.069,2.134l5.737-1.021l5.801-3.551l0,0v0.053l0,0l3.195,3.55l6.571,2.489l0,0l-5.852,1.999l-3.957,3.28l-3.332,8.83
		l-4.613,5.686l-7.102,1.593l-6.393,9.413l-0.531,2.666l0,0l-1.771,0.531l0,0l-1.77,1.063l0,0l-4.258,2.665l-2.844-0.885
		l-6.925,1.604l0,0l-6.924-0.354l-2.843-1.771l0,0l-1.594-3.728l-0.354-7.102l-1.416-1.77l-4.966-0.178l-3.729,1.781l-1.948,3.373
		l1.24,1.063l-0.531,1.958l-2.135,0.531l-1.947-3.728l-10.725-3.374l3.8-4.259h1.78l0.708-4.436l0,0l-2.062-3.957l0,0l1.177-0.844
		v-16.15l1.594-3.197l0,0l1.416-1.416l0,0l6.925,1.958l0,0l6.393-2.312l0,0l5.332-3.728l4.613-1.417l0,0l4.789-2.134l0,0
		L704.722,320.92z" title="Criuleni"></path>
	<path id="MD-CS" class="land" d="M781.41,449.924l12.08,1.927l1.634-2.667l0,0l0.688,0.167l0,0h1.957l0.177,2.677l3.927,3.384
		l2.665,0.531l0.354-1.78l4.821,1.967l2.312-0.718l1.25-10.162l1.427-0.885h2.675l1.78,1.956l-0.895,2.5l1.249,0.885l7.664-0.354
		l0.53,8.737l6.061,13.183l-4.457,8.914l-2.311,1.425l-0.303,3.281l0,0l-0.594,0.104l0,0l-1.78,5.529l-5.519,1.249l-3.395,4.279
		l-9.268,0.177l-8.372,7.301l-6.06-2.313l-9.985,7.841l4.998,5.342l-8.914,5.354l0.532,4.81l8.392,9.579l0,0l-2.134,0.177
		l-5.248,6.758l-1.781,9.809l-3.259,0.834l-3.197-5.153l-0.53-4.969l-2.135-3.904l-2.082-1.52l-2.708,0.271l-3.374,3.562
		l-0.708,2.655l-0.364,3.019l2.665,7.633l-0.729,2.27l-7.727,0.864l-2.728,3.083l-3.02,6.925h-4.968l-2.488-2.843l0.896-5.863
		l4.789-6.913l-1.063-4.445l2.833-15.266l-1.063-2.479l1.749-0.531l-1.219-7.112l-3.019-3.904l-5.853,0.718l-2.884,2.437
		l-2.021,7.655l-15.858,0.707l-2.052,1.437l-1.416-2.831l0.886-13.319l1.593-5.32l-0.177-7.278l-0.886-2.489l-2.488-0.885l0,0
		h-3.187l-6.57,5.687l0,0h-4.978l-1.77-5.333l0,0v-3.02l-5.332-9.226l-0.271-3.395l0,0l10.038,0.729l3.02-3.021l0,0l6.039-3.549l0,0
		l6.03-3.904l0,0l4.977-6.03l0,0l0.563-1.832l3.779-1.011l4.978,1.948l4.612,5.507l0,0l1.594,2.844l0,0l2.488,2.302l5.862,0.177l0,0
		l0.709-4.614l-2.136-4.436l0.178-3.551l0,0l5.153-5.153l6.926-1.77l7.81-6.748l0,0l18.284,0.53l0,0L781.41,449.924z" title="Causeni"></path>
	<path id="MD-CT" class="land" d="M542.678,636.937l3.529-8.466l0.438-10.548l1.229-1.447l-0.229-4.112l-3.999-4.883l-0.781-4.896
		l3.561-2.998l-1.114-3.218l0.667-1.781l4.113-3.885l4.998-1.883l1.114-4.344l2.884-2.331l-3.999-8.663l4.665-6.114l0.885-3.664
		l2.343-2.771l0.114-3.051l0,0l16.733-0.49l5.508,5.333l8.872,1.946l2.843-1.77l0.708-1.958v-2.301l-2.135-1.604l1.073-1.238
		l3.904-2.844l4.082-0.354l1.947,4.789l-3.551,3.729l0.719,2.135l7.279,6.748l2.3,0.354l0,0h0.511l0,0l-3.26,6.652v4.614
		l11.006,6.569v10.476l-1.238,10.122l-1.604,2.3l-8.164-1.592l-4.613,4.258l4.26,11.892l-0.531,3.728l0,0l0.323,0.178l0,0
		l-1.927,1.248l0,0l-2.302,1.771l-4.977,1.072l-1.771,8.693l0,0l-5.862-1.415l0,0l-10.121,2.123l-1.947-0.354l-4.259-4.259l0,0
		l-2.666-3.018l0,0l-6.04,0.53l-1.947,1.426l-5.508-2.489l-8.164-0.531l0,0L542.678,636.937z" title="Cantemir"></path>
	<path id="MD-CU" class="land" d="M716.259,374.192L716.259,374.192l-0.989-0.802l0,0l-1.5,0.447l0,0L712,374.9l0,0l-4.27,2.666
		l-2.832-0.885l-6.925,1.593l0,0l-6.925-0.354l-2.843-1.771l0,0l-1.593-3.728l-0.354-7.102l-1.427-1.781l-4.966-0.177l-3.729,1.78
		l-1.957,3.374l1.249,1.062l-0.531,1.957l-2.135,0.532l-1.957-3.728l-2.655-0.177l-5.686-3.197h-2.384l-0.636,4.613l0,0
		l-2.124,4.437l-9.944,1.78l-5.686,3.728l-1.771,2.301l-0.354,3.905l2.301,5.153l0,0l-0.114,0.198l0,0l15.567,13.204l1.063,5.32
		l2.665,1.781l8.341,1.593l5.32,3.904l1.958,12.433l4.437,6.04l8.704,0.531l9.58,6.737l5.862,1.426l4.259-1.062l0.708-3.728l0,0
		l2.135-10.039l-1.604-3.185l-4.789-5.333l-5.497-0.707l-1.782-2.666l0.886-7.811l3.729-4.789l0,0l-0.886-3.551l-4.436-0.354
		l1.062-9.945l6.57-0.354l3.552-2.665l12.422,1.062l3.374-4.966l0.177-2.667l-2.124-2.124L716.259,374.192z" title="Chisinau"></path>
	<path id="MD-DO" class="land" d="M428.929,80.448l1.187-0.739l2.28-9.101l-1.822-6.373l0.677-2.968l0.688-2.499l6.373-6.373
		l-1.593-5.695l1.364-1.812l5.466-1.822l4.551,2.499l8.872-1.822l2.957-0.906l8.195-6.144l5.914,0.906l4.332,5.238l5.009,0.677
		l9.559-11.371l12.963-0.896l0,0l2.78,9.466l0,0l-9.038,7.133l-1.135,4.092l8.424,3.645l5.237,5.008l-5.925,6.602h-3.187
		l-3.645,1.812l0,0l-4.55,2.052l0,0l-15.473,8.652l-1.593,6.373l-5.467,7.278l-0.448,3.645l-13.432,9.559l0.229,2.052l10.694,10.006
		l-0.677,2.738l-2.051,1.594h-3.874l0,0h-1.812l0,0l-1.822-1.594v-2.051l-7.737,0.906l-9.111-6.373l-3.322-0.448l0,0l0.021-0.458
		l0,0l-2.958-2.729l0.917-4.103l-0.917-2.041l0.229-14.567l-2.28-3.416l-4.551-2.281l0,0L428.929,80.448z" title="Donduseni"></path>
	<path id="MD-DR" class="land" d="M528.204,136.375l4.675,12.413l-0.458,4.779l-2.51,2.499l-1.135,3.416l0,0v2.27l0,0l-7.507,14.12
		l-4.103-2.281l-0.229-2.499l-4.998,2.957l-2.28,3.416l0,0l-2.5,2.728l0,0l-2.738-3.415l-4.55-0.458l-6.373,1.822l-2.958-0.677
		l-17.066-20.035l-4.78-2.051l-7.289-0.677l-4.092-3.645v-7.965l-3.187-7.966l4.779-1.822l1.822-2.729l-0.229-4.103l1.593-3.519l0,0
		h0.677l0,0h3.874l2.051-1.594l0.677-2.738l-10.694-10.006l-0.229-2.052l13.432-9.559l0.448-3.645l5.467-7.278l1.593-6.373
		l15.473-8.652l0,0l2.926-1.313l0,0l2.541,1.313l4.092,9.559l12.516,1.146l15.484,15.244l7.049,11.152l-0.677,7.278l-2.509,1.375
		l-1.135,4.55h-5.238l-1.135,3.634l-4.78,3.645l3.416,7.736l0,0H528.204z" title="Drochia"></path>
	<path id="MD-DU" class="land" d="M749.631,356.532l-7.996,3.623l-4.54,6.883l-10.955,8.611l-2.332,4.312l0,0l-7.549-5.769l0,0
		l-0.979-0.802l0,0l0.271-0.083l0,0l0.531-2.665l6.393-9.413l7.102-1.594l4.613-5.685l3.332-8.83l3.957-3.28l5.852-2l0,0
		l7.456-0.886l1.062-2.134l4.967-1.947l6.039-4.966l2.135-0.708l1.239,1.238l-3.196,6.216l-5.498,2.312l-3.552,5.509v2.311
		l-4.081,1.781l-4.436,4.082l-1.062,2.843L749.631,356.532z M737.74,309.133l5.32,0.177l2.666-2.312l13.849-3.02l3.021-1.239
		l3.55-4.062l1.374,3.395l0,0l-0.135,1.208l-18.462,8.341l-1.062,2.842l-6.394,1.958l-3.904,6.394l0.177,6.924l0,0l-0.177,4.03l0,0
		l-5.801,3.551l-5.737,1.02l-12.069-2.125l1.959-2.665l-0.354-2.666h-3.551l-2.843-2.312l-0.177-1.593l-4.259-4.083v-1.978l0,0
		l5.686-2.822l1.063-4.082l-5.499-9.226l0.531-3.55h7.101l0.178-3.728l3.728-3.728l0,0l1.594-0.354l0,0l3.312-1.062l5.028,3.645
		l5.687,5.685l2.488,6.57L737.74,309.133z" title="Dubasari"></path>
	<path id="MD-ED" class="land" d="M392.245,51.907l3.957-9.299l7.289-2.499l2.5-2.739l4.092,0.229l0.687,7.966l-1.593,2.281
		l-0.906,6.372l2.499,9.788l11.152,12.058l6.831,3.187l0,0l0.677,4.55l0,0l4.551,2.281l2.28,3.416l-0.229,14.567l0.917,2.041
		l-0.917,4.103l2.958,2.729l0,0l-0.229,3.874l0,0l-6.144,7.278l-9.33,5.915h-2.728l-3.415-2.041l-3.874,0.448l-2.499,5.466
		l-3.186,0.906l-6.144-4.779l-5.696,0.229l-4.779,3.186l-3.187,12.288l-3.634,4.331l-5.925,1.594l0,0l-0.385-2.26l-4.52-3.988
		l2.979-4.895l-0.594-1.771l-6.206-2.499l-0.302-1.645l2.25-2.135l-3.863-1.583l-1.229,1.938l-3.29-0.771l-0.136-1.708l3.197-3.436
		l-0.594-1.541l-5.665-1l-0.771-4.311l-6.414-4.842l-0.885-5.706l2.01-4.613l-0.469-3.551l-3.145-3.853l0,0l10.059-11.839
		l0.906-17.524l4.103-2.728l0.906-2.509l3.645-1.813l2.957,0.906l1.135,1.135l-2.27,4.551l0.447,2.738L378,74.701l4.999,0.458
		l2.051-4.103l4.321,0.687l3.645-3.416l0.687-2.051l-2.957-3.187l2.499-8.195l0,0L392.245,51.907z" title="Edinet"></path>
	<path id="MD-FA" class="land" d="M452.962,306.009l-5.332-2.197l0.344-3.249l3.249-5.488l-0.51-1.707l-3.77-1.885l2.739-10.111
		l-3.936-2.229l-2.228-3.759l-3.083,1.708l-9.934-5.821l-1.198-2.229v-5.82l-3.092-2.229l-3.52-11.568l0,0l10.684-9.684l8.486-5.186
		l3.197-0.406l5.695,3.196l3.197-0.5l9.184-19.774l3.988-5.394l1.697-0.094l5.592,4.487l4.196-1.988l4.696-8.091l1.499-11.381l0,0
		l1.25-1.739l0,0l0.75,3.53l10.183,2.104l3.895,2.791v1.499l-3.197,3l0.698,1.895l1.999,1l8.789-0.906l0,0l0.937-0.416l0,0
		l3.156,2.176v2.666l-4.436,5.675l1.062,3.02l7.101,9.945l6.04,3.905l0.177,2.655l-2.843,2.843l-5.332,1.604l-1.239,10.111
		l-8.872,6.394v3.196l1.239,0.708h13.318l0.708,3.196l-3.02,8.518l-2.843,1.958l-2.666-0.354l0,0l-4.79-1.958l-3.02,0.531
		l-1.416,1.604v7.633l-3.02,3.905l-11.183-0.708l-7.633,1.062l-4.967,4.082l-9.06,2.666l-6.747,10.475L452.962,306.009z" title="Falesti"></path>
	<path id="MD-FL" class="land" d="M531.057,136.375l20.711,0.229l12.974,3.874l7.507-5.696l4.092-0.448l7.966,3.634l17.524,0.916
		l6.145-7.518l12.974-8.872l1.364-3.645l-2.728-3.634l-5.206-2.988l0,0l1.946-1.385l1.552-10.975l3.936-0.917l5.321,1.77l3.02,5.686
		l10.121,1.062l2.135,1.771l0.354,2.842l-5.687,3.728l-3.727-2.478l-1.063,5.144l-3.021,3.55l-6.924,4.613l0.709,2.312l4.8,4.613
		h2.478l1.78-0.885l4.436-7.986l5.321,0.708l5.686,2.666l7.986,9.579l1.781,0.354l0.354,2.666l0,0l-0.709,1.77l-2.312,0.896
		l-0.53,5.852l-6.748,5.332v8.164l-9.048,2.842l-1.428,1.594l0.177,4.977l-4.436,1.593l-2.312-1.416l1.604-2.843l-0.354-3.551
		l-3.197-3.55l-4.082-1.604l-6.925,1.426l-10.298,6.217l-2.311,9.049l-3.905,2.312v6.383l2.135,0.719l5.498-2.135l4.269,2.135
		l6.561,17.931l-0.531,2.655l0,0l-2.488,2.312l0,0l-4.967,2.666l-1.948,5.321l-3.551-0.177l-5.508-3.021l-1.593,0.178l-3.259,3.936
		l0,0l-1.801-1.801l0,0l-19.347-13.318l-13.849-11.36l-31.707-30.572l0,0v-2.093l0,0l1.135-3.416l2.51-2.499l0.458-4.779
		l-4.675-12.413l0,0H531.057z" title="Floresti"></path>
	<path id="MD-GA" class="land" d="M590.389,732.964l6.924,0.53l5.509,2.311l0,0l5.861,0.356l5.686-1.595l0,0l2.364,0.104
		l-1.927,9.842l-2.498,1.092l0.821,3.354l0,0l-8.174,1.779l-1.062,2.136l0.531,12.599l0,0l1.415,5.687l0,0l1.604,0.885l3.374-2.313
		l11.401-2.82l0,0l-0.447,1.635l-6.519,3.258l0.271,4.499l1.958,0.447l0.886,2.313l0.177,4.436l-9.592,4.612l-4.966-1.238
		l-4.613,0.885l-14.025-5.144l-8.081,0.197v-2.063l0,0l2.135-1.592l0,0l2.134-0.708l0.177-2.843l0,0l-1.593-2.313l0,0l-2.666-3.195
		v-3.728l4.79-5.677l0,0v-10.119l0,0l-2.489-5.322l-0.177-15.974l3.905-1.593L590.389,732.964z M658.707,692.759l2.072,4.175
		l-0.177,4.438l-3.551,2.842l-9.227,3.551l-1.375,2.063l0,0l-2.082-1.448l0,0l-9.767,4.259l0,0l-1.771,0.709l0,0l-4.082,0.708
		l-8.871-7.102l-0.885-2.843l0,0l0.53-4.082l0,0l2.49-1.416l5.684,0.531l15.796-4.612l0,0L658.707,692.759z M612.942,692.759
		l-1.062,4.259l0,0l-2.313,1.781l0,0l-3.195,1.416l-1.947-0.531l-2.135-4.789l0.261-1.946l1.52,0.164l0,0l1.239-1.062l0,0
		l1.468-1.946h2.083L612.942,692.759z M616.837,536.984l7.56,4.082l6.218-2.666l6.569,4.968l16.338,4.082l6.394,3.904l4.436,1.062
		l3.374-1.062l0,0l0.031-0.333l0,0l1.926,0.697l2.313,5.685l8.341,5.509l1.062,3.729l-2.488,6.394l-1.771,0.708l-16.869,4.612
		l-6.216-0.885l-3.374,0.885l3.374,7.81l-0.177,3.551l3.196,0.531l7.102-2.489l8.163,1.24l1.417-3.374l5.508-2.135l6.394,5.509
		l11.579,2.935l0,0l0.582,3.208l7.195,4.905l0,0l-1.342,1.291l0,0l-11.36,11.184l-4.082,6.923l0.354,5.146l0,0l2.488,11.007
		l-4.436,1.592l0,0l-8.694,6.395l-1.063,7.81l0,0l1.063,1.238l0,0l3.904-0.531l0,0l1.239,6.393l0,0l0.875,6.467l-16.682,3.582
		l-2.831-7.195l-4.613-6.569l0,0l-2.135-2.843l0,0l-4.612-1.948l-5.145,2.135l0,0l-1.063,3.552l0,0l4.79,14.026v2.133l-1.594,0.708
		l-10.829,0.531l-11.006,7.81l-3.904,0.179l-4.614-4.261l-5.143-1.956l-0.708-5.144l2.665-0.887l0,0h1.594l0,0l4.789,0.177l0,0
		l1.063-2.487l0,0v-2.666l-1.947-1.593l0,0l-9.226-2.843v-1.948l4.613-2.311l0,0l2.135-4.612l0,0l0.354-2.844l-2.135-5.497
		l-1.77-0.533l-2.312,2.136l0,0h-1.417l0,0l0.354-3.904l0,0l-0.178-9.048l-2.665-1.418l0,0l0.531-3.728l-4.259-11.892l4.612-4.259
		l8.164,1.595l1.604-2.313l1.239-10.122v-10.474l-11.007-6.571v-4.612l3.259-6.654l0,0h2.51l0,0l3.551-0.354l4.968-2.667
		l1.062-3.728l-1.594-7.276l-9.049-10.476l-1.062-6.218l1.771-2.123l0,0L616.837,536.984z" title="Unitatea Teritoriala Autonoma Gagauzia (UTAG)"></path>
	<path id="MD-GL" class="land" d="M422.692,249.427l-5.894-2.822l-4.623-9.757l-11.819-10.444l0.167-3.77l-3.416-3.603l0.167-2.051
		l-3.77-3.259l1.197-1.874l3.946-0.864l1.021-1.885l-1.406-7.643l1.364-1.552l0,0l9.08-12.683l1.697-6.893l1.906-0.698l4.686,3.093
		l2.395-0.292l10.288-8.289l2.604-0.802l26.261,8.393l5.29-0.208l5.488-4.093l7.393-1.791l10.485,13.974l0,0l0.198,1.697l0,0
		l-1.302,1.5l0,0l-1.291,1.801l0,0l-1.499,11.381l-4.696,8.091l-4.196,1.988l-5.592-4.487l-1.697,0.094l-3.988,5.394l-9.184,19.774
		l-3.197,0.5l-5.695-3.196l-3.197,0.406l-8.486,5.186L422.692,249.427z" title="Glodeni"></path>
	<path id="MD-HI" class="land" d="M579.383,382.179l4.624,0.188l7.632,5.675l5.321-3.197l4.258,1.958l5.332-3.373l2.665,1.946l0,0
		l4.229,0.886l0,0l11.297,30.894l3.551,0.354l11.901,14.38l2.479,0.531l2.665-2.3l2.665,0.177l6.925,11.537l0.708,4.612
		l-4.622,5.685v4.436l2.842,0.533l-0.177,4.081l-4.436,4.436l0,0l-2.666,2.134l0,0l-3.02,2.125l-0.708,2.134l-2.479,0.177
		l-1.426-3.551l-3.551,0.355l-3.021,7.454l1.072,1.958l-0.541,6.03l-3.01,3.905h-3.019l0,0h-6.748l0,0l-10.652,0.718l-9.048-9.061
		l-1.781-0.354l-4.436,3.728l-6.039,1.781l-0.177,2.478l3.02,3.904l-0.354,10.122l-2.134,3.197l-7.987,0.177l-3.02-1.771
		l-4.259-7.276l-3.946,0.177l-3.988,1.956l0,0l-6.175-18.409l-3.936-7.539l-1.708-13.016l-5.998-7.195l0.167-2.904l-3.082-3.427
		l-0.344-6.342l-1.708-3.081l0.51-7.528l-1.885-2.063l0,0l3.259-2.57l0,0l0.104-3.156l1.125-0.625l0,0l7.456,5.153l2.665-2.487
		l7.633,1.416l4.082-0.708l-1.062-19.878l5.144-3.374l7.102-1.062l0.708-8.882l-1.593-4.613l1.416-3.374l0,0L579.383,382.179z" title="Hincesti"></path>
	<path id="MD-IA" class="land" d="M710.219,439.262l2.749-2.406l4.623-1.062l3.728,5.33l1.417,9.228l-0.885,13.671l0,0l-0.886,2.843
		l0,0l-4.977,6.03l0,0l-6.03,3.904l0,0l-6.039,3.549l0,0l-3.02,3.021l-10.652-0.708l0,0l1.427-7.102l-2.135-5.508l-2.313-2.479
		l-6.382-3.197l-2.489,0.71l-2.666,2.841l-1.592,3.905v5.863l-2.136,1.238l-4.259,0.177l-2.842-2.843l-1.594-5.675l-3.021-2.135
		l-5.507-2.134l-6.301-0.063l0,0l0.803-0.646l0,0l4.436-4.436l0.177-4.081l-2.842-0.533v-4.436l4.622-5.685l-0.708-4.612
		l-6.925-11.537l-2.665-0.177l-2.665,2.3l-2.479-0.531l-11.901-14.38l-3.551-0.354l-11.297-30.894l0,0l0.03,0.01l0,0l1.771-2.311
		l1.779,0.177l1.771,5.508l2.135,1.239l6.029,8.341l4.8,2.665h3.021l0.707-1.062l-1.604-1.958l1.604-5.685l5.32-0.531l0,0
		l0.948-1.572l0,0l15.567,13.204l1.063,5.32l2.665,1.781l8.341,1.593l5.32,3.904l1.958,12.433l4.437,6.04l8.704,0.531l9.58,6.737
		l5.862,1.426l4.259-1.062L710.219,439.262z" title="Ialoveni"></path>
	<path id="MD-LE" class="land" d="M563.097,557.883l-0.344-2.563l4.28-5.31l-0.167-2.915l-1.718-1.197l0.854-6.164l-6.852-9.592
		v-2.06l3.77-7.529l-0.677-8.736l3.936-7.706l-0.854-5.998l0,0l3.988-1.956l3.946-0.177l4.259,7.276l3.02,1.771l7.987-0.177
		l2.134-3.197l0.354-10.122l-3.02-3.904l0.177-2.478l6.039-1.781l4.436-3.728l1.781,0.354l9.048,9.061l10.652-0.718l0,0h5.674l0,0
		l2.313,23.969l-0.885,3.552l-3.374,4.612l0.531,7.81l-6.217,7.819l0,0l-2.124,1.416l0,0l-1.78,2.125l1.073,6.215l9.048,10.476
		l1.604,7.279l-1.073,3.728l-4.966,2.666l-3.551,0.354l0,0h-3.021l0,0l-2.3-0.354l-7.279-6.748l-0.719-2.135l3.551-3.729
		l-1.947-4.789l-4.082,0.354l-3.904,2.844l-1.073,1.238l2.135,1.604v2.301l-0.708,1.958l-2.843,1.77l-8.872-1.946l-5.508-5.333
		L563.097,557.883z" title="Leova"></path>
	<path id="MD-NI" class="land" d="M532.171,335.467l6.56,4.197l0.177,4.623l1.78,1.063l5.321,2.666h4.446l4.79,5.321l6.206,0.177
		l11.725,5.332l0,0l-1.073,1.417l0,0l-1.416,6.039l-4.437-0.177l0.354,2.478l5.321,4.977l6.394,2.479l2.312,4.259l0,0l-1.427,2.134
		l0,0l-1.416,3.374l1.593,4.613l-0.708,8.882l-7.102,1.062l-5.144,3.374l1.062,19.878l-4.082,0.708l-7.633-1.416l-2.665,2.487
		l-7.456-5.153l0,0l-1.229,0.688v3.094l0,0l-3.259,2.57l0,0l0.864-2.229l-1.718-4.967l-0.344-7.362l-2.052-3.936l0.511-2.916
		l-5.175-5.413l0.333-8.467l-3.905-6.56l-12.787-9.767l-1.947-5.862l-0.708-7.632l3.728-3.905l2.301-4.79l-2.655-8.164l1.239-2.489
		L532.171,335.467z" title="Nisporeni"></path>
	<path id="MD-OC" class="land" d="M447.786,8.757l0.469,2.249l5.686,0.594l7.81,5.561l3.072,0.354l9.059-5.925l7.872,0.011
		l4.655,1.541l14.962,10.725l3.228,3.239l1.302,4.144l0,0l-12.963,0.896l-9.559,11.371l-5.009-0.677l-4.332-5.238l-5.914-0.906
		l-8.195,6.144l-2.957,0.906l-8.872,1.822l-4.551-2.499l-5.466,1.822l-1.364,1.812l1.593,5.695l-6.373,6.373l-0.688,2.499
		l-0.677,2.968l1.822,6.373l-2.28,9.101l-1.187,0.739l0,0l-0.177-1.197l0,0l-6.831-3.187l-11.152-12.058l-2.499-9.788l0.906-6.372
		l1.593-2.281l-0.687-7.966l-4.092-0.229l-2.5,2.739l-7.289,2.499l-3.957,9.299l0,0l-0.135-0.427l0,0l-10.476-7.278l3.28-8.976l0,0
		l3.686,0.281l2.374-2.364l6.268-14.203l3.905-4.737l4.259-2.718l2.843-0.833l6.748,2.135l2.957,5.56l1.541-0.115l2.364-3.083
		l2.249-0.354l6.279-5.561l5.207,0.229l3.665-2.249l3.791-6.862L445.538,0l4.728,3.311L447.786,8.757z" title="Ocnita"></path>
	<path id="MD-OR" class="land" d="M722.412,292.358l-3.312,1.062l0,0l-1.604,0.354l0,0l-3.728,3.728l-0.177,3.728h-7.103
		l-0.707,1.781l5.675,11.006l-1.063,4.082l-4.436,2.666l-9.413,2.301l0,0l-4.79,2.134l0,0l-4.613,1.417l-5.33,3.728l0,0
		l-6.384,2.312l0,0l-6.924-1.958l0,0l-1.427,1.427l0,0l-1.593,3.197v16.15l-1.239,0.884l0,0l-9.591-3.009l-0.707-5.862l-2.313-3.728
		h-3.197l-5.851-8.164l-0.178-2.312l-5.154-3.905l-1.947-7.102l1.238-1.063l-1.238-1.604l-7.996,0.532l-4.082-3.384l0,0l2.134-1.136
		l0,0l1.417-1.603l-1.948-2.125l-8.881-3.197l-0.438-16.181l0,0l1.592-0.511l0,0l6.041-4.082v-2.666l-1.782-2.125l0.354-3.02
		l4.093-6.039l13.661-9.226l10.298-2.134l1.24-1.239l0,0l-0.885-6.748l0,0l-1.417-4.082l3.373-6.924l0,0l0.614-0.531l0,0
		l2.136,0.177l9.048,12.6l5.863,3.196l8.163-1.062l11.184-8.517l6.747,3.55l0,0l4.436,5.498l-0.53,7.278l0,0l8.174,1.062l0,0
		l2.093,0.167l3.936,6.935l6.394-0.885l4.259,6.217l2.312,0.708l1.417,2.125l-1.947,5.862l-4.624,5.332L722.412,292.358z" title="Orhei"></path>
	<path id="MD-RE" class="land" d="M636.685,215.991l1.646-1.479l0,0l5.143-7.81l2.125-1.239h4.446l7.455,2.833l6.56-0.885
		l0.719-2.301l-2.665-8.882l1.77-2.843l3.021-1.239h9.413l10.828-10.122l0.532-3.905l3.55-3.905l2.843-5.852l0,0l3.551-1.604
		l2.844,0.708l2.477,1.781l2.844,4.967l0.53,5.862l-2.842,7.456l-0.354,7.987l1.427,9.944l-0.896,15.265l1.25,5.144l-1.073,2.666
		v14.557l6.394,5.685v14.37l-2.301-0.178l0,0l-8.174-1.062l0,0l0.53-7.278l-4.436-5.498l0,0l-6.747-3.55l-11.184,8.517l-8.163,1.062
		l-5.863-3.196l-9.048-12.6l-2.136-0.177l0,0l-0.885-1.958l0,0l-15.442-12.954l-3.551-1.604l-0.708-1.593l2.489-1.416
		L636.685,215.991z" title="Rezina"></path>
	<path id="MD-RI" class="land" d="M398.472,202.267l-8.736-9.351l-3.592-7.882l4.28-1.542l-1.031-4.102h-2.905l-2.405-1.885
		l1.885-3.082l-2.562-4.966l1.364-6.508l-2.051-2.063l-5.144-0.51l-4.28-2.229l1.885-3.936l3.041-2.582l0,0l5.925-1.594l3.634-4.331
		l3.187-12.288l4.779-3.186l5.696-0.229l6.144,4.779l3.186-0.906l2.499-5.466l3.874-0.448l3.415,2.041h2.728l9.33-5.915l6.144-7.278
		l0,0l0.208-3.416l0,0l3.322,0.448l9.111,6.373l7.737-0.906v2.051l1.822,1.594l0,0h1.135l0,0l-1.593,3.519l0.229,4.103l-1.822,2.729
		l-4.779,1.822l3.187,7.966v7.965l4.092,3.645l7.289,0.677l4.78,2.051l17.066,20.035l2.958,0.677l6.373-1.822l4.55,0.458
		l2.738,3.415l0,0l0.188-0.208l0,0l1.718,2.239l0,0l-0.802,1.302l0,0l-5.987,0.302l-3.696,4.196l-0.698,1.292l3.197,2.603
		l-0.302,1.999l-13.443-3.134l0,0l-0.135-1.166l0,0l-10.485-13.974l-7.393,1.791l-5.488,4.093l-5.29,0.208l-26.261-8.393
		l-2.604,0.802l-10.288,8.289l-2.395,0.292l-4.686-3.093l-1.906,0.698l-1.697,6.893l-9.08,12.683l0,0L398.472,202.267z" title="Riscani"></path>
	<path id="MD-SD" class="land" d="M618.242,207.921l0.553-0.51l0,0l0.531-2.655l-6.561-17.931l-4.269-2.135l-5.498,2.135
		l-2.135-0.719v-6.383l3.905-2.312l2.311-9.049l10.298-6.217l6.925-1.426l4.082,1.604l3.197,3.55l0.354,3.551l-1.604,2.843
		l2.312,1.416l4.436-1.593l-0.177-4.977l1.428-1.594l9.048-2.842v-8.164l6.748-5.332l0.53-5.852l2.312-0.896l0.709-1.77l0,0
		l5.144-0.885l5.154,1.239l7.455,12.61l-1.603,2.301l-0.178,3.196l1.249,1.781l13.308,2.301l6.747,4.082l-0.885,1.072l0,0
		l-2.843,5.852l-3.55,3.905l-0.532,3.905l-10.828,10.122h-9.413l-3.021,1.239l-1.77,2.843l2.665,8.882l-0.719,2.301l-6.56,0.885
		l-7.455-2.833h-4.446l-2.125,1.239l-5.143,7.81l0,0l-1.782,1.604l0,0l-8.34-7.278L618.242,207.921z" title="Soldanesti"></path>
	<path id="MD-SI" class="land" d="M511.075,275.323l0.583,0.26l0,0l2.666,0.354l2.843-1.958l3.02-8.518l-0.708-3.196H506.16
		l-1.239-0.708v-3.196l8.872-6.394l1.239-10.111l5.332-1.604l2.843-2.843l-0.177-2.655l-6.04-3.905l-7.101-9.945l-1.062-3.02
		l4.436-5.675v-2.666l-3.156-2.176l0,0l0.854-0.375l0,0l8.892-1l3.197-2.197l2.895,2.291l4.895,0.208l0.791-3.999l-3.79-3.395
		l3.999-3.696l-0.208-4.79l-1.697-1.301l-1.697-4.895l-1.499-0.291l-4.884,6.185l-3.103,1.104l-5.79-4.301l-2.291-0.302
		l-1.843-3.988l0,0l0.239-0.406l0,0l-1.718-2.239l0,0l2.312-2.52l0,0l2.28-3.416l4.998-2.957l0.229,2.499l4.103,2.281l7.507-14.12
		l0,0v-0.177l0,0l31.707,30.572l13.849,11.36l19.347,13.318l0,0l2.666,2.666l0,0l1.239,5.498v12.422l-5.332,4.8l2.312,8.341
		l-0.531,4.082l-4.79,1.958l-8.528-3.905l-16.504,0.177l-2.666-3.197l-1.593-0.177l-5.155,2.478l-3.904,5.862l1.604,13.849
		l2.478,5.675l-0.177,3.02l-1.739,2.479l0,0l-14.942-2.655l-4.446,4.259l-9.756-6.747l-11.006,2.488L511.075,275.323z" title="Singerei"></path>
	<path id="MD-SN" class="land" d="M774.809,298.502l1.354,1.093l1.136,5.404l-2.489,2.738l0.833,3.509l1.655,1.343l-0.104,5.883
		l6.977,1.927l8.986-1.802l-0.219-14.411l11.36-3.436l2.604,0.479l1.896,4.613l3.196,23.793l-0.833,1.655l-6.623,2.009l5.051,25.251
		l-0.989,4.467l-14.025,1.063l1.884,2.832l-0.708,0.625l2.646,1.156l2.249,3.082l3.196,6.987l0.75-3.342l3.029-1.864l8.82,0.833
		l2.01,10.819l-4.676,4.259l0.125,17.254l-6.903,2.279l0.854,2l2.135,2.613l9.944-2.842l2.738,8.922l8.393-1.112l2.363-1.417
		l2.521,1.667l0.636,2.978l0.989-0.239l3.436,11.693l4.259,2.01l3.79-1.655l8.882-0.708l1.302-3.665l4.937,1.155l2.279,6.872
		l-1.884,0.136l-0.239,2.134l4.497,7.486l3.322-1.572l3.082-4.019h1.895l3.551,3.478l0.656,1.905l-3.301,0.178l-3.343,4.488
		l5.229,8.486l1.571,5.57l-0.614,24.417l-4.009,3.645l1.875,8.33l3.915,3.832l0.885,6.571l-2.135,3.02l-10.121,0.354l-3.374,1.646
		l0,0l-11.817-9.519l-11.767-0.354l-4.104-1.249l-1.604-4.635l5.884-5.164l1.78-5.529l-1.427-3.03l-8.559,0.896l-8.195-4.104l0,0
		l-1.374,0.25l0,0l0.302-3.28l2.322-1.426l4.456-8.914l-6.06-13.183l-0.531-8.735l-7.664,0.354l-1.249-0.887l0.896-2.498
		l-1.781-1.958h-2.676l-1.427,0.895l-1.249,10.165l-2.322,0.718l-4.811-1.959l-0.354,1.782l-2.676-0.531l-3.926-3.384l-0.177-2.677
		h-1.958l0,0l-1.427-0.354l0,0l-1.78-3.738l-0.188-9.277l0,0l1.781-3.552l0,0l-2.488-5.863l0,0l-1.063-3.904l2.312-3.551l0,0
		l0.532-3.728l0,0l-2.313-2.665l-6.216-2.489l-3.729,1.957l0,0l-3.728,2.313l0,0l-3.904,1.958l0,0l-6.924-2.843l0,0l-4.968-4.082
		l0,0l-1.062-2.666l0,0l0.708-6.395l2.665-0.353l7.987,2.489l0,0l1.238-2.136l0,0l-2.134-4.081l3.196-7.277l0.354-4.26l-2.489-6.393
		l-12.297-11.704l0.582-1.167l0,0l-5.497-7.632l-5.321-1.417l0,0l-1.239-1.063l1.063-2.842l4.436-4.082l4.082-1.771v-2.311
		l3.551-5.499l5.508-2.311l3.197-6.217l-1.239-1.239l-2.124,0.708l-6.04,4.967l-4.966,1.958l-1.063,2.134l-7.456,0.885l0,0
		l-6.57-2.488l-3.196-3.551l0,0l0.177-4.082l0,0l-0.177-6.924l3.904-6.395l6.395-1.947l1.062-2.842l18.462-8.341l0.136-1.208l0,0
		l-0.386-1.927L774.809,298.502z M629.343,86.103l1.354,1.541l3.258-0.708l4.739,4.259l4.028,0.354l4.312,2.895l3.03-0.521
		l0.948,4.613l4.352-1.01l0.739,1.249l2.719,0.239l0.832-1.416l3.947-0.593l3.895,3.166l5.06-2.572l6.04,2.843l2.957,4.853
		l-0.947,5.914l-1.896,2.25l1.188,5.56l-1.063,4.613l5.206,4.853l0.833,5.092l7.695,9.236l1.197,0.771l4.603-4.675l2.718,0.354
		l2.135,1.062l3.071,4.582l2.488,0.624l2.135,3.312l3.104-1.051l5.436,0.802l1.812-0.781l-1.281-5.779l3.593,2.499l-1.113-5.779
		l6.965-0.083l-0.707-3.092l6.81,1.364l0.948,0.479l-0.115,4.967l2.135,3.311l1.78,17.285l1.343,2.176l2.687-2.062l0.115,1.417
		l5.008-0.854l4.343,1.333l-2.25,4.966l-3.842,1.74l-2.654,3.624l-3,6.32l3.666,6.748l1.844-0.156l1.571-2.062l3.957,1.78
		l-2.447,12.089l-6.008,3.749l-1.729,5.56l4.51,9.143l-1.916,0.51l0.104,5.987l-1.457,0.458l-1.104,4.488l4.697-0.208l-2.458,3.634
		l-1.572,0.104l1.207,4.186l-4.737,10.392l-12.151,4.009l6.278,12.734l4.706-2.312l0.918,1.302l-0.918,1.114l0.073,3.967
		l1.459,1.947l-1.427,1.917l0.582,1.301l-4.144,4.436l4.988-2.228l0.646,1.333l-2.854,3.301l0.666,4.258l2.905,0.667l7.56-7.716
		l1.063,11.964l4.436-5.05l8.102-3.561l2.988,17.285l-3.551,4.061l-16.869,4.259l-2.665,2.312l-5.321-0.177l-2.135-0.885
		l-4.612-9.226l-8.58-6.654l-0.646-2.926l4.612-5.321l1.957-5.863l-1.415-2.124l-2.313-0.708l-4.259-6.217l-6.393,0.885
		l-2.666-3.728l-1.77-5.862l0.707-11.714l-6.394-5.686V228.58l1.063-2.666l-1.239-5.144l0.886-15.265l-1.417-9.944l0.354-7.986
		l2.843-7.456l-0.531-5.862l-2.843-4.967l-2.488-1.77l-5.623-0.042l-6.623-4.227l-13.317-2.312l-1.239-1.77l0.177-3.197l1.594-2.312
		l-7.456-12.599l-5.143-1.239l-5.145,0.885l-0.354-2.666l-1.77-0.354l-9.403-10.652l-9.59-2.312l-4.436,7.987l-1.771,0.885h-2.488
		l-3.729-2.666l-1.77-4.259l6.924-4.613l3.02-3.551l1.062-5.144l3.729,2.488l5.686-3.727l-0.354-2.843l-2.136-1.771l-10.12-1.062
		l-3.02-5.686l-1.771-1.062l-7.361,0.208l-0.488-2.083l2.362-1.26l0.114-2.604l-1.541-2.01l8.165-6.269L629.343,86.103z" title="Unitatea Teritoriala din Stinga Nistrului"></path>
	<path id="MD-SO" class="land" d="M511.335,44.389l3.676,1.771l18.919,0.271l5.624,2.562l2.749,6.279l-1.062,5.998l-5.165,6.55
		l-0.115,3.082l2.718,1.771l6.529-1.271l4.124-5.832l4.384-3.311l3.78,0.354l1.542,1.541l1.78,9.226l4.613,3.083l4.529-0.708
		l11.152-9.174l4.654,2.312l3.509-2.437l1.426,0.479l2.843,4.019V81.49l-3.082,6.04l-6.269,2.718l1.062,6.747l8.049-0.947
		l3.437-6.394l4.134-1.895l3.79,0.479l1.062,1.187v5.207l-2.124,4.134l0.906,9.153l6.194,4.582l3.678-0.271l0,0l5.206,2.988
		l2.728,3.634l-1.364,3.645l-12.974,8.872l-6.145,7.518l-17.524-0.916l-7.966-3.634l-4.092,0.448l-7.507,5.696l-12.974-3.874
		l-20.711-0.229l0,0h-3.645l0,0l-3.416-7.736l4.78-3.645l1.135-3.634h5.238l1.135-4.55l2.509-1.375l0.677-7.278l-7.049-11.152
		l-15.484-15.244l-12.516-1.146l-4.092-9.559l-2.541-1.313l0,0l1.625-0.739l0,0l3.645-1.812h3.187l5.925-6.602l-5.237-5.008
		l-8.424-3.645l1.135-4.092l9.038-7.133l0,0L511.335,44.389z" title="Soroca"></path>
	<path id="MD-ST" class="land" d="M664.309,352.314l2.063,3.946l0,0l-0.708,4.447h-1.781l-3.728,3.728l-0.708,5.144l0,0l-2.124,4.437
		l-9.944,1.78l-5.686,3.728l-1.771,2.301l-0.354,3.905l2.301,5.153l0,0l-1.063,1.771l0,0l-5.32,0.531l-1.604,5.685l1.604,1.958
		l-0.707,1.062h-3.021l-4.8-2.665l-6.029-8.341l-2.135-1.239l-1.771-5.508l-1.779-0.177l-1.771,2.311l0,0l-4.259-0.896l0,0
		l-2.665-1.946l-5.332,3.373l-4.258-1.958l-5.321,3.197l-7.632-5.675l-4.624-0.188l0,0l1.25-1.864l0,0l-2.312-4.259l-6.394-2.479
		l-5.321-4.977l-0.354-2.478l4.437,0.177l1.416-6.039l0,0l0.532-0.699l0,0l2.488,1.583l9.944-1.063l12.599-6.04l3.374-4.966
		l5.509-0.531l1.771-7.102l-2.303-7.81l-5.861-1.958l0.708-1.947l8.882-3.728l4.081-5.686l6.925-1.417l1.947-5.862l0,0l0.532-0.281
		l0,0l4.082,3.384l7.996-0.532l1.238,1.604l-1.238,1.063l1.947,7.102l5.154,3.905l0.178,2.312l5.851,8.164h3.197l2.313,3.728
		l0.707,5.862l9.591,3.009l0,0L664.309,352.314z" title="Straseni"></path>
	<path id="MD-SV" class="land" d="M867.857,517.326l3.02,4.57l7.102,4.436l8.694,0.709l1.958,3.019l0.531,5.499l4.789,7.82
		l2.489,0.354l2.312,4.259l2.562,0.447l2.76-3.468l3.196,1.062l4.436,4.261l5.862-1.063l1.063,2.666l-1.594,2.479l-15.982,9.766
		l-2.125-1.062l-16.515,0.177l-6.039-2.666l-5.853,3.905l-2.312,6.748l-3.551,1.062l-6.205-4.436l-2.488-6.571l-3.812-4.31
		l-3.291-12.902l-3.551-3.904l-4.259-2.136l-0.958,1.251l2.198,4.789l-1.947,4.79l-4.572,0.594l-3.779-2.904l-4.186,0.821
		l-0.25,5.925l1.78,9.237l-5.862,4.259h-7.633l-6.758-4.249l-1.405-3.207l0.676-3.145l-1.03-4.665l-6.394-2.489l-4.186,0.073
		l-1.854-1.666l-2.125-10.476l-3.551-3.02l-2.488,0.177l0,0l-8.392-9.579l-0.532-4.81l8.914-5.354l-4.998-5.342l9.985-7.841
		l6.06,2.313l8.372-7.301l9.268-0.177l3.395-4.279l5.519-1.249l1.78-5.529l0,0l1.969-0.354l0,0l8.195,4.102l8.549-0.895l1.426,3.03
		l-1.779,5.529l-5.884,5.164l1.604,4.633l4.102,1.251l11.768,0.354L867.857,517.326z" title=" Stefan Voda"></path>
	<path id="MD-TA" class="land" d="M623.949,666.489l-1.062,2.487l0,0l-4.79-0.178l0,0h-1.594l0,0l-2.665,0.885l0.708,5.146
		l5.154,1.957l4.612,4.258l3.904-0.177l11.007-7.81l10.83-0.53l1.592-0.708v-2.136l-4.789-14.024l0,0l1.062-3.551l0,0l5.145-2.136
		l4.613,1.959l0,0l2.134,2.843l0,0l4.613,6.569l2.832,7.205l-6.644,2.386l-3.728,3.021l1.063,10.119l1.238,1.064l-0.468,7.632l0,0
		l-15.234,1.77l0,0l-15.796,4.612l-5.686-0.53l-2.488,1.415l0,0l-0.531,4.082l0,0l0.885,2.843l8.871,7.103l4.082-0.708l0,0
		l1.781-0.708l0,0l9.767-4.259l0,0l2.082,1.446l0,0l0.313,4.499l-1.78,3.551l-4.26,2.666l-12.422,1.238l-1.062,1.959l0.707,8.34
		l-0.177-1.594l-0.708,3.374l-8.788,0.333l0,0l0.708-2.55l1.78-0.533l0.53-3.728l-3.727-3.019l-1.416-3.02v-5.5l-2.844-2.133
		l-2.842,3.374l-5.498-7.456l-9.236-1.771l-1.947-2.487l-2.134-11.36l1.416-1.238l9.414,0.177l0,0l1.957,6.746l1.959,0.53
		l3.195-1.415l0,0l2.312-1.77l0,0l1.063-4.259l-4.083-2.666h-2.082l0.667-0.885l0,0l-1.238-2.843l-5.145-4.967l-0.885-16.859
		l-1.062-1.957l2.489-5.674l0.531-9.05l1.957-1.77l7.632-1.238l0.615-1.064l0,0h1.343l0,0l2.312-2.123l1.78,0.531l2.136,5.507
		l-0.354,2.844l0,0l-2.135,4.612l0,0l-4.612,2.313v1.958l9.235,2.842l0,0l1.958,1.594v2.594H623.949z M703.211,650.504l-1.416,6.123
		l-5.497,4.259l-12.351,4.062l-0.874-6.467l0,0l-1.239-6.393l0,0l-3.905,0.531l0,0l-1.062-1.241l0,0l1.062-7.81l8.694-6.392l0,0
		l4.437-1.595l-2.488-11.004l0,0l-0.354-5.146l4.081-6.925l11.359-11.182l0,0l1.344-1.292l0,0l8.33,4.747l2.136,2.489l0.26,2.375
		l-0.615,4.373l-7.277,6.478l-2.322,6.132l-8.694,6.03l-1.24,4.175l6.217,9.412L703.211,650.504z" title="Taraclia"></path>
	<path id="MD-TE" class="land" d="M652.636,239.035l-0.552,0.688l0,0l-3.373,6.924l1.417,4.082l0,0l0.885,6.748l0,0l-1.24,1.239
		l-10.298,2.134l-13.661,9.226l-4.093,6.039l-0.354,3.02l1.782,2.125v2.666l-6.041,4.082l0,0l-4.436,1.427l0,0l-14.025,2.125
		l-7.81,2.843l-4.79-0.531l-5.685-3.374l-15.265-1.78l0,0l-7.633-2.124l-4.405-3.738l0,0l1.739-2.479l0.177-3.02l-2.478-5.675
		l-1.604-13.849l3.904-5.862l5.155-2.478l1.593,0.177l2.666,3.197l16.504-0.177l8.528,3.905l4.79-1.958l0.531-4.082l-2.312-8.341
		l5.332-4.8v-12.422l-1.239-5.498l0,0l-0.864-0.864l0,0l3.259-3.936l1.593-0.178l5.508,3.021l3.551,0.177l1.948-5.321l4.967-2.666
		l0,0l1.936-1.802l0,0l9.966,0.917l8.34,7.278l0,0l0.137-0.125l0,0l-2.083,3.676l-2.489,1.416l0.708,1.593l3.551,1.604
		l15.442,12.954l0,0L652.636,239.035z" title="Telenesti"></path>
	<path id="MD-UN" class="land" d="M533.161,400.631l-2.989-1.594l-1.02-3.426l-4.967-0.167l-5.997-4.623l-4.624-0.864l-1.375-4.966
		l-2.905-0.344l-5.654-7.706l-7.706-4.966l0.167-4.624l-7.018-2.905l-1.031-10.278l-5.311-11.651l-2.218-1.365l-1.031-8.392
		l-2.915-2.917l-2.229-5.477l-5.3,1.708l-3.259-3.77l-4.967-1.365l-2.916-3.426l-0.51-3.603l-4.113-3.083l-0.364-4.779l6.914-1.125
		l6.747-10.475l9.06-2.666l4.967-4.082l7.633-1.062l11.183,0.708l1.604-1.062l1.416-2.843v-7.632l1.416-1.604l3.02-0.531
		l4.207,1.697l1.833,4.874l11.006-2.489l9.756,6.747l4.446-4.258h3.197l5.674,2.134l6.071,0.521l4.405,3.738l4.144,1.396
		l-1.926,15.994l-13.317,11.006l-6.561,12.433l-5.331,6.393l-15.619,8.34l-1.239,2.489l2.655,8.164l-2.301,4.79l-3.728,3.905
		l0.708,7.632l1.947,5.862l12.787,9.757l2.478,4.093l1.427,2.478L533.161,400.631z" title="Ungheni"></path>
</svg>