<?xml version="1.0" encoding="utf-8"?>
<svg version="1.1" xmlns="http://www.w3.org/2000/svg" xmlns:xlink="http://www.w3.org/1999/xlink" viewBox="0 0 1200 800">
	<path id="TJ-GB" class="land" d="M926.392,295.96l2.771,0.923l2.085-0.462l1.288-0.601l1.597,0.028l2.155-0.364l3.107-1.26
		l1.777-0.042l1.583,0.294l-0.967,2.057l1.008,5.32l1.638,6.327l-0.266,5.655l-1.834,2.953l-5.963,3.779l-1.189,2.745l-0.938,3.121
		l-1.092,2.66l-2.239,1.329l-1.64,0.672l-0.908,1.344l0.154,1.511l0.908,1.933l2.423,0.713l2.435-0.518l2.449,0.28l2.815,3.668
		l1.763,4.646l4.871,4.437l1.33,2.143l1.007,5.291l1.736,3.667l-0.07,4.228l0.196,2.141l3.977,5.432l0.783,2.449l1.693,0.84
		l1.975-0.294l2.407-1.484l2.868-0.56l1.779,1.021l1.189,4.942l1.525,2.856l0.953,2.463l0.335,2.491l-0.321,2.856l-1.414,1.148
		l-2.072,0.532l-4.464-0.35l-4.005,0.392l-2.099,0.98l-3.401,4.046l-2.394,4.647l-0.7,3.387l0.518,2.24l1.315,1.246l2.618,1.441
		l0.616,1.106l0.979,5.431l1.415,3.29l0.308,1.595l-0.379,8.064l0.532,2.155l1.667,5.752l2.406,2.729l2.423,4.942l0.574,2.674
		l-0.295,1.553l-0.77,0.826l-1.848,0.028l-0.756,0.63l0.014,0.883l1.218,1.245l3.304,1.567l4.27,2.631l5.725,0.813l1.331,0.895
		l1.202,1.317l2.06,3.933l1.37,1.429l7.867,1.525l5.711-1.959l4.633,1.119l2.604,0.238l0.854-0.307l0.965-1.106l-1.932-2.759
		l-0.139-0.825l0.377-1.861l5.081-7.083l0.883-1.779l-0.015-2.001l-0.351-2.197l0.295-1.945l1.791-2.507l1.386-0.672l5.277-0.391
		l3.136,0.63l3.654,2.603l1.371-0.084l1.413-0.841l1.022-0.237l2.127,1.205l3.906,0.713l8.12-1.231l0.643,0.251l2.451-0.168
		l2.364,0.365l3.262,1.176l0.504,0.63l4.535,2.435l2.267-0.013l2.437-0.49l2.17,0.575l2.632-0.085l1.134,0.812l1.833,2.688
		l1.568,1.707l1.638,0.603l4.424-0.013l1.932,1.469l2.226,0.952l3.038,0.308l1.847,0.937l1.849,2.06l4.996,3.262l1.442,1.75
		l1.399,2.421l1.008,0.643l5.474-1.118l1.638-0.015l1.695,0.49l2.21,2.128l1.989,4.464l1.47,1.008l2.617-0.195l1.063-1.189
		l0.406-0.91l1.496-1.414l0.462,0.057l0.729,1.036l-0.029,1.553l-0.783,3.641l-0.154,3.85l0.393,3.723l0.84,2.911l0.042,1.582
		l-0.952,2.771l-1.778,2.436l-0.167,0.645l-1.945,1.819l-1.555,0.42l-2.071-0.615l-1.61,0.377l-1.595,1.064l-1.232,1.736
		l-0.308,1.848l0.209,1.356l2.059,5.055l0.335,1.595l-0.656,2.001l-1.975,1.947l0.42,0.728l1.917,1.386l0.406,3.388l0.896,2.366
		l-0.239,2.421l-2.112,4.829l1.735,6.887l1.905,4.662l0.895,4.521l0.77,2.491l1.079,1.47l2.28,1.399l0.463,0.771l0.588,3.54
		l0.924,2.31l0.671,0.952l1.4,0.462l0.896-0.35l1.021-0.965l1.275-0.112l0.964,0.938l1.555,2.981l-0.111,3.149l-0.631,4.187
		l0.562,5.193l-0.169,2.084l-0.531,1.527l0.083,1.356l0.841,1.652l1.567,2.113l0.658,1.946l-0.211,0.839l-2.968,4.605l-0.406,1.344
		l0.323,1.232l0.813,1.19l1.244,0.671l3.697,3.724l1.343,0.505l1.021-0.268l1.386,0.337l1.582,1.555l1.175,2.463l0.421,2.212
		l-0.183,0.826l-4.604,3.75l-3.009,4.256l-2.044,1.162l-0.617,0.7l-1.021,1.624l-0.378,2.701l-1.849,1.638l-0.644,1.693l0.085,1.4
		l1.47,3.177l0.378,1.513l1.973,4.129l0.281,2.101l-0.07,5.15l0.462,2.17l0.896,0.602l1.287,0.141l1.639,1.218l0.477,1.008
		l0.882,1.021l2.296,0.49l2.826,2.352l0.771-0.362l0.251-1.037l-0.505-3.262l0.211-0.797l0.98-0.336l1.148,0.476l2.701,2.52
		l2.365,1.19l1.021,1.806l-0.085,0.699l2.969,5.152l3.317,2.532l0.841,1.064l0.979,2.045l2.17,2.813l0.391,1.12l-0.294,1.301
		l0.393,1.792l-0.125,1.4l-0.631,1.273l-4.368,4.242l-0.083,0.657l0.532,2.926l0.882,1.638l0.741,0.825l1.219,2.688l-1.162,1.135
		l-2.03,0.615l-2.128-0.014l-4.24,0.617l-2.017,0.769l-1.525,1.232l-4.074,2.043l-8.02-0.027l-1.905,0.279l-1.833,1.092l-1.12,1.33
		l-0.224,0.965l0.252,2.157l-0.182,1.945l-0.532,1.428l-1.597,0.715h-1.119l-1.931-6.985l-1.918-1.778l-1.316-1.68l-1.161-2.967
		l-1.247-1.807l-1.007-2.099l-1.345-0.911l-1.455-2.295l-0.658-0.435l-1.456-0.182l-5.487-2.156l-2.855-1.539l-1.273-0.224
		l-0.574-0.436l-2.086-0.854l-0.168-0.783l-0.98-1.091l-1.245-2.493l-0.308-0.21l-0.084,0.518l-0.476,0.491l-0.071,0.951
		l-0.405,0.686l-0.938,0.463l-0.056,0.42l-1.051,0.377l-0.294-0.195l-0.322,0.069l-0.209,0.393l-0.938,0.308l-0.238-0.251
		l-0.672,0.069l-0.238,0.267l-0.658-0.029l-0.531,1.12l-0.827,0.197l-0.433-0.1l-0.56-0.797l-1.037,0.196l-0.476-0.393l-0.364-0.042
		l-2.394,0.476l-1.133,0.518l-2.186-0.168l-1.16,0.756l-1.415-2.281l-0.042-1.608l-3.009-1.499l-1.47-0.042l-1.413,1.105
		l-1.597-0.014l-1.945,0.77l-1.303-0.531l-1.974-1.33l-0.854-0.097l-2.436,1.958l-1.106,0.658l-1.413,0.239l-1.288-0.379
		l-2.001,0.042l-1.105-0.504l-0.98-0.813l-0.574-1.343l0.419-0.771l-0.111-0.448l-1.876-1.708l-1.427-0.154l-1.583,0.154
		l-0.923,0.533l-0.351,0.419l-0.435,1.861l-0.293,0.379l-1.987-0.154l-0.854,0.882l-0.758,0.225l-4.604-0.617l-0.967,0.071
		l-1.316-0.938l-1.582-0.127l-1.314-0.741l-0.854-0.085l-1.231,2.115l-0.238,1.146l1.638,1.442l0.308,1.133l0.825,0.574l0.281,0.436
		l-0.308,0.307l-1.513,0.35l-1.188,2.533l-1.205,1.162l-0.951,0.253l-1.652,2.239l-2.436,0.406l-1.428-1.106l-3.023-0.026
		l-1.807,1.077l-0.671,0.782l-0.141,0.463l-1.329,0.35l-1.455-0.321l-0.448,0.224l-0.014,0.462l-0.785,0.728l-1.202,0.308
		l-4.088-0.531l-1.316-0.672l-0.294,0.252l-0.043,0.406l0.126,1.455l-0.476,0.463l-0.447,0.083l-1.471,1.162l-0.909,0.363
		l-0.504-1.077l-0.783-0.099l-1.653,2.086l-1.763,1.373l-1.063-0.365l-0.826-1.05l-0.547-0.238l-3.275-0.446l-1.665,2.841
		l-0.084,1.105l-0.42,0.519l-2.842-1.764l-0.798-0.294l-0.421,0.069l-0.951,0.519l-0.799,0.027l-1.119,0.658l-1.903,0.603
		l-0.56,1.329l-0.588,0.532l-3.289,0.854l-1.835,1.707l-0.405,1.638l0.448,0.687l-0.462,0.825l-1.12,0.714l-1.273,0.476l-1.47-1.146
		l-0.603,0.756l-1.134,0.573l-0.841-1.329l-1.344-0.294l-0.839-0.868l-0.406,0.433l-0.545,0.212l-1.598,0.194l-0.265,0.785
		l0.377,0.882l-0.139,0.572l-0.631,0.379l-1.512-0.896l-1.33-0.392l-1.146-1.892l-0.168-0.825l-0.716-0.531l-1.622-0.043
		l-0.505,0.239l-0.588-0.504l-1.287-0.631l-1.387-0.209l-1.134,0.615l-1.987-0.238l-0.531,0.869l-0.31,1.021l-0.349,0.392
		l-0.784-0.042l-1.891-1.314l-1.301-1.43l0.069-2.225l-0.308-0.14l-0.994,0.126l-0.322-0.182l-0.182-0.436l1.932-2.225l0.309-0.169
		l1.734,0.281l0.854-0.603l0.294-1.554l-0.727-1.092l1.231-2.854h1.105l0.951,1.077l3.066-0.294l1.847,0.63l1.247-1.567l1.553,0.336
		l1.121-0.673l1.566-0.125l0.644-0.308l0.254-0.281l0.152-1.161l0.49-0.673l1.526-0.615l-0.112-0.462l1.456-0.323l-0.713-1.314
		l0.236-2.38l-0.293-2.07l0.195-0.351l-0.014-1.009l-0.112-1.021l-0.392-0.77v-0.716l0.699-0.714l0.099-0.377l-0.35-1.526
		l0.756-5.864l-6.496-0.099l-0.909-0.589l-5.794-1.749l-1.724,0.743l-1.427,1.595l-1.637,0.896l-0.981-0.28l-1.035-0.616
		l-2.437-0.602l-2.196-0.126l-2.954-0.532l-0.183-0.393l-0.841,0.058l-1.314-0.968l-0.462-0.014l-2.632-2.183l-0.771-0.142
		l-1.034-0.853l-1.303,0.014l-1.833-0.547l-0.405,0.422l-1.275,0.125l-0.237-0.35l-1.387,0.153l-4.324-0.111l-5.613,1.245
		l-1.12,0.826l-1.105,1.301l-0.532,0.112l-3.023,2.101l-0.644,0.168l-0.337,0.014L901,661.993l-0.056-0.868l0.419-0.895
		l-0.098-0.561l-0.49-0.699l-0.505-0.042l-0.475,0.447l-0.658-0.026l-0.658-0.393l-0.196-0.364l-1.595-0.393l-1.485,0.014
		l-1.007,0.337l-0.7-0.127l-1.148,0.21l-1.16,0.49l-1.064,0.771l-0.462,0.056l-0.896,0.825l-0.014,0.645l-0.266,0.379l-0.671,0.518
		l-2.199,0.741l-1.273,1.161l-0.266,0.617l0.112,0.28l-1.304,1.315l-0.224,0.504l-3.415,2.183l-1.343,0.323l-1.513-0.826
		l-3.821-0.098l-0.504,0.042l-2.142,0.979l-1.75,4.327l-0.868,1.231l-0.699,0.447l-1.05,0.183l-1.723,1.203l-0.588,1.693
		l0.225,0.714l-0.252,0.841l0.799,0.602l-1.471,2.407l-0.532,0.478l-1.82,0.797l-0.964,0.672l-0.589-0.069l-0.435,0.419
		l-0.476,0.127l-0.294,0.393l-0.253-0.1l-0.35,0.267l-0.559-0.015l-0.337,0.35l-0.797-0.027l-1.373,0.728l-1.007-0.476l-0.896,0.099
		l-2.715,0.924l-0.954-0.056l-0.782,0.377l-2.03,0.435l-0.42,0.699l-0.812,0.406l-2.155,0.14l-0.281,0.406l-1.693,0.756l-0.265,0.63
		l-0.323,0.209l-0.182,0.841l-0.756,0.281l-0.561,0.403l-0.153,0.351l-0.323,0.085l-0.166,0.294l0.11,0.363l-0.278,0.293
		l-0.351-0.026l-0.364,0.77l-0.602,0.014l-0.756,1.063l-1.806,1.273l-0.126,0.337l-0.657,0.196l-1.079,0.854l-1.133,0.099
		l-0.141,0.293l-0.783,0.477l-0.057,0.28h-0.462l-1.063,0.434l-0.31-0.406l-0.335,0.126l-0.531-0.168l-1.316-0.798l-0.925,0.477
		l-0.867-0.169l-1.134,0.294l-2.786,2.772l-0.208,0.658l-0.716,0.644l-0.111,0.617l-0.812,0.446l-0.336,0.785l-0.742,0.601
		l-0.28,1.093l-0.351,0.182l-0.279,1.442l0.196,0.391l-0.392,0.098l-1.176,3.15l-0.112,0.854l-0.631,1.567l-0.293,0.239
		l-0.266,1.091l-0.729,0.812l-0.714,1.513l0.084,0.237l-0.35,0.938l-1.051,1.092l-0.111,0.518l-0.615,0.42l-0.588,1.47l-0.49,0.49
		l-0.057,0.615l-0.657,1.008l-1.176,0.799l-0.657,0.728l-0.126,0.854l0.42,0.154l-0.212,0.994l-1.776,1.918l-1.135,0.867
		l-1.231,2.953l-0.182,1.358l-0.713,1.035l-0.365,1.051l-0.463,0.014l-0.992-0.686l-1.345,0.337l-1.12-1.541l-1.764-0.308
		l-2.197,0.924l-1.302,1.146l-0.714,0.268l-1.022,0.994l-1.007,0.293l-0.448-0.377l-0.77-0.071l-0.393,0.7l-0.378,0.252
		l-1.218,0.057l-1.371,0.546l-0.574,0.069l-0.435-0.434l-0.909,0.014l-0.91,1.079l-0.476-0.112l-0.364,0.32l-1.527-0.405
		l-1.861,0.169l-0.195,0.21l-2.001,0.014l-1.007,0.84l-1.149-0.321l-1.204-1.162l-1.147-0.07l-1.933-0.967l-2.001,0.281
		l-0.336-0.238l-1.596,0.393l-0.77,1.47l-0.363-0.014l-0.575,0.404l-1.692,0.127l-0.911,0.573l-1.357,0.435l-0.7-0.225l-0.994,0.154
		l-0.435-0.42l-2.07,0.279l-0.813,1.121l-0.643,0.489l-1.149,0.056l-0.951,0.743l-1.513,0.04l-1.58,0.883l-1.317,1.147l-0.951,0.505
		l-0.532,0.741l-0.154,0.995l-0.714,0.46l-0.475-0.097l-2.129,0.363l-0.825,0.406l-0.463,0.363l-1.189,1.861l-0.741,0.519
		l-2.717,0.393l-0.391,0.28l-0.63,1.063l-0.532,1.638l-0.547,0.671l-3.751,2.129l-2.281,2.17l-0.42,0.643l-1.456-0.111l-0.294,0.252
		l-0.014,0.461l-0.267,0.309l-0.545,0.015l-1.471,0.979l-0.517,1.064l-0.295,1.568l-1.078,1.874l-1.245-0.125l-1.261,0.783
		l-0.854,0.225l-0.56-0.406l-1.19,0.293l-0.489-0.237l-0.532,0.211l-1.693,1.496l-0.49-0.056l-0.237,0.239l-0.323,1.44l-1.372,0.826
		l-1.063,0.127l-1.721,0.825l-0.196,0.447l-0.533,0.422l-0.573,1.832l-1.583,0.854l-1.481,2.114l-0.645-0.127l-0.435,0.337
		l-3.206,4.003l-0.951,0.322l-2.632,1.525l-1.861,0.658l-0.84,0.49l-0.699,0.741l-0.911,0.224l-1.343,2.604l-3.276,2.883
		l-0.798,1.61l-1.288,0.518l-0.895,0.896l-0.436,0.014l-0.615,0.896l-0.644-0.196l-1.415,0.224l-1.413-0.449l-3.443,1.162
		l-1.021,0.142l-1.737-0.126l-2.086-0.477l-1.498,0.56l-2.001,0.14l-1.106-0.278l-1.428,0.644L664.195,800l-1.471-0.602
		l-1.862-0.322l-0.572,0.099l-0.854,0.812l-0.393-0.014l-0.741-0.49l-0.84-1.077l-1.218-1.051l-1.246-0.518l-1.568-0.042
		l-0.419-0.42l-0.518-0.631l-0.183-0.783l-1.189-2.422l-0.896-0.545l-0.966-1.106l-0.699-0.238l-1.092-1.316l-0.826-0.573
		l-1.358-1.89l-0.615-1.428l-1.022-1.526l-0.168-1.385l-0.434-0.994l-0.056-1.68l-0.813-1.357l-0.561-2.927l-1.147-2.771
		l-0.531-2.324l0.126-1.428l-0.322-0.56l-0.77-0.337l-1.219-1.539l0.029-0.645l0.42-1.189l-0.476-0.883l-0.757-0.502l-0.308-0.729
		l-0.056-1.441l-0.756-1.609l-0.645-1.05l-1.357-1.344l-0.994-0.616l-0.238-0.741l0.056-0.841l-0.419-1.176l-0.211-0.322
		l-0.924-0.42l-0.965-1.399l-0.462-1.387l0.026-0.545l-0.629-1.119l-0.098-0.757l0.994-3.528l-0.323-0.433l-0.125-1.456l0.154-0.644
		l-0.392-0.756l-0.141-0.966l-0.672-0.812l-0.196-0.827l0.07-0.559l0.349-0.406l-0.671-1.274l-0.938-0.854l-0.489-0.867
		l-0.757-0.504l-0.503-1.441l-1.162-1.219l-0.196-1.344l0.099-1.007l-0.21-0.196l0.056-0.309l0.406-0.225l0.056-1.16l0.435-1.442
		l1.008-0.966l0.336-1.078l-0.238-0.713l0.266-0.953l-0.545-1.357l0.447-1.204l-0.266-0.363l-0.07-0.728l0.532-0.574l-0.112-1.819
		l0.363-0.155l0.127-0.783l0.447-0.504l-0.153-1.119l-0.784-2.073l0.77-2.155l0.91-0.014l0.673-0.363l0.25-1.023l-0.224-0.964
		l-0.797-0.785l-0.015-0.671l-0.266-0.379l0.183-1.638l0.644-0.294l-0.226-0.63l0.813-0.069l0.448-0.981l1.162-0.308l0.924-0.924
		l-0.308-0.069l-0.084-0.28l0.237-0.588l0.435-0.28l0.237-1.202l-0.378-0.533l0.378-1.288l-0.027-0.728l0.797-0.868l-0.377-1.399
		l0.266-1.063l0.658-0.953l0.015-0.714l-0.42-0.77l0.209-1.316l0.155-0.35l1.343-0.951l0.462-1.148l-0.154-0.615l-1.176-0.672
		l-0.475-1.064l-0.841-0.713l-0.21-0.952l0.728-2.968l-0.21-1.135l0.715-1.707l-0.365-0.573l-0.21-1.106l-0.644-0.687l-1.093-0.152
		l-0.656-0.827l0.195-0.476l-0.056-0.798l0.293-0.491l-0.181-0.812l0.35-0.826l0.714-0.152l1.203,0.278l0.757-0.377l0.153-0.462
		l-0.489-0.799l0.153-0.671l-0.14-0.91l0.195-0.924l0.658-1.035l-0.111-1.12l0.447-0.883l0.028-1.371l0.952-0.546l1.344-1.526
		l0.294-0.462l0.042-1.077l0.56-0.951l-0.07-0.505l-0.644-0.7l-0.518-1.386l-1.483-2.589l-0.267-1.064l-0.169-2.477l-0.727-1.037
		l-0.435-0.112l-0.167-0.462l0.405-1.4l0.351-0.403l0.111-0.925l-0.155-0.406l0.296-0.392v-2.17l0.629-3.641l-0.195-2.322
		l1.218-2.449l0.489-0.448l0.672-1.568l0.673-0.895l0.279-1.093l-0.351-1.037l0.141-0.573l-0.111-1.47l0.251-0.965l-0.363-1.485
		l0.251-1.148l0.756-0.699l0.968-1.819l0.797-2.603l0.183-1.316l0.672-0.688l-0.393-1.104l0.448-1.26l-0.224-0.63l0.027-1.568
		l-2.562-4.423l0.994-1.12l0.756-0.225l0.896-1.624l5.556-2.98l0.366-0.321l0.446-1.079l0.057-0.671l-0.448-1.792l-0.658-1.218
		l0.099-1.611l-0.49-2.309l0.267-1.134l0.392-0.378l1.036-2.674l0.196-1.231l-0.967-1.274l-0.295-0.993l0.129-0.434l-0.408-0.35
		l-0.027-1.525l0.77-1.989l-0.153-1.064l-0.141-0.601l-1.889-2.311l-1.135-0.209l-2.212-0.882l-1.371-1.736l-1.904-0.63
		l-0.265-0.462l-0.729-0.126l-1.427,0.182l-0.686,0.155l-1.484,0.797l-0.673,1.176l-0.686,0.615l-1.203,0.155l-1.19,0.434
		l-0.042,0.405l-1.162,0.967l-0.728,0.041l-1.834,1.204l-1.497-0.099l-0.756,0.323l-0.477,0.35l-0.056,0.965l-1.106,1.148
		l-0.279-0.377l-1.651-0.016L619.666,579l-0.628-0.07l-0.477,0.351l-0.49,0.014l-0.602-0.826l-1.008,0.237l-2.101,1.681
		l-1.427,0.784l-1.219,0.266l-2.071,1.33l-0.532-1.513l0.029-1.104l-1.568-2.059l-0.099-1.33l-0.84-0.518l-1.525-1.987l-0.252-0.126
		l-0.965,0.112l-0.351,1.259l-0.812,1.119l-2.661-0.308l-0.951-0.63l-0.588-1.33l0.196-0.223l0.994-0.084l0.028-0.615l0.854-0.323
		l0.056-0.561l-0.561-1.483l1.709-2.813l-0.154-1.918l-0.883-1.302l0.308-1.399l0.336-0.561l0.868,0.125l0.196-0.224l-0.015-0.588
		l-0.517-0.882v-0.42l0.546-0.615l1.525-0.827l0.714-1.021l-0.238-0.925l0.28-1.343l-1.456-0.337l-0.237-1.581l0.756-0.112
		l0.504-0.433l0.965,0.488l0.547-0.182l0.588-0.742l0.462-1.176l0.154-1.26l0.462-0.518l0.812-0.462l0.083-0.392l0.085-0.7
		l-0.238-0.854l0.336-2.631l-0.686-1.219l0.097-0.225l1.093-0.334l0.14-1.022l0.364-0.783l1.036-0.379l0.392-3.052l0.938-2.016
		l0.184-0.84l0.81-0.742l0.785,0.337l1.106-0.379l1.511-1.932l-1.231-2.1l-0.489-4.493l0.629-0.938l1.33-1.007l0.168-0.35
		l-0.015-0.337l-0.629-1.05l-0.797-0.449l-0.406-0.699l0.545-1.315l0.546-4.367l-1.218-1.961l-1.358-0.825l-0.602,0.099
		l-1.525-0.267l-0.952,0.323l-0.378-1.023l0.336-0.839l-1.063-0.952l1.036-1.329l-0.729-2.185l-0.756-0.196l-0.909,0.436
		l-0.561-0.127l-0.896-0.406l-1.008-1.035l-2.939-0.406l-0.868,0.546l-0.924-0.211l-1.037,0.449l-0.839,0.098l-0.98-0.518
		l-0.336-1.007l-1.54-0.506l-1.302-0.056l-0.909-0.966l-0.841-0.476l-1.567-2.085l-0.49-0.379l-1.33-0.168l-0.797-0.531
		l-0.126-0.995l-0.419-0.797l-0.687-2.646l-1.288-2.701l-1.176-0.532l-1.12-0.112l0.014-1.512l-0.812-0.91l-0.588,0.028
		l-0.546,0.867l-0.7,0.126l-0.363-0.21l-0.574-1.036l-0.657-0.503l-1.667,0.169l-0.573-0.8l0.601-1.54l-0.77-0.74l-0.7-0.183
		l-1.064,0.098l-0.868,0.448l-1.357,1.357l-1.162-0.225l-0.322,0.435l0.546,1.765l-0.868,0.755l-0.671,0.099l-0.322-0.183
		l-0.504-1.161l-0.938-1.05v-1.849l-1.021-1.413l-0.224-2.548l-1.204-1.848l0.335-1.639l-1.456-1.273l-0.938-0.055l-0.84-0.449
		l-1.302-1.399l0.28-0.687l-0.545-0.839l-1.176-0.561l-1.161,1.61l-0.854,0.77l-1.316,0.546l-0.532-0.294l-1.26-0.209l-1.064,0.222
		l-0.28,1.807l2.379,1.288l0.322,0.686l-0.756,1.694l0.168,1.009l-0.574,0.588l-1.021-0.099l-0.574-0.839l-0.994,0.194l-0.336,0.14
		v1.274l-1.176,0.657l-0.49-0.026l-0.168-0.868l-2.127-0.645l0.14-0.727l-1.064-0.813l-0.069-0.35l0.378-1.121l-0.14-0.644
		l-0.91-1.162l-1.96-0.783l-1.399,0.154l-0.966,1.426l-0.938,0.225l-0.167,0.743l0.56,0.518l0.042,0.279l-0.561,0.854l-0.35,1.036
		l-1.022,0.447l-0.476-0.069l-0.294-0.363l0.196-0.883l-0.154-0.322l-2.365-1.146l-0.294,0.041L536.855,481l-0.658,0.377
		l-0.952,0.154l-0.77-0.111l-0.938-0.799l-1.399-0.14l-0.21-0.307l-0.042-0.687l-0.209-0.099l-0.573,0.224l-1.373-0.266
		l-0.462,0.672l-0.027,1.022l-0.672,0.938l-0.363,1.428l-0.575,1.231l-1.414,0.742l-1.54,1.134l-1.414,0.35l-2.576-0.084
		l-0.839-0.377l-0.406-0.477l-0.35,0.057l-1.33,0.881l-1.778,1.555l-0.098,0.35l0.294,1.61l-0.393,1.092l0.098,0.293l1.12,0.28
		l0.406-0.433l0.448-0.113l0.687,0.672l0.196,0.533l-0.028,1.79l-0.518,0.897l-0.672,0.614l-1.694,0.49l-1.162,0.589l-0.322,0.223
		l0.098,0.729l-1.357,0.687l-1.624,0.125l-0.868-0.686l-1.26-0.139l-1.442,0.377l-1.12,0.756l0.154,1.848l-0.154,0.462l0.63,1.987
		l-0.602,1.288l-0.616,0.714l0.069,0.519l-0.294,0.854l0.644,1.539l-0.433,1.176l-0.155,1.26l-0.518,0.503l-3.444,1.204
		l-1.302,0.841l-0.42,0.351l-0.28,0.754l-0.854,0.616l-0.238,1.302l-1.596,1.582l-0.378,1.82l-0.658,1.44l0.028,2.76l-1.778,2.211
		l-0.504,0.183l-0.714,0.699l0.196,0.925l-0.672,1.343l-0.49,0.378l-0.126,1.316l-0.504,0.405l-0.434,1.414l0.07,1.386l-0.392,1.106
		l0.014,0.588l0.182,2.084l0.462,0.561l0.168,0.784l-0.028,0.462l-0.266,0.364l-0.77,0.252l-0.854-0.379l-1.847,1.33l-0.267,0.854
		l-0.42,0.069l-1.175,0.967l-2.072,0.182l-1.021,0.699l-0.77-0.518l-1.134,0.42l-1.736,2.017l-0.42,2.268l-0.293,0.182l-1.19-0.154
		l-1.204,1.568l-2.282,0.979l-0.252,0.868l-0.28,0.265l-1.47-0.069l-0.476,0.238l-0.14,0.699l0.588,0.617l0.084,0.531l-0.168,1.035
		l-0.364,0.406l-0.182,0.924l-0.391,0.476l-1.624,0.784l-0.322,0.883l-1.526,0.951l-0.224,1.358l-0.77,1.315l-0.239,0.154h-1.763
		l-1.218,0.687l-0.686,0.882l-0.784,0.572l-0.784-0.07l0,0l-1.582-2.309l-0.378-3.29l0.125-4.661l1.008-3.009l1.288-2.717
		l8.79-15.635l0.882-6.244l0.476-12.037l0.91-5.18l-0.168-5.222l-1.063-2.058l-1.918-0.925l-1.652-0.335l0.294-1.147l-0.279-0.294
		l1.175-4.018l1.47-4.018l4.297-6.271l1.413-1.414l12.473-16.153l2.954-3.135l0,0l0.239,0.321l0.966-4.282l0.881-2.759l0.979-2.002
		l0.896-1.231l1.386-1.245l5.949-3.794l2.044-1.834l0.406-4.325l-2.982-7.25l23.125-14.713l2.617-1.134l1.666,1.751l-0.406,4.337
		l3.625,2.661l3.878,3.262l13.956-7.769l2.296-2.324l3.262-0.658l2.575-0.07l2.03,0.448l1.609,0.91l1.301,1.329l1.135,1.693
		l3.667,6.748l1.736,2.617l-1.568,6.104l-0.421,4.94l0.616,8.12l19.485,1.916l5.6,3.934l1.007,5.626l1.358,3.095l5.39,3.108
		l1.918,3.933l-0.056,2.813l0.278-0.027l5.614-8.246l3.667,0.673l7.965,5.011l0.336-3.878l2.226-1.315l1.414-3.01l2.729,0.393
		l1.078,1.443l3.821-0.674l0.63-4.702l1.162-3.304l1.638-0.196l1.945-1.861l2.184-0.449l1.428-3.274l1.96-2.407l1.945-1.303
		l1.429-2.715l6.046-1.359l1.065,2.297l1.371,0.07l4.172-2.295l2.239-2.13l4.381,1.624l1.345,1.736l1.959-1.287l0.868-1.639
		l2.521-2.394l3.331-0.672l1.413-1.063l2.869-5.725l5.04-2.842l1.694-2.437l3.331-0.14l4.13,1.596l2.252-2.143l4.396,2.437
		l3.121-3.5l3.094-2.394l1.456-3.583l4.788-3.149l2.52-1.303l0.614-3.345l4.719,1.035l3.01,3.472l5.306,0.196l-6.468-13.971
		l-2.128-6.802l-2.309-14.054l3.736-8.819l-0.504-5.599l0.631-7.237l6.173-2.897l6.747-1.819l0.938-10.359l0.854-0.545l0.197-0.504
		l0,0l0.713,0.588l1.75,0.461l1.693-0.419l0.631-1.54l0.238-5.025l1.245-2.925l2.086-3.583l3.093-9.519l2.029-2.87l2.913-2.562
		l1.007-0.462l4.031,0.7l1.414-0.084l4.94-2.338l2.255-0.825l4.494-0.938l1.118-0.812l0.603-1.022l0.56-1.736l0.574-0.756
		l1.021-0.728l2.113,0.224l1.792-0.406l1.737,0.644l1.092,0.784l0.994,2.45l1.608,0.994l2.394,0.07l2.38-1.26l1.372-1.932
		l1.525-2.911l1.387-0.798l4.521,1.19l3.149-0.671l1.764,0.126l11.465,6.005l0.252,1.526l0.756,0.587l1.092-0.461l4.157-2.449
		l1.078-0.281l1.89,0.84l4.592,0.322l1.973-0.49l3.667-1.694l2.34-0.447l1.272,0.616l1.834,1.638l1.734,0.476l3.277-1.175
		l2.17-0.476l2.938,0.839l1.932,0.308l1.89-0.308l2.128-1.26l5.46-2.085l2.436,0.616l4.451,2.184l4.745,0.616l1.974-0.393
		l1.512-0.069l1.667,0.224l0.755-0.659l1.232-4.605l1.693-3.863l0.908-0.28l3.038,3.317l2.618,0.462l4.074,0.126l3.807-1.05
		l2.198-1.064l1.33-2.295l1.918-5.445l0.812-1.358l0.951-0.811l1.835,0.406l2.058,0.951l1.442-0.42l1.776-1.105l3.122-2.521
		l4.297-0.56l2.479,0.196L926.392,295.96z" title="Gorno-Badakhshan"></path>
	<path id="TJ-KT" class="land" d="M174.083,570.307l-0.238,1.357l0.294,0.827l-0.518,1.203l0.336,1.651l-0.518,1.178l0.056,1.931
		l-1.624,1.315l7.993,5.753l3.906,1.525l5.277,0.854l6.621,0.098l7.993-0.811l0.952,4.338l1.735,2.926l3.318,0.085l4.62-2.171
		l0.154-4.408l0.994-3.934l1.302-3.402l-0.07-2.491l0.504-2.253l1.399,0.756l1.652-0.645l0.531-1.414l-0.322-15.145l-0.854-1.093
		l-1.652,0.938l-1.666,0.363l-2.799-0.699l-3.597,1.05l-1.694-0.756l-0.028-1.707l1.344-2.338l1.05-3.751l6.202-16.868l4.857-8.764
		l0.028-1.735l-2.519-5.669l1.665-0.924l4.718-7.32l5.305-0.197l2.45-1.567l4.493-4.072l1.945-1.485l3.066-0.938l0.826-3.737
		l0.84-0.014l0.545-0.294l1.974,3.388l6.145,1.287l5.557-3.807l4.171-1.792l3.065-2.03l2.771-2.324l3.346-0.602l3.08,2.226
		l1.666-0.868l2.491-2.015l0.28-0.854l1.386,0.267l1.96,1.385l3.625-0.602l3.905,1.945l1.946,0.267l0.545-3.121l1.386-0.015
		l1.68,1.68l1.106-1.427l3.01-9.659l1.932-2.855l8.371,1.932l1.12-0.295l7.251-0.601l4.199,1.386l4.199,3.667l9.211-2.31
		l2.785-3.136l4.213,1.693l2.52-0.588l2.52-0.293l1.4-0.561l4.185-2.856l1.694,1.135l0.308,9.631l0.573,3.388l1.106-1.987
		l3.359-3.401l1.596-3.331l2.436-4.019l1.288-1.736l1.679-1.134l3.738-3.554l3.863-1.862l1.974-4.549l3.961-6.566l1.974,0.279
		l3.976-4.297l3.261,1.946l3.794,1.539l2.267-0.35l2.422-2.884l4.731-10.582l6.565-8.049l4.312-6.917l2.001-0.571l3.402,2.322
		l9.14-3.135l2.506,6.649l4.255,1.189l1.959,3.191l1.415,1.442l3.681,0.909l1.4,2.324l1.959,2.323l1.666,2.898l-0.938,8.048
		l-0.35,5.179l2.842-0.252l2.562-1.693l1.736-2.842l2.282-0.252l1.736-2.855l2.282-0.826l9.42-4.717l5.375,0.966l4.115,3.317
		l5.823,4.115l2.94,2.938l3.569,4.621l0,0l-2.954,3.135l-12.473,16.153l-1.413,1.414l-4.297,6.271l-1.47,4.018l-1.175,4.018
		l0.279,0.294l-0.294,1.147l1.652,0.335l1.918,0.925l1.063,2.058l0.168,5.222l-0.91,5.18l-0.476,12.037l-0.882,6.244l-8.79,15.635
		l-1.288,2.717l-1.008,3.009l-0.125,4.661l0.378,3.29l1.582,2.309l0,0l-0.462,1.555l0.014,1.05l-0.28,0.519l-0.337,0.084
		l-0.994-0.729l-0.867,0.057l-0.225-0.126l-0.182-0.589l-0.546-0.42l-0.406,0.126l-0.182,1.399l0.882,1.624l0.168,1.862l1.204,1.134
		l-0.056,0.351l-0.938,0.853l-0.63,0.225l-0.517-0.111l-1.022-1.12l-1.596-0.028l-1.147,0.883l-1.567,0.545l-1.527,0.91l0.224,1.302
		l-0.056,0.489l-0.168,0.042l-1.721-1.455l-0.42-1.246l-1.063-1.848l-0.645-0.336l-0.49,0.365l-0.49,1.945l-1.036,0.671
		l-0.056,0.322l0.966,2.73l-0.028,0.924l0.308,1.328l-0.392,0.924l0.812,1.778l-0.07,0.336l-1.357,1.274l0.812,1.358l0.07,1.231
		l0.504,0.545l0.602,2.464l0.335,0.476l0.658,0.266l1.568,0.225l1.694,1.162l0.573,0.741l0.994,0.127l2.94-0.266l0.98,0.194
		l1.063,0.924l0.868,1.499l0.77,0.489l0.784-0.084l0.225,0.252l0.028,0.813l-0.896,2.38l0.336,0.741l-0.293,0.784l0.503,0.813
		l0.238,0.91l1.105,0.615l0.378,0.63l0.812,0.546l0.084,0.477l-1.092,2.058l-0.223,1.176l0.728,0.993l1.05,2.072l-0.393,1.525
		l-1.329,1.008l-0.015,0.393l0.448,1.567l0.295,0.406l0.531-0.015l0.644,0.266l0.225,0.295l0.308,0.825l-0.014,0.783l-2.688,1.204
		l-0.195,0.337l0.069,0.419l0.322,0.196l0.098,0.378l-1.008,0.406l-0.63,3.905l-0.545,0.588l-1.037,0.351l-0.308,0.587l-0.126,1.582
		l0.42,0.336l-0.028,1.471l0.504,1.386l-0.125,1.287l-0.449,0.799l-0.994-0.253l-0.182,0.322l-0.365,0.042l-0.322-0.35l-0.182-0.784
		l-0.476,0.056l-0.35,0.28l-1.428,0.112l-1.428,0.601l-1.274,0.169l-0.084,1.848l0.967,1.218l0.139,0.994l-0.616,0.238l-1.75-0.336
		l-0.322,0.237l0.056,0.546l0.98,0.714l0.462,0.979l-0.266,0.715l-1.316-0.28l-0.854,0.839l-0.588,0.154l-1.512-1.524l-0.294-0.056
		l-0.322,0.237l-0.084,0.462l0.574,0.994l0.14,1.511l-0.098,0.351l-1.078,1.105l-0.042,2.296l-0.309,0.812l-0.741,0.183
		l-0.434-0.155l-0.728-1.314l-0.322-0.183l-0.308,0.392l-0.294,0.043l-0.798,1.693l-0.574,0.336l-1.806-0.195l-0.476-0.323
		l-1.4,0.546l-0.406-0.027l-1.722-1.373l-1.175-0.391l-1.064,0.153l-0.434-0.14l-1.022-1.316l-1.33-0.209l-1.134-1.022l-0.35-0.042
		l-0.938,0.979l-0.28-0.014l-0.448-0.966l-0.7-0.489l-0.98-0.015l-1.022,0.631l-0.755-0.099l-0.686-0.924l-1.918-0.896l-0.826-2.338
		l-0.251-0.168l-4.214,0.615l-1.539-0.278l-0.686-0.673l0.056-0.855l-0.238-1.216l0.126-1.498l-0.532-0.757l-0.672-2.183
		l-0.308-0.28l-1.035,0.21l-2.184-0.868l-1.736-0.363l-6.2,0.321l-1.372,0.462l-1.19,0.686l-1.274,1.105l-0.546,0.785l-2.113,4.059
		l-0.896,0.421l-1.063-0.056l-0.77-0.323l-1.792-1.287l-1.68-0.868l-2.939-0.183l-1.415-0.405l-1.666,0.322l-2.421,1.665
		l-1.232,0.35l-1.428,0.029l-1.834-0.379l-1.693,0.336l-1.428-0.294l-1.792,0.281l-0.966-0.225l-2.24,0.014l-1.4,0.505l-1.204,0.111
		l-0.531-0.252l-2.52-0.141l-0.589-0.294l-1.917-0.293l-1.19-0.574l-1.708-0.378l-0.923-1.064l-0.462-0.265l-0.603,0.069
		l-0.63,0.518l-0.938,1.357l-0.378,1.442l-1.315,2.436l0.112,1.554l-0.154,0.462l-1.302,0.924l-0.798,1.189l-0.588,2.59
		l-1.834-0.028l-0.812,0.197l-1.806,1.638l-0.503,0.853l-0.406-0.112l-0.364,0.281l0.309,1.246l-0.504,0.756l-0.155,0.979
		l-0.616,0.183l-1.091-0.448l-0.896,0.351l-0.938,2.771l-1.007,1.303l-0.714,1.708l-0.686,0.406l-2.1,0.504l-0.629,0.853
		l-0.364,1.261l-1.441,1.021l0.307,0.924v0.91l-1.133,2.912l0.35,0.951l1.022,0.839l0.098,0.406l-1.218,1.793l0.378,1.287
		l0.518,0.729l0.266,2.071l0.252,0.182l1.176-0.056l0.335,0.336l0.238,0.756l-0.084,0.462l-1.246,0.756l-0.476,3.893l0.435,1.356
		l1.007,0.896l1.204-0.589l0.575,0.07l0.028,0.911l-0.854,1.161l0.056,0.462l0.266,0.476l1.54,1.077l0.503,0.757l-0.014,0.49
		l-1.189,1.203l0.098,0.785l1.134,1.441l0.546,1.735l-0.042,0.615l-0.742,1.89l-0.098,0.616l0.196,0.687l0.658,0.391l0.979,0.085
		l2.786-0.672l0.616,0.309l0.224,0.434l-0.196,0.756l-1.344,2.002l-2.183,2.743l-0.449,1.638l-2.715,4.689l-0.406,0.462
		l-3.163-0.322l-1.372,0.603l-1.442,1.539l-1.833,1.387l-1.54,1.596l-0.924,2.463l-0.434,0.841l-0.476,0.335l-1.26,0.406
		l-3.248,0.321l-1.973,1.82l-1.637,0.141l-0.673,0.308l-0.363,1.021l-0.953,0.252l-0.923-0.294l-0.63-0.532l-0.728-1.246
		l-1.735-1.329l-0.63-1.68l-1.26-1.358l-4.13-2.449l-1.288-0.321l-5.096-3.485l-1.665-1.358l-1.078-0.462l-1.987-3.163l-1.624-4.27
		l-0.742-1.428l-1.694-1.485l-4.465-2.589l-1.708-1.441l-5.445-7.476l-2.366-1.624l-0.378-0.502l-0.433-1.317l-2.464-1.26
		l-1.582-0.405l-0.308,0.056l-1.022,1.12l-0.826-0.154l-0.771-0.419l-1.553-1.611l-0.882-0.405l-1.26,0.63l-0.406,0.951l0.784,3.809
		l0.629,1.371l0.924,0.813l1.596,0.545l0.741,1.162l0.042,0.49l-0.238,0.575l-2.1,1.638l-1.189,0.236l-1.05-0.546l-0.519-0.489
		l-0.742-1.75l-2.618-3.85l-3.71-2.295l-1.161-0.267l-1.848,1.008l-1.078,1.078l-0.895,2.659l0.854,2.954l0.896,1.022l1.498,0.685
		l0.658,1.415l-0.364,1.553l-1.316,0.924l-0.91,0.252l-0.826-0.153l-0.826-0.616l-0.588-0.797l-0.378-0.547l-0.336-1.245
		l-0.476-3.36l-0.238-0.631l-0.714-0.531l-1.232-0.195l-3.584,1.456l-2.589,2.142l-1.792-0.196l-5.179-1.862l-0.742,0.169
		l-0.84,0.755l-0.251,1.008l0.378,1.316l1.022,1.456l0.532,1.707l-0.196,0.504l-0.7,0.575l-0.672,0.097l-1.946-1.973l-0.378-0.056
		l-0.685,0.476l-0.56,0.825l0.434,1.231l-0.393,2.885l-0.966,1.86l-1.54,0.435l-0.923,0.014l-2.156,1.638l-6.593,1.387l-0.392,0.252
		l-1.946,2.842l-1.623,1.245l-2.043,0.294l-2.38-0.783l-1.876,0.266l-1.008,1.078l-0.84,1.357l-0.966,0.924l-0.854,0.069
		l-2.883-1.638l-0.435-0.056l-0.784,0.294l-0.7,0.771l-1.301,2.52l-0.112,1.554l-0.294,0.405l-1.96,1.176l-1.105,2.24l-1.344,1.33
		l-3.08-0.237l-2.253-1.218l-1.176-0.379l-3.387-0.027l-2.38,0.797l-1.064,1.135l-1.05,2.323l-0.728,3.177l0.168,1.274l-0.252,4.717
		l-0.728,2.493l-0.616,0.895l-0.742,0.658l-0.812,0.462l-1.442,0.237l-0.644-0.14l-1.722-0.756l-3.317-2.086l-0.658-0.28
		l-0.938,0.099l-1.022,0.477l-4.507,3.106l-0.882,0.953l-1.54,1.007l-1.134,1.525l-1.932,0.363l-1.582,1.247l-1.946,2.044
		l-1.469,2.352l-1.499,0.476l-1.008,0.854l-0.924,0.476l-2.968,0.644l-0.966,0.645l-1.862,0.616l-3.695-1.75l-1.134-2.562
		l-0.167-1.891l-1.457-2.477l-1.315-0.687l-3.08-0.797l-2.421-0.994l-2.925-2.254l-0.812-1.372l-0.49-6.396l-0.77-1.582l-1.19-1.106
		l-1.078-0.279l-3.458,0.209l-2.254-0.153l-2.281-0.518l-2.422-1.023l-1.834-1.077l-1.917-1.875l-0.126-0.574l0.126-1.932
		l0.91-3.387l0.098-5.811l0.602-2.548l-0.28-1.272l-0.644-1.415l2.114-1.357l2.197-7.518l0.812-6.522l0.938-14.082l-0.797-12.416
		l0.139-7.923l3.667-11.997l3.514-3.037l1.414-1.708l3.947-7.518l3.248-7.53l7.097-9.197l4.213-3.037l3.569-5.108l9.785-20.914
		l2.52-4.45l12.528-2.155l3.85-1.652l3.863-1.987l1.106-2.759l-0.294-2.436L174.083,570.307z" title="Khatlon"></path>
	<path id="TJ-RR" class="land" d="M642.61,274.277l0.167,3.107l-0.477,2.281l-1.469,2.31l-0.588,2.716l0.043,2.394l1.258,6.02
		l1.4,3.262l2.072,1.092l5.18,0.741l1.903,0.896l2.029,0.028l2.995-1.063l1.918-0.952l4.578-0.98l3.345,0.294l2.688-0.461
		l1.681,0.098l3.667,2.421l1.609,2.758l0.868,4.745l-0.503,4.032l-0.589,1.036l-3.289,1.568l-2.295,2.968l-0.631,4.913l1.176,2.464
		l2.743,4.493l1.499,1.498l1.637,0.798l2.311-0.21l2.547-1.259l1.442-0.281l4.745,0.378l2.939,1.064l1.624-0.35l1.091-0.546
		l1.821-3.877l1.875-3.066l1.919-2.449l1.889-0.588l3.43-2.45l2.421-0.56l3.36-2.898l1.05,0.336l1.092,0.868l1.146,1.483l0.995,5.46
		l1.749,3.206l1.106,3.597l1.597,2.575l1.427,1.232l1.597,0.014l1.525-0.252l4.479,0.28l1.218,0.518l1.891,3.569l1.246,1.218
		l2.631,1.848l0.867,1.638l0.295,2.24l-0.112,1.833l0.587,1.988l1.122,0.938l0,0l-0.197,0.504l-0.854,0.545l-0.938,10.359
		l-6.747,1.819l-6.173,2.897l-0.631,7.237l0.504,5.599l-3.736,8.819l2.309,14.054l2.128,6.802l6.468,13.971l-5.306-0.196
		l-3.01-3.472l-4.719-1.035l-0.614,3.345l-2.52,1.303l-4.788,3.149l-1.456,3.583l-3.094,2.394l-3.121,3.5l-4.396-2.437l-2.252,2.143
		l-4.13-1.596l-3.331,0.14l-1.694,2.437l-5.04,2.842l-2.869,5.725l-1.413,1.063l-3.331,0.672l-2.521,2.394l-0.868,1.639
		l-1.959,1.287l-1.345-1.736l-4.381-1.624l-2.239,2.13l-4.172,2.295l-1.371-0.07l-1.065-2.297l-6.046,1.359l-1.429,2.715
		l-1.945,1.303l-1.96,2.407l-1.428,3.274l-2.184,0.449l-1.945,1.861l-1.638,0.196l-1.162,3.304l-0.63,4.702l-3.821,0.674
		l-1.078-1.443l-2.729-0.393l-1.414,3.01l-2.226,1.315l-0.336,3.878l-7.965-5.011l-3.667-0.673l-5.614,8.246l-0.278,0.027
		l0.056-2.813l-1.918-3.933l-5.39-3.108l-1.358-3.095l-1.007-5.626l-5.6-3.934l-19.485-1.916l-0.616-8.12l0.421-4.94l1.568-6.104
		l-1.736-2.617l-3.667-6.748l-1.135-1.693l-1.301-1.329l-1.609-0.91l-2.03-0.448l-2.575,0.07l-3.262,0.658l-2.296,2.324
		l-13.956,7.769l-3.878-3.262l-3.625-2.661l0.406-4.337l-1.666-1.751l-2.617,1.134l-23.125,14.713l2.982,7.25l-0.406,4.325
		l-2.044,1.834l-5.949,3.794l-1.386,1.245l-0.896,1.231l-0.979,2.002l-0.881,2.759l-0.966,4.282l-0.239-0.321l0,0l-3.569-4.621
		l-2.94-2.938l-5.823-4.115l-4.115-3.317l-5.375-0.966l-9.42,4.717l-2.282,0.826l-1.736,2.855l-2.282,0.252l-1.736,2.842
		l-2.562,1.693l-2.842,0.252l0.35-5.179l0.938-8.048l-1.666-2.898l-1.959-2.323l-1.4-2.324l-3.681-0.909l-1.415-1.442l-1.959-3.191
		l-4.255-1.189l-2.506-6.649l-9.14,3.135l-3.402-2.322l-2.001,0.571l-4.312,6.917l-6.565,8.049l-4.731,10.582l-2.422,2.884
		l-2.267,0.35l-3.794-1.539l-3.261-1.946l-3.976,4.297l-1.974-0.279l-3.961,6.566l-1.974,4.549l-3.863,1.862l-3.738,3.554
		l-1.679,1.134l-1.288,1.736l-2.436,4.019l-1.596,3.331l-3.359,3.401l-1.106,1.987l-0.573-3.388l-0.308-9.631l-1.694-1.135
		l-4.185,2.856l-1.4,0.561l-2.52,0.293l-2.52,0.588l-4.213-1.693l-2.785,3.136l-9.211,2.31l-4.199-3.667l-4.199-1.386l-7.251,0.601
		l-1.12,0.295l-8.371-1.932l-1.932,2.855l-3.01,9.659l-1.106,1.427l-1.68-1.68l-1.386,0.015l-0.545,3.121l-1.946-0.267l-3.905-1.945
		l-3.625,0.602l-1.96-1.385l-1.386-0.267l-0.28,0.854l-2.491,2.015l-1.666,0.868l-3.08-2.226l-3.346,0.602l-2.771,2.324l-3.065,2.03
		l-4.171,1.792l-5.557,3.807l-6.145-1.287l-1.974-3.388l-0.545,0.294l-0.84,0.014l-0.826,3.737l-3.066,0.938l-1.945,1.485
		l-4.493,4.072l-2.45,1.567l-5.305,0.197l-4.718,7.32l-1.665,0.924l2.519,5.669l-0.028,1.735l-4.857,8.764l-6.202,16.868
		l-1.05,3.751l-1.344,2.338l0.028,1.707l1.694,0.756l3.597-1.05l2.799,0.699l1.666-0.363l1.652-0.938l0.854,1.093l0.322,15.145
		l-0.531,1.414l-1.652,0.645l-1.399-0.756l-0.504,2.253l0.07,2.491l-1.302,3.402l-0.994,3.934l-0.154,4.408l-4.62,2.171
		l-3.318-0.085l-1.735-2.926l-0.952-4.338L195.667,588l-6.621-0.098l-5.277-0.854l-3.906-1.525l-7.993-5.753l1.624-1.315
		l-0.056-1.931l0.518-1.178l-0.336-1.651l0.518-1.203l-0.294-0.827l0.238-1.357l0,0l0.21-0.489l-0.238-4.872l5.081-9.602l3.57-4.074
		l2.491-2.029l1.064-1.373l0.447-3.807l4.186-14.853l0.055-2.435l-3.373-4.605l-2.254-4.103l-0.056-1.175l-6.104-7.811l-3.079-2.17
		l-4.48-2.183l-4.157-1.5l-0.686-0.699l-0.309-1.749l0.056-2.45l-0.644-2.45l-4.367-7.419l-5.179-2.911l-1.4-0.027l-4.578,1.986
		l-1.399-0.027l0.77-3.121l1.792-2.407l1.092-2.071l1.12-3.46l-3.08-2.519l-7.489-9.938l0.602-12.586l0.406-2.086l0.028-1.749
		l1.441-1.721l0.028-1.4l-2.688-6.005l-1.302-4.578l1.442-1.721l2.491-2.058l3.514-0.28l1.414-0.322l1.092-2.071l-6.817-9.617
		l-1.008-1.764l1.092-1.721l7.74-1.261l3.178-0.979l1.82-2.772l2.142-1.357l1.763-0.658l-0.335-2.799l0,0l1.302-0.154l0.546-2.184
		l3.682-0.799l2.267-4.619l7.671-7.096l1.96-0.14l2.589-2.338l2.002-1.12l1.105-0.055l1.862,0.532l8.692,4.885l5.235-1.889
		l6.271,0.28l2.506-1.932l2.505-2.492l2.73-0.56l6.313-1.988l2.492-1.68l1.694-3.051l0.392-5.515l1.68-2.227l4.899-0.601l6.831-1.47
		l3.57-1.988l4.087-0.616l4.073,0.462l2.449-0.336l1.933-1.133l4.661-1.764l3.233,2.618l3.542-0.098l3.85-1.75l3.834-0.097
		l2.184,1.386l6.342,5.725l4.143,2.31l0.826,0.28l1.652-0.868l7.181-0.308l4.157,1.736l1.68,2.604l4.466,4.927l2.786,0.574h4.451
		l5.292-2.912l5.837-3.779l4.466-3.206l2.491-3.206l2.8-1.75l3.668,0.573l3.961,2.016l9.351,4.031l1.988,0.28l1.694-2.043
		l-0.588-3.191l-1.722-2.618l-0.015-2.324l0.827-2.912l3.681-1.204l8.468-3.863l1.19-0.07l1.05,0.531l1.036,1.261l1.161,2.141
		l3.724,8.33l2.016,6.971l1.428,0.854l3.43-1.189l2.001-2.94l1.722-1.47l4.871,4.325l2.296,0.854l1.148-2.058l-0.574-2.618
		l4.312-4.129h0.294l-1.148-2.03l0.574-3.219l0.014-5.558l-0.868-4.381l2.029-4.396l1.456-2.366l-7.838-12.473l6.116-5.053
		l3.5-2.379l0.322-6.411l4.689-0.924l4.073,3.766l3.234-1.47l2.953-2.898l4.129-1.988l1.722,3.5l0.825,3.206l3.822-0.504
		l3.625-5.921l2.379-1.931l3.262-0.462l3.472,3.262l1.735,1.204l4.087,2.142l5.095-2.436l5.053-0.154l3.724-3.975l5.88-4.578
		l4.199-0.196l4.969,2.478l4.479-0.433l3.807,1.007l3.682-3.597l6.677,2.337l1.959-6.719l5.235,0.308l5.893-1.05l2.59-6.019
		l5.25-0.211l2.281-4.297l5.697-4.171l0,0l4.647,2.828l1.246,1.736l1.021,2.799l0.182,1.694l0.028,4.956l0.462,1.441l0.266,3.555
		l0.756,0.91l2.169,0.91l3.877,0.183l3.206-0.281l3.22-0.644l1.064,0.056l1.722,0.798l1.708,1.315l2.939-0.293l1.386-1.26
		l1.834-3.093l0.098-3.625l0.77-1.289l1.428-0.195l1.204,0.77l2.156,2.855l2.729,2.169l2.114,0.112l3.29-0.28l2.883-0.91
		l2.086-0.951l0.938-1.022l1.176-2.324l-0.434-7.012l0.448-1.946l1.246-3.374l1.4-1.343l1.903-0.7l2.127-0.069l5.992,0.573
		l3.415-0.7l1.736-0.966l4.886-3.556l0.629-1.735l1.302-1.274l0.77,0.574l2.757,4.759l1.288,0.966l1.246-0.028l1.735-0.966
		l3.037-3.737l0.799-1.554l0.168-3.093l2.729-1.274l0.896-0.125l4.479,0.77l3.192,0.182l2.98-1.176l3.514-2.547l2.66-3.052
		l1.288-0.896l1.609-0.182l3.891,2.085l3.571,2.772L642.61,274.277z" title="Region of Republican Subordination"></path>
	<path id="TJ-SU" class="land" d="M512.247,221.365l4.438,0.77l3.177-1.022l2.604-0.14l1.47,0.966l1.245,4.143l-5.081,3.542
		l-5.25-0.49l-0.434,4.409l-1.315,3.5l-2.534,1.442l-3.331-2.968l-2.338-6.173l-7.405-4.325l-4.2-1.693l0.112-3.402l1.344-2.016
		l0.588-0.014l6.677,1.526l6.046,1.007L512.247,221.365z M517.258,25.659l-0.63,1.078l-5.431-7.139l-4.396-6.202l-3.766-2.771
		l-3.135-0.083l-0.602-2.1l0.84-1.456l2.254-1.722l-0.84,1.162l3.723,1.582l4.662,5.474l5.347,7.279L517.258,25.659z M486.812,0.784
		l0.435,0.154l0.979-0.224l2.253,1.246l0.28,1.19l0.56,0.91l1.974,1.834l1.428,0.924l0.21,1.903l0.994,0.728l2.73,3.696l0.938-0.154
		l1.162,0.223l0.28,1.078l1.428,3.163l1.848,2.044l1.273,1.834l1.218,2.757l3.415,5.095l0.7,1.806l0.322,0.21l-0.042,0.49
		l0.447,1.134l0.827,0.014l0.378,1.134l1.806,1.26l1.189,1.316l1.736,4.242l2.575,0.966l1.638,1.456l0.938,1.638l1.316,1.428
		l-1.47,1.162l-0.532-0.28l-0.909,0.546l0.237,1.008l-0.602,0.896l-1.147,0.322l-1.764-0.77l-1.47-3.752l-1.147,3.836l0.112,2.197
		l0.979,1.988l2.562-0.742l2.184,0.028l0.797,0.279h0.827l2.645,1.386l-0.854,0.546l2.771,0.139l1.33,0.7l2.281,1.778l0.826,0.854
		l0.714,1.344l-0.21,0.994l-1.806,1.609l-0.924,3.122l-1.344,1.792l-2.043,0.126l-0.882-0.784l-0.966,0.713l0.561,3.052l-0.14,2.058
		l-1.008-0.098l-1.246-0.868l-2.996,0.673l-1.274,1.525l-1.273,0.251l-0.462,0.882l-1.596,0.517l-2.085,2.269l-2.016,0.546
		l-1.106,1.175l-3.443,6.887l-2.701,3.416l-1.33,0.504l-2.212,0.057l-1.469,1.119l-2.394-0.21l-1.834,0.252l-1.246,0.672
		l-0.602,1.232l-0.42,2.757l-1.372,1.372l-0.364,2.492l-1.456,1.288l-2.478-0.014l-1.568,0.742l-4.788,1.484l-3.387,1.778
		l-3.71,0.686l-3.079,2.505l-2.521,0.672l-0.392,0.616l0.168,1.876l1.735,3.695l1.092,1.777l0.447,2.296l0.869,0.293l0.909,0.98
		l1.4,3.429l1.05,1.134l1.399,0.644l1.33,0.099l2.799-1.316l0.979-0.015l2.226,0.686l0.854,0.56l5.053,1.022l9.001,4.031
		l2.295,2.058l0.743,1.707l-0.448,2.716l1.133,2.842l0.574,2.575l-1.162,3.052l-0.21,3.947l-0.406,0.364l1.652,2.897l2.197,1.204
		l1.008,2.716l1.063,1.4l1.231,2.968l1.358,2.268l1.274,0.784l1.288,0.266l4.633-1.105l4.535-0.672l0.532-0.364l4.326-0.363
		l3.834-1.008l1.065-0.014l7.628-3.387l5.264-3.906l0.826,0.252l3.415-0.812l2.631-0.266l7.378-0.21l1.721,1.19l0.574,1.204
		l0.098,1.021l-0.42,1.904l-0.042,2.436l-0.448,0.406l-0.966,3.765l-1.218,1.218l-1.008,0.224l-0.196,0.35l-3.457,0.895
		l-1.484,1.008l-1.358,0.113l-7.097-3.64l-2.673-0.504l-1.357,0.195l-1.177,1.036l-1.316,5.949l-0.938,1.666l-2.534,1.959
		l-1.946,1.974l-2.603,1.456l-5.543,0.644l-5.515-0.309l-2.128,0.924l-1.078,1.246l-0.7,1.918l0.056,1.091h0.812l-0.071,0.98
		l0.239,0.742l0.112,2.45l-0.406,1.456l0.729,2.197l-0.658,0.938l-0.91,2.449l-1.372,2.87l0.042,1.259l-0.868,0.966l-1.946,0.322
		l-7.042,5.109l-1.147,0.112l-1.218,1.05l-0.91,0.35l-0.616-1.05l-3.402,0.336l0.015,0.42l-1.162,0.938l-0.504,1.722l0.671,1.372
		l2.211,2.45l0.042,0.854l-0.574,0.308l-5.137-5.612l-1.693,0.167l-2.73-2.492l-0.868-1.693l1.512-2.058l1.987-2.044l4.591-1.917
		l4.507-3.709l0.743-1.344l2.197-2.505l-0.098-0.742l-1.483-0.084l-0.084-0.938l-0.924-0.281l-0.545,0.365l-0.21-0.196l0.644-1.12
		l-0.378-0.756l-0.658-0.448l-0.224,0.056l0.028-0.195l-2.029-1.386l-2.576-0.49l-0.657-0.392l-10.163-1.259l-1.861-0.49
		l-2.114-1.33l-1.848-3.178l-3.514-0.392l-2.085-0.771l-2.072-2.561l-1.372-0.98l-3.78-1.819l-2.814-0.644l-1.567-0.63l-3.206,0.657
		l-4.479-0.027l-1.932-0.953l-0.84-1.231l-9.603-6.454l-5.642-4.815l-3.569-2.351l-1.484,0.251l-1.778-0.028l-2.085-0.896
		l-2.38-0.097l-2.03-0.91l-2.715,0.784l-2.632,1.847l-2.435,0.756l-1.974,1.231l-3.164,1.232l-0.56,0.588l-5.696,2.365l-2.016,0.602
		l-2.729,1.33l-3.863,1.064l-4.339,2.197l-0.812,0.742l-2.618,0.98l-6.649,3.976l-1.134,0.294l-2.352-0.014l-4.199-0.406
		l-4.689,1.372l-4.675,0.953l-2.799,0.14l-5.236,2.576l-0.825,0.952l-0.378,1.386l-0.587,3.835l0.266,0.798l-0.644,1.231
		l-0.532,2.253l0.196,1.05l3.219,6.299l-0.7,4.605l1.26,4.858l-0.252,1.946l-1.456,1.022l-2.547,1.329l-3.864,3.598l-1.637,0.839
		l-2.31-0.083l-3.5-1.722l-0.784-3.233l-0.713-5.012l-3.22-4.746l-1.582-4.465h-4.13l0.378,4.101l-1.679,7.433l-2.198,7.223
		l-2.954,2.926l-0.686,4.604l-0.112,3.192l-0.812,2.813l-2.464,4.368l-0.42,2.114l1.876,7.881l1.666,3.247l2.716,4.003l0.952,3.584
		l-0.881,5.123l0.49,1.442l1.022,1.105l0.224,3.906l0.854,0.909l0.307,1.246l-0.056,1.778l0.294,1.959l2.268,1.134l-2.617,9.309
		l3.583,4.199l1.246,0.042l1.47-1.372l2.114-4.718l0.546-0.518l1.063,0.042l0.644,1.973l1.904,1.302l2.981,0.994l2.337-0.979
		l2.085,1.133l0.518,0.546l3.08-1.834l2.324-0.448l2.351-1.33l1.231,0.224l2.548-1.68l2.128,0.07l2.268-3.99l4.507-2.141
		l4.549,1.763l2.31-0.098l3.122-2.716l2.323-0.448l2.646,0.448l2.8,0.995l1.189,1.288l4.928,1.078l2.604,1.344l6.201,4.844
		l0.63,2.155l0.503,0.728l0.714,0.028l1.301-1.54l1.652-1.525l1.596-2.156l0.658-3.248l0.924-0.854l3.122-0.588l4.746,0.994
		l2.323,1.862l0.966,2.52l1.456,1.204l2.113,0.35l2.618-1.134l1.386-3.667l1.259-0.393l0.854,0.659l0.573,1.259l-0.378,4.774
		l0.448,1.974l0.84-0.938l0.644-4.941l1.161-2.352l4.228-3.458l2.421-0.602l1.218,0.671l0.827,3.486l1.889,1.315l2.38,0.462
		l1.415-0.028l1.777-2.143l0.518-1.75l0.365-2.463l1.12-1.372l0.797,0.028l0.966,4.381l1.176,1.652l2.085,1.147l3.094,4.213
		l1.442,1.484l1.582,0.336l2.968-0.84l1.833-1.428l1.764-1.694l4.899-6.607l1.582-1.526l2.072-0.616l1.246-0.028l2.716,0.742
		l2.156,1.512l2.799,1.008l2.072-0.7l1.036-1.456l1.624-4.452l1.554-0.91l2.043-0.084l2.715,0.742l2.169,0.994l0.84,1.106
		l0.896,1.819l1.974,1.512l3.429,0.687h3.724l2.03,0.363l3.793,2.394l6.047,10.835l1.456,0.91l0,0l-5.697,4.171l-2.282,4.312
		l-5.249,0.209l-2.589,6.019l-5.879,1.05l-5.249-0.321l-1.96,6.719l-6.677-2.338l-3.681,3.583l-3.822-1.008l-4.479,0.434
		l-4.969-2.478l-4.186,0.195l-5.879,4.578l-3.723,3.976l-5.054,0.154l-5.095,2.436l-4.088-2.143l-1.749-1.204l-3.472-3.261
		l-3.248,0.462l-2.394,1.932l-3.612,5.935l-3.821,0.504l-0.84-3.206l-1.708-3.5l-4.13,1.988l-2.967,2.897l-3.234,1.47l-4.073-3.765
		l-4.69,0.923l-0.308,6.425l-3.5,2.38l-6.117,5.054l7.825,12.472l-1.457,2.352l-2.03,4.409l0.854,4.382v5.557l-0.574,3.22
		l1.148,2.03h-0.294l-4.311,4.115l0.573,2.618l-1.147,2.044l-2.296-0.854l-4.871-4.326l-1.722,1.47l-2.002,2.939l-3.429,1.204
		l-1.428-0.854l-2.03-6.971l-3.709-8.343l-1.162-2.128l-1.05-1.273l-1.05-0.532l-1.176,0.07l-8.483,3.85l-3.667,1.218l-0.826,2.911
		l0.014,2.324l1.722,2.604l0.588,3.192l-1.693,2.043l-1.989-0.28l-9.364-4.031l-3.962-2.016l-3.667-0.574l-2.799,1.75l-2.506,3.191
		l-4.451,3.206l-5.851,3.779l-5.277,2.912l-4.452,0.014l-2.786-0.574l-4.465-4.927l-1.68-2.604l-4.157-1.736l-7.181,0.308
		l-1.652,0.868l-0.826-0.293l-4.144-2.31l-6.341-5.725l-2.197-1.386l-3.835,0.099l-3.849,1.75l-3.542,0.112l-3.234-2.617
		l-4.661,1.75l-1.932,1.134l-2.449,0.335l-4.074-0.462l-4.087,0.616l-3.569,1.988l-6.831,1.47l-4.899,0.602l-1.68,2.225
		l-0.391,5.516l-1.694,3.037l-2.492,1.68l-6.313,1.988l-2.743,0.574l-2.506,2.492l-2.506,1.932l-6.271-0.28l-5.235,1.89
		l-8.693-4.886l-1.862-0.531l-1.106,0.056l-2.001,1.105l-2.59,2.338l-1.96,0.14l-7.67,7.097l-2.268,4.619l-3.681,0.798l-0.546,2.198
		l-1.316,0.153l0,0l-0.56-3.891l1.064-0.672l0.434-3.85l-0.294-2.463l-2.072-1.457l-5.529-4.689l-0.7-0.365l-0.994-3.177
		l-2.687-5.683l-3.822-2.547l-3.864-0.434l-3.556,1.693l-2.142,1.358l-3.149-0.771l-1.736-1.441l-1.722-2.142l-1.413-0.028
		l-3.206,1.693l-2.114,0.308l-4.227-0.083l-3.248,4.158l-1.763-0.028l-2.814-0.406l-4.171-2.533l-6.341,0.588l-3.206,2.226
		l-1.918-0.743l-1.413,0.686l-1.414,0.322l-2.1-0.91l-2.408-3.388l-0.42-6.341l-1.344-3.891l0.658-7.741l1.078-1.568l0.028-1.764
		l-0.868-0.896l-4.928-0.251l-1.75-0.728l-2.03-5.138l-3.149-1.456l-3.345-0.588l-3.178,0.658l-2.464-0.042l-2.632-0.924
		l-1.917-1.259l-5.445-1.134l-2.982-1.624l-2.268-2.324l-4.311-7.461l-1.064-3.947l0.014-1.414l0.714-0.867l3.374-1.008l6.929-2.547
		l3.01-0.658l1.232,0.378l3.694,0.588l0.546-1.4l-0.672-2.478l-2.912-6.046l-2.547-7.111l-6.174-13.354l-1.735-2.673l0.057-4.074
		l1.091-2.464l1.428-0.335l6.005,1.68l0.881,0.014l1.26-1.582l-0.63-4.97l0.378-2.113l12.305-4.592l4.437-0.111l1.778-0.504
		l2.912-4.745l1.973-1.386l3.388-1.19l1.638-2.281l1.078-0.869l1.246,0.028l5.991,2.589l0.714,0.015l3.038-1.008l2.155-1.204
		l1.4,0.728l6.132,4.367l4.255,0.252l2.967,2.715l5.81,2.59l2.842-0.294l4.255,0.266l2.813,1.12l3.388,2.646l1.861,0.462
		l3.374-0.266l2.296,0.574l2.981,1.483l6.902,0.504l2.309-0.308l1.75,0.742l1.399,1.092l2.295,0.406l2.855-0.825l3.906-0.449
		l5.473,0.658l4.409,0.994l1.582,0.742l2.422,2.366l1.232,0.378l5.725-2.52l9.183,1.47l3.569-0.798l3.332,1.147l2.533-2.239
		l0.967-3.164l0.657-4.773l1.974-1.007l2.534-2.058l7.32-8.315l0.854-5.305l-5.823-8.314l-0.84-1.974l1.288-1.567l1.959-0.127
		l1.974-0.839l0.938-1.75l0.784-2.829l1.498-2.631l0.994-4.059l-0.49-1.792l-0.447-3.388l0.266-3.555l1.959,0.056l1.764,0.406
		l1.582,0.938l2.198-2.072l2.365-1.708l1.415,0.393l2.421,2.729l0.952,3.934l1.75,1.287l1.427-0.321l0.729-0.686l0.392-1.232
		l0.448-3.191l0.924-1.218l2.869-0.63l1.092-0.854l1.134-2.464l-0.112-2.142l-2.506-5.949l-3.22-6.146l-0.266-3.387l0.393-1.231
		l1.441-0.672l1.246,0.21l2.24,2.73l2.687,5.781l1.484,4.144l0.196,5.529l1.875,2.897l1.932,0.952l2.506-0.28l2.198-2.253
		l0.602-2.114l-0.112-2.323l-1.679-3.43l-8.091-10.037l-4.619-4.325l-0.112-0.924l1.288-4.171l-0.168-1.959l-1.035-1.316
		l-1.875-1.596l-1.079-1.778l0.098-1.637l0.742-0.882l1.806-0.616l2.002,0.308l2.268,3.415l0.91,3.99l1.428,0.798l0.462-0.363
		l0.545-1.792l0.112-1.4l1.512-1.4l2.1-1.344l4.689-1.078l2.323-0.07h2.8l4.745,1.134l2.31-0.182l0.994-2.058l-0.154-1.959
		l-1.246-5.375l-1.26-3.976l-2.604-2.001l-9.756,0.335l-5.194,0.658l-10.61,2.744l-3.822,1.722l-8.875,2.491l-4.045,1.736
		l-6.635,1.386l-3.835,0.099l-8.105-4.773l-2.66-2.45l0.728-1.875l8.959-2.604l0.266-0.434l2.701-0.238l5.529-1.651l13.424-4.34
		l3.024-1.386l5.137,1.68l2.253,0.392l4.004-1.036l3.009-1.652l1.19-1.147l6.061-1.428l10.415-1.078l7.937,0.056l4.423,1.4
		l3.261-0.028l3.654,0.406l1.973-0.154l3.234,1.148l3.359-0.266l2.394-0.771l4.045,0.966l6.075,0.113l1.722,1.148l1.736,0.77
		l1.498-1.246l-1.106-2.239l-1.497-4.311l-1.26-1.302l-4.27-0.84l-1.273-1.301l0.728-2.618l-1.078-1.777l0.545-1.904l1.162-0.084
		l1.442,0.588l2.828,0.252l2.547-0.196l3.486-3.303l0.014-2.8l1.036-1.708l-0.056-3.738l-3.233-2.562l-1.288-1.54l0.042-2.576
		l-0.896-2.505l-1.245-1.078l0.728-2.631l-1.456-0.588l-0.56-1.12l-0.448-2.771l-0.896-2.506l-1.288-1.539l0.028-2.576l1.078-1.26
		l0.126-2.366l-2.044-1.764l-4.143-5.711l-0.195-1.021l0.294-1.274l0.545-0.728l2.492-1.89l2.352-1.372l5.613-0.742l2.702,0.545
		l0.923-0.238l0.799-0.826l-0.084-0.56l1.245-2.324l1.484-0.714l0.798-3.919l-1.75-3.793l-1.064-3.5l0.658-10.849l0.196-1.008
		l1.036-1.189l-0.028-0.995l0.644-1.945l3.667-4.787l2.016-3.248l1.008-0.378l4.073-0.238l2.058,1.022l7.825,2.184l2.421,0.14
		l1.316,0.336l1.693,1.441l0.617,0.868l2.646,5.291l0.77,3.696l1.708,2.421l3.892,2.799l1.147,1.778l1.092,0.966l2.127,0.336
		l1.246,0.644l1.302,2.842l0.252,1.19l0.938,1.273l2.057,0.462l2.73-0.35l2.282,0.028l2.884-1.819l1.652-2.996l2.688-6.369
		l1.386-1.246l0.994-0.49l1.19-0.167l4.423,1.259l0.938-0.098l2.897-3.107l2.059-1.512l1.385-0.518l1.33-0.042l4.927,3.051
		l0.644,0.042l3.654-3.458l2.366-1.525l6.271-0.91l0.868-0.617l1.694-0.489l3.276-2.786l4.409-1.735l7.363-7.167l0.952-1.358
		l0.868-2.688l0.588-0.979l0.938-0.84l1.833-0.321l1.092,0.196l2.086,1.077l3.528,0.561l4.521-2.898l2.729-1.189l0.77-0.742
		l1.456-2.421l0.882-0.309l1.315-1.105l0.812-0.224l2.072-1.414l2.058-0.251l1.652,0.168l2.114-0.729l1.147-1.105l1.596-3.108
		l0.014-1.12l-0.895-2.883l0.476-2.227l0.825-0.616l1.274-1.932l0.084-2.337l0.924-1.638l-0.868-3.961l0.028-0.854l0.308-0.574
		l1.176-0.868l0.672-0.951l0.545-1.946l0.589-0.938l1.12-0.924l2.855-1.414L483.621,0L486.812,0.784z" title="Sughd"></path>
</svg>