<?xml version="1.0" encoding="utf-8"?>
<svg version="1.1" xmlns="http://www.w3.org/2000/svg" xmlns:xlink="http://www.w3.org/1999/xlink" viewBox="0 0 1200 800">
	<path id="TM-MA" class="land" d="M718.543,576.625l0.159,0.664l15.063,24.664l2.918,4.724l18.846,31.539l3.854,9.11l0.26,29.52l0.245,30.107
	l0.577,5.156l0.953,0.462l0.867,0.577l3.623,0.245l0.607,0.723l0.261,4.925l-0.218,0.49l-0.273,0.274l-0.361,0.246l-0.68,0.635
	l-0.389,0.23l-0.448,0.146l-0.736,0.549l-0.331,0.348l-0.391,0.272l-0.447,0.202l-1.055,0.247l-2.541-0.044l-1.562,0.331
	l-0.549,0.347l-0.52,0.578l-0.607,1.184l-0.057,0.723l0.07,0.605l1.314,2.688l0.491,0.766l1.214,1.459l1.126,1.012l3.191,3.553
	l1.284,0.822l0.391,0.347l0.375,0.448l-0.071,0.419l-0.217,0.36l-1.719,1.659l-0.606,0.768l-0.202,0.489l-0.158,0.549l-0.649,7.408
	l-0.246,1.401l-0.316,0.91l-2.526,2.9L757.663,755l-2.786,1.833l-0.766,0.693l-0.896,1.256l-0.808,0.881l-0.015,0.015l0.679,0.303
	l5.271,4.854l3.74,4.173l5.357,2.166l10.945,1.675l4.823-0.375l9.762-3.423l4.751,0.102l2.412,1.199l2.138,1.487l8.317,8.217
	l2.238,1.516l4.477,1.979l1.185,1.242l0.867,1.561l0.563,1.761l0.103,1.747l-0.13,4.017l0.476,1.516l1.531,3.581l0.855,1.025
	l1.283-0.68l7.899-10.773l2.644-2.455l2.195-0.115l5.327,4.94l0.882,0.475l0.823-0.07l0.793-0.231l0.881-0.028l2.384,1.012
	l0.723,0.116l1.344-0.334l5.894-2.556l1.211-0.752l1.055-1.039l1.025-1.416l2.137-2.166l5.084-2.482l0.359-0.188l7.354-5.849
	l5.443-2.644l1.645-0.375l3.381-0.289l1.603-0.419l1.084-1.155l0.49-1.849l0.348-3.77l0.822-3.135l-0.289-1.053l-1.342-1.099
	l-0.263-1.229l-0.201-5.098l0.146-1.486l2.152-2.124l6.223-2.035l2.254-1.675l0.478-0.91l0.071-0.692l-0.405-0.521l-2.064-0.794
	l-0.547-0.447l-1.127-1.546l-4.16-3.754l-0.52-1.3l-0.361-1.775l-0.809-1.271l-0.563-1.285l0.346-1.731l1.256-1.3l1.722-0.391
	l17.66,0.404l7.09-1.475l6.569-3.09l1.199-1.083l1.92-2.643l1.127-1.169l1.519-0.838l1.631-0.361l10.022-0.622l3.263-0.853
	l7.625-4.489l2.426-0.767l1.344-0.202l1.271-0.202l2.266,0.49l7.727,3.021l0.043-1.257l-0.75-4.751l-0.014-1.791l0.678-1.588
	l1.025-1.302l5.371-4.101l2.861-1.43l3.031-0.563l3.336,0.549l1.356,0.563l0.996,0.23l0.809-0.678l1.285-4.044l0.953-1.214
	l1.242-0.822l1.487-0.636l5.979-1.4l2.729-1.012l2.686-2.18l1.662-1.993l6.383-9.894l1.428-3.494l0.939-3.711l0.375-4.028
	l-0.23-2.095l-1.139-3.854l-0.377-2.066l-0.014-2.034l0.258-2.095l1.041-3.986l1.344-3.249l8.693-15.999h-0.029l-18.934,0.1
	l-16.533-0.129l-22.543-0.06l-19.336,0.016l-19.336,0.087l-2.297-0.578l-0.664-2.7l-0.953-46.976l3.221-2.744l1.4-1.517l3.205-4.982
	l10.946-14.311l-0.924-4.478l-10.977-13.474l-27.974-31.915l-5.442-3.277l-18.63-7.336l-8.358-3.119l-7.295-6.396l-25.963-27.828
	l-66.574-70.414l-15.408-15.986l-12.419-12.809l-2.786-2.846l-16.219-1.4l-0.463,16.491l-0.98,1.688l-0.795,2.065l-5.184,1.228
	l-10.428,3.163l-2.613,3.365l-5.125,28.593l-0.479,1.704l-0.81,1.862l-1.4,0.752l-5.055,0.778l-1.414,0.593l-0.707,1.327
	l-0.405,1.617l-1.703,10.701l-0.448,1.733l-0.723,1.676l-1.271,0.519l-1.371,0.103l-4.303-0.434l10.036,42.183l1.618,4.722
	l20.347,21.242l3.249,4.752l6.543,13.17l0.662,2.238l-0.865,0.953l-1.387,0.549l-3.379,0.448l-1.328,0.375l-0.623,0.605l0.203,1.387
	l4.016,11.494l0.664,3.02l-0.852,1.141l-1.373,0.592l-1.72,0.103l-0.778,2.987l0.129,5.33l8.807,27.222" title="Mary"></path>
	<path id="TM-LE" class="land" d="M814.707,248.313l-0.145-0.246l-0.65-2.441l-0.477-0.997l-3.018-4.043l-1.098-2.253l-1.674-6.57
		l-0.924-1.502l-2.674-2.932l-0.895-1.415l-0.65-2.282l-0.924-4.896l-2.555-8.996l-0.91-2.123l0.621-0.809l-0.405-1.574
		l-0.216-7.582l-0.275-2.195l-0.678-1.791l-5.964-10.051l-1.589-1.747l-18.138-13.416l-7.063-3.061l-7.899-2.094l-2.989-0.347
		l-1.819,0.91l-1.098,2.268l-0.793,3.798l-1.993,1.141l-1.546,3.394l-2.281,2.513l-2.801,1.416l-3.092,0.115l-3.293-1.357
		l-8.361-5.964L725,171.139l-4.794,0.824l-0.448-0.982l-0.26-0.953l-0.303-0.26l-0.491,0.838v2.094l-0.375,18.585l-0.419,1.661
		l-1.113,2.108l-58.86,0.102l-0.649,0.115l0.446,69.259l0.146,1.198l0.434,0.679l1.082,0.274l16.103,0.491l1.069,0.405l0.375,1.097
		l0.174,1.358l0.49,32.03l0.563,33.893l0.317,19.336l0.694,0.722l3.465,0.332l37.518-2.96l16.219,1.401l2.786,2.845l12.419,12.809
		l15.408,15.986l66.574,70.414l25.963,27.828l7.295,6.397l8.359,3.119l18.629,7.336l5.443,3.277l27.973,31.915l10.977,13.474
		l0.924,4.477l-10.947,14.311l-3.205,4.982l-1.4,1.517l-3.221,2.744l0.953,46.976l0.664,2.7l2.297,0.578l19.336-0.087l19.336-0.015
		l22.543,0.059l16.533,0.129l18.934-0.1h0.029l2.975-5.489l1.098-3.437l-0.332-3.971l-1.545-7.726l0.375-3.972l1.502-2.585
		l2.367-1.776l14.715-7.971l5.994-1.993l34.484-0.881l1.098-0.028l2.875-1.518l3.768-5.198l2.281-2.354l1.041-1.43l0.434-2.079
		l-0.045-2.254l-0.648-4.376l0.391-2.296l0.807-2.18l1.012-2.007v-0.016l0.014-0.015v-0.014l0.838-1.646l0.824-1.055l0.996-0.593
		l1.4-0.317l3.336,0.044l1.068-0.896l0.506-2.701l0.217-1.458l1.213,0.563l1.617,0.361l0.65,0.419l1.357,3.09l0.648,0.968
		l0.564,0.664l1.545,1.156l18.225,6.859l1.473,1.271l2.254,3.032l1.414,1.4l1.633,0.823l0.938,0.146l2.688-0.146l0.865,0.218
		l1.141,0.953l0.766,0.216l0.723,0.375l0.563,0.289l1.357,1.387l1.617,1.228l2.137,0.216l5.59-1.847l1.934-0.247l0.824,0.404
		l1.227,1.819l1.012,0.507l0.838-0.16l0.693-0.534l1.24-1.4l1.432-1.242l1.357-0.88l-2.008-1.56l0.174-1.863l1.229-1.747l1.516-1.56
		l1.283-2.123l-0.332-1.632l-1.285-1.388l-1.588-1.37l-1.111-2.904l0.303-3.652l1.777-6.903l0.316-4.087l-0.65-8.044l0.303-4.029
		l2.832-5.054l4.49-5.891l2.99-5.834l-0.752-2.124l-0.996-2.801v-0.016l-0.016-0.015l-2.729-1.948l-2.945-1.431l-3.105-0.852
		l-6.209-0.029l-2.527-0.765l-8.232-3.871l-3.768-4.779l-2.383-2.282l-2.643-1.227l-5.271-1.502l-5.025-4.059l-2.281-1.199
		l-5.357-0.865l-8.189-3.971l-2.742-0.246l-2.311,0.953l-3.928,3.162l-2.094,1.185l-5.561,0.447l-5.488-1.819l-13.342-9.054
		l-8.072-5.474l-10.947-7.438l-7.668-7.019l-10.801-9.862l-5.461-3.438l-11.943-4.217l-10.426-6.051l-17.098-14.455l-4.607-5.992
		l-2.453-3.191l-1.92-1.199l-2.457,0.289l-6.281,3.147l-2.094,0.463l-2.396-0.463l-2.441-1.271l-13.055-9.373l-11.336-8.129
		l-8.998-6.47l-4.922-5.083l-8.723-12.231l-5.156-4.91l-11.277-8.043l-26.76-19.134l-13.184-9.444l-11.063-7.928l-9.502-6.831
		l-4.68-4.722l-0.881-0.506l-5.818-7.365l-0.883-2.831l-1.428-5.964l-0.232-2.426l0.346-2.296l0.664-1.921l0.463-1.921l-0.316-2.267
		l-2.5-5.43l-0.33-2.167l-0.059-2.815l-0.303-2.123l-0.664-1.921l-2.096-4.216l-0.49-1.979l-0.26-4.491l-0.781-0.967l-6.713-3.871
		l-3.855-1.155l-1.748-1.329L814.707,248.313z" title="Chardzhou"></path>
	<path id="TM-DA" class="land" d="M522.582,0l-1.502,2.513l-1.112,9.372l-1.718,3.22l-3.351,0.997l-4.173-0.26l-4.159-0.981
		l-8.75-3.552l-1.994-0.072l-1.516,0.476l-4.303,2.658l-3.062,1.342l-1.473,1.112l-0.751,1.617l0.462,2.124l1.516,1.371
		l10.167,4.794l2.859,2.239l2.498,3.855l2.167,5.127l6.021,9.833l3.278,3.885l0.924,0.852l0.361,0.967l-0.289,0.896l-0.996,0.606
		l-5.228,0.794l-1.313-0.346l-0.967-1.473l0.028-1.704l0.434-1.877l0.274-2.008l-0.824-3.913l-2.093-2.802l-2.744-2.036
		l-8.058-3.813l-1.791-0.333l-1.458,0.26l-2.946,1.271l-1.314,0.116l-1.299-0.765l-1.863-2.773l-1.169-1.155l-1.545-0.548
		l-1.834-0.058l-1.805,0.332l-1.487,0.693l-0.867,1.097l-0.708,1.286l-2.08,2.382l-2.195,0.997l-1.386,1.169l0.462,2.917
		l1.748,3.741l0.13,1.718l-0.693,2.556l-3.307,7.61l-1.17,1.313l-3.105,1.011l-0.664,1.43l0.592,1.718l1.04,1.184l0.245,1.039
		l-1.776,1.3l-1.56,0.346l-5.545-0.259l-1.574,0.375l-4.492,2.209l-3.769,0.766l-11.481-2.021l-7.798,0.317l-7.639,3.755
		l-6.527,6.441l-4.447,8.39v0.029l-3.033,4.52l-3.351,2.542l-7.783,3.668l-2.297,3.163l-0.029,4.202l1.805,8.607l-0.202,4.087
		l-0.635,3.495l-0.102,3.422l1.459,3.885l1.805,2.975l0.923,2.845l0.303,3.134l-0.057,3.827l0.375,3.004l1.083,2.989l1.56,2.672
		l1.776,2.021l1.155,0.824l1.243,0.621l4.072,0.997l0.621,0.477l-0.188,0.736l-0.91,1.097l-1.733,1.243l-3.783,1.891l-1.604,1.849
		l-2.498,4.578l-1.559,0.91l-9.936-2.079l-7.653-1.617l-18.138-0.982l-2.946-0.159l0.015,0.058l0.217,4.26l0.448,2.108l2.18,5.892
		l2.123,7.249l0.664,1.458l0.52,0.837l0.809,0.751l0.751,0.376l0.707,0.173l1.069,0.028l0.303,0.231l0.433,0.563l0.015,0.867
		l-0.115,0.736l-0.433,1.329l-0.173,0.65l0.058,0.708l0.289,0.692l0.78,0.91l0.621,0.462l1.661,0.824l0.592,0.433l0.997,1.141
		l2.469,3.885l2.527,2.628l0.303,0.419l9.416,24.246l0.982,3.654l0.346,0.794l0.563,1.069l1.964,2.426l2.426,2.108l4.665,6.095
		l1.083,3.162l3.422,13.806l3.625,9.617l-0.693,3.423l-3.379,10.253l2.354,1.776l2.354,1.329l0.563,0.751l0.39,0.635l1.343,4.361
		l0.505,1.299l0.318,0.434l0.332,0.317l0.462,0.289l3.033,0.722l0.491,0.274l0.418,0.318l0.679,0.722l0.506,0.736l0.317,0.347
		l0.418,0.332l0.463,0.317l0.563,0.216l0.795,0.073l5.083-0.664l0.563-0.188l0.622-0.39l3.004-3.12l1.848-1.126l5.098-1.964
		l32.882,0.548l9.545-1.285l19.756-5.82l8.78,0.91l1.545-0.231l0.375-0.491l0.145-0.549l-0.26-2.729l0.043-0.579l0.13-0.563
		l0.274-0.477l0.347-0.332l0.39-0.203l0.635-0.086l6.412,0.043l5.416,1.429l3.639,1.56l32.333,8.043l4.014,5.517l1.069,0.967
		l4.837,3.394l6.094,1.328l20.405,0.346l44.248,0.044l1.055,0.173l0.433,0.434l0.173,1.213v33.936l0.202,1.3l0.578,0.982
		l4.722,5.516l0.49,0.303l0.65,0.13l1.588-0.332l1.027-0.405l0.865-0.491l0.404-0.332l0.361-0.39l0.982-1.343l0.346-0.375
		l0.404-0.318l0.795-0.087l1.111,0.087l2.238,0.578l1.113,0.072l0.793-0.086l1.689-1.04l0.477-0.202l0.593,0.072l0.708,0.39
		l0.938,1.069l0.434,0.693l0.289,0.636l0.245,0.996l0.521,3.668l0.65,2.483l0.201,0.463l0.317,0.491l0.448,0.52l0.809,0.664
		l0.823,0.911l0.188,0.39l0.259,1.141l0.289,0.967l0.246,0.448l2.6,0.289l10.441-1.618l-0.694-0.722l-0.317-19.336l-0.563-33.893
		l-0.49-32.03l-0.174-1.358l-0.375-1.097l-1.069-0.405l-16.103-0.491l-1.082-0.274l-0.434-0.679l-0.146-1.198l-0.446-69.259
		l0.649-0.115l58.86-0.102l1.113-2.108l0.419-1.661l0.375-18.585v-2.094l-1.069,1.834l-0.52,0.592l-0.535,0.448l-3.883-4.029
		l-5.676-1.386l-16.348,0.997l-9.805,3.292l-4.867,0.13l-2.83-0.809l-2.326-1.689l-4.404-4.433l-4.908-3.625l-7.799-4.029
		l-8.896-4.578l-2.281-2.282l-0.563-2.556l1.025-8.693l0.635-1.848l1.055-1.517l1.386-1.227l3.351-1.689l1.127-1.372l-0.752-1.993
		l-5.4-7.683l-2.498-4.837l-0.736-3.798l2.094-2.989l2.223-1.56l2.543-0.216l3.061,0.967l2.803,1.791l1.588,0.708l1.27-0.174
		l0.939-1.415l-0.159-1.545l-0.78-1.502l-0.995-1.256l-1.142-0.981l-3.841-2.282l-1.213-1.271l-0.923-1.416l-1.863-2.858
		l-2.384-2.065l-8.534-3.235l-4.217,0.145l-1.155-0.52l-0.896-1.545l0.129-1.444l0.91-1.069l1.43-0.419h0.029h0.029h0.029
		l4.808-1.877l-0.245-4.318l-1.603-5.372l0.751-5.069l1.328-0.967l1.661-0.693l1.343-0.982l0.275-1.834l-0.998-1.429l-1.877-1.127
		l-3.596-1.415l-2.845-2.585l-2.253-3.538l-2.557-2.816l-3.682-0.404l-3.625,0.433L612,53.042l-17.156,2.643l-4.203-0.116
		l-2.021-0.78l-3.249-3.51l-1.892-0.664l-4.145-0.447l-2.325-1.271l-1.083-1.964l-0.953-8.39l-0.78-2.108l-1.141-1.848l-5.17-5.401
		l-1.949-1.242l-2.08,0.23l-2.354,1.141l-2.339,0.65l-2.383,0.13l-3.61-0.649l-5.704-2.585l-5.444-5.054L524.56,1.141L522.582,0z" title="Tashauz"></path>
	<path id="TM-AL" class="land" d="M718.557,576.636l-8.893-26.428l-0.13-5.33l0.779-2.987l1.719-0.103l1.373-0.592l0.853-1.141l-0.664-3.02
	l-4.017-11.494l-0.202-1.387l0.622-0.605l1.328-0.375l3.379-0.448l1.388-0.549l0.865-0.953l-0.662-2.238l-6.543-13.17l-3.249-4.752
	l-20.348-21.242l-1.617-4.722l-10.036-42.183l4.303,0.434l1.371-0.103l1.271-0.519l0.723-1.676l0.447-1.733l1.704-10.701
	l0.405-1.617l0.707-1.327l1.414-0.593l5.055-0.778l1.4-0.752l0.81-1.862l0.479-1.704l5.125-28.593l2.612-3.365l10.429-3.163
	l5.184-1.228l0.795-2.065l0.98-1.688l0.463-16.491l-37.519,2.96l-3.465-0.332l-10.44,1.618l-2.601-0.289l-0.246-0.448l-0.289-0.967
	l-0.259-1.142l-0.188-0.39l-0.823-0.911l-0.809-0.664l-0.448-0.52l-0.317-0.491l-0.201-0.463l-0.649-2.483l-0.521-3.668
	l-0.245-0.996l-0.289-0.636l-0.434-0.693l-0.938-1.068l-0.708-0.391l-0.593-0.071l-0.477,0.202l-1.689,1.04l-0.793,0.086
	l-1.113-0.072l-2.237-0.578l-1.111-0.087l-0.795,0.087l-0.404,0.318l-0.346,0.375l-0.982,1.343l-0.36,0.39l-0.404,0.332
	l-0.865,0.491l-1.026,0.405l-1.604,0.325l-0.65-0.13l-0.49-0.303l-4.722-5.517l-0.578-0.981l-0.202-1.3v-33.937l-0.173-1.213
	l-0.433-0.434l-1.056-0.174l-44.248-0.044l-20.404-0.346l-6.094-1.328l-4.838-3.394l-1.068-0.967l-4.014-5.517l-32.334-8.043
	l-3.639-1.56l-5.416-1.429l-6.412-0.043l-0.635,0.086l-0.39,0.203l-0.348,0.332l-0.273,0.477l-0.13,0.563l-0.043,0.579l0.26,2.729
	l-0.146,0.549l-0.375,0.491l-1.545,0.231l-8.779-0.91l-19.757,5.82l-9.545,1.285l-32.882-0.548l-5.098,1.964l-1.849,1.126
	l-3.004,3.12l-0.621,0.39l-0.563,0.188l-5.083,0.664l-0.795-0.072l-0.563-0.217l-0.463-0.316l-0.418-0.332l-0.317-0.347
	l-0.506-0.736l-0.679-0.722l-0.418-0.318l-0.491-0.274l-3.033-0.722l-0.462-0.289l-0.332-0.317l-0.318-0.434l-0.505-1.299
	l-9.733,5.054l-4.332,3.249l-0.506,0.838l-0.173,0.751l0.014,0.925l0.188,0.809l0.29,0.837l0.967,1.85l0.231,0.822l1.025,6.297
	l6.831,26.096l0.159,1.184l-0.448,0.78l-0.621,0.665l-0.924,0.679l-5.17,1.935l-1.964,1.142l-0.521,0.448l-0.577,1.198
	l-24.737,80.927l-0.375,2.542l-0.116,1.474l-0.216,0.852l-0.347,0.736l-2.282,3.885l-0.361,1.055l-0.145,0.853l0.303,2.18
	l-0.057,1.041l-0.246,0.576l-0.52,0.449l-1.4,0.592l-0.636,0.375l-0.563,0.679l-0.318,0.811l-0.173,0.865l-0.78,9.604l0.115,1.603
	l0.29,0.722l0.505,0.709l0.433,0.36l0.448,0.26l0.448,0.044l0.477-0.06l0.837,0.087l1.314,0.42l4.592,2.224l1.3,0.435l0.953,0.042
	l4.13-1.24l1.603-0.159l1.083,0.202l1.069,0.418l1.068,0.563l0.794,0.043l0.78-0.188l2.354-0.938l1.256-0.173l0.635,0.23
	l0.506,0.635l0.981,3.423l0.347,0.823l1.704,2.671l1.228,1.199l7.827,5.343l6.917,6.846l0.029,0.028l0.693-0.767l1.415-0.691
	l0.896-0.115l0.881,0.115l1.733,0.592l0.91,0.593l0.216,0.664l0.044,0.766l0.332,0.908l1.877,3.192l1.473,3.566l0.938,1.444
	l2.657,2.889l0.939,3.074l1.747,2.484l0.404,1.805l-0.202,1.72l-1.604,5.442l2.051,2.73l11.684,4.664l1.271-0.188l1.271-0.39
	l1.372-0.217l1.372,0.173l4.13,1.199l3.957-0.089l1.213-0.303l1.228,0.015l1.098,0.68l1.011,0.881l1.04,0.664l0.39,0.043l0.304,0.03
	l1.313-0.319l0.678,0.174l0.563,0.564l0.737,1.56l0.49,0.636l1.213,0.505l1.329-0.102l1.372-0.316l1.314-0.103l2.814,0.751
	l12.724,6.137l5.343,1.258l2.744,0.23l1.3,0.303l1.372,0.68l0.621,0.692l0.015,0.708l-0.173,0.736l0.059,0.794l1.285,2.412
	l0.289,0.751l0.202,1.877l0.016,1.415l0.39,1.17l1.386,1.155l1.386,0.534l6.325,0.938l1.025,0.492l2.137,1.544l1.127,0.303
	l7.351-0.734l1.416-0.68l1.083-1.703l0.751-1.704l0.967-1.444l1.256-0.924l1.588-0.115l1.33,0.692l4.072,3.625l3.509,1.443
	l1.834,0.273l1.834-0.201l0.707-0.419l0.505-0.621l0.578-0.462l0.924-0.015l1.732,0.331l0.823-0.058l0.867-0.29l1.083-1.355
	l0.202-1.531l0.434-0.706l4.867,2.729l6.296,1.444l3.206,1.487l1.142,0.821l1.083,0.348l2.369,0.361l0.896,0.506l2.643,2.742
	l10.831,7.827l1.732,0.173l4.563-2.094l1.862,0.492l1.632,1.559l1.574,2.183l0.376,1.342l-0.26,2.269l0.491,1.125l0.23,0.839
	l-0.332,0.925l-0.506,0.996l-0.273,1.141l0.188,2.138l1.604,7.047l0.938,1.4l5.097,4.231l1.518,1.705l0.477,0.691l-0.102,0.49
	l-0.288,0.347l-0.116,0.275l-0.102,0.692l-0.246,0.838l0.23,0.722l1.344,0.361l0.52,0.549l0.665,0.52l0.678,0.349l0.68,0.042
	l2.569-1.025l1.199,0.218l1.358,1.458l0.577,1.589l0.391,1.922l0.563,1.688l1.082,0.866l0.781-0.174l0.563-0.606l0.952-1.502
	l0.767-0.404l0.867,0.059l11.682,3.813l5.328,4.521l2.976,1.747l6.657,1.198l3.063,1.328l2.396,3.221l3.047,6.514l3.754,5.732
	l8.595,10.514l1.717,2.771l2.354,6.21l1.677,2.946l2.688,1.501l12.896-0.229l11.352-0.219l17.314-0.316l9.617-0.173l8.317-0.146
	l4.043,0.723l3.293,0.447l0.664,3.438l0.664,1.56l0.304,0.925l0.145,1.271l-0.129,1.241l-0.318,1.127l-0.432,0.98l-0.508,0.767
	l-0.347,1.068l0.131,1.213l0.49,1.517l-1.746,8.116l-0.463,4.953l1.154,2.873l-0.261,0.404l-0.129,0.289l-0.217,0.692l0.779,0.333
	l0.649,0.519l0.505,0.622l0.334,0.593l0.315,1.055l0.146,1.055l0.043,2.324l0.262,0.981l1.183,1.963l1.214,6.253l0.218,3.034
	l0.129,0.505l-0.159,0.62l-0.852,1.127l-0.403,0.693l-0.246,0.895l-0.145,0.983l-0.044,0.923l-0.305,1.083l-0.69,0.507l-0.767,0.303
	l-0.506,0.477l-0.229,1.214l0.274,2.007l-0.045,0.939l-0.996,1.066l-1.646,1.358l-0.939,1.185l1.113,0.506l1.992,0.316l1.646,0.881
	l1.416,1.314l1.299,1.588l0.839,1.4l0.721,1.676l0.507,1.775l0.376,3.581l0.289,1.503l0.057,1.632l-0.52,2.238l0.52,0.736
	l0.016,0.981l-0.534,2.383l-0.059,0.549l0.059,1.775l-0.246,0.693l-1.112,1.098l-0.316,0.593l0.217,2.671l1.098,2.254l1.979,3.075
	l1.111-0.404l4.245-0.821h0.692l0.593,0.303l0.767,0.679l-0.072,0.26l-0.693,1.127l1.012,0.882l0.115-0.017l0.188,0.044l1.27,1.155
	l0.045,0.433l-0.317,1.069l0.015,0.404l0.548,0.779l0.506,0.593l0.65,0.375l0.925,0.145l0.548,0.245l0.016-0.015l0.808-0.881
	l0.896-1.256l0.766-0.693l2.786-1.833l0.693-0.638l2.527-2.9l0.316-0.91l0.246-1.401l0.649-7.407l0.158-0.55l0.202-0.489
	l0.605-0.768l1.72-1.659l0.217-0.36l0.071-0.419l-0.375-0.448l-0.391-0.346l-1.285-0.823l-3.19-3.554l-1.126-1.011l-1.214-1.459
	l-0.491-0.766l-1.314-2.688l-0.07-0.605l0.057-0.722l0.607-1.185l0.52-0.578l0.549-0.347l1.562-0.331l2.541,0.044l1.055-0.247
	l0.447-0.202l0.391-0.272l0.331-0.348l0.736-0.549l0.447-0.146l0.39-0.23l0.68-0.635l0.361-0.246l0.272-0.274l0.219-0.49
	l-0.262-4.925l-0.606-0.723l-3.623-0.245l-0.867-0.577l-0.953-0.462l-0.578-5.155l-0.245-30.108l-0.259-29.519l-3.854-9.111
	l-18.847-31.539l-2.918-4.723L718.716,577.3L718.557,576.636" title="Ahal"></path>
	<path id="TM-BA" class="land" d="M77.324,432.795l-0.289-0.925l-0.043-0.548l0.332-1.299l-1.834-8.521l-0.982-8.693l-1.083-8.347l0.39-4.217
	l2.369-1.704v-0.491l-0.116-0.332l-0.39-0.664l-1.95,0.332l-1.415,1.415l-0.838,2.05l-0.289,2.297l0.174,2.41l0.75,4.824
	l0.188,2.787l-0.13,2.758l0.144,1.068l0.534,1.574l1.314,2.802l2.354,8.954l0.217,2.469L77.324,432.795L77.324,432.795z
	 M109.932,345.789l-0.448-0.505l-0.52-0.737l-0.968,0.491l-0.923,0.881l-0.463,1.17l0.448,1.4l0.563,1.313l0.91,3.336l0.434,0.81
	h1.169l1.271-0.78l1.01-1.228l0.434-1.257l-1.662-2.556l-0.159-0.578l-0.346-2.296l-0.361,0.606L109.932,345.789z M62.306,190.491
	l1.17,7.451l-0.65,3.711l-3.076,8.13l-1.907,8.058l0.26,0.563l0.289,0.996l0.13,1.14l-0.173,1.026l-0.535-0.101l-1.329,0.52
	l-1.039,0.65l0.39,0.332l0.029,0.361l-0.636,1.979l-0.173,0.982l0.448,0.707l2.108,0.52l0.736,0.622l-0.419,3.87l-2.483,4.65
	l-4.867,6.83l-1.805,3.524l-1.112,3.538l-2.801,18.34l-0.245,4.101l1.516,4.087l1.719,1.704l0.375,1.054l-1.011,0.939l2.195,2.989
	l0.823,1.993l-0.505,1.907l-0.664,1.574l-0.621,2.556l-0.622,4.592l1.199,2.295l2.802,2.932l7.813,6.297l0.708,1.126l0.462,4.101
	l0.548,2.21l0.968,1.719l2.874,1.256l1.112,1.429l2.325,5.574l1.068,1.459l2.6,2.57l0.548-0.665l-2.224-2.859l-1.097-0.794
	l3.87,2.151v-0.707l-0.809-0.578l-2.527-2.384L67,317.742l-0.838-0.664l-2.311-3.105l-0.477-0.88l-0.535-6.008l-0.289-1.256
	l-1.372-2.166l-0.591-1.416l0.014-1.112l1.43-1.356l1.126,1.111l1.314,3.135l2.527,0.766l3.061-0.39l5.618-1.834l-0.751,0.578
	l-0.592,0.62l-0.477,0.736l-0.462,0.967l5.849-0.722l1.199-0.665l1.198-1.198l1.386-0.549l5.3,4.216l0.895,0.435l0.693,0.23
	l1.444,0.981l0.636,0.23l0.592-0.23l1.271-0.981l0.376-0.23l1.343-0.535l3.408-3.885l1.329-0.823l1.372-0.391l1.415,0.029
	l1.43,0.404l1.199,0.765l1.863,1.719l1.372,0.477l3.003-0.231l1.199,0.274l1.401,1.4l0.274-0.304l0.173-0.086l0.216-0.086
	l0.433-0.246l-0.592,1.95l-1.169,1.401l-1.257,1.213l-0.896,1.285l0.376,0.202l0.505,0.736v0.794l-1.155,0.376l-1.631,0.13
	l-0.722,0.231l-0.708,0.419l0.26,0.462l0.448,1.098l0.448,0.534l-2.585,2.845l-4.246,5.979l-2.687,1.357v0.706l0.924,0.535
	l0.997,0.174l1.011-0.159l0.953-0.55l-1.387,8.103l0.318,3.769l2.772,1.877l-0.145-1.731l-1.516-2.008l-0.043-2.007l0.476,0.36
	l1.285,0.693l0.506,0.39l-0.823-2.339l-0.29-0.622l2.181,0.506l2.108,2.094l2.961,4.664h0.506v-1.486l-0.506-3.596l0.982,0.592
	l0.88,1.083l0.649,1.256l0.26,1.083l0.043,2.08l0.275,0.649l3.898-0.434l1.098,0.231l1.083,1.097l0.736,1.588l-0.072,1.141
	l-0.766,0.751l-1.3,0.448l1.459,1.299l3.422,0.823l1.805,0.75l0.881,0.665l0.866,0.953l0.246,1.069l-0.939,0.968l-0.693-0.073
	l-1.877-1.068l-0.737-0.289l-1.646,0.521l-2.354,2.31l-1.56,0.043l-1.286-1.356l-1.083-1.689l-1.011-0.36l-1.039,2.686l0.852,0.202
	l0.491,0.476l0.26,0.767l0.058,1.067l-0.332,1.055l-0.765,0.015l-1.401-0.722l-3.365-0.202l-1.372-0.448l-1.126-0.838l-0.881-1.429
	l-0.708-1.632l-0.967-1.344l-1.632-0.563l-5.127-0.231l-8.881,1.791l-3.018-0.419l-0.462-2.643l1.718-1.819l0.231-0.332l0.737-3.062
	l0.346-0.866l2.325-3.292l1.256-1.126l1.705-0.938l-3.076-0.636l-2.773,3.004l-2.195,4.506l-2.961,8.202l-1.025,1.993l-1.631,1.343
	l-0.375,1.186l-0.275,1.342l-0.375,0.981l-2.339,2.225l-0.751,0.996l-0.765,2.037l0.274,1.818l3.394,5.213l0.52,1.271l1.993,14.859
	L83,388.707l0.779-1.242l0.202-2.571l-0.967-4.36l-0.145-1.747l0.216-1.704l0.535-1.357l1.473-2.339l-0.968-0.289l-2.917-1.862
	l1.646-0.881l3.928-1.184l1.632-0.087l0.881,0.289l1.228,0.953l0.938,0.188l0.981,0.044l0.693,0.159l0.217,0.405l-0.505,0.765v0.78
	l1.285-0.029l2.065-1.024l1.083-0.376l0.303,0.203l0.563,0.995l0.245,0.231l0.318-0.116l0.664-0.535l0.116-0.129l0.563,0.086
	l1.141-0.114l0.578,0.028l-0.722,2.195l-0.405,0.664l1.286-0.059l1.097-0.722l0.896-1.024l0.606-1.055h0.563l-0.058,2.007
	l0.736,0.072l1.531-1.299l3.523-0.231l0.924-0.548l0.592,0.78l1.329-1.878l0.982-0.521l0.246,0.854l-0.896,2.267l1.675-0.447
	l0.549-0.274l-0.332,1.444l-1.329,3.566l2.209-2.137l-1.574,5.95l-0.39,3.104l0.303,2.455l0.737-1.068l1.3-3.307l0.448-0.693
	l0.837,0.62l0.145,1.444l-0.274,1.689l-0.418,1.313l1.747,0.174l0.563,1.561l0.086,2.107l0.375,1.877l0.924,1.531l2.007,2.657
	l0.953,1.588l-0.794-11.495l-1.141-0.736l1.328-1.66l2.239-1.733l1.675-0.938l-1.819,4.766l0.014,2.209l2.412,0.245l-2.282,1.473
	l-0.477,0.665l-0.058,1.025l0.65,1.92l-0.867,2.831l0.549,1.949l1.184,1.573l1.3,0.708v-0.665l-0.636-0.952l-0.736-1.719
	l-0.245-1.646l0.794-0.737l0.505,1.04l1.603,4.91l0.693,1.573l0.881,0.881l0.39-0.23l0.39-0.621l0.852-0.347l0.751,0.086l1.964,0.55
	l3.162,0.115l0.91,0.708l0.924,2.036l0.13,1.126l0.26,0.996l0.376,0.853l0.39,0.649l0.26,0.145l1.011,0.332l0.39,0.246l0.145,0.261
	l0.332,0.924l0.014,0.174l2.831,1.023l1.083,1.069l0.13,2.18l0.794-0.272l-0.419,1.487l-0.967,2.063l-0.896,1.474l-0.736,1.719
	l-0.462,2.108l-0.635,1.877l-1.213,0.996l0.794,3.105l-1.386,3.74l-3.798,6.064l-1.256,3.438l-0.924,4.173l-0.736,8.375l0.101,2.282
	l1.228,6.312l0.173,2.107l0.216,1.012l0.347,0.953l0.736,1.443l0.116,0.822l0.419,7.598l-0.13,4.447l-0.938,3.233l0.318,2.815
	l-2.007,7.871l-0.823,5.023l-1.112,3.409l-0.26,1.704l1.444,29.518l2.903,13.705l0.375,4.506l0.477,1.992l1.516,4.058l0.795,4.072
	l1.141,12.81v0.028l0,0l22.152,1.936l1.603-0.086l1.473-0.62l1.502-1.46l1.502-1.011l1.776-0.072l1.863,0.244l1.791-0.014
	l2.902-0.953l13.733-7.984l1.834-0.289l4.939,1.083l1.791-0.029l1.228-0.563l1.993-2.167l1.603-0.637l1.011-0.967l3.854-2.542
	l2.065-1.732l0.375-0.735l0.246-1.561l1.112-2.57l0.246-1.458l0.101-2.47l-0.101-0.708l-0.361-0.679l-0.968-0.865l-0.274-0.564
	l-0.086-2.15l1.329-3.19l0.361-2.036l0.447-1.618l1.055-1.703l2.44-2.658l12.188-8.419l3.784-4.245l0.635-1.083l0.433-1.399
	l0.982-0.535l1.141-0.188l0.866-0.331l0.592-0.796l0.896-1.877l0.693-0.778l1.574-0.535l4.679-0.896l0.997-0.39l0.736-1.633
	l1.762-0.996l3.711-1.242l0.924-0.13l1.675-1.372l1.675-0.866l6.037-4.679l1.963-0.794l5.156-0.231l16.058-3.379h2.412l5.025,1.111
	l3.163,1.849l1.199,0.404l4.13,0.045l1.372,0.416l2.21,1.187l1.126,0.36l1.256,0.071l11.611-2.122l3.278,0.418l0.39,0.16
	l2.527,1.053l1.314,0.174l6.96-1.169l1.271-0.953l0.809-1.617l0.289-1.921l-0.39-1.79l-2.195-2.541l0.505-1.416l5.111-4.75
	l2.745-1.921l2.946-1.143l7.437-0.229l1.386,0.331l1.141,0.693l1.025,0.823l1.083,0.505l1.314-0.23l6.499-2.874l3.885-0.664
	l0.78,0.145l3.191,2.6l2.772,1.604l1.256,0.418l12.217,2.297l3.22,1.328l1.646,0.26l1.473-0.824l1.127-1.01l2.628-1.746l0.967-1.041
	l1.632-2.858l0.26-0.274l-0.029-0.028l-6.917-6.846l-7.827-5.343l-1.228-1.199l-1.704-2.671l-0.347-0.823l-0.981-3.423l-0.506-0.635
	l-0.635-0.23l-1.256,0.174l-2.354,0.938l-0.78,0.188l-0.794-0.043l-1.068-0.564l-1.069-0.418l-1.083-0.202l-1.603,0.159l-4.13,1.241
	l-0.953-0.042l-1.3-0.436l-4.592-2.224l-1.314-0.42l-0.837-0.086l-0.477,0.059l-0.448-0.044l-0.448-0.26l-0.433-0.36l-0.505-0.709
	l-0.29-0.722l-0.115-1.603l0.78-9.604l0.173-0.865l0.318-0.81l0.563-0.68l0.636-0.375l1.4-0.592l0.52-0.449l0.246-0.575l0.057-1.041
	l-0.303-2.181l0.145-0.853l0.361-1.054l2.282-3.886l0.347-0.735l0.216-0.853l0.116-1.474l0.375-2.542l24.737-80.926l0.577-1.199
	l0.521-0.448l1.964-1.141l5.17-1.936l0.924-0.679l0.621-0.665l0.448-0.78l-0.159-1.184l-6.831-26.095l-1.025-6.297l-0.231-0.823
	l-0.967-1.85l-0.29-0.837l-0.188-0.809l-0.014-0.924l0.173-0.751l0.506-0.838l4.332-3.25l9.733-5.054l-1.343-4.361l-0.39-0.635
	l-0.563-0.751l-2.354-1.329l-2.354-1.776l3.379-10.253l0.693-3.423l-3.625-9.617l-3.422-13.806l-1.083-3.162l-4.665-6.095
	l-2.426-2.108l-1.964-2.426l-0.563-1.069l-0.346-0.794l-0.982-3.654l-9.416-24.246l-0.303-0.419l-2.527-2.628l-2.469-3.885
	l-0.997-1.141l-0.592-0.433l-1.661-0.824l-0.621-0.462l-0.78-0.91l-0.289-0.692l-0.058-0.708l0.173-0.65l0.433-1.329l0.115-0.736
	l-0.015-0.867l-0.433-0.563l-0.303-0.231l-1.069-0.028l-0.707-0.173l-0.751-0.376l-0.809-0.751l-0.52-0.837l-0.664-1.458
	l-2.123-7.249l-2.18-5.892l-0.448-2.108l-0.217-4.26l-0.015-0.058l-16.795-0.924l-15.105-0.838l-13.17-0.707l-5.545-0.521
	l-2.729,0.217l-7.235,3.552l-7.553,1.097l-4.779,1.849l-10.239,0.592l-2.513-0.853l-2.282-1.299l-1.675-1.286l-1.372-1.848
	l-2.282-5.473l-0.982-1.849l-1.271-1.458l-5.083-3.51l-2.845-2.512l-2.499-3.047l-5.155-9.17l-5.257-9.416l-3.682-4.981
	l-8.448-11.481l-0.837-1.964l-0.433-2.195l0.116-2.34l0.332-1.906l0.029-1.834l-0.809-2.137l-1.936-2.513l-13.69-12.665
	l-9.632-6.455l-8.17-5.474l-13.676-9.17l-12.593-8.462l-5.906-2.152l-6.123-0.852l-19.438,3.553l-12.434,2.253l-14.282,2.614
	l-5.373,1.155l-17.906,7.134l-4.593,2.758l-12.693,4.521L49.944,87.642v0.015l-0.029,0.014l-10.788,10.83l-12.391,12.405
	l-3.335,3.422l0,0l1.025,1.531l1.978,0.577l0.722,0.347l1.243,1.545l1.271,0.563l0.433,0.52l0.78,1.184l0.577,0.361l1.329-0.188
	l0.592,0.202l0.563,0.665l0.433,0.852l0.664,2.181l0.188,0.188l0.39,0.274l0.39,0.404l0.23,0.621l-0.014,0.693l-0.505,1.141
	l-0.116,0.766l0.086,2.382l-0.072,1.242l-0.303,0.881l-1.675,3.076l-0.26,0.26l0.159,2.643l1.068,1.17l1.502,0.664l1.444,1.098
	l2.801,3.711l0.795,0.52l2.137,0.332l0.923,0.621l1.343,1.329l0.448,0.635l0.159,0.996l0.116,1.43l0.346,1.054l0.693,0.649
	l1.083,0.231l1.271,0.925l1.313,4.116l1.011,0.924l0.129,1.055l1.805,6.325l0.029,1.083l-0.217,2.05l0.188,1.285l0.26,0.419
	l1.025,1.228l0.376,0.563l0.823,2.021l0.578,2.065l0.289,2.253l-0.015,2.498l-0.635,3.292l0.13,1.184l0.462,0.78l1.3,1.126
	l0.448,1.025h0.548" title="Balkan"></path>
</svg>