<?xml version="1.0" encoding="utf-8"?>
<svg version="1.1" xmlns="http://www.w3.org/2000/svg" xmlns:xlink="http://www.w3.org/1999/xlink" viewBox="0 0 1200 800">
	<path id="TJ-SU" title="Sarvan (Sughd Province, Tajikistan)" class="land" d="M989.525,445.952l-2.099-2.458l-1.666-0.723l0.376-0.515l-1.015,0.764l-0.374,0.668l0.263,0.931l1.403,0.042
		l1.695,1.25l4.416,5.986l0.278-0.486l-0.89-2.194l-1.069-1.361L989.525,445.952z"/>
	<path id="UZ-AN" title="Andijon" class="land" d="M1091.804,486.022l-0.151-5.013l-0.432-1.167l-5.569-1.776l-3.125-0.626l-0.333,0.236h-0.458l-12.849-2.182
		l-3.109-4.805l-0.862-0.902l-4.194-2.168l-5.779-0.831l-0.276,2.013l-4.209-6.223l0,0l2.638-1.681l-3.055-3.709l2.819-2.639
		l1.653-1.111l11.93-3.041l5.113,0.043l0.791,0.36l1.014,0.778l4.626,1.027l2.027,0.209l6.777-0.611l0.737-0.374l0.555-0.626
		l1.749-8.154l0,0l0.333,0.21l0.932-0.015l3.958-1.875l1.056-0.249l1.694-1.279l1.569-1.722l0.96-0.097l0.207,0.249l1.834,0.486
		l1.347,0.943l1.238,0.07l1.098,0.555l1.193-0.124l1.084,0.235l0.916,0.443l0.362,1.626l-0.139,0.902l-1.139,2.11l0.014,0.306
		l0.25,0.307l0.209-0.028l0.638-1.001l0.32-0.068l0.334-0.042l0.653,0.334l0.582,0.541l1.833,3.139l0.806,0.959l0.278,2.777
		l1.069,0.764l1.666,0.487l1.848,0.901l2.181,0.806l0.764-0.278l2.529,0.402l1.307-0.555l1.277-0.265l0.943,0.292l3.07-0.778l1,0.027
		l1.14,0.626l2.11,2.318l0.529,1.459l0.236,0.209l0.916,0.223l0.707-0.057l0.902-0.347l0.265-0.417l0.889-0.458l0.556-0.668
		l0.806-0.026l0.484-0.291l-0.206-0.75l-0.806-0.557l-0.487-0.68l0.598-1.973l0.319-0.318l0.597,0.014l1.403,2.027l1.248,0.278
		l1.57,1.056l1.319-0.722l2.082,0.096l0.599,0.527l0.318,1.349l-0.596,2.417l-0.599,0.847l-0.624,0.432l-4,1.681l-2.306,0.332
		l-0.874,1.209l-1.611,1.11l-1.945,1.083l-1.126,0.236l-0.07,0.321l-1.207,0.278l-1.861,1.026l-1.389,1.334l-2.14,0.694l-1.57-0.207
		l-1.097,0.15l-0.43,0.501l-0.068,0.444l0.194,0.61l0.527,0.639l0.042,0.474l-1.029,0.847l-0.138,0.584l0.25,3.805l-0.098,1.486
		l-0.901,0.292l-0.724-0.416l-1.333-1.362l-2.083-0.472l-0.442,0.515l-0.071,1.055l-1.206,0.874l-0.195,0.334l-0.291,1.943
		l-0.807,1.487l-0.931,0.223l-0.583-0.057l-1.93-1.556l-2.043-0.098l-0.958-0.527l-1.265-1.208l-0.708-0.249l-0.945,0.402
		l-0.29-0.056l-1.902-2.319l-0.765-1.389l-1.931-1.626l-0.555-0.264l-1.36,0.598l-1.528,0.014l-0.554,0.75l0.207,0.39l1.556,0.527
		l0.445,0.431l0.638,1.431l1.459,0.444l0.569,0.778l-0.057,0.764l-0.485,0.556l-1.431,0.138l-0.375,0.265l-0.237,0.707l0.195,0.626
		l1.501-0.153l0.36,0.515l0.319,2.042l0.682,0.736l0.333,1.042l-1.584,3.709l0.389,1.151l-0.096,0.891l-0.237,0.222l-0.416,0.084
		l-2.056-0.527l-0.626-0.376l-2.152-2.222l-0.903-0.639l-0.402-0.139l-1.11,0.416l-0.445-0.291l-0.694-0.986l-0.403-0.291
		l-1.248,0.015l-0.375-0.152l-0.25-0.557l0.458-1.569l-0.083-0.347l-0.624-0.374L1091.804,486.022z"/>
	<path id="UZ-BU" title="Buxoro" class="land" d="M634.751,573.47l-5.236,4.985l-4.652,3.084l-0.793,0.151l-6.11,6.542l-0.486,1.432l0.21,1.195l0.986,1.667
		l1.153,1.222l1.139,1.625l0.318,0.707l-0.389,0.849l-25.168,9.222l-7.792,8.652l0,0l-2.958-3.195l-0.568-0.04l-1.639,0.416
		l-2.917,1.681l-1.388,0.361l-1.458,0.028l-1.917-0.25l-1.181-0.584l-4.097-3.374l-3.986-2.778l-9.432-7.249l-2.527-1.627l-6.5-4.776
		l-1.82-1.792l-1.597-1.93l-0.401-0.876l-0.569-0.514l-1.084-1.709l-4.958-4.805l-2.806-2.988l-5.514-3.901l-6.083-3.64l-6.181-4.375
		l-5.889-3.86l-14.25-10.139l-9.667-6.627l-19.902-14.625l-1.64-1.527l-1.264-1.792l-0.222-0.736l-0.279-1.249l0.083-0.765
		l-0.402-0.972l-0.181-2.431l-1.958-2.876l0.028-0.902l0.958-1.652l0.111-3.652l-0.527-1.404l-0.194-1.708l-0.82-2.833l-0.083-1.583
		l-0.319-1.07l0.056-0.833l0.5-1.264l-0.042-1.402l-1.041-1.861l-1.61-1.459l-1-1.471l-0.084-0.708l0.695-2.139l0.403-2.043
		l-0.056-0.431l-1.833-0.724l-1.833-1.165l-1.833-2.014l-1.765-0.792l-1.833-1.208l-0.555-0.777l0,0l8.722-10.569l6.375-7.125
		l1.098-5.278l0.042-2.139l-0.945-1.598l-8.208-9.278l-4.501-4.625l0,0l15.195-7.027l-19.139-26.641l0,0l0.779-0.389l5.097-1.278
		l18.82-4.458l1.458-0.111l4.639,9.306l1.931,2.861l2.986,3.222l3.319,2.154l4.917,2.639l2.181,2.195l2.889,6.042l1.944,7.153
		l0.791,1.929l1.222-0.124l0.625-0.515l2.833-0.068l4.389,1.264l7.471,3.209l11.779,6.388l13.653,7.917l2.943,2.32l0.778,1.458
		l0.473,2.069l-0.666,3.098l4.722-0.125l3.667-0.319l0.764-0.264l7.473-16.933l1.444-1.513l3.041-1.626l1.222,0.21l2.32,2.681
		l0.139,10.57l22.485,2.624l0.265-0.681l1.139-6.237l0.792-0.262l6.972-0.807l5.265-0.085l3.152-0.526l1.568-3.723l1.001-2.916
		l0.625-0.265l1.349,0.307l1.096,3.931l2.974,14.055l1.583,1.528l1.112,0.584l1.43,0.472l11.987,1.653l8.235,0.874l11.069,1.585
		l-1.945,12.861l-5.54,3.902l-0.236,1.43l-2.014,5.736l-4.653,5.752l-0.89,0.846l-1.306,0.527l-5.348-0.318l-4.027-0.75l-2.793-1.375
		l-1.139-1.098l-2.776-1.805l-2.862-0.168l-1.541,0.668l-0.5,0.861l0.5,4.609l-0.627,6.056l-1.79,7.932l-3.514,6.638l-2.959,3.431
		l-6.112,3.708l-1.235,0.459l-1.972,3.777l5.93,8.041l1.654,1.599l9.804,3.708l1.501,0.083l4.445-1.083l6.819,5.125l6.097,13.042
		l0.5,1.598L634.751,573.47z"/>
	<path id="UZ-FA" title="Fargona" class="land" d="M985.469,501.231l0.139-0.916l-0.32-0.764l-1.027-0.918l-4.042-1.817l-2.264-0.459l-1.391-0.556h-0.444
		l-1.248,0.597l-0.598-0.041l-0.638-0.291l-0.458-0.515l-0.641-1.542l-0.401-0.431l-0.39-0.14l-0.209-1.026l-1.266-2.46l-0.082-0.848
		l0.181-0.276l1.124-0.307l1.39-1.125l1.653-0.305l1.529-0.793l2.847-1h1.11l0.653-0.569l0.166-1.126l0.612-0.61l0.193-1.235
		l0.264-0.556l0.557-0.306l0.818-0.11l1.07,0.096l0.667-0.499l1.001-0.028l0.596-0.223l1.209-1.541l1.54-3.083l0.501-0.529
		l0.904-0.25l0.943-1.012l0.707-0.237l0.209-0.388l0.57-0.111l0.569-0.695l1.348-0.305l0.553,0.388l0.445,0.042l0.069-0.916
		l-0.249-1.375l0.431-0.32l0.389,0.347l0.917-0.056l0.612-0.806l0.416-1.388l0.806-0.738l0.083-0.36l0,0l0.473-0.125l0.361-0.361
		l6.764-1.736l4.682-0.849l9.388-0.138v0.305l-0.514,0.723l-1.89,2.305l1.152,2.736l2.598,2.583l7.765,3.793l0.556,0.112l1.042-0.586
		l4.193-3.957l1.056-1.375l1.027-2.014l1.724-1.112l5.707-3.096l4.778-1.433l0,0l4.209,6.224l0.277-2.015l5.778,0.833l4.195,2.167
		l0.86,0.902l3.111,4.805l12.848,2.183h0.458l0.334-0.237l3.125,0.626l5.568,1.776l0.433,1.167l0.151,5.014l0,0l-0.68,0.056
		l-1.486-0.361l-0.541,0.112l-0.709,1.916l-0.416,0.694l-0.875,0.833l-0.639,0.333l-0.515,0.097l-0.82-0.277l-1.234-0.819
		l-0.64,1.443l0.624,2.376l-0.194,0.473l-0.888,0.985l-0.098,0.792l-0.402,0.555l-1.903,0.569l-1.444,1.86l-0.706,0.527l-1.111,1.571
		l-1.654,0.722l-1.292,1.195l-0.166,0.36l0.291,0.694l1.359,0.32l1.361,1.236l-0.098,0.681l-1.54,1.43l-0.64,1.501l-0.401,0.444
		l-0.917,0.458l-0.861-0.027l-1.764-1.278l-2.806-0.652l-0.668,0.541l-0.181,0.668l0.07,0.375l1.027,1.569l0.028,0.735l-1.042,0.695
		l-0.75-0.042l-3.459,2.209l-1.834,0.584l-1.277,0.916l-0.486,0.084l-0.346-0.194l-0.64-1.182l-0.596-0.707l-0.334-0.098
		l-0.501-0.554l-0.207-0.501l0.235-2.64l-0.264-1.125l-0.944-1.264l-0.723-0.5l-1.068-0.11l-1.71,0.165l-0.151,1.168l0.332,1.985
		l-0.291,1.32l0.11,0.777l-0.166,0.278l-0.402-0.042l-1.126-1.334h-1.391l-0.763,0.265l-1.278-0.806l-2.459-1.098l-0.305-0.749
		l0.265-1.875l-0.334-0.723l-1.806-0.043l-2.14-0.554l-0.875-0.694l-1.514-1.709l-0.57-0.374l-0.68-0.21l-0.693,0.306l-0.861,0.084
		l-0.222-0.432l0.124-0.54l-0.445-0.349l-2.122,0.889l-1.042,0.139l-0.376-0.139l-0.209-0.374l-0.026-1.389l-2.14,0.153l-1.402-0.475
		l-1.39-0.124l-1.153,0.153l-1.916,0.638l-1.361-0.027l-0.848,0.293l-3.557,2.471l-2.707,0.485l-2.875,1.25l-0.627,0.402
		l-0.193,0.376l0.431,1.277l-0.152,1.348l-3.307,0.097l-2.707,0.485l-0.376-0.124l-2.361,1.749l-3.43,1.528l-2.194,0.459
		l-1.943,0.165l-4.35,0.959l-1.152-0.472l-1.639-2.973l-0.443-1.223l-1-0.541l-0.738-1.307l0.182-0.151l0.097-1.778l0.515-1.376
		l-0.764-2.431L985.469,501.231z"/>
	<path id="UZ-JI" title="Jizzax" class="land" d="M856.104,561.429l-0.668,0.347l-0.291,2.139l-0.443,1.418l-1.139,1.013l-1.501-0.528l-1.597,0.361l-4.111-0.652
		l-2.583,1.125l-0.542-0.165l-1.098-1.058l-0.706-0.331l-1.974-0.444l-2.459-0.292l-1.749,0.194l-1.292,0.361l-1.026-0.181
		l-1.416-0.819l-1.029,0.139l-3.098-0.222l-1.348-0.668l-1.027-0.263l-1.513,0.125l-0.834-0.21l-1.527-1.18l-1.265-0.514
		l-1.902-0.111l-1.278,0.138l-2.598-1.166l-1.332-1.222l-1.918-0.111l-3.375-2.291l-0.974,0.541l-1.681,0.445l-2.681-1.153
		l-0.555-0.016l-1.222,1.418l-1.514,0.526l-0.889,0.626l-1.307,2.125l-0.806,0.222l-1.985,0.042l-5.528,2.069l-0.169,0.944
		l0.279,2.236l-0.568,0.707l-3.085-0.764l-0.638,0.154l-0.485,1.11l-0.027,1.818l0.444,0.708l0,0l-6.292-5.306l-1.433-1.457
		l-0.901-1.335l-0.291-1.317l-0.028-5.778l0.14-0.515l4.473-7.279l1.055-1.264l0.959-0.749l2.999-1.431l2.14-0.527l1.807-0.209
		l-0.112-1.418l-1.486-8.277l-0.292-0.332l-16.485-3.515l-6.681-0.555l-2.944-1.111l-8.098-5.458l-0.485-5.152l0.138-0.487
		l1.723-0.401l0.333-0.222l0.626-1.862l0.096-1.125l-1.999-3.901l-2.584-2.308l-1.165-5.695l-0.14-5.457l0.195-1.069l1.152-2.541
		l-0.015-1.528l-1.333-3.028l-6.402-0.139l-10.82-1.279l0,0l1.014-2.486l6.154-11.93l4.333-7.39l0.388-1.028l-2.181-9.528
		l-0.318-0.736l-0.348-0.319l-5.932-1.459l-1.318-0.806l-1.001-1.764l-1.569-14.778l9.318-0.306l0.403-4.069l0.307,0.057l0.722-6.611
		l0,0l24.167,1.818l6.443,0.722l3.778,0.016l1.182,0.777l1.208,0.182l1.736-0.57l1.764-0.277l21.404,0.652l1.959,1.791l1.208,0.32
		l2.846,3.457l4.61,4.277l2.044-1.805l1.165,1.652l4.236-2.75l1.916,1.793l0.82-0.362l1.097,0.653l-3.431,0.735l-1.958,2.057
		l1.932,4.792l-2.057,2.042l0.111,7.25l-5.653,0.208l-1.014,3.166l2,2.778l3.39,0.945l8.013,4.721l4.988,5.598l5.264,1.861
		l0.61,0.526l0,0l-0.237,3.945l-0.472,0.848l-2.583-0.138l-2.917,0.75l-0.667,6.791l0.221,0.375l2.931-1.417l0.459-0.139l0.223,0.277
		l-0.21,1.07l-1.068,2.777l-6.875,15.334l-0.278,2.111l0.209,1.332l0.472,1.251l0.917,1.348l0.444,0.068l9.097,0.432l6.348-0.236
		l5.583-1.14l3.168-1.096l9.902-2.277l0.432,0.943l-1.402,8.903l0,0l-2.154,0.39l-0.125,0.193l-4.014,1.168l-0.333,0.833l1.196,1.111
		l3.639,2.139l1.707-0.042l2.987-0.626l1.818-0.777l3.986-1.127l1.709-0.764l4.764-1.235l2.333-0.292l4.374-0.153l1.168,0.903
		l0.568,1.776l0.626,3.307l-0.445,0.916l-1.041,0.084l-2.125-0.5l-1.249-0.014l-1.043,0.042l-2.111,0.484l-1.624,1.222l-0.292,1.445
		l-0.21,0.167l-0.638-0.361l-0.416-1.791l-1.014-1.529l-0.902-0.138l-0.806,0.278l-0.334,0.389l-0.04,0.735l0.485,0.792l1.306,1.307
		l0.069,0.874l-0.569,1.875l0.042,0.417l2.083,1.944l3.624,4.501l0.75,1.527l0.055,1.041l-0.277,0.96l-0.986,0.999l-1.124,0.139
		l-0.861-0.43l-0.833-1.308l-0.097-2.471l-1.875-4.459l-1.002-1.223l-0.553-0.096l-0.654,0.306l-0.166,0.555l0.111,1.527l1.442,2.751
		l1.127,2.667l0.042,0.957l-0.501,1.111l-0.501,0.375l-1.277,0.292l-0.416,0.542l-0.374,1.986l-0.334,0.305l-0.639,0.152
		l-0.779-0.585l-0.43-1.763l-1.084-1.235l-0.639-0.183l-2.042,1.709l-0.707-0.416l-1.667-0.208l-0.125,1.597l0.416,2.319
		l-0.445,1.819l-0.68,1.181l-0.347,1.278l-0.417,0.777l-0.889,0.375l-0.874,0.057l-0.585,0.707l0.374,0.89l2.611,3.723l-0.373,2.39
		l-3.293,3.721L856.104,561.429z"/>
	<path id="UZ-NG" title="Namangan" class="land" d="M1090.388,431.494l-0.693-1.166l-0.64-0.404l-0.625-0.097l-0.626,0.334l-1.459-0.485l-1.054-0.042l-2.612,1.891
	l-0.485,0.109l-0.944-0.417l-2.417-1.555l-1.583-0.431l-1.694-0.195l-1.611,1.098l-0.639-0.307l-0.779-0.068l-2.249-0.9l-0.443-0.57
	l0.026-1.222l-0.777-0.085l-0.514-0.278l-0.099-0.291l0.892-2.776l1.276-2.235l1.082-1.11l0.654-1.14l0.778-1.876l-0.069-0.348
	l-1.5-0.806l-1.181-1.43l-0.391-0.903l0.181-1.805l-0.193-0.517l-0.527-0.39l-0.568,0.334l-0.474,0.777l-1.126,0.235l-0.347-0.235
	l-0.083-0.265l0.36-1.806l-0.86-1.473l-1.945-1.874l-1.458-3.07l-0.515-0.139l-0.193,0.168l-0.153,2.347l-0.235,0.362l-0.432,0.097
	l-0.29-0.569l-0.141-0.943l-0.431-0.375l-0.527-0.041l-0.874,0.624l-0.168,0.557l0.57,0.916l-0.084,0.778l-0.375,0.291l-0.584-0.361
	l-0.568-0.986l-0.14-0.638l0.125-0.598l1.167-1.528l0.64-1.152l0.096-0.651l-0.332-1.959l0.181-0.416l-0.082-1.029l0.595-1.249
	l-0.486-0.847l-1.582-0.07l-0.502,0.138l-1.067,1l-1.056,1.89l-0.61,0.693l-1.75,0.599l-0.333,0.484l0.068,0.584l0.443,0.333
	l1.583,0.153l0.793,0.318l0.694,1.084l0.179,0.943l-0.471,1.695l-0.612,1.126l-0.054,0.569l1.109,1.708l-0.402,0.916l-0.916,1
	l-0.502,0.974l-0.374,1.36l-0.306,0.014l-0.501-0.347l-0.359,0.347l-0.445,1.001l-0.832,0.68l-0.236,0.807l-0.236,0.057
	l-0.349,1.318l-0.526,0.443l-0.832-0.222l-0.849-0.959l-0.555-0.305l-1.223-0.028l-0.584,0.486l-0.931,0.193l-1.14-0.708
	l-0.444,0.098l-1.999,2.39l-0.071,0.568l0.349,1.068l-0.361,1.182v0.736l0.248,0.514l1.195,0.516l0.416,1l-1.234,2.778l-0.444,2.763
	l-0.984,2.236l-0.043,0.514l-1.43,1.556l-0.737,0.057l-0.361-0.235l-0.21-0.402l-0.319-2.459l-0.318-0.681l-1.098-1.153
	l-0.541-0.264l-0.75,0.015l-0.707,0.416l-0.487,0.57l-0.318,1.958l-0.557,1.055l-1.111,1.043l-0.706,0.167l-0.528-0.151
	l-0.194-0.417l0.306-3.319l-0.36-1.986l-0.361-0.583l-1.32-0.876l-0.416-0.056l-0.859,0.402l-0.181,0.555l0.057,0.75l-0.433,0.321
	l-0.388-0.085l-0.599-1.472l-0.442-0.016l-0.487,0.417l-0.651,1l-0.667-0.027l-0.362,0.208l-1.152,1.224l-0.694,0.402l-0.556,0.041
	l-1.68-0.597l-0.568-0.515l-0.85-1.416l-1.109-0.265l-1.711-1.111l-0.818,0.042l-3.694,2.515l-0.776-0.279l-0.75-1.707l-1.278-1.194
	l-1.194-0.749l-0.806-1.182l-0.736-0.693l-0.375-0.058l-0.985,0.444l-0.652,0.944l-1.153,2.86l-0.416,0.61l-0.459,0.223
	l-1.194-0.485l-0.695-0.849l-0.305-1.25l0.041-1.514l1.026-1.319l0.252-0.831l-0.14-0.486l-0.86-1.265l-0.348-1.026l-0.097-2.486
	l0.584-1.279l0.348-1.609l-0.682-2.848l-3.541-5.668l-0.584-1.624l-0.264-0.223l-1.682-0.473l-0.432,0.042l-1.584,1.181
	l-1.707-0.084l-2.111,0.668l-1.36,1.166l-0.569,1.027l-2.334,1.93h-2.889l-0.693-0.749l0,0l-0.943,2.68l-4.126,5.71l0.931,10.141
	l2.654,3.64l0.917,1.86l0.332,3.235l0.041,2.432l-0.208,1.222l0.278,0.583l0,0l0.625-0.027l1.014,0.556l0.374,0.944l1.528,1.236
	l0.098,0.859l0.443,0.334l1.222,1.651l0.945,0.028l0.764,1.903l1.403,1.735l0.54,1.237l1.543,2.291l0.639,1.64l0.375,0.015
	l0.168,0.515l1.347,1.152l0.777,1.902l1.153,0.431l0.735,0.651l1.015,1.375l-0.667,0.528l-0.236-0.126l-0.402,0.25l0.111,0.444
	l-0.264,0.401l-0.517,0.14l-0.789-0.349l-0.652-1.681l-0.516,1.723l0.058,0.986l0.442,0.89l1.152-0.333l1.709,0.139l1.18,0.626
	l-0.391,0.249l1.251,0.055l0.597,0.322l1.391,1.179l0.306,0.681l0,0l0.474-0.124l0.36-0.36l6.765-1.737l4.694-0.848l9.376-0.141
	v0.308l-0.515,0.722l-1.89,2.307l1.152,2.734l2.612,2.571l7.748,3.792l0.558,0.11l1.053-0.585l4.196-3.957l1.056-1.389l1.041-2.015
	l1.709-1.098l5.707-3.098l4.779-1.431l0,0l2.64-1.682l-3.056-3.709l2.818-2.624l1.666-1.111l11.932-3.041l5.099,0.042l0.806,0.347
	l1.014,0.778l4.626,1.043l2.028,0.207l6.777-0.61l0.736-0.375l0.555-0.638l1.751-8.142l0,0l-0.583-0.36l-0.626-0.806l0.221-0.458
	l1.751-0.418l0.737-0.568l0.651-1.416l-0.626-1.141L1090.388,431.494z"/>
	<path id="UZ-NW" title="Navoiy" class="land" d="M741.893,422.938l-0.722,6.611l-0.307-0.057l-0.402,4.069l-9.318,0.306l1.568,14.778l1.002,1.764l1.317,0.806
		l5.933,1.459l0.347,0.318l0.319,0.737l2.181,9.528l-0.389,1.028l-4.333,7.39l-6.155,11.93l-1.013,2.486l0,0l-1.751-4.819
		l-2.581-3.694l-1.348-1.556l-0.806-0.373l-2.932,2.665l-3.263,1.792l-1.919,0.153l-2.54-0.348l-1.444-1.096l-1.431-2.155
		l-1.653-0.125l-1.542,0.265l-1.265,1.5l-2.986,6.5l-0.819,6.819l0.348,0.486l0.749,0.277l0.515,1l-0.236,3.153l-1.223,8.5
		l-1.194,1.861l-3.194,8.431l0.278,1.359l1.11,0.14l1.986-1.279l1.14,0.097l0.248,0.625l-0.193,1.557l-0.596,0.861l-4.848,4.568
		l-2.265,1.056l-12.376,2.68l-1.694-0.278l-7.474-3.193l-2.903-1.583l-0.637-1.445l-1.39-2.152l-7.611-2.876l-1.402-0.236
		l-0.723,0.39l-0.484,0.791l-0.224,0.972l0.07,1.348l-0.585,8.057l-2.54,7.695l-0.987,1.791l-0.722,0.417l-0.82,0.014l-3.958-1.223
		l-1.388-0.68l-12.016,4.055l-0.694,0.487l-0.111,0.514l0.459,1.069l2.056,2.126l1.348,1.125l1.306,2.013l1.875,7.25l-0.236,1.348
		l-0.707,2.027l-1.625,3.252l-0.056,0.874l0.235,1.125l1.124,2.515l2.945,5.277l0,0l-0.554,0.597l-0.736,0.291l-3.611,0.557
		l-1.931,0.514l-1.11,0.528l-1.625,1.125l0,0l0,0l0,0l-0.403-4.694l-0.499-1.597l-6.098-13.044l-6.819-5.124l-4.444,1.083
		l-1.501-0.083l-9.805-3.709l-1.654-1.598l-5.929-8.041l1.972-3.777l1.235-0.458l6.112-3.709l2.958-3.431l3.514-6.639l1.791-7.931
		l0.626-6.056l-0.499-4.61l0.499-0.86l1.542-0.668l2.861,0.168l2.777,1.805l1.139,1.098l2.793,1.375l4.027,0.749l5.347,0.319
		l1.307-0.527l0.89-0.846l4.653-5.751l2.013-5.736l0.236-1.43l5.541-3.904l1.944-12.86l-11.068-1.585l-8.236-0.875l-11.987-1.652
		l-1.43-0.472l-1.111-0.585l-1.584-1.527l-2.973-14.056l-1.097-3.931l-1.348-0.307l-0.625,0.265l-1.001,2.917l-1.568,3.723
		l-3.152,0.527l-5.265,0.084l-6.972,0.806l-0.796,0.264l-1.139,6.238l-0.265,0.679l-22.486-2.622l-0.138-10.57l-2.32-2.682
		l-1.222-0.209l-3.041,1.625l-1.445,1.513l-7.472,16.933l-0.765,0.264l-3.667,0.319l-4.722,0.125l0.667-3.097l-0.474-2.07
		l-0.778-1.458l-2.943-2.32l-13.653-7.917l-11.779-6.388l-7.471-3.209l-4.389-1.265l-2.834,0.069l-0.625,0.515l-1.222,0.124
		l-0.791-1.929l-1.943-7.153l-2.89-6.042l-2.181-2.195l-4.917-2.64l-3.319-2.152l-2.986-3.222l-1.931-2.862l-4.639-9.306
		l-1.458,0.111l-18.82,4.458l-5.098,1.278l-0.778,0.389l0,0l-29.057-39.82l17.848-9.861l-9.361-16.875l1.75-21.904l38.417-72.515
		l-21.444-5.805l-8.126-14.57l0,0l58.834-11.458l28.404-5.015l4.834,0.945l4.181,0.5l13.473,1.458l8.235,0.528l3.334,0.583
		l19.694,1.514l18.945,0.931l0.278-0.209l1.18-0.055l14.612-7.181l9.722-4.25l6.084-3.042l2.86-0.708l1.5-0.152l2.319,0.096
		l1.152,0.444l1.056,0.806l1.375,1.584l7.959,17.527l2.806,2.654l5.001,5.195l15.111,13.445l2.082,8.43l9.223,29.708l17.46-8.223
		l0.485,43.474l-0.069,10.015l-0.806-0.25l-3.361-1.708h-0.347l-0.139,9.167l-1.264,1.528l-0.417,23.112l0.096,2.987l33.53,4.055
		l4.832,55.141L741.893,422.938z"/>
	<path id="UZ-QA" title="Qashqadaryo" class="land" d="M634.751,573.47l1.625-1.126l1.11-0.527l1.931-0.514l3.612-0.556l0.735-0.292l0.554-0.597l0,0l0.96,0.223
		l24.376,0.735l2.069-0.249l1.818-0.764l1.985-1.486l0.265-0.375l0.057-0.458l5.986,1.222l4.582,5.292l3.848,6.459l0.126,2.07
		l0.305,0.291l1.001,0.347l4.278,1.082l2.123-0.054l3.07-1.919l4.542-2.318l10.485-2.597l0.875,0.221l1.626,1.043l2.291,2.001
		l2.276,1.596l0.96,0.458l0.415-0.014l5.058-2.166l1.139-1.332l1.526-2.473l1.153-1.319l1.126-0.39l1.653-0.084l11.902,2.127
		l0.875,0.93l0.681,1.832l-0.152,1.751l-0.64,2.361l0.084,0.806l0.459,0.668l1.291,0.736l2.624,0.208l5.39-0.334l1.14-0.291
		l0.582-0.667l0.154-0.484l-0.098-2.473l0.597-0.669l1.224-0.067l6.194,1.764l3.556,1.514l5.332,1.653l2.293,0.443l1.389-0.32l0,0
		l0.527,2.195l1.931,3.347l1.014,1.042l1.333,0.737l2.444,0.515l0.861,0.569l1.18,0.402l1.112,0.026l1.43-0.306l1.502,0.264
		l1.417,0.654l0.901,2.319l0.791,0.318l2.209,0.111l0.389,0.402l-0.014,0.793l-0.486,0.707l-0.292,3.473l0.612,1.749l0.18,2.847
		l0.542,0.778l0,0l-1.111,1.14l-1.359,0.806l-5.543,0.318l-1.195,0.362l-0.707,0.347l-0.931,0.792l-0.626,1.166l-0.084,0.556
		l0.751,4.361l1.415,2.916l0.528,0.641l0.209,0.722l0.181,5.832l-1.86,5.974l-0.75-0.25l-1.959-1.986l-1.39-0.442l-1.987-0.098
		l-1.582,0.458l-0.626,0.472l-0.82,0.89l-1.124,1.807l-1.655,3.083l-12.347,12.333l-1,4.652l-0.222,2.112l-0.515,1.945l-0.626,1.206
		l-3.36,3.377l-2.541,1.775l-4.917,2.571l-16.084,16.806l-0.597,1.736l-1.444,5.932l0.374,1.249l0,0l-3.319-3.876l-1.458-0.931
		l-2.057-0.846l-4.424-0.489l-3.651,1.14l-0.794,0.082l-1.749-0.458l-1.709-1.485l-3.875-2.278l-2.542-2.874l-1.791-3.237
		l-0.653-0.415l-2.639-0.153l-4.861-1.432l-0.875-0.554l-0.694-1.349l-1.625-0.555L695.322,675l-1.056-1.111l-0.653-0.236
		l-1.901,0.097l-1.153-0.374l-1.252-0.834l-2.651-2.723l-1.249-0.332l-1.488,0.014l-1.347,0.374l-1.015,1.945l-0.777-0.098
		l-0.193,0.139l-0.222,0.891l-0.515,0.235h-0.738l-6.498-1.333l-13.793-5.444l-2.708-1.556l-8.903-5.736l-2.568-2.069l-3.751-3.501
		l-10.57-10.556l-0.806-0.54l-3.791-1.737l-4.862-1.848l-4.084-1.902l-2.403-1.75l-0.847-0.917l-12.471-7.708l-3.779-2.641
		l-7.696-7.124l-1.652-1.819l0,0l7.792-8.653l25.168-9.221l0.388-0.849l-0.318-0.707l-1.139-1.625l-1.153-1.222l-0.986-1.667
		l-0.21-1.195l0.486-1.432l6.111-6.542l0.792-0.152l4.652-3.083L634.751,573.47z"/>
	<path id="UZ-QR" title="Qoraqalpogiston Respublikasi" class="land" d="M268.312,73.971l0.486,10.722l-2.791,8.111l-4.473,7.556l-3.916,8.389l-1.403,5.875h-3.071l-2.513,0.277
		l-1.959,1.959l-0.833,3.639l1.125,6.431l1.68,3.64l1.125,3.916l-3.361,1.125l-4.194-2.235l-3.361,1.958l-2.515,5.596l-3.361,5.875
		l-3.07,3.362l-4.194-2.515l-0.557-5.597l-0.277-8.667l-1.68-2.237v-4.792h2.236l1.68,3.916l2.515,1.403l3.916-1.403l1.958-4.194
		v-5.596l1.403-4.473l-4.208-2.514l-4.473-3.639l-0.833-3.362l2.514-2.791l2.514-0.555l2.792,1.402l0.277-11.458l3.917-0.556
		l-0.278-4.471l-3.361-0.833l-5.306-0.834l-1.958,1.402l-2.236,2.792l-3.07,1.402l1.958-3.07l3.917-7.265l2.514-3.639l-1.403-4.194
		l-2.791-3.917l0.833-5.305l1.404-4.751l4.722-8.93l0,0L268.312,73.971z M215.088,41.471l-0.25,4.931l-2.237,4.472l-0.278,6.708
		l-5.307,4.75l-2.791,4.472l-0.278,8.112l-3.638,3.639l-1.681,7.834l-4.195,6.708l-2.791,7.542l-0.555,6.43l0.276,8.39l1.681,3.916
		l2.792,5.028l-0.556,3.639l-4.195,11.736l0.555,7.265l3.07,7.264l3.07,3.639l4.195,1.959l5.598,2.235l4.195,0.278l3.638,2.792
		l2.792,0.833l1.402-2.792l2.237-0.555l3.361,0.277l2.515-1.125l6.986-2.236l3.639-1.681l2.235,1.403l1.126,5.027l-2.515,3.07
		l-3.93,2.541l1.403,5.028l3.069,1.403l2.515,2.513l7.263,1.125l3.638,3.07l4.195,0.554l8.389,0.834l6.153,0.277l5.028-3.069
		l3.361,1.958l1.68,1.404l5.306-1.126l2.792-0.833l5.027,1.68l6.987-1.401l6.708-2.237l9.792-3.916l0.833-3.639h4.75l1.68-2.515
		l-1.388-2.5l2.236-4.75l8.667-6.987l6.43-6.432l3.917-6.986l1.125-5.306l-1.403-1.958l-2.236-1.959l-1.403-2.792l5.389-0.487l0,0
		l30.112,21.737l3.069,9.792l8.431,8.514l8.875,10.709l0.402,0.889l0.89,0.821l3.515,4.179l7.916,9.737l23.375,29.029l2.264,2.167
		l0.765,0.068l0,0l8.125,14.584l21.431,5.806l-38.417,72.502l-1.75,21.903l9.361,16.876l-17.848,9.861l29.056,39.82l0,0l19.154,26.64
		l-15.196,7.028l0,0l-3.542,1.681l-0.903-0.265l-0.375-0.306l-6.334-10.291l-2.083-3.848l-11.111-12.236l-4.278-2.654l-4.889-2.583
		l-12.431-2.86l-4.222-0.028l-0.86,0.278l-1.931,1.069l-1.082,1.237l-1.625,3.193l-0.708,2.598l-1,1.068h-2.069l-3.125-2l-0.348-1.61
		l-0.514-1.208l-2.805-3.152l-0.987-0.848l-1.028-0.402l-3-0.5l-1.958-0.806l-8.279-6.306l-11.431-10.153l-2.181-2.083l-4.653-5.416
		l-7.18-6.708l-0.958-0.431l-0.931-0.903l-0.514-0.638l-4.278-7.486l-0.57-3.417l-0.055-3.653l-0.237-0.806l-0.542-0.666
		l-7.333-1.556l-5.917,1.93l-2.639,1.167l-3.708,7.264l0,0l-0.305-0.736l-0.695-0.833l-0.764-0.542l-3.361-1.153l-1.125-0.708
		l-2.471-3.041l-0.237,0.056l-0.458-0.486l-1.222,0.278l-1.75-1.722l-0.264-1.126l0.264-0.473l0.778-0.626l3.917-0.277l0.485-0.625
		l-0.278-1.111l-0.708-1.015l-0.569-1.346l-0.305-1.306l-0.223-3.153l-1.75-2.278l-0.041-0.93l0.249-0.667l1.513-0.807l0.584,0.264
		l1.181,0.139l0.64-0.152l0.624-0.598l0.348-0.542l0.028-0.888l-0.682-1.654l-0.666-0.779l-1.375-0.833l-2.43-0.333l-0.806-0.333
		l-1.139-0.986l-1.153-1.556l-0.945-1.889l-0.875-0.778l-2.736-0.89l-1.444-1.166l-0.431,0.764l-0.639,1.986l-0.5,0.486l-0.694,0.014
		l-2.5-0.764l-0.945-0.486l-0.639,0.027l-0.75-0.292l-2.735-0.056l-2.181,0.515h-2.097l-1.861,0.221l-10.292,0.14l-0.792-0.626
		l-1.014-1.944l-0.903-0.416l-1.222-1.473l-5.611-5.597l-0.056-0.555l0.639-1.723l-0.153-1.708l-4.736-6.181l-0.652-0.638
		l-1.542-0.917l-0.556-0.083l-1.513,0.417l-1.334,1.069l-0.792,0.333l-3.611-0.236l-0.972-0.305l-2.196-1.194l-3.152-0.918
		l-0.93-0.444l-2.404-2.084l-5.82-6.388l-6.681-7.43l-4.278-5.417l-0.667-0.598l-0.041,1.181l-0.431,1.639l0.139,0.763l1.236,1.238
		l0.056,0.402l-0.236,0.721l-0.472,0.305l-0.583-0.014l-0.765-0.43h-0.875l-0.708,0.875v0.236l0.958,0.792l0.361,0.583l-0.583,3.028
		l-0.431,0.681l-0.68,0.416l-1.598-0.514l-3.681,0.694l-1.486,0.083l-1.834-0.889l-1.681-0.333l-1.652-0.791l-2.069-0.57
		l-4.027-0.833l-1.25,0.042l-1.972,0.791l-1.445,0.833l-3.235,2.694l-0.861,0.083l-0.57,0.487l-0.25,0.958l0.444,1.055l2.583,1.876
		l3.292,1.847l1.375,0.528l1.875,0.347l0.625,0.749l3.708,8.612l1.805,2.847l0.792,0.944l0.264,1.305l-0.056,1.681l0.611,0.555
		l0.735-0.18l4.376,2.75l1.333,1.098l0.181,0.986l-0.709,1.445l-0.513,0.36l-0.598,0.028l-2.93-0.694l-2.597,0.527l-0.264-0.931
		l0.167-2.807l-0.153-1.458l-1.125-3.972l-0.987-1.861l-1.236-1.374l-1.735-1.167l-6.737-1.737l-1.111,0.069l-3.028,1.569
		l-1.805,0.668l-0.264-0.139l-0.264-1l-1.278-0.902l-0.402-0.514l-0.375-1.668l-1.181-1.041l-1.333-0.249l-1.987,0.43l-1.375,0.945
		l-0.736-0.015l-0.375,0.403l-0.555,2.541l-0.402,1.043l-0.444-0.181l-1.027-1.194L174,318.283l-0.93,0.306l-0.305,0.542l-0.39,2.153
		l0.473,1.084l1.236,1.138l0.611,1.001l0.458,1.5l-0.028,0.75l-0.514,1.459l0.042,1.958l-0.334,1.542l0.167,2.154l-0.278,2.235
		l-0.25,0.833l-0.472,0.542l-0.653,0.222l-1.181-0.042l-2.305-0.958l-0.612,0.138l-0.389,0.722l-0.472,1.667l0.972,1.667l0.611,1.528
		l-0.264,0.583l-1.208,0.167l-4.25-0.721l-3.598,1.236l-2.458,1.292l-1.028,0.25l-0.833-0.028l-2.25-1.376l-2.597-0.514l-3.181-0.25
		l-7.181,0.39l-2.723,1.013l-3.5,1.722l-3.042,2.223l-1.75,1.514l-1.556,2.236l-0.57,1.208l-0.944,2.208l-1.486,4.625l-0.847,1.181
		l-1.569,1.528l-0.986,0.597l-1.903,0.707l-3,0.89l-1.014,0.611l-1.194,1.097l-1.278,2.667l-0.43,2.833l-0.625,2.542l0.069,3.82
		l0.417,3.722l-0.194,3.792l0.777,3.292l0.556,1.375l0.528,0.694l-0.028,0.333l0.5,0.223l0.737,1.431l0.333,1.598l0.125,1.111
		l-0.278,1.694v3.25l0.583,4.361l0.417,1.376l0.528,0.999l2.569,3.668l1.264,0.027l2.708-0.834l0.597,0.555l0.056,0.723l-0.444,0.985
		l-0.556,0.557l-0.736,0.457l-2.75,0.959l-1.166,1.097l-0.639,1.223l-0.056,2.084l-0.444,0.93l-0.681,0.751l-0.764,0.401h-1.833
		l-2.5-0.611l-5.5-0.473l-5.764-0.82l-9.376-0.582l-5.236-0.112l-8.167-0.944l-4.848-0.36l-2.61,0.013l-7.195-0.652l-13.083-0.542
		L50,93.416l2.111-0.541l1.986-0.875l41.861-13.681l0.027-0.181l2.319-0.402l0.473-0.485l1.403-0.473l18.25-5.833l60.641-18.75
		l9.236-3.083l3.083-0.639L215.088,41.471z"/>
	<path id="UZ-SA" title="Samarqand" class="land" d="M789.839,583.846l-0.153,0.416l-2.223-0.432l-1.348,0.292l-4.624,1.597l-0.32,0.403v0.263l0,0l-1.389,0.321
		l-2.293-0.444l-5.332-1.653l-3.556-1.513l-6.195-1.765l-1.223,0.068l-0.596,0.668l0.097,2.473l-0.154,0.484l-0.583,0.667
		l-1.139,0.291l-5.39,0.334l-2.624-0.208l-1.291-0.737l-0.459-0.667l-0.084-0.806l0.64-2.36l0.152-1.751l-0.681-1.833l-0.875-0.93
		l-11.902-2.126l-1.653,0.083l-1.126,0.391l-1.153,1.318l-1.526,2.473l-1.139,1.333l-5.058,2.165l-0.414,0.015l-0.961-0.459
		l-2.276-1.596l-2.291-2.001l-1.626-1.043l-0.875-0.222l-10.485,2.597l-4.542,2.319l-3.07,1.919l-2.123,0.055l-4.278-1.083
		l-1.001-0.347l-0.306-0.291l-0.125-2.069l-3.848-6.46l-4.582-5.292l-5.986-1.222l-0.057,0.458l-0.264,0.376l-1.985,1.485
		l-1.819,0.764l-2.069,0.249l-24.376-0.735l-0.96-0.223l0,0l-2.944-5.277l-1.125-2.514l-0.235-1.126l0.056-0.874l1.625-3.252
		l0.707-2.027l0.236-1.348l-1.875-7.249l-1.306-2.014l-1.348-1.125l-2.056-2.126l-0.459-1.069l0.111-0.514l0.694-0.487l12.016-4.055
		l1.389,0.68l3.957,1.223l0.82-0.014l0.723-0.416l0.986-1.792l2.54-7.694l0.585-8.057l-0.07-1.349l0.224-0.972l0.484-0.791
		l0.723-0.389l1.403,0.235l7.61,2.876l1.39,2.152l0.638,1.445l2.902,1.583l7.475,3.193l1.693,0.278l12.376-2.68l2.265-1.056
		l4.848-4.568l0.596-0.861l0.193-1.557l-0.248-0.624l-1.14-0.098l-1.986,1.279l-1.109-0.139l-0.278-1.36l3.193-8.431l1.194-1.861
		l1.223-8.5l0.236-3.153l-0.515-1l-0.749-0.277l-0.348-0.486l0.819-6.819l2.986-6.5l1.265-1.5l1.542-0.265l1.653,0.125l1.431,2.155
		l1.444,1.096l2.541,0.348l1.918-0.153l3.263-1.792l2.932-2.665l0.806,0.373l1.348,1.556l2.582,3.694l1.751,4.819l0,0l10.819,1.279
		l6.402,0.139l1.333,3.027l0.016,1.529l-1.153,2.541l-0.195,1.069l0.14,5.457l1.165,5.695l2.584,2.307l1.999,3.902l-0.096,1.125
		l-0.626,1.862l-0.332,0.222l-1.723,0.401l-0.138,0.487l0.485,5.152l8.097,5.458l2.945,1.111l6.68,0.555l16.486,3.515l0.292,0.332
		l1.485,8.277l0.112,1.418l-1.807,0.209l-2.14,0.527l-2.998,1.431l-0.959,0.749l-1.056,1.264l-4.473,7.279l-0.14,0.514l0.029,5.779
		l0.291,1.317l0.901,1.335l1.432,1.457l6.293,5.306l0,0l3.097,6.486l1.152,3.195l1.306,2.707l0.292,1.126L789.839,583.846z"/>
	<path id="UZ-SI" title="Sirdaryo" class="land" d="M877.633,510.178l-2.237,1.346l-1.791,0.459l-3.318-0.932l-1.361,0.61l-7.556,2.418l0,0l1.402-8.903
		l-0.431-0.943l-9.903,2.277l-3.168,1.096l-5.583,1.14l-6.348,0.236l-9.097-0.432l-0.444-0.068l-0.917-1.348l-0.472-1.251
		l-0.209-1.333l0.278-2.11l6.876-15.334l1.068-2.777l0.209-1.07l-0.223-0.277l-0.459,0.139l-2.93,1.417l-0.222-0.376l0.667-6.79
		l2.917-0.75l2.583,0.138l0.473-0.849l0.236-3.944l0,0l5.069,4.32l2.625-0.695l2.652,2.182l-0.749,1.584l6.765,1.985l1.125-1.556
		l3.334,0.251l5.985-2.403l-1.166-2.903l-3.349-1.791l-1.568-4.569l-4.555-6.293l1.207-10.347l-1.389-3.514l1.194-1.249l-1.222-1.931
		l-5.028-0.32l-0.014-1.806l6.833,0.431l0.443,0.834l3.278-2.042l-0.027,0.333l0.431,0.124l0.278,1.667l0.931,0.348l1.11-0.515
		l1.308,0.292l0.514,0.527l-0.195,0.458l-2,0.765l-0.264,0.485l-0.042,0.778l0.749,1.471l0.556-0.457l0,0l6.752,7.666l4.818,4.819
		l6.833,6.168l6.542,5.431l0.86,0.11l4.21,5.876l-0.695,6.528l-1.195,7.389l-1.401,6.889l0.026,1.473l0.195,0.861l0.694,1.459
		l-0.348,6.568l0,0l-1.542-0.486l-3.571-0.026l-4.665,0.485L877.633,510.178z"/>
	<path id="UZ-SU" title="Surxondaryo" class="land" d="M845.882,679.167l-1.433,4.903l-0.193,1.708l-3.195,3.361l-2.277,4.305l0.098,2.181l-0.653,1.543l0.126,1.097
		l-0.485,1.236l-3.473,1.624l-5.626,0.975l-1.125,1.998l-4.39,9.376l-1.598,2.307l-1.902,1.36l-3.18,4.125l-1.46,3.376l-1.763,3.376
		l-2.208,2.124l-1.654,5.39l-0.068,3.555l0.361,5.57l-0.778,9.25l-0.986,3.375l-0.944,0.612l-0.819-1.543l-2.083-1.666l-1.027-0.306
		l-1.917,0.209l-0.585-0.084l-1.193-1.056l-1.389-0.818l-0.85,0.125l-1.9,0.764l-0.933,0.749l-0.54,0.694l-0.974,0.126l-0.583-0.901
		l-0.584-1.903l-1.027-0.999l-1.14-0.557l-0.931,0.194l-0.792,0.528l-2.597,2.388l-1.876,0.64l-1.596,0.943l-1.751,0.153
		l-2.556,0.652l-1.332,1.432l-2.084,0.874l-0.75-0.277l-1.193-1.069l-0.237-2.126l-0.389-0.679l-1.07-0.516l-0.516-1.208
		l-0.374-0.374l-1.346-0.527l-0.625-0.472l-0.974,0.207l-0.638-0.167l-2.112-1.18l-0.64-0.986l0.501-2.125l-0.443-1.166l-2.404-1.196
		l-1.89-1.956l-0.596-0.363l-2.681-1l-2.611,0.181l-4.974,2.208l-2.193-0.263l-1.14,0.097l-3.098,1.055l-2.708-0.68l-1.319,0.013
		l-1.529,0.515l-2.221-0.515l-2.014,0.321l-1.625-0.168l-2.486,0.097l-1.818,0.75l-0.556-2.793l0.235-0.916l0.6-0.859l1.193-0.877
		l1.568-0.805l4.221-1.265l0.42-1.014l0.013-1.043l-0.596-1.527l-6.335-7.694l-0.36-2.069l0.777-7.808l-0.402-2.124v-0.832
		l0.626-4.32l1.027-2.487l1.013-1.554l1.071-1.057l0.749-1.764l0.778-1.013l3.166-1.849l0.597-0.555l0.334-1.152l-0.042-1.236
		l-0.751-1.459l0,0l-0.374-1.25l1.445-5.932l0.596-1.735l16.085-16.806l4.915-2.572l2.543-1.775l3.36-3.377l0.625-1.206l0.516-1.944
		l0.222-2.112l1-4.653l12.347-12.333l1.655-3.083l1.124-1.807l0.819-0.889l0.626-0.473l1.583-0.458l1.987,0.098l1.39,0.442
		l1.958,1.987l0.75,0.249l1.86-5.973l-0.18-5.833l-0.209-0.721l-0.528-0.642l-1.416-2.915l-0.751-4.361l0.084-0.557l0.626-1.165
		l0.931-0.792l0.708-0.348l1.194-0.361l5.543-0.319l1.36-0.806l1.11-1.14l0,0l0.543,0.737l0.943,0.402l1.264-0.444l0.861,0.334
		l1.444-1.001l2.848-0.264l1.874,1.14l2.041,0.193l1.46-1.875l2.847-0.097l1.444-0.764l0.626,0.015l1.541,1.611l1.417,0.347
		l2.556-1.375l1.737,0.193l1.723,1.14l1.206,2.556l0.432,1.431l3.735,2.918l0.127,1.11l-0.195,1.723l-0.485,0.305l0.416,3
		l-1.749,0.903l-0.82,1.251l-1.432,0.441l-3.472,0.558l-0.485,0.776l3.513,5.111l-0.499,0.932l-2.21,0.263l-1.763,1.695l0.583,2.055
		l1.208,2.695l-0.014,0.624l-0.652,0.78l-0.458,7.374l3.36,4.457l1.39,1.127l-0.515,1.556l-1.292,2.012l-0.348,1.404l0.626,0.015
		l2.057-0.903l0.637,0.015l2.319,1.305l1.959,3.335l0.292,1.098l0.111,1.888l0.305,0.32l1.861,0.667l2.013,0.985l1.391,0.959
		l2.734,3.515l0.029,0.528l0.999,1.832l1.514,2.069l-0.014,1.098L845.882,679.167z"/>
	<path id="UZ-TK" title="Toshkent City" class="land" d="M909.313,411.133l0.069-0.792l-0.125-0.193h-0.334l-0.416,0.347l-0.18,0.514l-1.042,0.321l-0.986,1.042
		l-0.973-0.098l-0.501,0.916l-0.763-0.374l-0.791,0.152l-2.224-1.166l-0.277,0.027l-0.361,0.473l-1.14,0.514l-1.43-0.291l-0.153-0.25
		h-0.194l-1.667,1.834l-0.138,1.181l-0.626,1.736l-0.195,1.209l-0.165,2.027l0.124,0.473l1.292,0.306l0.403,0.29l0.458-0.248
		l0.666,0.347l0.444,1.167l0.222,0.068l0.501-0.319l0.236,0.348l0.958,0.18l0.791-0.083l0.015-0.667l1.5-1.208l1.514,0.125l1,0.32
		l-0.222,0.568l0.598,1.306l0.514,0.347l0.874-0.124l1.459-1.459l0.527-1.208l-0.096-1.64l-0.529-1.013l-0.401-0.375l0.666-1.055
		l0.473-0.348l-0.181-0.473l0.069-0.667l0.403-0.944l0.208-0.167l0.557,0.068l-0.128-0.915l0.391-0.375l0.167-0.667l-0.153-0.445
		l-0.333-0.193L909.313,411.133z"/>
	<path id="UZ-TO" title="Toshkent" class="land" d="M1029.872,341.186l-0.209-0.527l-0.902-0.708l-1.097-0.527l-4.626-4.167l-1.304-0.75l-2.431-0.29l-1.695-0.974
		l-0.64-0.027l-1.193,0.292l-1.585,0.694l-1.737,1.611l-0.943,0.043l-1.306-0.474l-0.584,0.057l-2.458,3.111l-1.418,0.958
		l-1.333,0.598l-1.639,1.235l-0.973,0.027l-1.472-1.402l-0.723,0.222l-0.807,0.778l-0.93,1.015l-1.166,1.917l-1.139,0.917
		l-0.765,1.25l-1.36,1.083l-1.041,1.514l-0.21,1.75l-1.264,2.5l-1.527,4.153l0.068,0.278l-0.304,0.667l-1.029,0.361l-0.584-0.028
		l-1.708-1.569l-1.042-0.291l-0.208-0.875l0.152-2.235l-0.765-1.265l-3.527-1.929l-3.735-3.292l-0.516-0.221l-0.958,0.194
		l-0.515,0.639l-0.416,2.944l-0.306,0.515l-1.347,1.208l-0.416,0.958l-2.195,1.334l-0.432,0.694l0.18,1.625l0.474,1.93l-0.11,1.5
		l-1.445,1.028l-1.332,0.43l-0.681,0.765l-0.751-0.027l-1.611,0.764l-1.235,1.805l-1.486,1.251l-0.611,1.053l-1.027,2.792
		l-0.819,1.402l-4.433,2.223l-1.859,1.333l-1.015,2.973l-0.442,0.416l-0.458,0.167l-0.503-0.167l-0.221-0.403l0.068-0.778
		l-0.526-0.931l-0.543-0.097l-0.942,0.278l-0.363,0.431l-2.291,5.542l-4.069,1.666l-1.666-1.443l-1.027-0.46h-0.695l-2.319,1.459
		l-2.833,0.458l-0.348-0.18l-1.166,0.18l-0.432,0.278l-0.278,0.611l-0.735,0.736l-0.945,0.458l-3.804,0.902l-0.724,0.319
		l-1.694,1.584l-0.402,0.708l-1.318,0.986l-1.806,1.93l-0.556,0.749l-0.695,2.167l-0.319,0.389l-1.028,0.527l-1.694,0.486
		l-0.527-0.084l-0.459,0.167l-2.333,1.986l-0.932,1.527l0.029,0.723l0.458,0.749l1.624,1.056l-0.473,1.403l-0.568,0.291l-3.071-0.485
		l-0.736,0.319l-1.153,0.056l-1.818,0.486l-0.654-0.028l-1.389-0.806l-0.778-0.194l-1.527,0.181l-0.5-0.166l-2.082,0.443
		l-1.598,0.957l-0.89,2.641l-0.611,0.695l-3.096,1.748l-1.584,3.945l-0.918,0.639l-0.709-0.083l-0.818-0.806l-0.402-0.167
		l-0.708,0.223l-2.749,4.263l-0.266,3.764l-0.32,0.515l-1.93,1.625l-0.416,2.499l-0.291,0.195l-1.181-0.209l-0.944,0.64l-0.9,1.194
		l-1.96,1.902l-2.126,2.806l-1.027,1.598l-0.666,1.527l-2.307,2.902l-1,2.319l-0.209,2.099l-0.236,0.485l-1.847,1.68l-2.543,1
		l-1.444,1.196l0,0l6.751,7.666l4.819,4.821l6.834,6.166l6.541,5.43l0.861,0.112l4.209,5.874l-0.695,6.528l-1.194,7.389l-1.402,6.891
		l0.014,1.471l0.195,0.861l0.695,1.473l-0.349,6.568l0,0l3.542,0.307l0.89-0.07l1.457,0.515l1.513-0.125l1.071-0.348l1.807,0.432
		l2.722,0.055l1.555,0.861l0.668-0.556l-1.167-2.943l-0.567-0.584l-1.92-0.376l-0.567-0.583l0.331-1.18l-0.485-0.806l0.25-0.861
		l2.431,0.333l1.153-0.084l1.569-1.485l0.015-1.264l0.459-0.764l-0.029-1.681l-1.443-1.152l-0.583-0.695l0.014-1.153l-0.403-1.126
		l-0.554-0.485l0.333-1.18l-0.654-0.266l-0.847-2.875l-0.582-0.694l0.013-1.153l0.485-0.567l0.056-1.058l-0.917-0.789l-1.86-2.571
		l-0.096-0.459l0.375-0.889l2.166-1.458l2.528-0.334l1.207,0.236l0.416-0.11l0.362-0.374l-0.041-0.251l0.554-1.041l0.669-0.32
		l0.36-1.765l-0.776-1.706l-0.475-1.57l0.292-4.875l0.084-0.444l0.458-0.543l0.277-1.318l2.556-3.599l2.277-0.276l0.917,0.458
		l3.515,0.972l1.68,0.21l1.042,1.028l1.18,2.375l0.348,1.652l0.764,1.084l1.751,1.249l1.014,1.224l0.958,0.151l0.555,0.291
		l0.695,1.807l0.417,0.568l0.915,0.211l2.251-0.154l1.292-0.82l1.943-4.193l0.626-0.556l0.985-0.291l1.986,0.57l0.418-0.043
		l1.305-1.402l1.543-0.917l0.596-0.014l2.209,1.36l0.291,0.016l1.641-1.557l1.054-0.681l2.82-0.402l1.152-0.5l1.472-1.249
		l1.986-0.778l3.304-3.223l0.433-0.611l0.39-1.208l0.679-0.82l0.821-0.152l1.43,0.569l1.585,0.25l2.028-1.306l1.222-0.542
		l0.999-1.418l2.279-1.374l1.666-0.042l0.945-0.319l0.514-0.501l0.707-1.401l0.015-0.501l-0.403-1.291l0.21-1l0.943-1.139
		l0.043-1.057l0.415-0.735l-0.39-1.776l0.154-0.64l0.527-0.389l0.556-1.306l0.764-0.833l1.806-0.723l1.431,0.348l0,0l-0.277-0.584
		l0.209-1.222l-0.042-2.431l-0.334-3.237l-0.916-1.859l-2.654-3.641l-0.931-10.139l4.126-5.709l0.944-2.681l0,0l-0.681-1.403
		l-0.667-0.778l-1.181-0.777l-1.682-2.014l-1.624-0.166l-0.694-0.723l-0.875-2.042l-0.556-0.375l-1.818-0.778l-1.486-0.25
		l-1.347,0.083l-0.723,0.388l-1.139,0.14l-1.306-0.333l-1.737,0.125l-0.875-0.514l-0.223-0.515l-0.235-1.723l0.11-2.735l0.39-1.028
		l0.569-0.807l1.764-0.749l0.959-0.168l1.778,0.153l2.305-2.139l1.808,0.069l1.18-0.554l2.096-2.029l0.807-1.25l0.417-0.32
		l2.875-1.569l0.749-0.221l2.307-1.57l0.931-1.861l0.126-3.07l0.333-0.68l0.861-0.82l1.721-0.778l3.014-2.113l0.459-1.68l1.555-1.111
		l0.516-0.584l1.027-2.125l1.458-1.5l1.654-0.791l0.901-0.068l1.223,0.443l0.569-0.014l0.236-0.265l0.235-1.139l0.307-0.277
		l0.943,0.638l1.445,0.5l1.222,0.014l0.597-0.209l1.237-1.25l0.417-0.708l0.221-2.528l-1.264-2.195l0.474-1.25l0.902-0.917
		l0.165-1.015l0.238-0.401l0.833-0.403h1.11l2.597,1.444l1.126,0.278h1.069l1.458-0.722l1.792-1.527l0.944-0.417l2.445-2.514
		l1.124-0.431l3.724-3.557l1.5-0.568l1.139-0.042l1.766,0.431l0.554-0.861l0.973-0.749l0.626-0.249l0.278-0.39l0.138-2.181
		L1029.872,341.186z"/>
	<path id="UZ-XO" title="Xorazm" class="land" d="M442.079,474.801l-1.75-3.972l-0.723-1.042l-0.958-0.848l-0.416-1.125l-0.223-3.848l-0.639-1.028l-0.361-1.431
		l-1.695-2.833l-0.125-1.695l0.222-1.639l-0.097-2.75l-0.208-0.667l-0.348-3.958l0.319-2.251l-0.305-0.555l-0.708-0.291l-0.25-1
		l0.027-0.89l-0.402-1.125l-1.027-1.306l-2.042-1.085l-0.792-0.151l-0.625-0.361l-0.416-0.778l0.264-1.307l-0.514-1.458l-0.653-1.209
		l-1.694-1.013l-2.612-2.75l-1.57-0.472l-2.069-1.403l-2.82-3.347l-0.666-0.417l-1.764-0.181l-0.917-0.32l-0.681-0.472l-0.569-0.527
		l-0.39-1.32l-0.528-0.999l-1.181-0.89l-0.652-0.015l-1.806,0.792l-2.458-0.194l-1.027-0.307l-2.236-1.248l-2.445-0.403l-0.722,0.056
		l-0.653,0.432l-1.14,2.042l0.083,3.682l-0.624,1.11l-0.39,2.181l-0.598,1.265l-0.486,0.541l-0.681,0.459l-1.458,0.222l-0.208,0.194
		l-2.32,0.264l-0.458-0.139l-1.833,0.07l-0.277-0.181l-0.39,0.139l-0.972-0.223l-4.305-2.055l-2.959-3.098l-0.472-0.209l-2.792,0.249
		l-1.833-2.166l-6.819-0.306l-0.584,0.291l-1.443-0.096l-3.029,0.443l-3.583-0.167l-2.334,0.431l-5.458,0.015l-6.612,0.416
		l-1.222-0.068l-3.611,0.596l-1.319-0.083l-1-0.333l-4.5-2.693l-4.042-3.611l-8.486-5.791l-4.68-2.682l-1.611-1.443l-0.792-1.723
		l-0.027-0.959l0.223-1.096l0.055-4.154l0.39-2.583l0.527-1.125l2.973-2.778l0.348-0.848v-1.624l-0.375-1.237l-1.569-2.806
		l-1.598-2.125l-2.569-4.014l-0.528-2.083l0.722-1.723l0.778-3.124l0.334-0.196l0.431,0.027l1.25,0.682l1.389-0.028l2.75,1
		l1.542,0.736l1.778,1.458l1.653-0.041l1.083,0.875l1.139,0.375l0.361-0.555l1.014,0.014l0.362-0.221l0.041-0.611l-0.722-0.973
		l-1.569-1.236l-1.611-1.833l-1.736-0.792l-2.292-0.513l-1.931-1.208l-1.055-1.181l-0.431-1l0,0l3.708-7.263l2.639-1.181l5.917-1.931
		l7.333,1.556l0.542,0.666l0.223,0.806l0.055,3.667l0.57,3.404l4.278,7.486l0.527,0.652l0.917,0.902l0.972,0.431l7.181,6.708
		l4.653,5.417l2.181,2.098l11.431,10.153l8.277,6.306l1.959,0.806l2.999,0.501l1.029,0.401l0.986,0.848l2.791,3.152l0.515,1.208
		l0.362,1.61l3.125,2h2.069l1-1.054l0.708-2.612l1.625-3.193l1.083-1.222l1.93-1.07l0.861-0.277l4.222,0.014l12.432,2.86l4.889,2.583
		l4.278,2.654l11.112,12.236l2.084,3.848l6.333,10.291l0.375,0.306l0.903,0.265l3.542-1.695l0,0l4.5,4.625l8.208,9.278l0.945,1.598
		l-0.042,2.139l-1.098,5.278l-6.375,7.125l-8.722,10.569l0,0L442.079,474.801z"/>
</svg>
